<svg width="30" height="30" viewBox="0 0 30 30" fill="none" xmlns="http://www.w3.org/2000/svg">
<path d="M15.08 20.5586L15 20.6458L14.912 20.5586C11.112 16.8005 8.6 14.3155 8.6 11.7956C8.6 10.0518 9.8 8.74387 11.4 8.74387C12.632 8.74387 13.832 9.6158 14.256 10.8016H15.744C16.168 9.6158 17.368 8.74387 18.6 8.74387C20.2 8.74387 21.4 10.0518 21.4 11.7956C21.4 14.3155 18.888 16.8005 15.08 20.5586ZM18.6 7C17.208 7 15.872 7.70627 15 8.81362C14.128 7.70627 12.792 7 11.4 7C8.936 7 7 9.10136 7 11.7956C7 15.0828 9.72 17.7771 13.84 21.849L15 23L16.16 21.849C20.28 17.7771 23 15.0828 23 11.7956C23 9.10136 21.064 7 18.6 7Z" fill="#212121"/>
</svg>
