<svg width="16" height="16" viewBox="0 0 16 16" fill="none" xmlns="http://www.w3.org/2000/svg">
<path d="M12.3421 10.6167
C12.9703 10.6167 13.5727 10.8739 14.0168 11.3318
C14.461 11.7897 14.7105 12.4108 14.7105 13.0583
C14.7105 13.7059 14.461 14.3269 14.0168 14.7849
C13.5727 15.2428 12.9703 15.5 12.3421 15.5
C11.3079 15.5 10.4316 14.8245 10.1079 13.8722
H9.18421
V12.2444
H10.1079
C10.4316 11.2922 11.3079 10.6167 12.3421 10.6167
ZM12.3421 12.2444
C12.1327 12.2444 11.9319 12.3302 11.7839 12.4828
C11.6358 12.6355 11.5526 12.8425 11.5526 13.0583
C11.5526 13.2742 11.6358 13.4812 11.7839 13.6338
C11.9319 13.7865 12.1327 13.8722 12.3421 13.8722
C12.5515 13.8722 12.7523 13.7865 12.9003 13.6338
C13.0484 13.4812 13.1316 13.2742 13.1316 13.0583
C13.1316 12.8425 13.0484 12.6355 12.9003 12.4828
C12.7523 12.3302 12.5515 12.2444 12.3421 12.2444
ZM12.3421 4.91943C12.6415 4.91943 12.9287 4.7968 13.1404 4.57854
C13.3521 4.36027 13.4711 4.06424 13.4711 3.75556
C13.4711 3.11259 12.9658 2.5917 12.3421 2.5917
C11.7184 2.5917 11.2132 3.11259 11.2132 3.75556
C11.2132 4.06424 11.3321 4.36027 11.5438 4.57854C11.7555 4.7968 12.0427 4.91943 12.3421 4.91943ZM12.3421 0.5C13.1796 0.5 13.9829 0.842996 14.5751 1.45353C15.1673 2.06407 15.5 2.89213 15.5 3.75556C15.5 6.18909 12.3421 9.80277 12.3421 9.80277C12.3421 9.80277 9.18421 6.18909 9.18421 3.75556C9.18421 2.89213 9.51692 2.06407 10.1091 1.45353C10.7014 0.842996 11.5046 0.5 12.3421 0.5ZM5.10263 12.2444H6.02632V13.8722H5.10263C4.77895 14.8245 3.90263 15.5 2.86842 15.5C2.24028 15.5 1.63786 15.2428 1.19369 14.7849C0.749529 14.3269 0.5 13.7059 0.5 13.0583C0.5 11.9921 1.15526 11.0887 2.07895 10.755V9.80277H3.65789V10.755C4.32895 10.9992 4.86579 11.5526 5.10263 12.2444ZM2.86842 12.2444C2.65904 12.2444 2.45823 12.3302 2.31018 12.4828C2.16212 12.6355 2.07895 12.8425 2.07895 13.0583C2.07895 13.2742 2.16212 13.4812 2.31018 13.6338C2.45823 13.7865 2.65904 13.8722 2.86842 13.8722C3.0778 13.8722 3.27861 13.7865 3.42666 13.6338C3.57472 13.4812 3.65789 13.2742 3.65789 13.0583C3.65789 12.8425 3.57472 12.6355 3.42666 12.4828C3.27861 12.3302 3.0778 12.2444 2.86842 12.2444ZM2.86842 0.849973C3.49657 0.849973 4.09898 1.10722 4.54315 1.56512C4.98731 2.02302 5.23684 2.64407 5.23684 3.29164C5.23684 4.35784 4.58158 5.26126 3.65789 5.59495V6.54721H2.07895V5.59495C1.15526 5.26126 0.5 4.35784 0.5 3.29164C0.5 2.64407 0.749529 2.02302 1.19369 1.56512C1.63786 1.10722 2.24028 0.849973 2.86842 0.849973ZM2.86842 2.47775C2.65904 2.47775 2.45823 2.5635 2.31018 2.71614C2.16212 2.86877 2.07895 3.07579 2.07895 3.29164C2.07895 3.5075 2.16212 3.71452 2.31018 3.86715C2.45823 4.01979 2.65904 4.10553 2.86842 4.10553C3.0778 4.10553 3.27861 4.01979 3.42666 3.86715C3.57472 3.71452 3.65789 3.5075 3.65789 3.29164C3.65789 3.07579 3.57472 2.86877 3.42666 2.71614C3.27861 2.5635 3.0778 2.47775 2.86842 2.47775ZM6.81579 13.8722V12.2444H8.39474V13.8722H6.81579ZM3.65789 8.98888H2.07895V7.3611H3.65789V8.98888Z" fill="white"/>
</svg>
