<svg width="334" height="181" viewBox="0 0 334 181" fill="none" xmlns="http://www.w3.org/2000/svg">
<path opacity="0.7" d="M167 180.681C97.9644 180.681 42 177.397 42 173.346C42 169.295 97.9644 166.011 167 166.011C236.036 166.011 292 169.295 292 173.346C292 177.397 236.036 180.681 167 180.681Z" fill="#999999" fill-opacity="0.6"/>
<path d="M274.153 149.538H219.906C219.906 149.538 225.846 124.117 247.03 124.117C268.213 124.117 273.225 143.859 274.153 149.538Z" fill="#211F96"/>
<path opacity="0.2" d="M274.153 149.538H219.906C219.906 149.538 225.846 124.117 247.03 124.117C268.213 124.117 273.225 143.859 274.153 149.538Z" fill="#211F96"/>
<path d="M116.707 152.282H62.46C62.46 152.282 68.4001 126.861 89.5835 126.861C110.767 126.861 115.779 146.603 116.707 152.282Z" fill="#211F96"/>
<path opacity="0.2" d="M116.707 152.282H62.46C62.46 152.282 68.4001 126.861 89.5835 126.861C110.767 126.861 115.779 146.603 116.707 152.282Z" fill="#211F96"/>
<path d="M286.554 103.165C287.717 105.021 289.759 125.437 289.879 126.165C289.999 126.894 291.691 129.999 291.719 130.601C291.746 131.204 292.166 140.398 291.926 141.006C291.38 142.092 290.756 143.137 290.059 144.133C289.759 144.489 282.071 151.132 281.214 151.22C280.357 151.307 272.397 151.368 272.25 151.22C272.102 151.072 271.158 126.51 247.053 126.51C222.949 126.51 223.189 152.589 222.747 152.676C222.305 152.764 114.297 155.239 114.297 155.239C114.297 151.247 113.985 127.491 90.3178 127.491C74.8998 127.491 67.1089 140.24 66.8414 149.643C66.7322 153.553 67.3873 157.857 67.169 157.857C66.4537 157.857 64.0242 158.038 63.6038 157.857C63.1834 157.676 58.1442 154.347 57.7292 154.226C57.3143 154.106 54.4043 154.046 53.6946 153.87C52.9848 153.695 47.9947 149.314 47.9073 149.133C47.82 148.953 47.6671 147.227 47.6398 147.08C47.6125 146.932 42.5623 140.738 42.3276 140.053C42.0928 139.369 42 133.712 42 133.148C42 132.584 51.1722 117.661 53.3178 116.018C55.4635 114.375 70.6795 109.052 75.1564 108.247C79.6333 107.442 104.093 103.784 104.982 103.154C105.872 102.524 147.66 78.5101 154.933 76.7194C160.807 75.29 228.834 77.267 232.394 77.4368C235.954 77.6065 245.809 79.3973 246.759 79.3973C247.708 79.3973 258.633 79.3426 259.283 79.6383C259.933 79.934 259.283 82.5572 258.453 83.0336C257.623 83.51 284.539 99.9501 286.554 103.165Z" fill="#211F96"/>
<path d="M284.99 101.62C284.734 101.856 280.481 101.96 280.033 101.785C279.585 101.609 252.8 83.7126 252.779 83.2088C252.779 82.946 257.801 83.0117 258.413 83.0445C259.024 83.0774 285.482 101.171 284.99 101.62Z" fill="#455A64"/>
<path d="M255.158 101.336C253.995 104.775 113.283 111.193 112.514 109.55C111.94 108.313 124.525 98.1758 130.41 94.8735C136.296 91.5713 153.117 81.9986 161.416 81.0183C169.714 80.0381 186.475 80.1202 201.107 80.4214C215.619 80.6898 232.713 81.0457 238.779 83.636C244.08 85.8978 256.08 98.6029 255.158 101.336Z" fill="#263238"/>
<path d="M251.243 99.3256C250.888 100.618 219.818 103.97 183.396 105.667C146.975 107.365 128.996 107.633 128.554 107.452C128.112 107.272 129.799 97.5403 130.421 96.7353C131.044 95.9303 157.135 82.5351 161.23 82.1791C165.325 81.8231 187.437 81.7793 198.623 81.9546C209.81 82.1298 233.079 83.477 237.043 85.0816C240.526 86.4945 251.604 98.0332 251.243 99.3256Z" fill="#455A64"/>
<g opacity="0.1">
<path d="M203.028 82.064L223.884 102.989C227.608 102.661 231.047 102.332 234.143 102.014L214.799 82.6116C210.677 82.3652 206.566 82.179 203.028 82.064Z" fill="white"/>
<path d="M128.623 105.388L130.73 107.502C132.843 107.502 136.507 107.431 141.742 107.288L130.889 96.4066C130.723 96.4991 130.567 96.6092 130.425 96.7352C129.982 97.3102 128.989 102.442 128.623 105.388Z" fill="white"/>
<path d="M187.487 81.8669L209.664 104.117C211.444 103.991 213.191 103.865 214.895 103.729L193.1 81.8943C191.336 81.8779 189.436 81.8669 187.487 81.8669Z" fill="white"/>
<path d="M139.853 91.6147L155.052 106.855L160.457 106.653L143.598 89.7308C142.304 90.377 141.054 91.0068 139.853 91.6147Z" fill="white"/>
<path d="M218.532 82.8472L237.302 101.675L238.733 101.511L220.241 82.9622L218.532 82.8472Z" fill="white"/>
<path d="M136.623 93.2741L150.321 107.02L151.861 106.97L137.666 92.7319L136.623 93.2741Z" fill="white"/>
<path d="M156.308 83.8331L178.311 105.897L179.839 105.837L157.455 83.384C157.089 83.51 156.707 83.6688 156.308 83.8331Z" fill="white"/>
<path d="M233.43 84.282L249.132 100.027C249.678 99.9225 250.093 99.8184 250.42 99.7198L235.363 84.6215C234.806 84.5065 234.162 84.3915 233.43 84.282Z" fill="white"/>
</g>
<path d="M231.748 84.0413C231.601 84.0413 231.535 84.233 231.661 84.589C232.393 86.6152 238.087 98.0882 239.512 100.766C239.601 100.908 239.719 101.029 239.857 101.123C239.995 101.217 240.15 101.282 240.314 101.314L230.28 102.409C230.454 102.337 230.599 102.207 230.69 102.04C230.78 101.874 230.811 101.681 230.776 101.494C230.673 100.859 226.955 87.371 225.781 84.0578C225.649 83.7489 225.411 83.4981 225.109 83.3513C224.913 83.3513 226.824 83.3842 228.636 83.5704C230.214 83.7073 231.748 84.0413 231.748 84.0413Z" fill="#263238"/>
<path d="M218.507 82.8417C218.507 82.8417 218.321 82.9458 218.316 83.3127C218.25 86.4835 217.895 102.376 218.201 103.247C218.239 103.362 218.289 103.433 218.349 103.455L216.449 103.608C216.551 103.469 216.611 103.304 216.623 103.132C216.836 100.443 217.027 85.8811 216.995 83.1867C216.977 83.0215 216.915 82.8642 216.814 82.7322L218.507 82.8417Z" fill="#263238"/>
<path d="M187.323 82.5186C187.099 83.225 186.733 103.969 186.733 104.643C186.733 105.317 187.492 105.47 187.492 105.47L175.732 106.018C175.732 106.018 176.496 105.804 176.627 105.443C176.759 105.081 180.449 82.7157 180.449 82.4419C180.449 82.1681 179.849 81.8943 179.849 81.8943H188.038C187.728 82.0017 187.472 82.2255 187.323 82.5186Z" fill="#263238"/>
<path d="M284.468 106.083C285.91 106.27 289.158 109.654 289.382 110.371C289.606 111.089 290.512 115.908 290.037 116.625C289.562 117.343 287.853 119.123 286.357 119.183C284.861 119.243 277.622 115.787 276.978 115.196C276.334 114.605 275.848 110.974 276.623 109.807C277.398 108.641 282.612 105.848 284.468 106.083Z" fill="#717171"/>
<path d="M277.003 115.196C277.653 115.788 284.898 119.243 286.383 119.183C287.513 119.139 288.785 118.088 289.533 117.272C288.693 117.89 287.676 118.219 286.634 118.208C285.832 118.137 279.051 115.207 278.177 114.408C277.304 113.608 277.271 110.574 277.385 110.027C277.5 109.479 281.879 106.653 281.879 106.653C279.695 107.491 277.167 109.019 276.648 109.802C275.879 110.974 276.354 114.599 277.003 115.196Z" fill="#EBEBEB"/>
<path d="M290.475 133.027C290.874 133.427 291.021 136.45 290.595 136.719C290.17 136.987 287.746 136.954 287.271 136.719C286.796 136.483 285.578 134.216 285.665 133.432C285.753 132.649 290 132.551 290.475 133.027Z" fill="white"/>
<path d="M73.776 116.297C72.4985 118.373 63.0915 122.058 59.581 122.639C57.3698 123 49.699 123.487 49.2513 123.082C48.8036 122.677 52.5271 117.546 54.4161 116.297C56.3052 115.048 65.8814 111.828 68.7968 111.965C71.7123 112.102 75.0645 114.194 73.776 116.297Z" fill="white"/>
<path d="M49.2532 123.082C49.7009 123.487 57.3662 123 59.5828 122.639C63.0988 122.058 72.5058 118.373 73.7779 116.291C75.05 114.21 71.6868 112.102 68.7932 111.965C68.5678 111.952 68.3417 111.952 68.1162 111.965C70.8133 112.962 71.3647 115.076 69.7214 116.281C68.078 117.485 62.8204 120.311 60.7184 120.903C58.6165 121.494 51.1367 122.655 50.487 122.135C50.3608 121.985 50.2693 121.809 50.2192 121.62C50.1692 121.43 50.1618 121.232 50.1977 121.039C49.4934 122.102 49.0839 122.934 49.2532 123.082Z" fill="#EBEBEB"/>
<g opacity="0.5">
<path d="M254.441 115.809C254.432 117.08 254.924 118.303 255.812 119.21C256.486 119.907 257.353 120.385 258.3 120.585C259.248 120.784 260.233 120.696 261.13 120.331C262.027 119.965 262.795 119.34 263.335 118.535C263.876 117.729 264.165 116.78 264.165 115.809C264.165 114.839 263.876 113.89 263.335 113.084C262.795 112.279 262.027 111.653 261.13 111.288C260.233 110.923 259.248 110.835 258.3 111.034C257.353 111.234 256.486 111.712 255.812 112.409C254.924 113.316 254.432 114.539 254.441 115.809ZM254.441 115.809C254.451 114.547 254.959 113.339 255.855 112.452C256.295 112.024 256.814 111.687 257.383 111.461C257.953 111.234 258.561 111.122 259.173 111.131C259.786 111.14 260.391 111.27 260.953 111.514C261.515 111.758 262.024 112.11 262.451 112.551C263.085 113.206 263.515 114.033 263.686 114.93C263.857 115.828 263.763 116.755 263.414 117.599C263.066 118.443 262.479 119.166 261.726 119.679C260.972 120.192 260.085 120.473 259.175 120.486C258.558 120.499 257.944 120.389 257.37 120.163C256.795 119.936 256.271 119.598 255.828 119.166C254.942 118.275 254.443 117.068 254.441 115.809Z" fill="#211F96"/>
<path d="M274.158 130.316C274.644 129.221 275.087 128.126 275.518 127.058C275.949 125.99 276.359 124.867 276.779 123.772C277.199 122.677 277.576 121.582 277.953 120.443C278.33 119.303 278.701 118.208 279.045 117.075C278.559 118.17 278.117 119.265 277.68 120.36C277.243 121.456 276.839 122.551 276.419 123.646C275.998 124.741 275.622 125.837 275.245 126.976C274.868 128.115 274.486 129.161 274.158 130.316Z" fill="#211F96"/>
<path d="M290.847 130.316C288.51 130.272 286.173 130.278 283.836 130.283L276.826 130.36L269.821 130.53C267.485 130.601 265.148 130.683 262.817 130.804C265.153 130.848 267.49 130.848 269.827 130.837L276.837 130.76L283.842 130.596C286.179 130.519 288.515 130.442 290.847 130.316Z" fill="#211F96"/>
<path d="M180.526 107.513L179.724 113.225L179.374 116.089C179.325 116.565 179.27 117.042 179.232 117.529C179.194 118.016 179.232 118.487 179.232 118.969L179.336 130.508L179.434 136.28L179.478 139.166V140.606L179.587 142.047L180.035 147.78L180.526 153.536L180.237 147.78L179.904 142.025L179.822 140.59V139.144L179.795 136.264L179.735 130.502L179.538 119.002C179.538 118.526 179.5 118.038 179.538 117.567C179.576 117.096 179.604 116.614 179.647 116.132L179.937 113.268L180.526 107.513Z" fill="#211F96"/>
<path d="M117.389 110.13L116.417 115.875L115.937 118.745L115.817 119.462C115.766 119.702 115.736 119.946 115.729 120.19C115.729 120.678 115.729 121.16 115.729 121.647C115.762 125.53 115.86 129.407 115.98 133.29C116.008 134.259 116.051 135.229 116.101 136.203C116.151 137.18 116.335 138.146 116.646 139.073C117.192 140.94 117.782 142.786 118.448 144.615C119.095 146.45 119.869 148.238 120.763 149.965L121.123 150.606C121.249 150.814 121.391 151.017 121.522 151.22C121.653 151.428 121.801 151.626 121.964 151.811L122.199 152.101C122.329 152.175 122.475 152.219 122.625 152.227C123.602 152.331 124.563 152.342 125.535 152.375C133.277 152.534 141.018 152.463 148.755 152.413C156.491 152.364 164.238 152.244 171.975 152.101C179.711 151.959 187.453 151.745 195.189 151.46C199.054 151.302 202.92 151.176 206.785 150.825C207.28 150.788 207.772 150.709 208.254 150.59C208.527 150.486 208.691 150.36 208.92 150.256C209.149 150.152 209.351 150.048 209.57 149.949C210.443 149.549 211.35 149.199 212.223 148.761C213.111 148.334 213.933 147.78 214.664 147.118C215.3 146.374 215.888 145.589 216.422 144.768C218.605 141.559 220.685 138.284 222.766 135.015C224.846 131.746 226.904 128.443 228.951 125.158C230.999 121.872 233.019 118.553 235.012 115.223L235.754 113.969C235.814 113.871 235.869 113.75 235.929 113.641L236.016 113.476C236.034 113.418 236.043 113.357 236.043 113.296L236.114 112.573C236.196 111.604 236.273 110.634 236.306 109.665C236.306 109.424 236.306 109.178 236.306 108.937C236.272 108.694 236.219 108.454 236.147 108.219C236.011 107.754 235.858 107.294 235.694 106.839C235.372 105.925 235.023 105.016 234.662 104.101C235.026 105.003 235.363 105.915 235.672 106.839C235.831 107.299 235.983 107.759 236.109 108.225C236.181 108.455 236.232 108.692 236.262 108.931C236.262 109.172 236.262 109.419 236.262 109.659C236.218 110.629 236.136 111.593 236.043 112.556L235.973 113.285C235.967 113.344 235.956 113.403 235.94 113.46L235.858 113.613C235.798 113.717 235.749 113.816 235.683 113.92L234.935 115.169C232.915 118.454 230.857 121.74 228.793 125.026C224.66 131.598 220.549 138.169 216.236 144.588C215.708 145.389 215.131 146.157 214.511 146.888C213.796 147.524 212.994 148.055 212.13 148.465C211.268 148.892 210.367 149.243 209.482 149.642C209.258 149.741 209.035 149.845 208.816 149.954C208.598 150.064 208.369 150.212 208.188 150.272C207.712 150.393 207.226 150.475 206.736 150.519C202.914 150.853 199.016 150.968 195.151 151.115C187.42 151.384 179.684 151.548 171.947 151.696C164.211 151.844 156.469 151.986 148.733 152.074C140.997 152.161 133.255 152.238 125.518 152.107C124.558 152.074 123.58 152.063 122.636 151.964C122.544 151.953 122.453 151.937 122.363 151.915L122.139 151.641C121.981 151.47 121.837 151.287 121.708 151.094C121.577 150.891 121.44 150.699 121.315 150.491L120.96 149.861C120.064 148.148 119.29 146.373 118.645 144.549C117.971 142.724 117.367 140.884 116.832 139.029C116.519 138.117 116.335 137.166 116.286 136.203L116.15 133.301C115.997 129.424 115.871 125.541 115.806 121.664C115.806 121.176 115.806 120.689 115.806 120.207C115.81 119.966 115.835 119.726 115.882 119.49L115.997 118.772L116.455 115.897L117.389 110.13Z" fill="#211F96"/>
<path d="M67.5793 120.004C68.5896 120.855 69.6628 121.628 70.7896 122.315C71.8815 123.027 73.0281 123.706 74.1473 124.396C75.2665 125.086 76.4185 125.727 77.5705 126.368C78.7225 127.009 79.8799 127.638 81.0592 128.224C79.9673 127.491 78.848 126.795 77.7288 126.1L74.3548 124.051L70.9534 122.042L69.25 121.045C68.6729 120.732 68.115 120.384 67.5793 120.004Z" fill="#211F96"/>
<path d="M230.488 131.357L215.409 131.751L200.335 132.211L170.186 133.137L140.044 134.194L124.97 134.725L109.901 135.317L124.975 134.922L140.049 134.462L170.203 133.537L200.346 132.48L215.42 131.948L230.488 131.357Z" fill="#211F96"/>
<path d="M231.386 109.687L231.976 109.714H232.118C232.151 109.714 232.156 109.742 232.178 109.786C232.202 109.877 232.22 109.971 232.233 110.065C232.26 110.455 232.26 110.847 232.233 111.237C232.233 111.429 232.233 111.626 232.183 111.785C232.169 111.871 232.148 111.955 232.118 112.037H232.074C232.047 112.037 232.02 112.037 231.96 112.037C231.583 112.069 231.184 112.08 230.797 112.097C229.23 112.146 227.657 112.195 226.091 112.223L223.737 112.289H222.558H222.056C222.03 112.242 222.01 112.192 221.996 112.141C221.996 112.053 221.952 111.965 221.936 111.872C221.886 111.491 221.87 111.106 221.887 110.722C221.894 110.53 221.912 110.338 221.941 110.147C221.95 110.071 221.97 109.997 222.001 109.928C222.07 109.895 222.144 109.875 222.22 109.868C222.984 109.731 223.776 109.687 224.556 109.61C223.768 109.587 222.979 109.607 222.192 109.671C222.074 109.674 221.959 109.71 221.859 109.775C221.784 109.87 221.735 109.983 221.717 110.103C221.677 110.302 221.649 110.503 221.635 110.706C221.6 111.107 221.6 111.51 221.635 111.911C221.646 112.016 221.664 112.12 221.69 112.223C221.7 112.294 221.724 112.363 221.761 112.425C221.797 112.487 221.846 112.541 221.903 112.584C221.936 112.61 221.976 112.624 222.018 112.623H222.105H223.743L226.101 112.59C227.668 112.53 229.241 112.486 230.813 112.371C231.206 112.338 231.594 112.31 231.992 112.256C232.054 112.249 232.114 112.236 232.173 112.217C232.207 112.208 232.24 112.196 232.271 112.179C232.302 112.15 232.327 112.115 232.342 112.075C232.381 111.971 232.407 111.862 232.418 111.752C232.429 111.551 232.429 111.35 232.418 111.149C232.41 110.751 232.372 110.354 232.304 109.961C232.284 109.862 232.257 109.765 232.222 109.671L232.183 109.594C232.183 109.566 232.102 109.545 232.085 109.55H231.943L231.386 109.687Z" fill="#211F96"/>
<path d="M173.685 111.116L174.274 111.149H174.422C174.454 111.149 174.46 111.177 174.482 111.22C174.507 111.314 174.523 111.409 174.531 111.505C174.57 111.893 174.579 112.283 174.558 112.672C174.56 112.875 174.549 113.078 174.525 113.28C174.517 113.367 174.495 113.452 174.46 113.532H174.416H174.301C173.919 113.57 173.526 113.575 173.133 113.592C171.566 113.641 169.999 113.69 168.427 113.718L166.074 113.784H164.9H164.398C164.371 113.736 164.349 113.687 164.332 113.636C164.332 113.554 164.294 113.466 164.278 113.367C164.228 112.986 164.212 112.601 164.228 112.217C164.234 112.034 164.251 111.851 164.278 111.669C164.29 111.594 164.312 111.52 164.343 111.45C164.343 111.423 164.474 111.401 164.561 111.385C165.326 111.248 166.117 111.204 166.898 111.127C166.108 111.106 165.317 111.126 164.529 111.187C164.41 111.192 164.295 111.228 164.196 111.292C164.124 111.388 164.077 111.501 164.059 111.62C164.02 111.819 163.991 112.02 163.972 112.223C163.939 112.625 163.939 113.03 163.972 113.433C163.972 113.532 163.988 113.636 164.021 113.745C164.044 113.888 164.123 114.016 164.239 114.101C164.272 114.127 164.312 114.141 164.354 114.14H164.441H166.079L168.438 114.107C170.01 114.052 171.583 114.003 173.15 113.888C173.548 113.855 173.936 113.827 174.334 113.773C174.394 113.768 174.453 113.755 174.509 113.734L174.607 113.701C174.638 113.671 174.663 113.636 174.684 113.597C174.723 113.494 174.747 113.385 174.755 113.274C174.774 113.074 174.783 112.873 174.782 112.672C174.772 112.273 174.732 111.876 174.662 111.483C174.647 111.382 174.621 111.283 174.585 111.187C174.575 111.16 174.56 111.134 174.542 111.111C174.531 111.097 174.516 111.086 174.5 111.08C174.484 111.073 174.466 111.07 174.449 111.072H174.301L173.685 111.116Z" fill="#211F96"/>
</g>
<path d="M225.326 154.201C223.416 141.918 231.793 130.408 244.037 128.491C256.282 126.575 267.757 134.977 269.668 147.259C271.579 159.541 263.202 171.052 250.957 172.969C238.713 174.885 227.237 166.483 225.326 154.201Z" fill="#263238"/>
<path d="M231.318 153.362C229.862 144.404 235.921 135.958 244.852 134.497C253.783 133.037 262.203 139.115 263.66 148.073C265.116 157.031 259.056 165.478 250.125 166.938C241.194 168.399 232.774 162.321 231.318 153.362Z" fill="#DBDBDB"/>
<path d="M247.492 165.886C239.149 165.886 232.385 159.101 232.385 150.732C232.385 142.364 239.149 135.579 247.492 135.579C255.835 135.579 262.599 142.364 262.599 150.732C262.599 159.101 255.835 165.886 247.492 165.886Z" fill="#A6A6A6"/>
<path d="M245.124 146.932H249.863C248.264 144.61 253.844 136.526 253.844 136.526L251.348 135.689C249.711 138.547 248.859 139.385 247.494 139.385C246.129 139.385 245.31 138.547 243.629 135.689L241.139 136.526C241.139 136.526 246.724 144.61 245.124 146.932Z" fill="#DBDBDB"/>
<path d="M250.271 147.233L251.734 151.756C253.443 149.517 262.839 152.337 262.839 152.337V149.697C259.612 148.996 258.564 148.465 258.143 147.162C257.723 145.858 258.258 144.807 260.453 142.337L258.886 140.218C258.886 140.218 252.962 148.032 250.271 147.233Z" fill="#DBDBDB"/>
<path d="M251.596 152.216L247.774 155.015C250.433 155.946 250.662 165.787 250.662 165.787L253.152 164.993C252.824 161.707 253.004 160.535 254.107 159.73C255.21 158.925 256.373 159.111 259.398 160.442L260.921 158.295C260.921 158.295 251.656 155.037 251.596 152.216Z" fill="#DBDBDB"/>
<path d="M247.256 155.015L243.434 152.216C243.369 155.037 234.109 158.295 234.109 158.295L235.638 160.447C238.657 159.111 239.82 158.925 240.923 159.73C242.025 160.535 242.206 161.701 241.878 164.993L244.384 165.787C244.384 165.787 244.597 155.946 247.256 155.015Z" fill="#DBDBDB"/>
<path d="M243.257 151.745L244.72 147.233C242.028 148.043 236.077 140.218 236.077 140.218L234.51 142.337C236.694 144.807 237.24 145.858 236.825 147.162C236.41 148.465 235.351 148.996 232.124 149.703V152.337C232.124 152.337 241.548 149.5 243.257 151.745Z" fill="#DBDBDB"/>
<path d="M243.16 151.295C242.786 148.895 244.422 146.646 246.814 146.271C249.206 145.895 251.449 147.536 251.823 149.936C252.197 152.335 250.562 154.585 248.169 154.96C245.777 155.335 243.535 153.694 243.16 151.295Z" fill="#DBDBDB"/>
<path d="M82.7883 171.873C71.1526 167.595 65.1774 154.666 69.4424 142.994C73.7074 131.323 86.5975 125.329 98.2333 129.607C109.869 133.885 115.844 146.815 111.579 158.486C107.314 170.158 94.4241 176.151 82.7883 171.873Z" fill="#263238"/>
<path d="M74.3658 153.53C72.8256 144.586 78.8055 136.083 87.7223 134.538C96.6391 132.993 105.116 138.992 106.656 147.936C108.197 156.88 102.217 165.383 93.2999 166.928C84.3831 168.473 75.906 162.474 74.3658 153.53Z" fill="#DBDBDB"/>
<path d="M90.5162 165.886C82.1729 165.886 75.4094 159.101 75.4094 150.733C75.4094 142.364 82.1729 135.579 90.5162 135.579C98.8595 135.579 105.623 142.364 105.623 150.733C105.623 159.101 98.8595 165.886 90.5162 165.886Z" fill="#A6A6A6"/>
<path d="M88.1329 146.932H92.8773C91.2777 144.61 96.8574 136.526 96.8574 136.526L94.3624 135.689C92.7245 138.547 91.8728 139.385 90.5079 139.385C89.1429 139.385 88.324 138.547 86.6424 135.689L84.1528 136.526C84.1528 136.526 89.7326 144.61 88.1329 146.932Z" fill="#DBDBDB"/>
<path d="M93.2759 147.233L94.7391 151.756C96.4479 149.517 105.844 152.337 105.844 152.337L105.871 149.697C102.645 148.996 101.596 148.465 101.176 147.162C100.756 145.858 101.291 144.807 103.485 142.337L101.918 140.218C101.918 140.218 95.9675 148.032 93.2759 147.233Z" fill="#DBDBDB"/>
<path d="M94.5916 152.216L90.7699 155.015C93.4233 155.946 93.6526 165.787 93.6526 165.787L96.164 164.993C95.831 161.707 96.0111 160.535 97.114 159.73C98.2168 158.925 99.3852 159.111 102.404 160.442L103.928 158.295C103.928 158.295 94.6517 155.037 94.5916 152.216Z" fill="#DBDBDB"/>
<path d="M90.2656 155.015L86.4439 152.216C86.3784 155.037 77.1188 158.295 77.1188 158.295L78.6475 160.447C81.6667 159.111 82.8296 158.925 83.9324 159.73C85.0353 160.535 85.2155 161.701 84.8879 164.993L87.3938 165.787C87.3938 165.787 87.6068 155.946 90.2656 155.015Z" fill="#DBDBDB"/>
<path d="M86.2685 151.745L87.7099 147.233C85.0183 148.043 79.0673 140.218 79.0673 140.218L77.5004 142.337C79.6842 144.807 80.2302 145.858 79.8153 147.162C79.4003 148.465 78.3411 148.996 75.1145 149.703V152.337C75.1145 152.337 84.5651 149.5 86.2685 151.745Z" fill="#DBDBDB"/>
<path d="M86.1169 150.628C86.1169 151.495 86.3731 152.342 86.853 153.062C87.333 153.783 88.0151 154.344 88.8132 154.676C89.6113 155.007 90.4895 155.094 91.3367 154.925C92.184 154.756 92.9622 154.339 93.5731 153.726C94.1839 153.113 94.5999 152.333 94.7684 151.483C94.937 150.633 94.8505 149.752 94.5199 148.952C94.1893 148.151 93.6295 147.467 92.9112 146.986C92.193 146.504 91.3485 146.247 90.4846 146.247C89.3262 146.247 88.2153 146.709 87.3962 147.53C86.5771 148.352 86.1169 149.466 86.1169 150.628Z" fill="#DBDBDB"/>
<path d="M133.701 99.041C134.52 99.8625 134.444 107.201 133.849 107.803C133.253 108.406 125.113 108.937 124.474 104.38C123.836 99.8242 132.424 97.776 133.701 99.041Z" fill="#211F96"/>
<path d="M104.03 103.422H110.653C127.867 92.0259 151.496 80.761 151.496 80.761L147.576 79.8081C133.272 86.7521 105.695 102.634 104.991 103.148C104.682 103.276 104.36 103.368 104.03 103.422Z" fill="#455A64"/>
<g opacity="0.5">
<path d="M274.16 136.034C272.775 133.746 271.083 131.66 269.132 129.835C267.183 127.997 265.011 126.413 262.667 125.12C257.938 122.534 252.624 121.214 247.239 121.286L245.229 121.385L244.23 121.429C243.897 121.467 243.564 121.522 243.231 121.565L241.244 121.85C240.589 121.987 239.939 122.162 239.289 122.316C236.681 122.963 234.195 124.032 231.93 125.481C229.679 126.941 227.67 128.745 225.973 130.826C224.32 132.923 222.908 135.201 221.764 137.617C222.998 135.26 224.477 133.041 226.175 130.996C227.889 128.988 229.904 127.261 232.148 125.875C236.641 123.06 241.975 121.916 247.239 121.867C249.879 121.825 252.514 122.11 255.084 122.715C257.655 123.324 260.138 124.261 262.471 125.503C264.814 126.739 266.991 128.269 268.952 130.054C270.944 131.807 272.695 133.818 274.16 136.034Z" fill="white"/>
<path d="M116.958 136.034C115.573 133.746 113.881 131.66 111.93 129.835C109.981 127.997 107.809 126.413 105.465 125.12C100.736 122.534 95.4222 121.214 90.0364 121.286L88.0272 121.385L87.0281 121.429C86.6951 121.467 86.362 121.522 86.029 121.565L84.0417 121.85C83.3865 121.987 82.7368 122.162 82.0871 122.316C79.4787 122.963 76.993 124.032 74.7276 125.481C72.4772 126.941 70.4676 128.745 68.7711 130.826C67.1176 132.923 65.7055 135.201 64.5617 137.617C65.7958 135.26 67.2744 133.041 68.9731 130.996C70.6871 128.988 72.7021 127.261 74.9459 125.875C79.4392 123.06 84.7733 121.916 90.0364 121.867C92.6764 121.825 95.3114 122.11 97.8819 122.715C100.453 123.324 102.936 124.261 105.269 125.503C107.609 126.733 109.784 128.255 111.744 130.032C113.74 131.792 115.493 133.81 116.958 136.034Z" fill="white"/>
<path d="M270.913 98.685C267.419 95.9468 263.87 93.2524 260.299 90.6074C256.729 87.9623 253.12 85.361 249.38 82.8912C248.911 82.59 248.436 82.2942 247.95 82.0095C247.709 81.8671 247.464 81.7302 247.207 81.6042C246.945 81.4741 246.671 81.3695 246.388 81.2921C245.296 80.9799 244.237 80.7061 243.156 80.4323C240.972 79.8846 238.838 79.3863 236.654 78.9646C234.462 78.5401 232.236 78.311 230.004 78.2801C227.782 78.2308 225.56 78.2363 223.343 78.3403C225.56 78.3403 227.782 78.4006 229.993 78.5429C232.196 78.6274 234.388 78.9023 236.544 79.3644C238.728 79.8518 240.869 80.3556 243.014 80.9087C244.106 81.1826 245.165 81.4564 246.219 81.7849C246.474 81.8541 246.721 81.9495 246.956 82.0697C247.191 82.1902 247.431 82.3216 247.666 82.464C248.141 82.7433 248.605 83.0445 249.069 83.3402C252.787 85.7553 256.385 88.373 259.988 90.9359L270.913 98.685Z" fill="white"/>
</g>
<path opacity="0.1" d="M96.8529 128.153C114.04 132.096 114.291 151.625 114.291 155.207C114.291 155.207 222.294 152.737 222.741 152.644C223.102 152.567 222.993 135.47 235.735 128.958C230.014 131.795 222.676 138.673 219.902 148.717C219.602 149.812 203.873 151.455 176.99 152.326C150.106 153.197 126.761 152.644 122.295 152.019C117.829 151.395 112.653 128.066 96.8529 128.153Z" fill="#211F96"/>
<path opacity="0.1" d="M42.3249 140.02C42.5596 140.71 47.6098 146.899 47.6371 147.047C47.6644 147.194 47.8118 148.919 47.9047 149.106C47.9975 149.292 52.9821 153.657 53.6919 153.837C54.4016 154.018 57.3116 154.073 57.7265 154.193C58.1415 154.314 63.1862 157.643 63.6066 157.824C64.027 158.005 66.4511 157.824 67.1663 157.824C67.3792 157.824 66.724 153.52 66.8387 149.61C67.0298 142.786 71.2064 134.199 79.3467 130.004C74.919 130.952 67.5321 137.014 64.5511 143.268C61.5701 149.522 62.3345 149.982 61.6411 150.732C60.9477 151.482 58.6274 149.965 57.5628 149.697C56.4981 149.429 53.0203 149.341 51.6827 149.073C50.3451 148.804 50.1322 146.389 49.215 145.853C48.2977 145.316 43.6461 141.598 42.3249 140.02Z" fill="#211F96"/>
<path d="M182.564 14.4331C182.564 3.3956 171.271 -3.59523 159.755 1.93564C157.149 3.18552 155.017 5.28283 153.689 7.90269C150.792 13.6638 152.073 20.2427 154.698 25.7069L163.666 49.0359C163.95 49.7793 164.444 50.4177 165.087 50.8677C165.729 51.3178 166.488 51.5585 167.265 51.5585C168.043 51.5585 168.802 51.3178 169.444 50.8677C170.086 50.4177 170.581 49.7793 170.864 49.0359L179.65 25.5857C182.694 18.4374 182.564 14.4331 182.564 14.4331ZM171.767 24.0652C164.026 28.6874 156.179 20.1457 160.421 11.7131C160.98 10.6011 161.833 9.67315 162.882 9.03552C170.628 4.41333 178.475 12.955 174.227 21.3876C173.671 22.5014 172.818 23.4299 171.767 24.0652Z" fill="#36B23B"/>
<path d="M240.578 49.5464L111.65 111.079C107.404 113.106 102.369 111.384 100.404 107.233L89.3601 83.8947C87.3954 79.7437 89.2459 74.7363 93.4924 72.7096L222.42 11.1771C226.666 9.15039 231.701 10.8724 233.666 15.0234L244.711 38.3612C246.675 42.5123 244.825 47.5197 240.578 49.5464Z" fill="#D90000"/>
<path d="M128.677 83.8857L129.775 86.1568C129.257 86.5578 128.737 86.9229 128.214 87.2521C127.691 87.5812 127.052 87.9301 126.296 88.2987C125.325 88.7726 124.463 89.0892 123.71 89.2486C122.969 89.4021 122.292 89.3681 121.681 89.1464C121.077 88.9069 120.495 88.4405 119.938 87.7472C119.381 87.0539 118.806 86.0945 118.214 84.8688C117.645 83.6912 117.267 82.68 117.081 81.8353C116.895 80.9905 116.902 80.2673 117.1 79.6657C117.305 79.0462 117.699 78.4975 118.283 78.0195C118.874 77.5237 119.655 77.0388 120.626 76.5649C121.382 76.1964 122.05 75.9076 122.631 75.6985C123.206 75.4775 123.813 75.2926 124.453 75.144L125.585 77.4871L125.549 77.5495C124.987 77.6751 124.46 77.8279 123.969 78.008C123.472 78.1761 122.882 78.4269 122.198 78.7603C121.647 79.0294 121.211 79.2938 120.892 79.5534C120.579 79.7952 120.376 80.0799 120.282 80.4077C120.189 80.7355 120.207 81.1421 120.338 81.6277C120.481 82.1074 120.732 82.7197 121.092 83.4647C121.47 84.2458 121.811 84.8591 122.115 85.3046C122.425 85.7323 122.741 86.0166 123.061 86.1574C123.381 86.2983 123.735 86.326 124.123 86.2404C124.524 86.149 125 85.9688 125.552 85.6996C126.224 85.372 126.785 85.0761 127.235 84.8119C127.692 84.5298 128.131 84.2117 128.552 83.8575L128.677 83.8857ZM141.803 80.4684L141.829 80.5225L138.77 82.0143C138.547 81.7669 138.285 81.4862 137.985 81.1722C137.697 80.8523 137.386 80.5143 137.051 80.1581L133.164 82.0536C133.331 83.0117 133.46 83.847 133.553 84.5592L130.494 86.0511L130.476 86.015L128.669 72.8428L132.627 70.9122L141.803 80.4684ZM131.605 73.9498C131.781 74.6211 131.967 75.4509 132.163 76.4393C132.359 77.4276 132.552 78.4398 132.741 79.4759L135.314 78.221C134.609 77.4365 133.931 76.6612 133.279 75.8952C132.627 75.1292 132.093 74.469 131.677 73.9147L131.605 73.9498ZM144.959 64.8975L147.838 63.4934L153.351 74.9028L150.49 76.2981L144.917 73.0472C144.48 72.7855 144.113 72.5634 143.817 72.381C143.522 72.1985 143.238 72.0102 142.966 71.8161C142.695 71.6219 142.382 71.3885 142.028 71.1158L142.009 71.2142C142.455 71.7091 142.818 72.2001 143.098 72.6872C143.372 73.1623 143.623 73.6342 143.849 74.1028L145.974 78.5007L143.096 79.9048L137.582 68.4955L140.443 67.1002L146.016 70.3511C146.448 70.6007 146.814 70.8228 147.116 71.0172C147.412 71.1997 147.695 71.388 147.967 71.5821C148.239 71.7763 148.552 72.0097 148.906 72.2824L148.925 72.184C148.561 71.7379 148.236 71.2951 147.949 70.8557C147.657 70.4043 147.398 69.9443 147.171 69.4757L144.959 64.8975ZM162.817 67.2346L163.915 69.5056C163.397 69.9066 162.877 70.2717 162.354 70.6009C161.831 70.9301 161.192 71.279 160.436 71.6475C159.465 72.1214 158.603 72.438 157.85 72.5974C157.108 72.751 156.432 72.7169 155.821 72.4953C155.217 72.2558 154.635 71.7893 154.078 71.0961C153.521 70.4028 152.946 69.4433 152.354 68.2176C151.785 67.0401 151.407 66.0289 151.221 65.1841C151.035 64.3393 151.041 63.6161 151.24 63.0145C151.444 62.3951 151.839 61.8463 152.423 61.3684C153.014 60.8725 153.795 60.3876 154.766 59.9138C155.522 59.5452 156.19 59.2564 156.771 59.0474C157.346 58.8263 157.953 58.6415 158.593 58.4928L159.725 60.836L159.689 60.8984C159.127 61.0239 158.6 61.1767 158.109 61.3568C157.612 61.5249 157.022 61.7757 156.338 62.1092C155.787 62.3783 155.351 62.6426 155.032 62.9023C154.719 63.144 154.516 63.4288 154.422 63.7565C154.328 64.0843 154.347 64.491 154.478 64.9765C154.621 65.4562 154.872 66.0686 155.232 66.8136C155.61 67.5946 155.951 68.2079 156.255 68.6535C156.565 69.0811 156.881 69.3654 157.201 69.5063C157.521 69.6471 157.875 69.6748 158.263 69.5892C158.664 69.4979 159.14 69.3176 159.692 69.0485C160.364 68.7209 160.925 68.4249 161.375 68.1607C161.832 67.8787 162.271 67.5605 162.692 67.2064L162.817 67.2346ZM165.533 68.9611L160.02 57.5518L168.476 53.4273L169.609 55.7705L164.031 58.4909L165.076 60.6538L169.916 58.2932L171.048 60.6363L166.209 62.9969L167.28 65.2139L172.858 62.4935L173.99 64.8366L165.533 68.9611ZM182.518 57.6483L183.702 60.0996L175.426 64.1363L169.912 52.727L172.791 51.3229L177.12 60.2809L182.518 57.6483ZM192.059 52.9949L193.243 55.4462L184.967 59.4829L179.453 48.0736L182.332 46.6695L186.661 55.6275L192.059 52.9949ZM194.508 54.8295L188.994 43.4202L197.451 39.2957L198.583 41.6388L193.005 44.3592L194.05 46.5221L198.89 44.1615L200.023 46.5047L195.183 48.8653L196.254 51.0823L201.832 48.3619L202.964 50.705L194.508 54.8295ZM204.4 50.0047L198.886 38.5954L203.87 36.1645C204.866 35.679 205.74 35.3565 206.493 35.1971C207.24 35.0257 207.917 35.0448 208.522 35.2544C209.127 35.4641 209.697 35.8915 210.231 36.5367C210.759 37.1699 211.299 38.0573 211.851 39.1989C212.426 40.3884 212.806 41.4056 212.992 42.2504C213.178 43.0952 213.169 43.8273 212.964 44.4468C212.759 45.0663 212.362 45.6239 211.771 46.1198C211.175 46.6036 210.379 47.0883 209.384 47.5739L204.4 50.0047ZM204.632 38.7996L202.941 39.6245L206.103 46.1673L207.794 45.3424C208.49 45.0031 208.998 44.6588 209.318 44.3096C209.65 43.9544 209.784 43.4956 209.72 42.933C209.668 42.3646 209.406 41.5938 208.936 40.6205C208.489 39.6952 208.068 39.0542 207.673 38.6974C207.285 38.3226 206.852 38.1626 206.374 38.2174C205.909 38.2662 205.328 38.4603 204.632 38.7996ZM212.119 35.616L211.082 33.4711C211.434 33.0325 211.862 32.6306 212.367 32.2653C212.867 31.8881 213.356 31.5824 213.836 31.3484C214.82 30.8687 215.652 30.5966 216.332 30.532C217.018 30.4497 217.601 30.5813 218.079 30.9271C218.57 31.267 219.001 31.8215 219.372 32.5905C219.633 33.1313 219.8 33.6142 219.872 34.0394C219.956 34.4587 219.89 34.966 219.674 35.5615L219.36 36.3382C219.194 36.7608 219.073 37.0794 218.999 37.2937C218.931 37.4903 218.911 37.6634 218.939 37.8131C218.973 37.945 219.051 38.1371 219.173 38.3894L219.504 39.0744L216.787 40.3995L216.543 39.8948C216.352 39.4982 216.21 39.174 216.118 38.9219C216.037 38.6641 216.014 38.4008 216.047 38.1322C216.087 37.8457 216.201 37.4853 216.392 37.051L216.65 36.3902C216.829 35.9319 216.956 35.5805 217.031 35.3362C217.099 35.08 217.117 34.856 217.084 34.6644C217.062 34.4669 216.991 34.242 216.869 33.9896C216.666 33.5691 216.382 33.3658 216.018 33.3799C215.661 33.3761 215.128 33.5468 214.421 33.892C213.557 34.3132 212.823 34.8793 212.217 35.5901L212.119 35.616ZM220.064 40.0038C220.298 40.3948 220.481 40.7285 220.615 41.0048C220.754 41.2932 220.902 41.6445 221.057 42.0586C220.828 42.2295 220.6 42.3855 220.372 42.5265C220.143 42.6675 219.909 42.7966 219.669 42.9136C219.442 43.0247 219.202 43.1268 218.95 43.2198C218.711 43.3069 218.465 43.382 218.214 43.4451C218.085 43.2704 217.974 43.1018 217.881 42.9395C217.788 42.7771 217.703 42.6178 217.628 42.4616C217.564 42.3294 217.497 42.1763 217.428 42.0022C217.353 41.8161 217.284 41.6121 217.221 41.3903C217.426 41.2311 217.645 41.087 217.88 40.958C218.108 40.8169 218.342 40.6879 218.582 40.5709C218.822 40.4539 219.061 40.3518 219.301 40.2647C219.547 40.1597 219.801 40.0727 220.064 40.0038Z" fill="white"/>
</svg>
