<svg width="334" height="206" viewBox="0 0 334 206" fill="none" xmlns="http://www.w3.org/2000/svg">
<g clip-path="url(#clip0_15_89)">
<path d="M282.002 127.707C282.002 127.707 281.967 58.1744 244.727 24.9648C211.853 -4.35195 166.595 -10.3071 136.202 23.5932C125.373 35.6712 112.278 48.2624 98.6758 56.6992C83.4303 66.1623 65.6192 70.4843 55.2236 101.814C44.828 133.144 60.9172 179.093 84.491 195.359C108.065 211.626 145.004 205.582 176.754 198.779C208.503 191.975 279.234 213.99 282.002 127.707Z" fill="#B3B3B3"/>
<path opacity="0.7" d="M282.002 127.707C282.002 127.707 281.967 58.1744 244.727 24.9648C211.853 -4.35195 166.595 -10.3071 136.202 23.5932C125.373 35.6712 112.278 48.2624 98.6758 56.6992C83.4303 66.1623 65.6192 70.4843 55.2236 101.814C44.828 133.144 60.9172 179.093 84.491 195.359C108.065 211.626 145.004 205.582 176.754 198.779C208.503 191.975 279.234 213.99 282.002 127.707Z" fill="white"/>
<path opacity="0.4" d="M244.72 24.4672C239.549 19.8388 233.939 15.7258 227.97 12.1869L178.72 86.1943L245.643 25.3158C245.342 25.0296 245.036 24.7583 244.72 24.4672ZM200.646 1.47554C192.967 -0.123659 185.074 -0.425508 177.294 0.582515L178.72 86.1893L200.646 1.47554ZM149.029 11.6639C144.325 14.9672 140.02 18.8051 136.201 23.1005C134.865 24.5971 133.492 26.097 132.081 27.6001L178.725 86.1992L149.029 11.6639ZM108.625 49.2695C105.427 51.7478 102.106 54.0631 98.6739 56.2065C91.288 60.7752 83.3199 64.1647 75.8451 69.9916L178.72 86.1992L108.625 49.2695ZM52.1825 117.42C51.2796 130.776 53.8107 145.232 58.71 158.307L178.72 86.1992L52.1825 117.42ZM178.72 86.1992L93.0444 199.593C105.507 205.021 120.491 206.007 136.018 204.813L178.72 86.1992ZM178.72 86.1992L182.796 197.348C191.603 196.406 202.358 196.697 213.499 196.219L178.72 86.1992ZM274.9 163.216L178.72 86.1992L253.606 187.15C262.324 182.271 269.818 174.776 274.9 163.216ZM278.971 96.7921L178.72 86.1992L281.901 123.563C281.49 114.587 280.511 105.645 278.971 96.7921ZM262.734 47.6117L178.72 86.1992L271.55 67.6085C269.177 60.7075 266.228 54.0183 262.734 47.6117Z" fill="white"/>
<path d="M264.553 182.434C264.553 182.434 256.88 179.838 254.597 178.253C252.315 176.667 246.476 170.807 245.118 166.292C243.946 162.124 243.168 157.855 242.793 153.542C242.452 150.043 240.987 149.14 238.839 151.849C236.692 154.558 235.995 158.96 236.585 161.805C237.175 164.649 238.953 167.899 238.718 168.468C238.484 169.037 238.149 170.16 238.149 170.16C238.149 170.16 231.266 169.371 227.433 168.468C223.6 167.565 220.55 167.223 220.322 169.029C220.094 170.836 220.884 173.659 221.111 175.579C221.339 177.499 224.269 185.961 225.741 187.874C226.784 189.362 227.993 190.727 229.346 191.941C230.249 192.617 230.249 193.179 232.397 193.406C234.216 193.569 236.025 193.833 237.815 194.196C238.605 194.423 239.394 195.212 243.12 195.099C245.462 195.018 247.796 194.792 250.11 194.423L261.282 198.59L264.553 182.434Z" fill="#FFD7B3" stroke="#B37B47" stroke-width="0.370037" stroke-miterlimit="10"/>
<path d="M260.94 180.286L256.311 200.375L263.877 203.419L267.71 182.548L260.94 180.286Z" fill="white" stroke="black" stroke-width="0.370037" stroke-miterlimit="10"/>
<path d="M279.998 184.126L265.228 180.514L259.81 204.435L279.913 213.815L279.998 212.002V184.126Z" fill="#212121"/>
<path d="M237.694 171.149C237.694 171.149 236.677 177.257 236.677 178.679C236.677 180.101 239.834 184.098 240.943 184.318" stroke="#B37B47" stroke-width="0.370037" stroke-miterlimit="10"/>
<path d="M235.433 186.501C235.433 186.501 237.018 187.063 236.563 188.421C236.108 189.78 232.723 191.692 231.145 192.595C229.566 193.499 229.011 193.385 227.198 192.368C226.133 191.779 225.326 190.812 224.937 189.659C226.074 189.63 227.208 189.518 228.329 189.324L235.433 186.501Z" fill="#FFD7B3" stroke="#B37B47" stroke-width="0.370037" stroke-miterlimit="10"/>
<path d="M222.456 183.557C222.456 183.557 222.456 188.748 223.7 189.204C224.888 189.662 226.153 189.891 227.426 189.879C228.216 189.765 233.52 187.959 234.537 187.284C235.554 186.608 236.571 185.15 236.009 183.785L235.44 182.434C233.726 182.727 231.989 182.877 230.249 182.882C227.405 182.882 222.69 181.979 222.349 182.32C222.008 182.661 222.456 183.557 222.456 183.557Z" fill="#FFD7B3" stroke="#B37B47" stroke-width="0.370037" stroke-miterlimit="10"/>
<path d="M220.749 176.546C220.524 176.69 220.342 176.892 220.223 177.131C220.104 177.371 220.052 177.638 220.073 177.904C220.073 178.921 218.722 181.964 220.301 182.981C221.88 183.998 226.843 184.788 227.86 184.788C228.877 184.788 234.857 182.654 235.419 182.42C235.981 182.185 235.988 180.158 235.76 179.369C235.533 178.58 233.506 178.352 233.506 178.352C233.506 178.352 224.831 178.146 220.749 176.546Z" fill="#FFD7B3" stroke="#B37B47" stroke-width="0.370037" stroke-miterlimit="10"/>
<path d="M223.7 169.677C223.7 169.677 227.312 172.386 227.967 172.613L233.499 174.533C233.499 174.533 234.21 174.868 234.21 176.226C234.198 176.811 233.975 177.372 233.584 177.806C233.192 178.241 232.657 178.521 232.077 178.594C230.953 178.821 226.886 179.497 225.421 178.935C223.424 177.948 221.501 176.816 219.668 175.55C218.651 174.839 218.537 173.965 219.099 172.706C219.588 171.49 220.003 170.245 220.344 168.98" fill="#FFD7B3"/>
<path d="M223.7 169.677C223.7 169.677 227.312 172.386 227.967 172.613L233.499 174.533C233.499 174.533 234.21 174.868 234.21 176.226C234.198 176.811 233.975 177.372 233.584 177.806C233.192 178.241 232.657 178.521 232.077 178.594C230.953 178.821 226.886 179.497 225.421 178.935C223.424 177.948 221.501 176.816 219.668 175.55C218.651 174.839 218.537 173.965 219.099 172.706C219.588 171.49 220.003 170.245 220.344 168.98" stroke="#B37B47" stroke-width="0.370037" stroke-miterlimit="10"/>
<path d="M254.101 11.4627C254.101 11.4627 247.082 13.5924 244.592 13.6181C242.102 13.6439 234.69 12.415 231.318 9.80275C228.251 7.36389 225.42 4.64096 222.864 1.67017C220.773 -0.72971 219.216 -0.620336 219.061 2.50016C218.907 5.62065 220.728 9.21726 222.632 10.9995C224.537 12.7817 227.58 14.2165 227.715 14.7698C227.85 15.3231 228.191 16.314 228.191 16.314C228.191 16.314 222.71 19.3572 219.409 20.7084C216.108 22.0595 213.689 23.4235 214.474 24.8712C215.259 26.3188 217.324 27.9788 218.502 29.272C219.679 30.5653 226.293 35.2428 228.384 35.8862C229.936 36.4281 231.544 36.7929 233.178 36.9735C234.201 36.9735 234.464 37.4111 236.195 36.4524C237.617 35.6105 239.086 34.8521 240.596 34.1812C241.297 33.9303 242.295 34.0975 244.971 32.0515C246.654 30.7582 248.255 29.3615 249.765 27.8694L260.188 25.0578L254.101 11.4627Z" fill="#FFBD80" stroke="#B37B47" stroke-width="0.370037" stroke-miterlimit="10"/>
<path d="M250.305 11.7844L257.479 29.0018L264.646 27.2646L256.475 9.87994L250.305 11.7844Z" fill="white" stroke="black" stroke-width="0.370037" stroke-miterlimit="10"/>
<path d="M266.351 4.57837L253.579 9.6934L262.188 30.1471L281.914 26.4668L281.027 25.09L266.351 4.57837Z" fill="#212121"/>
<path d="M228.365 17.3305C228.365 17.3305 230.829 22.349 231.582 23.4299C232.335 24.5109 236.729 25.7526 237.707 25.3215" stroke="#B37B47" stroke-width="0.370037" stroke-miterlimit="10"/>
<path d="M234.798 29.7803C234.798 29.7803 236.259 29.3621 236.638 30.5974C237.018 31.8328 235.538 35.024 234.85 36.5232C234.161 38.0223 233.691 38.2346 231.826 38.4534C230.732 38.583 229.629 38.2959 228.737 37.6491C229.56 37.0308 230.334 36.3511 231.054 35.616L234.798 29.7803Z" fill="#FFBD80" stroke="#B37B47" stroke-width="0.370037" stroke-miterlimit="10"/>
<path d="M223.714 34.4514C223.714 34.4514 226.442 38.2732 227.574 37.9515C228.69 37.6625 229.742 37.1671 230.675 36.491C231.196 35.9891 234.15 31.8714 234.536 30.8355C234.922 29.7996 234.902 28.1911 233.776 27.4898L232.651 26.7885C231.543 27.909 230.344 28.9355 229.067 29.8575C226.989 31.3374 223.025 33.171 222.954 33.5957C222.884 34.0203 223.714 34.4514 223.714 34.4514Z" fill="#FFBD80" stroke="#B37B47" stroke-width="0.370037" stroke-miterlimit="10"/>
<path d="M218.778 30.1985C218.689 30.4236 218.662 30.6685 218.701 30.9074C218.739 31.1463 218.841 31.3705 218.997 31.5561C219.531 32.3025 220.136 35.2557 221.834 35.172C223.533 35.0884 227.625 33.0552 228.352 32.5212C229.079 31.9872 232.367 27.2582 232.669 26.795C232.971 26.3317 231.89 24.8648 231.311 24.3758C230.732 23.8868 229.117 24.8197 229.117 24.8197C229.117 24.8197 222.574 29.2206 218.778 30.1985Z" fill="#FFBD80" stroke="#B37B47" stroke-width="0.370037" stroke-miterlimit="10"/>
<path d="M217.317 23.5844C217.317 23.5844 221.396 23.6745 222.014 23.4879C222.631 23.3013 227.097 21.9888 227.097 21.9888C227.097 21.9888 227.772 21.8794 228.486 22.8767C228.788 23.3144 228.92 23.8465 228.858 24.3743C228.797 24.902 228.546 25.3895 228.152 25.7462C227.444 26.5119 224.813 29.1434 223.436 29.5037C221.444 29.8281 219.431 30.0088 217.414 30.0441C216.313 30.0441 215.754 29.4715 215.483 28.2619C215.201 27.1121 214.85 25.9799 214.435 24.8712" fill="#FFBD80"/>
<path d="M217.317 23.5844C217.317 23.5844 221.396 23.6745 222.014 23.4879C222.631 23.3013 227.097 21.9888 227.097 21.9888C227.097 21.9888 227.772 21.8794 228.486 22.8767C228.788 23.3144 228.92 23.8465 228.858 24.3743C228.797 24.902 228.546 25.3895 228.152 25.7462C227.444 26.5119 224.813 29.1434 223.436 29.5037C221.444 29.8281 219.431 30.0088 217.414 30.0441C216.313 30.0441 215.754 29.4715 215.483 28.2619C215.201 27.1121 214.85 25.9799 214.435 24.8712" stroke="#B37B47" stroke-width="0.370037" stroke-miterlimit="10"/>
<path d="M65.4424 178.624C65.4424 178.624 72.1154 176.366 74.1007 174.993C76.0859 173.62 81.1448 168.512 82.3199 164.591C83.3568 160.968 84.0484 157.255 84.3855 153.502C84.6762 150.459 85.9563 149.674 87.8179 152.03C89.6794 154.387 90.2917 158.215 89.7784 160.689C89.265 163.162 87.7189 165.989 87.923 166.477C88.1271 166.966 88.4116 167.949 88.4116 167.949C88.4116 167.949 94.3982 167.263 97.7378 166.477C101.077 165.692 103.724 165.395 103.922 166.966C104.12 168.537 103.428 170.992 103.236 172.662C103.044 174.332 100.484 181.691 99.2097 183.361C98.3011 184.654 97.2469 185.839 96.068 186.892C95.2826 187.511 95.2826 187.975 93.421 188.166C91.839 188.311 90.2659 188.54 88.7084 188.853C88.022 189.051 87.3355 189.737 84.0948 189.638C82.0561 189.568 80.0237 189.372 78.0093 189.051L68.2934 192.681L65.4424 178.624Z" fill="#CC9766" stroke="#B37B47" stroke-width="0.370037" stroke-miterlimit="10"/>
<path d="M68.5825 176.756L72.6025 194.227L66.0283 196.88L62.6887 178.723L68.5825 176.756Z" fill="white" stroke="black" stroke-width="0.370037" stroke-miterlimit="10"/>
<path d="M52.002 180.096L64.8471 176.954L69.5597 197.758L52.0824 205.916L52.002 204.339V180.096Z" fill="#212121"/>
<path d="M88.7999 168.809C88.7999 168.809 89.6843 174.109 89.6843 175.383C89.6843 176.657 86.9322 180.096 85.9736 180.293" stroke="#B37B47" stroke-width="0.370037" stroke-miterlimit="10"/>
<path d="M90.76 182.155C90.76 182.155 89.387 182.65 89.7766 183.825C90.1663 185 93.1163 186.67 94.4892 187.455C95.8622 188.24 96.3446 188.141 97.9278 187.257C98.8541 186.749 99.5542 185.909 99.8883 184.907C98.9009 184.883 97.9168 184.784 96.9445 184.61L90.76 182.155Z" fill="#CC9766" stroke="#B37B47" stroke-width="0.370037" stroke-miterlimit="10"/>
<path d="M102.028 179.607C102.028 179.607 102.028 184.122 100.952 184.511C99.9213 184.923 98.8211 185.133 97.7112 185.13C97.0248 185.031 92.4111 183.466 91.5267 182.872C90.6424 182.279 89.758 181.017 90.2527 179.83L90.7413 178.655C92.2327 178.91 93.7429 179.04 95.256 179.044C97.7298 179.044 101.83 178.259 102.127 178.556C102.424 178.852 102.028 179.607 102.028 179.607Z" fill="#CC9766" stroke="#B37B47" stroke-width="0.370037" stroke-miterlimit="10"/>
<path d="M103.519 173.521C103.723 173.638 103.89 173.811 103.999 174.019C104.109 174.227 104.157 174.462 104.137 174.696C104.137 175.581 105.319 178.228 103.946 179.112C102.573 179.997 98.2189 180.671 97.3345 180.671C96.4501 180.671 91.249 178.815 90.7604 178.611C90.2718 178.407 90.2718 176.645 90.4697 175.958C90.6676 175.272 92.4302 175.08 92.4302 175.08C92.4302 175.08 99.9876 174.894 103.519 173.521Z" fill="#CC9766" stroke="#B37B47" stroke-width="0.370037" stroke-miterlimit="10"/>
<path d="M100.972 167.535C100.972 167.535 97.83 169.885 97.261 170.083C96.6921 170.281 92.4495 171.753 92.4495 171.753C92.4495 171.753 91.8311 172.049 91.8311 173.225C91.8406 173.734 92.0335 174.222 92.3743 174.601C92.7152 174.979 93.181 175.222 93.6864 175.284C94.6697 175.482 98.2011 176.069 99.4813 175.581C101.225 174.722 102.904 173.736 104.503 172.631C105.387 172.043 105.486 171.258 104.992 170.157C104.57 169.099 104.211 168.017 103.916 166.916" fill="#CC9766"/>
<path d="M100.972 167.535C100.972 167.535 97.83 169.885 97.261 170.083C96.6921 170.281 92.4495 171.753 92.4495 171.753C92.4495 171.753 91.8311 172.049 91.8311 173.225C91.8406 173.734 92.0335 174.222 92.3743 174.601C92.7152 174.979 93.181 175.222 93.6864 175.284C94.6697 175.482 98.2011 176.069 99.4813 175.581C101.225 174.722 102.904 173.736 104.503 172.631C105.387 172.043 105.486 171.258 104.992 170.157C104.57 169.099 104.211 168.017 103.916 166.916" stroke="#B37B47" stroke-width="0.370037" stroke-miterlimit="10"/>
<path d="M86.9488 15.2561C86.9488 15.2561 93.9642 20.6077 96.7694 21.6866C99.5746 22.7655 108.438 24.491 113.347 22.9649C117.833 21.5038 122.171 19.6227 126.304 17.3464C129.672 15.5186 131.382 16.2968 130.237 19.8791C129.091 23.4614 125.532 26.7555 122.642 27.9677C119.751 29.1799 115.7 29.5131 115.322 30.0831C114.944 30.6532 114.136 31.6248 114.136 31.6248C114.136 31.6248 119.042 37.3558 122.195 40.2753C125.347 43.1948 127.508 45.7363 126.013 47.0392C124.519 48.3421 121.491 49.3461 119.619 50.3097C117.747 51.2734 108.316 53.7755 105.687 53.6219C103.709 53.5806 101.741 53.3158 99.8227 52.8326C98.6687 52.4024 98.1871 52.785 96.6406 50.9685C95.3843 49.4267 94.046 47.9537 92.6314 46.5557C91.9431 45.9849 90.7505 45.747 88.5818 42.3179C87.2309 40.1513 86.0149 37.9035 84.9407 35.5872L74.3655 28.0321L86.9488 15.2561Z" fill="#FFD7B3" stroke="#B37B47" stroke-width="0.370037" stroke-miterlimit="10"/>
<path d="M91.0896 17.2127L75.7564 33.6176L68.4018 28.6437L84.9303 12.4695L91.0896 17.2127Z" fill="white" stroke="black" stroke-width="0.370037" stroke-miterlimit="10"/>
<path d="M76.0191 2.33566L88.2747 13.4767L69.9619 32.9289L49.2572 20.4814L50.8405 19.2944L76.0191 2.33566Z" fill="#212121"/>
<path d="M113.497 32.6513C113.497 32.6513 108.607 37.2761 107.306 38.1716C106.004 39.067 100.522 38.627 99.5843 37.773" stroke="#B37B47" stroke-width="0.370037" stroke-miterlimit="10"/>
<path d="M101.006 44.0311C101.006 44.0311 99.534 42.9452 98.5863 44.179C97.6385 45.4129 97.9657 49.6351 98.1146 51.6084C98.2634 53.5818 98.7012 54.0261 100.714 55.0575C101.895 55.6594 103.258 55.7991 104.536 55.4491C103.868 54.4058 103.281 53.3135 102.778 52.1815L101.006 44.0311Z" fill="#FFD7B3" stroke="#B37B47" stroke-width="0.370037" stroke-miterlimit="10"/>
<path d="M111.553 53.9651C111.553 53.9651 106.861 57.1263 105.726 56.2899C104.586 55.4964 103.608 54.492 102.845 53.3309C102.465 52.5529 100.868 46.6586 100.866 45.335C100.863 44.0114 101.574 42.1933 103.136 41.883L104.701 41.5654C105.476 43.2949 106.398 44.9549 107.456 46.5272C109.175 49.0778 112.875 52.813 112.776 53.3218C112.678 53.8306 111.553 53.9651 111.553 53.9651Z" fill="#FFD7B3" stroke="#B37B47" stroke-width="0.370037" stroke-miterlimit="10"/>
<path d="M118.904 51.2331C118.913 51.5244 118.842 51.8126 118.699 52.0667C118.556 52.3208 118.347 52.5312 118.094 52.6752C117.177 53.2925 115.246 56.3668 113.372 55.5608C111.499 54.7548 107.731 50.7378 107.135 49.8296C106.539 48.9214 104.812 42.2016 104.673 41.5545C104.534 40.9075 106.356 39.7019 107.222 39.3965C108.088 39.0912 109.513 40.8127 109.513 40.8127C109.513 40.8127 114.996 48.5444 118.904 51.2331Z" fill="#FFD7B3" stroke="#B37B47" stroke-width="0.370037" stroke-miterlimit="10"/>
<path d="M123.338 44.3962C123.338 44.3962 118.691 42.7797 118.073 42.3094C117.455 41.8392 112.98 38.4762 112.98 38.4762C112.98 38.4762 112.297 38.0895 111.036 38.9006C110.513 39.2676 110.14 39.8114 109.987 40.4316C109.833 41.0518 109.908 41.7067 110.199 42.2756C110.686 43.4323 112.545 47.5147 113.946 48.5002C116.056 49.7051 118.252 50.753 120.515 51.6353C121.74 52.1415 122.626 51.6947 123.403 50.4303C124.207 49.25 125.079 48.1177 126.015 47.0392" fill="#FFD7B3"/>
<path d="M123.338 44.3962C123.338 44.3962 118.691 42.7797 118.073 42.3094C117.455 41.8392 112.98 38.4762 112.98 38.4762C112.98 38.4762 112.297 38.0895 111.036 38.9006C110.513 39.2676 110.14 39.8114 109.987 40.4316C109.833 41.0518 109.908 41.7067 110.199 42.2756C110.686 43.4323 112.545 47.5147 113.946 48.5002C116.056 49.7051 118.252 50.753 120.515 51.6353C121.74 52.1415 122.626 51.6947 123.403 50.4303C124.207 49.25 125.079 48.1177 126.015 47.0392" stroke="#B37B47" stroke-width="0.370037" stroke-miterlimit="10"/>
<rect x="106.272" y="102.13" width="121.372" height="40.9508" rx="4.93383" fill="#211F96"/>
<path d="M132.95 118.051V120.013H130.286V128.106H127.837V120.013H125.173V118.051H132.95ZM142.888 118.051V128.106H140.438V123.966H136.629V128.106H134.179V118.051H136.629V121.99H140.438V118.051H142.888ZM150.915 126.33H147.162L146.561 128.106H143.997L147.635 118.051H150.471L154.109 128.106H151.516L150.915 126.33ZM150.285 124.439L149.039 120.758L147.807 124.439H150.285ZM164.211 128.106H161.762L157.665 121.904V128.106H155.216V118.051H157.665L161.762 124.281V118.051H164.211V128.106ZM171.816 128.106L168.435 123.665V128.106H165.986V118.051H168.435V122.462L171.787 118.051H174.666L170.77 122.978L174.809 128.106H171.816ZM187.631 118.051L184.15 124.783V128.106H181.701V124.783L178.221 118.051H180.999L182.947 122.262L184.881 118.051H187.631ZM193.373 128.206C192.427 128.206 191.558 127.986 190.766 127.547C189.983 127.108 189.358 126.497 188.89 125.714C188.431 124.921 188.202 124.033 188.202 123.05C188.202 122.066 188.431 121.183 188.89 120.4C189.358 119.617 189.983 119.006 190.766 118.567C191.558 118.127 192.427 117.908 193.373 117.908C194.318 117.908 195.182 118.127 195.965 118.567C196.758 119.006 197.378 119.617 197.827 120.4C198.285 121.183 198.515 122.066 198.515 123.05C198.515 124.033 198.285 124.921 197.827 125.714C197.369 126.497 196.748 127.108 195.965 127.547C195.182 127.986 194.318 128.206 193.373 128.206ZM193.373 125.971C194.175 125.971 194.815 125.704 195.292 125.169C195.779 124.635 196.022 123.928 196.022 123.05C196.022 122.162 195.779 121.455 195.292 120.93C194.815 120.395 194.175 120.128 193.373 120.128C192.561 120.128 191.912 120.39 191.425 120.915C190.947 121.441 190.709 122.152 190.709 123.05C190.709 123.938 190.947 124.649 191.425 125.184C191.912 125.709 192.561 125.971 193.373 125.971ZM202.283 118.051V124.067C202.283 124.668 202.431 125.131 202.727 125.456C203.023 125.781 203.458 125.943 204.031 125.943C204.604 125.943 205.043 125.781 205.349 125.456C205.654 125.131 205.807 124.668 205.807 124.067V118.051H208.256V124.052C208.256 124.95 208.065 125.709 207.683 126.33C207.301 126.95 206.786 127.418 206.136 127.733C205.497 128.048 204.78 128.206 203.988 128.206C203.195 128.206 202.484 128.053 201.854 127.748C201.233 127.432 200.741 126.965 200.379 126.344C200.016 125.714 199.834 124.95 199.834 124.052V118.051H202.283Z" fill="white"/>
<path d="M167.204 90.9191L164.85 88.7753C156.486 81.191 150.964 76.1727 150.964 70.05C150.964 65.0317 154.894 61.1177 159.896 61.1177C162.722 61.1177 165.434 62.4332 167.204 64.4958C168.975 62.4332 171.687 61.1177 174.513 61.1177C179.515 61.1177 183.445 65.0317 183.445 70.05C183.445 76.1727 177.923 81.191 169.559 88.7753L167.204 90.9191Z" fill="#D90000"/>
</g>
<defs>
<clipPath id="clip0_15_89">
<rect width="230" height="205.921" fill="white" transform="translate(52)"/>
</clipPath>
</defs>
</svg>
