<svg width="251" height="300" viewBox="0 0 251 300" fill="none" xmlns="http://www.w3.org/2000/svg">
<path d="M230.667 63.4115C228.737 60.3102 226.614 57.3324 224.311 54.4955C211.02 38.2416 195.245 23.7675 176.471 14.0624C147.254 -1.03954 110.254 -4.576 78.8136 6.37895C41.4728 19.3844 24.9867 51.3277 18.7921 88.5238C17.9292 93.7191 17.2666 98.9431 16.8043 104.196C15.2615 121.337 16.0184 138.674 13.9151 155.751C11.7539 173.249 2.03443 188.841 2.27135 206.776C2.36644 216.98 5.15672 226.978 10.3613 235.765C25.004 260.036 54.7229 263.936 80.6223 259.714C155.448 247.503 163.908 218.474 195.47 212.075C223.935 206.316 243.432 177.16 249.008 150.354C255.162 120.709 246.5 88.7197 230.667 63.4115Z" fill="#2825B2"/>
<path opacity="0.8" d="M230.667 63.4115C228.737 60.3102 226.614 57.3324 224.311 54.4955C211.02 38.2416 195.245 23.7675 176.471 14.0624C147.254 -1.03954 110.254 -4.576 78.8136 6.37895C41.4728 19.3844 24.9867 51.3277 18.7921 88.5238C17.9292 93.7191 17.2666 98.9431 16.8043 104.196C15.2615 121.337 16.0184 138.674 13.9151 155.751C11.7539 173.249 2.03443 188.841 2.27135 206.776C2.36644 216.98 5.15672 226.978 10.3613 235.765C25.004 260.036 54.7229 263.936 80.6223 259.714C155.448 247.503 163.908 218.474 195.47 212.075C223.935 206.316 243.432 177.16 249.008 150.354C255.162 120.709 246.5 88.7197 230.667 63.4115Z" fill="black"/>
<g opacity="0.3">
<path d="M25.7262 40.0156V41.4556" stroke="#4C0098" stroke-linejoin="round"/>
<path d="M25.7262 44.5645V55.4503" stroke="#4C0098" stroke-linejoin="round" stroke-dasharray="3.1 3.1"/>
<path d="M25.7262 57.0059V58.4458H27.1708" stroke="#4C0098" stroke-linejoin="round"/>
<path d="M30.0081 58.4453H119.367" stroke="#4C0098" stroke-linejoin="round" stroke-dasharray="2.82 2.82"/>
<path d="M120.783 58.4453H122.227V59.8852" stroke="#4C0098" stroke-linejoin="round"/>
<path d="M122.227 62.7773V205.889" stroke="#4C0098" stroke-linejoin="round" stroke-dasharray="2.88 2.88"/>
<path d="M122.227 207.334V208.774H123.672" stroke="#4C0098" stroke-linejoin="round"/>
<path d="M125.406 208.773H128.006" stroke="#4C0098" stroke-linejoin="round" stroke-dasharray="1.72 1.72"/>
<path d="M128.873 208.773H130.317" stroke="#4C0098" stroke-linejoin="round"/>
<path d="M7.81287 204.743V203.303" stroke="#4C0098" stroke-linejoin="round"/>
<path d="M7.81287 200.342V142.578" stroke="#4C0098" stroke-linejoin="round" stroke-dasharray="2.95 2.95"/>
<path d="M7.81287 141.098V139.658H9.2575" stroke="#4C0098" stroke-linejoin="round"/>
<path d="M11.8925 139.658H31.6319" stroke="#4C0098" stroke-linejoin="round" stroke-dasharray="2.61 2.61"/>
<path d="M32.9496 139.658H34.3942V141.098" stroke="#4C0098" stroke-linejoin="round"/>
<path d="M34.394 143.955V205.33" stroke="#4C0098" stroke-linejoin="round" stroke-dasharray="2.85 2.85"/>
<path d="M34.394 206.76V208.2H35.8387" stroke="#4C0098" stroke-linejoin="round"/>
<path d="M38.7799 208.199H101.98" stroke="#4C0098" stroke-linejoin="round" stroke-dasharray="2.92 2.92"/>
<path d="M103.447 208.2H104.892V206.76" stroke="#4C0098" stroke-linejoin="round"/>
<path d="M104.892 203.867V83.7949" stroke="#4C0098" stroke-linejoin="round" stroke-dasharray="2.88 2.88"/>
<path d="M104.892 82.3501V80.9102H106.336" stroke="#4C0098" stroke-linejoin="round"/>
<path d="M109.156 80.9102H220.497" stroke="#4C0098" stroke-linejoin="round" stroke-dasharray="2.8 2.8"/>
<path d="M221.907 80.9102H223.351" stroke="#4C0098" stroke-linejoin="round"/>
<path d="M32.6606 26.1109C32.6606 24.2778 31.93 22.5198 30.6296 21.2236C29.3292 19.9274 27.5654 19.1992 25.7263 19.1992C23.8873 19.1992 22.1235 19.9274 20.8231 21.2236C19.5227 22.5198 18.7921 24.2778 18.7921 26.1109C18.7921 29.9238 25.7263 37.6303 25.7263 37.6303C25.7263 37.6303 32.6606 29.9238 32.6606 26.1109Z" stroke="#4C0098" stroke-linejoin="round"/>
<path d="M28.6964 26.1109C28.6964 25.5254 28.5222 24.953 28.1959 24.4661C27.8695 23.9793 27.4056 23.5998 26.8629 23.3757C26.3202 23.1517 25.723 23.093 25.1468 23.2073C24.5707 23.3215 24.0414 23.6035 23.626 24.0175C23.2107 24.4315 22.9278 24.959 22.8132 25.5333C22.6986 26.1076 22.7574 26.7029 22.9822 27.2438C23.207 27.7848 23.5877 28.2471 24.0761 28.5724C24.5646 28.8977 25.1388 29.0714 25.7263 29.0714C26.5135 29.0698 27.2681 28.7574 27.8248 28.2026C28.3815 27.6477 28.6949 26.8956 28.6964 26.1109Z" stroke="#4C0098" stroke-linejoin="round"/>
<path d="M232.204 70.767C232.157 69.3019 231.54 67.9125 230.484 66.8927C229.428 65.8729 228.015 65.3027 226.544 65.3027C225.073 65.3027 223.661 65.8729 222.604 66.8927C221.548 67.9125 220.931 69.3019 220.884 70.767C220.884 73.883 226.547 80.1725 226.547 80.1725C226.547 80.1725 232.204 73.883 232.204 70.767Z" stroke="#4C0098" stroke-linejoin="round"/>
<path d="M226.547 73.1858C227.887 73.1858 228.974 72.1027 228.974 70.7667C228.974 69.4307 227.887 68.3477 226.547 68.3477C225.207 68.3477 224.12 69.4307 224.12 70.7667C224.12 72.1027 225.207 73.1858 226.547 73.1858Z" stroke="#4C0098" stroke-linejoin="round"/>
<path d="M224.103 105.993C224.137 104.494 223.87 103.002 223.317 101.607C222.765 100.211 221.939 98.9398 220.887 97.8671C219.834 96.7944 218.578 95.9421 217.191 95.3602C215.804 94.7783 214.314 94.4785 212.809 94.4785C211.304 94.4785 209.814 94.7783 208.426 95.3602C207.039 95.9421 205.783 96.7944 204.731 97.8671C203.678 98.9398 202.852 100.211 202.3 101.607C201.747 103.002 201.48 104.494 201.514 105.993C201.514 112.208 212.806 124.758 212.806 124.758C212.806 124.758 224.103 112.208 224.103 105.993Z" stroke="#4C0098" stroke-linejoin="round"/>
<path d="M212.806 110.819C215.48 110.819 217.648 108.658 217.648 105.993C217.648 103.327 215.48 101.166 212.806 101.166C210.131 101.166 207.963 103.327 207.963 105.993C207.963 108.658 210.131 110.819 212.806 110.819Z" stroke="#4C0098" stroke-linejoin="round"/>
<path d="M37.578 116.171C37.578 113.846 36.6514 111.616 35.002 109.972C33.3526 108.328 31.1156 107.404 28.7831 107.404C26.4505 107.404 24.2135 108.328 22.5641 109.972C20.9148 111.616 19.9882 113.846 19.9882 116.171C19.9882 121.009 28.7831 130.777 28.7831 130.777C28.7831 130.777 37.578 121.009 37.578 116.171Z" stroke="#4C0098" stroke-linejoin="round"/>
<path d="M32.5507 116.171C32.5507 115.429 32.3297 114.703 31.9157 114.085C31.5017 113.467 30.9133 112.986 30.2249 112.702C29.5365 112.418 28.7789 112.343 28.0481 112.488C27.3172 112.633 26.6459 112.991 26.119 113.516C25.5921 114.041 25.2333 114.71 25.0879 115.439C24.9425 116.167 25.0171 116.922 25.3023 117.608C25.5875 118.295 26.0704 118.881 26.6899 119.294C27.3095 119.706 28.0379 119.927 28.7831 119.927C29.2779 119.927 29.7678 119.83 30.2249 119.641C30.682 119.452 31.0973 119.175 31.4472 118.827C31.797 118.478 32.0746 118.064 32.2639 117.608C32.4532 117.153 32.5507 116.664 32.5507 116.171Z" stroke="#4C0098" stroke-linejoin="round"/>
<path d="M12.3143 215.225C12.3143 214.484 12.168 213.751 11.8837 213.067C11.5994 212.383 11.1827 211.761 10.6574 211.237C10.1321 210.714 9.50843 210.299 8.82207 210.015C8.13571 209.732 7.40008 209.586 6.65717 209.586C5.91426 209.586 5.17862 209.732 4.49226 210.015C3.8059 210.299 3.18226 210.714 2.65695 211.237C2.13163 211.761 1.71493 212.383 1.43063 213.067C1.14633 213.751 1 214.484 1 215.225C1 218.341 6.65717 224.625 6.65717 224.625C6.65717 224.625 12.3143 218.341 12.3143 215.225Z" stroke="#4C0098" stroke-linejoin="round"/>
<path d="M6.6572 217.645C7.99758 217.645 9.08418 216.562 9.08418 215.226C9.08418 213.89 7.99758 212.807 6.6572 212.807C5.31682 212.807 4.23022 213.89 4.23022 215.226C4.23022 216.562 5.31682 217.645 6.6572 217.645Z" stroke="#4C0098" stroke-linejoin="round"/>
</g>
<path d="M174.812 36.9975V247.688C174.812 253.288 172.957 258.659 169.655 262.621C166.352 266.583 161.872 268.812 157.199 268.82H73.5608C68.8835 268.82 64.3977 266.593 61.0903 262.631C57.7829 258.668 55.9248 253.293 55.9248 247.688V36.9975C55.9263 31.3943 57.7851 26.0213 61.0923 22.0598C64.3996 18.0984 68.8845 15.873 73.5608 15.873H108.532L108.567 16.0254C109.601 20.4843 111.982 23.3854 114.623 23.3854H116.137C118.778 23.3854 121.158 20.4843 122.193 16.0254L122.233 15.873H157.199C161.871 15.8804 166.35 18.109 169.653 22.0696C172.955 26.0302 174.81 31.3991 174.812 36.9975Z" fill="#D6D6D6"/>
<path d="M128.844 170.19V103.521H154.385C154.606 103.522 154.823 103.447 155.009 103.304C155.195 103.162 155.344 102.958 155.437 102.718L174.812 51.8975V45.2368L153.616 100.752H128.844V15.873H126.533V50.0281C103.465 47.3001 89.9487 60.3307 82.6504 71.8796C78.0627 79.2454 74.6518 87.5648 72.5901 96.4175L55.9248 83.74V87.0219L85.7708 109.725V150.236L55.9421 143.714V146.532L126.55 161.958V169.574L55.9421 237.15V240.695L87.8742 210.134L112.208 249.599C112.315 249.774 112.455 249.915 112.617 250.012C112.779 250.11 112.957 250.16 113.138 250.16C113.235 250.16 113.332 250.146 113.427 250.119L151.79 238.348V268.82H154.102V211.484C154.101 211.228 154.041 210.978 153.929 210.76C153.817 210.543 153.657 210.367 153.466 210.251L144.85 205.031L159.574 185.783L174.812 192.817V189.889L159.632 182.896C159.415 182.794 159.177 182.774 158.951 182.837C158.724 182.9 158.518 183.043 158.361 183.249L142.689 203.736L113.184 185.852L128.405 171.277C128.542 171.148 128.652 170.983 128.728 170.794C128.805 170.606 128.844 170.4 128.844 170.19ZM151.773 212.336V235.419L113.589 247.141L89.6656 208.368L111.196 187.756L151.773 212.336ZM126.533 159.119L88.0649 150.714V111.442L126.533 140.73V159.119ZM126.533 137.427L74.6414 97.9615C76.6012 89.1498 79.9342 80.8617 84.4649 73.5344C94.5542 57.5681 108.7 50.5958 126.504 52.763L126.533 137.427Z" fill="white"/>
<path d="M174.835 141.685H171.374L162.637 167.863H145.162L154.385 142.266H140.794V117.257H161.18L174.835 85.498V141.685Z" fill="#C4C4C4"/>
<path d="M77.7329 40.334H60.3973V57.6435H77.7329V40.334Z" fill="#C4C4C4"/>
<path d="M93.1039 40.334H80.6223V52.7968H93.1039V40.334Z" fill="#C4C4C4"/>
<path d="M79.8595 95.4607L122.765 128.66V59.0277C122.765 59.0277 92.0753 55.4827 79.8595 95.4607Z" fill="#C4C4C4"/>
<path d="M104.892 40.334H96.802V48.414H104.892V40.334Z" fill="#C4C4C4"/>
<path d="M119.916 203.043L104.314 216.198L112.982 235.585L144.186 233.508L145.92 215.506L133.785 209.274L128.584 218.968L123.383 215.506L128.006 205.12L119.916 203.043Z" fill="#C4C4C4"/>
<path d="M69.9204 163.987V201.389L55.9248 209.919V163.197L69.9204 163.987Z" fill="#C4C4C4"/>
<path d="M93.2194 187.201V165.301L73.8036 164.207V199.027L93.2194 187.201Z" fill="#C4C4C4"/>
<path d="M96.1316 165.467V185.428L107.781 178.331V166.118L96.1316 165.467Z" fill="#C4C4C4"/>
<path d="M182.399 93.2244V66.4501H180.377V32.1705C180.375 26.5666 178.517 21.1928 175.21 17.2303C171.902 13.2678 167.418 11.0409 162.741 11.0391H68.0192C63.3423 11.0409 58.8574 13.2678 55.5503 17.2303C52.2433 21.1928 50.3847 26.5666 50.3832 32.1705V262.781C50.3832 268.385 52.2413 273.76 55.5487 277.723C58.8561 281.686 63.3418 283.912 68.0192 283.912H162.741C167.418 283.912 171.904 281.686 175.211 277.723C178.519 273.76 180.377 268.385 180.377 262.781V116.045H182.399V100.224H180.377V93.2244H182.399ZM174.812 247.687C174.812 253.287 172.957 258.657 169.655 262.62C166.352 266.582 161.872 268.811 157.199 268.819H73.5608C68.8834 268.819 64.3976 266.592 61.0903 262.629C57.7829 258.666 55.9248 253.292 55.9248 247.687V36.9963C55.9263 31.3931 57.7851 26.0201 61.0923 22.0587C64.3995 18.0973 68.8844 15.8719 73.5608 15.8719H108.532L108.567 16.0242C109.601 20.4831 111.982 23.3842 114.623 23.3842H116.137C118.778 23.3842 121.158 20.4831 122.193 16.0242L122.233 15.8719H157.199C161.871 15.8792 166.35 18.1078 169.653 22.0684C172.955 26.0291 174.81 31.3979 174.812 36.9963V247.687Z" fill="#707070" stroke="#263238" stroke-width="0.574" stroke-linejoin="round"/>
<path d="M160.701 13.9551H70.0591C67.7434 13.9551 65.4503 14.5017 63.3109 15.5637C61.1716 16.6258 59.2278 18.1824 57.5906 20.1447C55.9534 22.1071 54.6549 24.4366 53.7692 27.0004C52.8835 29.5641 52.4281 32.3118 52.4288 35.0865V259.874C52.4288 265.477 54.2861 270.851 57.5923 274.814C60.8984 278.777 65.3827 281.004 70.0591 281.006H160.701C165.377 281.004 169.862 278.777 173.168 274.814C176.474 270.851 178.331 265.477 178.331 259.874V35.0865C178.332 32.3118 177.876 29.5641 176.991 27.0004C176.105 24.4366 174.807 22.1071 173.169 20.1447C171.532 18.1824 169.588 16.6258 167.449 15.5637C165.31 14.5017 163.017 13.9551 160.701 13.9551ZM174.812 247.688C174.812 253.288 172.957 258.659 169.655 262.621C166.352 266.583 161.872 268.812 157.199 268.82H73.5609C68.8835 268.82 64.3977 266.593 61.0903 262.631C57.7829 258.668 55.9248 253.293 55.9248 247.688V36.9974C55.9264 31.3942 57.7851 26.0212 61.0924 22.0598C64.3996 18.0984 68.8845 15.873 73.5609 15.873H108.532L108.567 16.0253C109.601 20.4842 111.982 23.3853 114.623 23.3853H116.137C118.778 23.3853 121.159 20.4842 122.193 16.0253L122.233 15.873H157.199C161.871 15.8803 166.35 18.1089 169.653 22.0695C172.955 26.0302 174.811 31.399 174.812 36.9974V247.688Z" fill="#263238" stroke="#263238" stroke-width="0.574" stroke-linejoin="round"/>
<path d="M115.016 18.8628C115.929 18.8628 116.669 17.9762 116.669 16.8825C116.669 15.7889 115.929 14.9023 115.016 14.9023C114.103 14.9023 113.363 15.7889 113.363 16.8825C113.363 17.9762 114.103 18.8628 115.016 18.8628Z" fill="white"/>
<path d="M66.4938 24.4859C66.4938 26.4938 64.6158 27.2139 64.6042 28.751V28.8548H66.4302V29.5472H63.9917V28.9795C63.9917 26.8262 65.8755 26.4107 65.8755 24.5344C65.8755 23.842 65.6848 23.4889 65.2225 23.4889C64.7602 23.4889 64.5753 23.8836 64.5753 24.4721V25.0606H63.9975V24.5205C63.9975 23.5028 64.3904 22.8242 65.2456 22.8242C66.1009 22.8242 66.4938 23.4681 66.4938 24.4859Z" fill="#263238"/>
<path d="M69.5332 24.4783V24.6514C69.5651 24.9385 69.5167 25.2303 69.3954 25.4809C69.274 25.7315 69.0868 25.9268 68.8629 26.0361C69.085 26.1484 69.2705 26.3442 69.3915 26.5941C69.5124 26.8439 69.5622 27.1342 69.5332 27.4209V27.9333C69.5332 28.9511 69.1402 29.6157 68.2792 29.6157C67.4182 29.6157 67.0369 28.9234 67.0369 27.9333V27.4555H67.6147V27.961C67.6147 28.5564 67.8227 28.9164 68.2677 28.9164C68.7126 28.9164 68.9149 28.5633 68.9149 27.8917V27.3794C68.9149 26.7216 68.6837 26.41 68.2157 26.3893H67.9094V25.6969H68.2735C68.3697 25.6981 68.4649 25.6744 68.5527 25.6272C68.6405 25.5801 68.7186 25.5106 68.7818 25.4237C68.845 25.3368 68.8917 25.2345 68.9187 25.1239C68.9456 25.0133 68.9522 24.8969 68.938 24.7829V24.4783C68.938 23.7859 68.7415 23.4397 68.2908 23.4397C67.8401 23.4397 67.6378 23.8136 67.6378 24.4091V24.7552H67.06V24.4783C67.06 23.4605 67.4529 22.8027 68.3024 22.8027C69.1518 22.8027 69.5332 23.4605 69.5332 24.4783Z" fill="#263238"/>
<path d="M70.7341 24.9844V25.9052H70.1573V24.9844H70.7341ZM70.7341 28.6055V29.5264H70.1573V28.6055H70.7341Z" fill="#263238"/>
<path d="M71.9891 25.5795C72.0701 25.4047 72.1906 25.2607 72.3367 25.1639C72.4828 25.0672 72.6487 25.0217 72.8154 25.0326C73.5319 25.0326 73.844 25.6557 73.844 26.6112V27.9129C73.844 28.9307 73.4395 29.5953 72.59 29.5953C71.7406 29.5953 71.3477 28.903 71.3477 27.9129V27.4628H71.9255V27.9613C71.9255 28.5568 72.1335 28.9168 72.5785 28.9168C73.0234 28.9168 73.2257 28.5568 73.2257 27.9613V26.6666C73.2257 26.0642 73.0234 25.7042 72.5785 25.7042C72.4983 25.6955 72.4176 25.707 72.3414 25.7378C72.2651 25.7687 72.1951 25.8184 72.1358 25.8835C72.0765 25.9487 72.0293 26.028 71.997 26.1164C71.9648 26.2047 71.9483 26.3001 71.9486 26.3965V26.5489H71.3708L71.521 22.8516H73.688V23.5439H72.0526L71.9891 25.5795Z" fill="#263238"/>
<path d="M76.9355 24.4644V24.5891H76.3577V24.4091C76.3577 23.8067 76.1496 23.4536 75.6989 23.4536C75.2482 23.4536 75.0228 23.8136 75.0228 24.5268V26.0223C75.0897 25.8065 75.2131 25.6225 75.3746 25.4977C75.536 25.3729 75.7268 25.314 75.9185 25.3299C76.635 25.3299 76.9529 25.9461 76.9529 26.9085V27.9194C76.9529 28.9372 76.531 29.6019 75.6816 29.6019C74.8321 29.6019 74.4045 28.9095 74.4045 27.9194V24.5129C74.4045 23.4605 74.7975 22.8027 75.6816 22.8027C76.5657 22.8027 76.9355 23.4466 76.9355 24.4644ZM75.0228 26.957V27.961C75.0228 28.5564 75.2309 28.9164 75.6816 28.9164C76.1323 28.9164 76.3403 28.5564 76.3403 27.961V26.957C76.3403 26.3616 76.1265 26.0015 75.6816 26.0015C75.2366 26.0015 75.0228 26.3616 75.0228 26.957Z" fill="#263238"/>
<path d="M137.598 24.7617H136.027V29.463H137.598V24.7617Z" fill="#263238"/>
<path d="M139.69 23.8203H138.119V29.4632H139.69V23.8203Z" fill="#263238"/>
<path d="M141.782 23.1484H140.21V29.456H141.782V23.1484Z" fill="#263238"/>
<path d="M143.868 21.9863H142.302V29.4571H143.868V21.9863Z" fill="#263238"/>
<path d="M163.284 29.332H153.871V22.4082H163.284V29.332ZM154.396 28.7019H162.764V23.066H154.396V28.7019Z" fill="#263238"/>
<path d="M160.146 23.7441H155.177V28.023H160.146V23.7441Z" fill="#263238"/>
<path d="M164.139 25.0742H162.954V26.7013H164.139V25.0742Z" fill="#263238"/>
<path d="M150.421 27.8286C150.358 27.8318 150.296 27.8126 150.242 27.7732C148.323 26.3885 147.058 27.6763 147.006 27.7248C146.935 27.7981 146.843 27.835 146.75 27.8272C146.657 27.8194 146.57 27.7676 146.509 27.6832C146.479 27.6419 146.456 27.5939 146.441 27.5419C146.426 27.49 146.421 27.435 146.424 27.3803C146.427 27.3256 146.439 27.2722 146.46 27.2232C146.48 27.1741 146.509 27.1305 146.544 27.0947C146.607 27.0185 148.231 25.3568 150.588 27.0462C150.628 27.0747 150.663 27.1124 150.691 27.1571C150.719 27.2018 150.739 27.2527 150.75 27.3068C150.761 27.3608 150.764 27.417 150.757 27.4721C150.75 27.5272 150.734 27.5801 150.71 27.6278C150.68 27.6877 150.637 27.7376 150.587 27.7727C150.536 27.8078 150.479 27.827 150.421 27.8286Z" fill="#263238"/>
<path d="M151.12 26.4181C151.057 26.417 150.995 26.3954 150.941 26.3558C148.173 24.3825 146.318 26.2934 146.289 26.3142C146.218 26.3829 146.128 26.4159 146.037 26.4063C145.946 26.3967 145.862 26.3452 145.802 26.2627C145.742 26.1802 145.711 26.0731 145.716 25.9639C145.72 25.8547 145.76 25.752 145.827 25.6772C145.827 25.6772 148.098 23.3508 151.299 25.6357C151.379 25.6921 151.438 25.7841 151.461 25.8917C151.485 25.9993 151.473 26.1138 151.426 26.2104C151.394 26.2732 151.349 26.3252 151.296 26.3615C151.242 26.3978 151.182 26.4173 151.12 26.4181Z" fill="#263238"/>
<path d="M151.773 24.7774C151.71 24.7782 151.647 24.7565 151.594 24.7151C148.081 22.2156 145.752 24.5697 145.654 24.6736C145.583 24.7469 145.491 24.7838 145.398 24.776C145.305 24.7682 145.218 24.7164 145.157 24.632C145.127 24.5907 145.103 24.5427 145.089 24.4907C145.074 24.4387 145.068 24.3838 145.072 24.3291C145.075 24.2744 145.087 24.221 145.108 24.172C145.128 24.1229 145.157 24.0793 145.191 24.0435C145.22 24.0435 147.988 21.1701 151.952 23.995C151.992 24.0229 152.027 24.0599 152.054 24.104C152.082 24.1481 152.102 24.1984 152.113 24.2519C152.125 24.3054 152.127 24.361 152.12 24.4156C152.113 24.4702 152.097 24.5226 152.074 24.5697C152.043 24.6324 151.999 24.6845 151.946 24.7209C151.893 24.7573 151.834 24.7768 151.773 24.7774Z" fill="#263238"/>
<path d="M148.479 29.5952C148.967 29.5952 149.363 29.121 149.363 28.5359C149.363 27.9508 148.967 27.4766 148.479 27.4766C147.991 27.4766 147.595 27.9508 147.595 28.5359C147.595 29.121 147.991 29.5952 148.479 29.5952Z" fill="#263238"/>
<path d="M220.637 187.598C220.666 187.598 221.215 185.49 221.215 185.351C221.44 183.756 220.932 180.542 219.297 179.753C219.023 179.634 218.728 179.573 218.43 179.574C218.132 179.576 217.837 179.639 217.565 179.76C217.293 179.882 217.05 180.059 216.85 180.28C216.651 180.501 216.5 180.761 216.407 181.043C215.968 182.241 216.523 183.71 217.182 184.718C217.944 185.904 220.637 187.592 220.637 187.598Z" fill="#263238"/>
<path d="M188.491 186.89C189.792 187.466 192.97 187.379 192.97 187.379C192.97 187.379 192.288 185.306 192.23 185.179C191.531 183.728 189.341 181.326 187.532 181.568C187.234 181.615 186.949 181.724 186.696 181.888C186.443 182.052 186.228 182.267 186.064 182.52C185.9 182.773 185.792 183.057 185.746 183.355C185.701 183.652 185.718 183.956 185.799 184.246C186.111 185.496 187.382 186.417 188.491 186.89Z" fill="#263238"/>
<path d="M230.126 176.113C228.323 175.923 226.185 178.382 225.503 179.851C225.445 179.983 224.786 182.074 224.821 182.074H224.856C224.515 182.46 224.156 182.875 223.769 183.341C223.064 184.199 222.278 185.179 221.493 186.307C220.633 187.51 219.846 188.762 219.135 190.057C218.329 191.501 217.654 193.014 217.118 194.578V194.636C217.118 194.112 217.118 192.632 217.089 192.516C216.881 190.921 215.535 187.955 213.755 187.626C213.458 187.579 213.155 187.595 212.865 187.672C212.574 187.75 212.304 187.888 212.071 188.078C211.838 188.267 211.648 188.503 211.513 188.771C211.378 189.038 211.301 189.332 211.288 189.631C211.178 190.904 212.103 192.171 213.021 192.977C214.038 193.881 216.858 194.757 217.066 194.826C216.56 196.432 216.163 198.069 215.876 199.728C215.703 200.695 215.558 201.669 215.425 202.653C215.425 202.193 215.425 201.784 215.425 201.732C215.217 200.131 213.871 197.164 212.091 196.836C211.794 196.79 211.49 196.806 211.2 196.885C210.91 196.963 210.639 197.102 210.406 197.291C210.174 197.481 209.983 197.718 209.849 197.986C209.714 198.254 209.637 198.547 209.624 198.846C209.514 200.113 210.438 201.386 211.357 202.187C212.276 202.988 214.662 203.794 215.298 204.001C215.246 204.376 215.2 204.75 215.154 205.153C214.934 206.962 214.726 208.77 214.466 210.539C214.379 211.161 214.264 211.771 214.154 212.382C214.154 211.978 214.154 211.633 214.154 211.581C213.946 209.986 212.605 207.019 210.82 206.691C210.523 206.645 210.219 206.661 209.929 206.74C209.638 206.818 209.368 206.957 209.135 207.146C208.902 207.336 208.712 207.573 208.577 207.84C208.442 208.108 208.366 208.402 208.352 208.701C208.248 209.968 209.173 211.241 210.086 212.042C210.999 212.842 213.16 213.574 213.911 213.816C213.778 214.438 213.651 215.06 213.495 215.659C213.374 216.062 213.293 216.459 213.154 216.863C213.016 217.266 212.894 217.658 212.773 218.049C212.495 218.792 212.224 219.564 211.941 220.284C211.744 220.785 211.554 221.263 211.363 221.741C211.461 221.119 211.629 219.904 211.629 219.8C211.607 218.384 211.223 216.996 210.513 215.768C210.518 215.61 210.509 215.452 210.485 215.296C210.447 214.999 210.347 214.712 210.192 214.456C210.036 214.2 209.828 213.979 209.581 213.808C209.334 213.636 209.054 213.519 208.759 213.463C208.463 213.407 208.16 213.413 207.867 213.482C206.133 213.948 205.006 217.012 204.92 218.619C204.92 218.712 204.978 219.771 205.03 220.405C204.943 220.025 204.862 219.656 204.764 219.253C204.579 218.481 204.377 217.721 204.157 216.897L203.741 215.688C203.631 215.29 203.458 214.881 203.319 214.472C202.972 213.528 202.58 212.589 202.163 211.65C202.84 211.489 205.238 210.878 206.208 210.147C207.179 209.415 208.185 208.212 208.173 206.939C208.181 206.639 208.126 206.341 208.011 206.064C207.897 205.787 207.725 205.537 207.507 205.331C207.289 205.125 207.03 204.966 206.746 204.866C206.463 204.766 206.161 204.726 205.862 204.75C204.059 204.946 202.499 207.803 202.175 209.358C202.175 209.461 202.048 210.619 202.002 211.253C201.742 210.677 201.487 210.135 201.21 209.571C200.407 207.958 199.54 206.351 198.685 204.738C198.419 204.243 198.165 203.754 197.91 203.258C198.153 203.201 201.014 202.538 202.094 201.715C203.053 200.983 204.065 199.785 204.059 198.512C204.067 198.213 204.012 197.915 203.897 197.638C203.782 197.361 203.61 197.111 203.392 196.905C203.174 196.698 202.915 196.54 202.632 196.44C202.348 196.34 202.047 196.3 201.747 196.324C199.95 196.519 198.39 199.376 198.061 200.931C198.061 201.052 197.887 202.717 197.87 203.143C197.292 202.054 196.743 200.966 196.24 199.872C195.555 198.394 194.965 196.874 194.472 195.321C194.588 195.321 197.581 194.619 198.685 193.772C199.644 193.041 200.661 191.843 200.649 190.57C200.658 190.27 200.603 189.972 200.488 189.695C200.373 189.418 200.201 189.168 199.983 188.962C199.765 188.756 199.506 188.597 199.223 188.497C198.939 188.397 198.638 188.357 198.338 188.381C196.535 188.577 194.975 191.434 194.646 192.989C194.646 193.092 194.507 194.365 194.466 194.97H194.362C193.913 193.393 193.606 191.78 193.444 190.149C193.345 189.256 193.299 188.392 193.27 187.552C193.848 187.482 196.443 187.137 197.523 186.486C198.604 185.835 199.696 184.758 199.835 183.514C199.875 183.217 199.853 182.915 199.769 182.628C199.685 182.341 199.542 182.074 199.348 181.845C199.154 181.617 198.914 181.431 198.643 181.301C198.373 181.171 198.078 181.099 197.778 181.089C195.963 181.089 194.097 183.756 193.6 185.288C193.571 185.374 193.392 186.25 193.265 186.889C193.265 186.515 193.265 186.123 193.265 185.737C193.265 184.372 193.357 183.128 193.444 182.022C193.496 181.389 193.553 180.824 193.617 180.294C194.143 179.931 196.235 178.463 196.882 177.414C197.529 176.366 198.038 174.903 197.552 173.717C197.451 173.435 197.292 173.177 197.085 172.96C196.878 172.743 196.627 172.572 196.349 172.458C196.071 172.344 195.772 172.289 195.472 172.298C195.171 172.306 194.876 172.378 194.605 172.507C192.999 173.337 192.571 176.568 192.837 178.157C192.837 178.29 193.473 180.398 193.496 180.381H193.53C193.461 180.893 193.386 181.44 193.322 182.04C193.213 183.145 193.097 184.395 193.068 185.766C193.018 187.241 193.053 188.718 193.172 190.189C193.3 191.839 193.577 193.474 193.998 195.074C193.997 195.093 193.997 195.112 193.998 195.131C193.709 194.682 192.843 193.461 192.796 193.375C191.739 192.159 188.977 190.426 187.313 191.128C187.039 191.253 186.794 191.433 186.595 191.658C186.396 191.883 186.246 192.148 186.157 192.434C186.067 192.72 186.038 193.022 186.073 193.32C186.108 193.618 186.205 193.906 186.359 194.164C186.978 195.281 188.451 195.828 189.647 196.007C190.994 196.203 193.831 195.379 194.056 195.316C194.524 196.934 195.103 198.517 195.79 200.056C196.177 200.96 196.599 201.853 197.032 202.746C196.772 202.366 196.541 202.031 196.501 201.991C195.443 200.77 192.681 199.036 191.017 199.739C190.743 199.864 190.498 200.044 190.299 200.269C190.1 200.494 189.951 200.758 189.861 201.045C189.771 201.331 189.742 201.633 189.777 201.931C189.812 202.229 189.91 202.516 190.063 202.774C190.682 203.892 192.155 204.445 193.351 204.618C194.547 204.79 196.992 204.139 197.633 203.961C197.806 204.301 197.974 204.641 198.142 204.98C198.962 206.61 199.788 208.235 200.551 209.853C200.823 210.429 201.066 211.005 201.308 211.581C201.083 211.247 200.886 210.965 200.852 210.924C199.794 209.709 197.026 207.97 195.362 208.678C195.088 208.802 194.844 208.983 194.644 209.208C194.445 209.433 194.296 209.698 194.207 209.984C194.117 210.271 194.089 210.573 194.125 210.871C194.161 211.169 194.26 211.456 194.414 211.714C195.027 212.825 196.501 213.378 197.697 213.551C198.893 213.724 201.106 213.142 201.869 212.929C202.1 213.505 202.337 214.115 202.539 214.697C202.666 215.1 202.816 215.475 202.92 215.889C203.024 216.304 203.146 216.69 203.256 217.087C203.446 217.859 203.643 218.654 203.805 219.391C203.92 219.921 204.018 220.422 204.122 220.929C203.862 220.353 203.331 219.253 203.273 219.167C202.412 217.802 199.945 215.67 198.194 216.114C197.901 216.195 197.629 216.337 197.396 216.531C197.162 216.725 196.973 216.966 196.84 217.238C196.708 217.511 196.634 217.808 196.626 218.111C196.617 218.413 196.673 218.714 196.789 218.994C197.229 220.192 198.604 220.958 199.76 221.298C201.031 221.684 203.845 221.332 204.198 221.298C204.365 222.133 204.521 222.951 204.654 223.728C205.128 226.406 205.423 228.653 205.607 230.231C205.636 230.507 205.665 230.761 205.688 230.997H200.239L201.903 263.332H211.842L213.507 230.997H208.364L208.479 230.761C209.173 229.315 210.144 227.236 211.184 224.696C211.519 223.89 211.854 223.026 212.195 222.133C212.536 222.208 215.321 222.772 216.621 222.478C217.777 222.213 219.222 221.551 219.753 220.388C219.886 220.119 219.96 219.825 219.972 219.526C219.983 219.227 219.931 218.928 219.82 218.65C219.708 218.372 219.539 218.121 219.323 217.912C219.108 217.703 218.851 217.542 218.569 217.439C216.835 216.863 214.235 218.804 213.27 220.1C213.218 220.18 212.692 221.079 212.374 221.649C212.513 221.286 212.646 220.929 212.784 220.555C213.056 219.812 213.31 219.057 213.582 218.251C213.703 217.859 213.819 217.462 213.94 217.059C214.061 216.655 214.154 216.229 214.264 215.809C214.495 214.829 214.685 213.827 214.842 212.819C215.494 213.056 217.835 213.862 219.043 213.781C220.25 213.701 221.758 213.251 222.458 212.186C222.63 211.94 222.749 211.662 222.806 211.367C222.864 211.073 222.858 210.77 222.79 210.478C222.722 210.187 222.593 209.912 222.411 209.674C222.229 209.435 221.999 209.237 221.735 209.093C220.129 208.263 217.24 209.79 216.095 210.924C216.026 210.994 215.292 211.904 214.905 212.41C214.998 211.8 215.096 211.195 215.177 210.573C215.396 208.782 215.57 206.967 215.755 205.153L215.928 203.489C216.159 203.575 218.915 204.6 220.273 204.502C221.475 204.422 222.989 203.978 223.683 202.913C223.856 202.667 223.975 202.388 224.033 202.094C224.09 201.8 224.085 201.496 224.018 201.204C223.95 200.912 223.822 200.637 223.64 200.397C223.459 200.158 223.229 199.959 222.966 199.814C221.354 198.99 218.47 200.511 217.326 201.651C217.24 201.738 216.171 203.045 215.939 203.379C216.067 202.158 216.211 200.943 216.396 199.756C216.638 198.145 216.987 196.552 217.442 194.987C217.546 195.028 220.418 196.11 221.805 196.013C223.012 195.926 224.521 195.488 225.22 194.417C225.392 194.172 225.511 193.893 225.569 193.599C225.626 193.305 225.62 193.002 225.552 192.71C225.484 192.418 225.355 192.144 225.173 191.905C224.991 191.666 224.761 191.468 224.497 191.324C222.891 190.495 220.008 192.021 218.858 193.156C218.782 193.231 217.985 194.227 217.615 194.711L217.523 194.659C218.018 193.098 218.655 191.585 219.424 190.138C219.834 189.331 220.273 188.588 220.718 187.874C221.233 188.128 223.608 189.274 224.85 189.326C226.092 189.377 227.606 189.095 228.421 188.116C228.62 187.89 228.768 187.625 228.858 187.339C228.947 187.052 228.975 186.75 228.939 186.452C228.904 186.153 228.806 185.866 228.652 185.608C228.498 185.35 228.291 185.127 228.045 184.954C226.537 183.958 223.504 185.156 222.238 186.163C222.169 186.215 221.533 186.849 221.082 187.315C221.29 186.999 221.498 186.665 221.701 186.359C222.458 185.207 223.22 184.228 223.902 183.353C224.295 182.857 224.659 182.42 225.006 182.011C225.642 182.011 228.201 181.924 229.322 181.4C230.444 180.876 231.669 179.931 231.934 178.687C231.997 178.399 231.999 178.101 231.94 177.811C231.882 177.522 231.764 177.248 231.594 177.006C231.424 176.765 231.206 176.561 230.953 176.407C230.701 176.253 230.419 176.153 230.126 176.113ZM210.19 224.327C209.103 226.821 208.104 228.86 207.381 230.271C207.237 230.559 207.104 230.807 206.983 231.043H206.867C206.827 230.767 206.792 230.467 206.746 230.127C206.526 228.538 206.168 226.268 205.642 223.573C205.475 222.72 205.278 221.816 205.064 220.889C205.912 220.553 206.74 220.168 207.543 219.737C208.468 220.739 210.843 221.908 211.149 222.041C210.825 222.835 210.508 223.607 210.19 224.327Z" fill="#263238"/>
<path opacity="0.3" d="M188.491 186.89C189.792 187.466 192.97 187.379 192.97 187.379C192.97 187.379 192.288 185.306 192.23 185.179C191.531 183.728 189.341 181.326 187.532 181.568C187.234 181.615 186.949 181.724 186.696 181.888C186.443 182.052 186.228 182.267 186.064 182.52C185.9 182.773 185.792 183.057 185.746 183.355C185.701 183.652 185.718 183.956 185.799 184.246C186.111 185.496 187.382 186.417 188.491 186.89Z" fill="#263238"/>
<path opacity="0.3" d="M220.637 187.598C220.666 187.598 221.215 185.49 221.215 185.351C221.44 183.756 220.932 180.542 219.297 179.753C219.023 179.634 218.728 179.573 218.43 179.574C218.132 179.576 217.837 179.639 217.565 179.76C217.293 179.882 217.05 180.059 216.85 180.28C216.651 180.501 216.5 180.761 216.407 181.043C215.968 182.241 216.523 183.71 217.182 184.718C217.944 185.904 220.637 187.592 220.637 187.598Z" fill="#263238"/>
<path opacity="0.3" d="M230.126 176.113C228.323 175.923 226.185 178.382 225.503 179.851C225.445 179.983 224.786 182.074 224.821 182.074H224.856C224.515 182.46 224.156 182.875 223.769 183.341C223.064 184.199 222.278 185.179 221.493 186.307C220.633 187.51 219.846 188.762 219.135 190.057C218.329 191.501 217.654 193.014 217.118 194.578V194.636C217.118 194.112 217.118 192.632 217.089 192.516C216.881 190.921 215.535 187.955 213.755 187.626C213.458 187.579 213.155 187.595 212.865 187.672C212.574 187.75 212.304 187.888 212.071 188.078C211.838 188.267 211.648 188.503 211.513 188.771C211.378 189.038 211.301 189.332 211.288 189.631C211.178 190.904 212.103 192.171 213.021 192.977C214.038 193.881 216.858 194.757 217.066 194.826C216.56 196.432 216.163 198.069 215.876 199.728C215.703 200.695 215.558 201.669 215.425 202.653C215.425 202.193 215.425 201.784 215.425 201.732C215.217 200.131 213.871 197.164 212.091 196.836C211.794 196.79 211.49 196.806 211.2 196.885C210.91 196.963 210.639 197.102 210.406 197.291C210.174 197.481 209.983 197.718 209.849 197.986C209.714 198.254 209.637 198.547 209.624 198.846C209.514 200.113 210.438 201.386 211.357 202.187C212.276 202.988 214.662 203.794 215.298 204.001C215.246 204.376 215.2 204.75 215.154 205.153C214.934 206.962 214.726 208.77 214.466 210.539C214.379 211.161 214.264 211.771 214.154 212.382C214.154 211.978 214.154 211.633 214.154 211.581C213.946 209.986 212.605 207.019 210.82 206.691C210.523 206.645 210.219 206.661 209.929 206.74C209.638 206.818 209.368 206.957 209.135 207.146C208.902 207.336 208.712 207.573 208.577 207.84C208.442 208.108 208.366 208.402 208.352 208.701C208.248 209.968 209.173 211.241 210.086 212.042C210.999 212.842 213.16 213.574 213.911 213.816C213.778 214.438 213.651 215.06 213.495 215.659C213.374 216.062 213.293 216.459 213.154 216.863C213.016 217.266 212.894 217.658 212.773 218.049C212.495 218.792 212.224 219.564 211.941 220.284C211.744 220.785 211.554 221.263 211.363 221.741C211.461 221.119 211.629 219.904 211.629 219.8C211.607 218.384 211.223 216.996 210.513 215.768C210.518 215.61 210.509 215.452 210.485 215.296C210.447 214.999 210.347 214.712 210.192 214.456C210.036 214.2 209.828 213.979 209.581 213.808C209.334 213.636 209.054 213.519 208.759 213.463C208.463 213.407 208.16 213.413 207.867 213.482C206.133 213.948 205.006 217.012 204.92 218.619C204.92 218.712 204.978 219.771 205.03 220.405C204.943 220.025 204.862 219.656 204.764 219.253C204.579 218.481 204.377 217.721 204.157 216.897L203.741 215.688C203.631 215.29 203.458 214.881 203.319 214.472C202.972 213.528 202.58 212.589 202.163 211.65C202.84 211.489 205.238 210.878 206.208 210.147C207.179 209.415 208.185 208.212 208.173 206.939C208.181 206.639 208.126 206.341 208.011 206.064C207.897 205.787 207.725 205.537 207.507 205.331C207.289 205.125 207.03 204.966 206.746 204.866C206.463 204.766 206.161 204.726 205.862 204.75C204.059 204.946 202.499 207.803 202.175 209.358C202.175 209.461 202.048 210.619 202.002 211.253C201.742 210.677 201.487 210.135 201.21 209.571C200.407 207.958 199.54 206.351 198.685 204.738C198.419 204.243 198.165 203.754 197.91 203.258C198.153 203.201 201.014 202.538 202.094 201.715C203.053 200.983 204.065 199.785 204.059 198.512C204.067 198.213 204.012 197.915 203.897 197.638C203.782 197.361 203.61 197.111 203.392 196.905C203.174 196.698 202.915 196.54 202.632 196.44C202.348 196.34 202.047 196.3 201.747 196.324C199.95 196.519 198.39 199.376 198.061 200.931C198.061 201.052 197.887 202.717 197.87 203.143C197.292 202.054 196.743 200.966 196.24 199.872C195.555 198.394 194.965 196.874 194.472 195.321C194.588 195.321 197.581 194.619 198.685 193.772C199.644 193.041 200.661 191.843 200.649 190.57C200.658 190.27 200.603 189.972 200.488 189.695C200.373 189.418 200.201 189.168 199.983 188.962C199.765 188.756 199.506 188.597 199.223 188.497C198.939 188.397 198.638 188.357 198.338 188.381C196.535 188.577 194.975 191.434 194.646 192.989C194.646 193.092 194.507 194.365 194.466 194.97H194.362C193.913 193.393 193.606 191.78 193.444 190.149C193.345 189.256 193.299 188.392 193.27 187.552C193.848 187.482 196.443 187.137 197.523 186.486C198.604 185.835 199.696 184.758 199.835 183.514C199.875 183.217 199.853 182.915 199.769 182.628C199.685 182.341 199.542 182.074 199.348 181.845C199.154 181.617 198.914 181.431 198.643 181.301C198.373 181.171 198.078 181.099 197.778 181.089C195.963 181.089 194.097 183.756 193.6 185.288C193.571 185.374 193.392 186.25 193.265 186.889C193.265 186.515 193.265 186.123 193.265 185.737C193.265 184.372 193.357 183.128 193.444 182.022C193.496 181.389 193.553 180.824 193.617 180.294C194.143 179.931 196.235 178.463 196.882 177.414C197.529 176.366 198.038 174.903 197.552 173.717C197.451 173.435 197.292 173.177 197.085 172.96C196.878 172.743 196.627 172.572 196.349 172.458C196.071 172.344 195.772 172.289 195.472 172.298C195.171 172.306 194.876 172.378 194.605 172.507C192.999 173.337 192.571 176.568 192.837 178.157C192.837 178.29 193.473 180.398 193.496 180.381H193.53C193.461 180.893 193.386 181.44 193.322 182.04C193.213 183.145 193.097 184.395 193.068 185.766C193.018 187.241 193.053 188.718 193.172 190.189C193.3 191.839 193.577 193.474 193.998 195.074C193.997 195.093 193.997 195.112 193.998 195.131C193.709 194.682 192.843 193.461 192.796 193.375C191.739 192.159 188.977 190.426 187.313 191.128C187.039 191.253 186.794 191.433 186.595 191.658C186.396 191.883 186.246 192.148 186.157 192.434C186.067 192.72 186.038 193.022 186.073 193.32C186.108 193.618 186.205 193.906 186.359 194.164C186.978 195.281 188.451 195.828 189.647 196.007C190.994 196.203 193.831 195.379 194.056 195.316C194.524 196.934 195.103 198.517 195.79 200.056C196.177 200.96 196.599 201.853 197.032 202.746C196.772 202.366 196.541 202.031 196.501 201.991C195.443 200.77 192.681 199.036 191.017 199.739C190.743 199.864 190.498 200.044 190.299 200.269C190.1 200.494 189.951 200.758 189.861 201.045C189.771 201.331 189.742 201.633 189.777 201.931C189.812 202.229 189.91 202.516 190.063 202.774C190.682 203.892 192.155 204.445 193.351 204.618C194.547 204.79 196.992 204.139 197.633 203.961C197.806 204.301 197.974 204.641 198.142 204.98C198.962 206.61 199.788 208.235 200.551 209.853C200.823 210.429 201.066 211.005 201.308 211.581C201.083 211.247 200.886 210.965 200.852 210.924C199.794 209.709 197.026 207.97 195.362 208.678C195.088 208.802 194.844 208.983 194.644 209.208C194.445 209.433 194.296 209.698 194.207 209.984C194.117 210.271 194.089 210.573 194.125 210.871C194.161 211.169 194.26 211.456 194.414 211.714C195.027 212.825 196.501 213.378 197.697 213.551C198.893 213.724 201.106 213.142 201.869 212.929C202.1 213.505 202.337 214.115 202.539 214.697C202.666 215.1 202.816 215.475 202.92 215.889C203.024 216.304 203.146 216.69 203.256 217.087C203.446 217.859 203.643 218.654 203.805 219.391C203.92 219.921 204.018 220.422 204.122 220.929C203.862 220.353 203.331 219.253 203.273 219.167C202.412 217.802 199.945 215.67 198.194 216.114C197.901 216.195 197.629 216.337 197.396 216.531C197.162 216.725 196.973 216.966 196.84 217.238C196.708 217.511 196.634 217.808 196.626 218.111C196.617 218.413 196.673 218.714 196.789 218.994C197.229 220.192 198.604 220.958 199.76 221.298C201.031 221.684 203.845 221.332 204.198 221.298C204.365 222.133 204.521 222.951 204.654 223.728C205.128 226.406 205.423 228.653 205.607 230.231C205.636 230.507 205.665 230.761 205.688 230.997H200.239L201.903 263.332H211.842L213.507 230.997H208.364L208.479 230.761C209.173 229.315 210.144 227.236 211.184 224.696C211.519 223.89 211.854 223.026 212.195 222.133C212.536 222.208 215.321 222.772 216.621 222.478C217.777 222.213 219.222 221.551 219.753 220.388C219.886 220.119 219.96 219.825 219.972 219.526C219.983 219.227 219.931 218.928 219.82 218.65C219.708 218.372 219.539 218.121 219.323 217.912C219.108 217.703 218.851 217.542 218.569 217.439C216.835 216.863 214.235 218.804 213.27 220.1C213.218 220.18 212.692 221.079 212.374 221.649C212.513 221.286 212.646 220.929 212.784 220.555C213.056 219.812 213.31 219.057 213.582 218.251C213.703 217.859 213.819 217.462 213.94 217.059C214.061 216.655 214.154 216.229 214.264 215.809C214.495 214.829 214.685 213.827 214.842 212.819C215.494 213.056 217.835 213.862 219.043 213.781C220.25 213.701 221.758 213.251 222.458 212.186C222.63 211.94 222.749 211.662 222.806 211.367C222.864 211.073 222.858 210.77 222.79 210.478C222.722 210.187 222.593 209.912 222.411 209.674C222.229 209.435 221.999 209.237 221.735 209.093C220.129 208.263 217.24 209.79 216.095 210.924C216.026 210.994 215.292 211.904 214.905 212.41C214.998 211.8 215.096 211.195 215.177 210.573C215.396 208.782 215.57 206.967 215.755 205.153L215.928 203.489C216.159 203.575 218.915 204.6 220.273 204.502C221.475 204.422 222.989 203.978 223.683 202.913C223.856 202.667 223.975 202.388 224.033 202.094C224.09 201.8 224.085 201.496 224.018 201.204C223.95 200.912 223.822 200.637 223.64 200.397C223.459 200.158 223.229 199.959 222.966 199.814C221.354 198.99 218.47 200.511 217.326 201.651C217.24 201.738 216.171 203.045 215.939 203.379C216.067 202.158 216.211 200.943 216.396 199.756C216.638 198.145 216.987 196.552 217.442 194.987C217.546 195.028 220.418 196.11 221.805 196.013C223.012 195.926 224.521 195.488 225.22 194.417C225.392 194.172 225.511 193.893 225.569 193.599C225.626 193.305 225.62 193.002 225.552 192.71C225.484 192.418 225.355 192.144 225.173 191.905C224.991 191.666 224.761 191.468 224.497 191.324C222.891 190.495 220.008 192.021 218.858 193.156C218.782 193.231 217.985 194.227 217.615 194.711L217.523 194.659C218.018 193.098 218.655 191.585 219.424 190.138C219.834 189.331 220.273 188.588 220.718 187.874C221.233 188.128 223.608 189.274 224.85 189.326C226.092 189.377 227.606 189.095 228.421 188.116C228.62 187.89 228.768 187.625 228.858 187.339C228.947 187.052 228.975 186.75 228.939 186.452C228.904 186.153 228.806 185.866 228.652 185.608C228.498 185.35 228.291 185.127 228.045 184.954C226.537 183.958 223.504 185.156 222.238 186.163C222.169 186.215 221.533 186.849 221.082 187.315C221.29 186.999 221.498 186.665 221.701 186.359C222.458 185.207 223.22 184.228 223.902 183.353C224.295 182.857 224.659 182.42 225.006 182.011C225.642 182.011 228.201 181.924 229.322 181.4C230.444 180.876 231.669 179.931 231.934 178.687C231.997 178.399 231.999 178.101 231.94 177.811C231.882 177.522 231.764 177.248 231.594 177.006C231.424 176.765 231.206 176.561 230.953 176.407C230.701 176.253 230.419 176.153 230.126 176.113ZM210.19 224.327C209.103 226.821 208.104 228.86 207.381 230.271C207.237 230.559 207.104 230.807 206.983 231.043H206.867C206.827 230.767 206.792 230.467 206.746 230.127C206.526 228.538 206.168 226.268 205.642 223.573C205.475 222.72 205.278 221.816 205.064 220.889C205.912 220.553 206.74 220.168 207.543 219.737C208.468 220.739 210.843 221.908 211.149 222.041C210.825 222.835 210.508 223.607 210.19 224.327Z" fill="#263238"/>
<path d="M162.365 37.3711C164.958 37.3713 167.519 37.9485 169.86 39.0605C172.202 40.1725 174.264 41.7913 175.898 43.7989H208.293C210.669 43.8586 212.928 44.8414 214.588 46.5378C216.247 48.2341 217.176 50.5097 217.176 52.8791C217.176 55.2485 216.247 57.524 214.588 59.2204C212.928 60.9168 210.669 61.8996 208.293 61.9593H178.244C176.967 64.7516 174.974 67.1593 172.466 68.94L162.764 76.4276C162.727 76.4546 162.682 76.4688 162.637 76.468C162.595 76.4685 162.554 76.4542 162.521 76.4276L151.871 68.7154C149.687 67.1035 147.919 64.9967 146.713 62.569C145.507 60.1413 144.899 57.4625 144.937 54.7539C144.943 50.1475 146.781 45.7314 150.048 42.4732C153.314 39.2149 157.744 37.3802 162.365 37.3711Z" fill="#263238"/>
<path d="M208.732 60.1738L166.722 60.1738V42.4167L208.732 42.4167C211.094 42.4167 213.359 43.3518 215.028 45.0163C216.698 46.6808 217.637 48.9384 217.637 51.2924C217.637 52.4584 217.408 53.6132 216.96 54.6907C216.513 55.7682 215.857 56.7474 215.031 57.5722C214.204 58.397 213.222 59.0512 212.141 59.4977C211.06 59.9441 209.902 60.1738 208.732 60.1738Z" fill="white" stroke="#263238" stroke-width="0.574" stroke-linecap="round" stroke-linejoin="round"/>
<path d="M209.679 48.6895H187.155" stroke="#263238" stroke-width="0.574" stroke-linejoin="round"/>
<path d="M209.679 51.5234H187.155" stroke="#263238" stroke-width="0.574" stroke-linejoin="round"/>
<path d="M209.679 54.3496H187.155" stroke="#263238" stroke-width="0.574" stroke-linejoin="round"/>
<path d="M152.426 66.9648L163.07 74.6828L172.772 67.1952C175.185 65.4886 177.116 63.1921 178.381 60.5265C179.645 57.8609 180.201 54.9158 179.993 51.9744C179.786 49.033 178.823 46.1942 177.197 43.7311C175.57 41.268 173.336 39.2633 170.708 37.9098C168.079 36.5563 165.146 35.8996 162.19 36.0027C159.233 36.1059 156.353 36.9654 153.826 38.4987C151.299 40.0321 149.211 42.1876 147.761 44.758C146.312 47.3285 145.55 50.2274 145.55 53.176C145.514 55.8537 146.119 58.5013 147.315 60.8993C148.511 63.2973 150.263 65.3766 152.426 66.9648Z" fill="white" stroke="#263238" stroke-width="0.574" stroke-linecap="round" stroke-linejoin="round"/>
<path d="M177.851 53.262C177.852 56.2523 176.964 59.1758 175.298 61.6627C173.632 64.1497 171.264 66.0885 168.493 67.2339C165.721 68.3793 162.672 68.6798 159.729 68.0976C156.786 67.5153 154.083 66.0764 151.961 63.9627C149.839 61.8491 148.393 59.1556 147.807 56.223C147.22 53.2904 147.519 50.2503 148.666 47.4872C149.813 44.7241 151.757 42.362 154.251 40.6998C156.744 39.0375 159.677 38.1497 162.677 38.1485C164.671 38.1417 166.646 38.5279 168.489 39.2848C170.333 40.0418 172.008 41.1546 173.418 42.5592C174.828 43.9638 175.946 45.6325 176.707 47.4694C177.468 49.3062 177.857 51.2748 177.851 53.262Z" fill="#36B23B" stroke="#263238" stroke-width="0.574" stroke-linejoin="round"/>
<path d="M173.691 63.6639L162.781 60.8359L151.224 63.1801C151.368 63.3529 151.524 63.52 151.681 63.6812C153.098 65.1705 154.804 66.3565 156.696 67.167C158.589 67.9775 160.626 68.3954 162.686 68.3954C164.745 68.3954 166.783 67.9775 168.675 67.167C170.567 66.3565 172.274 65.1705 173.691 63.6812V63.6639Z" fill="white" stroke="#263238" stroke-width="0.574" stroke-linecap="round" stroke-linejoin="round"/>
<path d="M160.834 60.0879C159.9 60.5853 159.064 61.2468 158.366 62.0404C157.286 63.3018 155.477 66.6482 155.645 66.5215C155.812 66.3948 160.897 63.3018 160.897 63.3018L160.834 60.0879Z" fill="#36B23B" stroke="#263238" stroke-width="0.574" stroke-linecap="round" stroke-linejoin="round"/>
<path d="M165.069 59.4531L161.082 63.8075L162.221 67.7817L166.907 61.8549L165.069 59.4531Z" fill="#36B23B" stroke="#263238" stroke-width="0.574" stroke-linecap="round" stroke-linejoin="round"/>
<path d="M157.731 44.2534C157.731 44.2534 155.136 44.7603 154.841 42.491C154.547 40.2216 158.071 37.002 163.133 37.002C168.195 37.002 172.183 41.2296 171.992 45.3305C171.818 47.9762 170.912 50.5221 169.374 52.6856C168.428 53.4572 167.326 54.017 166.144 54.3271C165.26 54.4481 164.63 53.1752 165.069 51.551C165.508 49.9267 164.122 49.466 164.694 47.9569C165.266 46.4479 166.023 46.4421 166.271 45.9353C166.52 45.4284 163.74 44.3571 161.209 44.4838C158.678 44.6105 157.731 44.2534 157.731 44.2534Z" fill="#263238" stroke="#263238" stroke-width="0.574" stroke-linecap="round" stroke-linejoin="round"/>
<path d="M160.516 57.6288L160.47 57.8707C160.337 58.6483 159.927 61.0789 159.817 62.5476C159.695 64.3159 160.973 64.2755 161.464 63.7456C161.955 63.2157 164.63 60.5951 165.069 59.4604C165.509 58.3258 166.526 54.916 166.526 54.916L160.516 57.6288Z" fill="white" stroke="#263238" stroke-width="0.574" stroke-linecap="round" stroke-linejoin="round"/>
<path d="M157.731 44.2531C157.731 44.2531 156.847 49.1777 156.529 51.7407C156.211 54.3038 155.893 55.8359 156.974 57.5004C158.054 59.165 161.082 58.0764 162.602 57.4371C164.197 56.6513 165.741 55.7664 167.225 54.7876C167.225 54.7876 169.374 54.9143 170.258 53.843C170.408 53.6518 170.512 53.4299 170.564 53.1933C170.616 52.9567 170.614 52.7116 170.559 52.4758C170.503 52.2401 170.396 52.0196 170.244 51.8307C170.092 51.6417 169.899 51.4889 169.681 51.3836C169.309 51.3703 168.939 51.4301 168.591 51.5596C168.243 51.6891 167.924 51.8857 167.652 52.1382C167.277 52.5817 167.34 53.0885 166.895 53.0885C166.45 53.0885 165.821 53.2095 165.948 52.7717C166.075 52.334 167.023 50.8768 166.768 49.9322C166.514 48.9876 164.619 48.354 166.19 47.4728C167.762 46.5916 169.421 46.6549 168.664 45.3302C167.907 44.0055 163.977 42.6174 161.51 43.1185C160.213 43.3603 158.946 43.7407 157.731 44.2531Z" fill="white" stroke="#263238" stroke-width="0.574" stroke-linecap="round" stroke-linejoin="round"/>
<path d="M158.551 45.7062C158.551 45.7062 160.036 45.3952 159.944 46.9042C159.909 47.4802 157.286 50.2506 157.667 50.8784C157.926 51.284 158.271 51.6281 158.678 51.8864" stroke="#263238" stroke-width="0.574" stroke-linecap="round" stroke-linejoin="round"/>
<path d="M161.718 47.2836C161.92 47.118 162.157 47.0001 162.412 46.9389C162.666 46.8777 162.931 46.8746 163.187 46.9301C163.443 46.9855 163.682 47.0979 163.888 47.2589C164.094 47.4199 164.261 47.6252 164.376 47.8596" stroke="#263238" stroke-width="0.574" stroke-linecap="round" stroke-linejoin="round"/>
<path d="M158.054 53.7168C158.054 53.7168 158.436 54.6626 159.95 54.5357C160.629 54.5388 161.301 54.3889 161.914 54.0974" stroke="#263238" stroke-width="0.574" stroke-linecap="round" stroke-linejoin="round"/>
<path d="M162.59 49.3573C162.504 49.772 162.25 50.0715 162.013 50.0254C161.776 49.9794 161.683 49.5992 161.776 49.1845C161.868 48.7698 162.117 48.4703 162.354 48.5164C162.59 48.5625 162.677 48.9426 162.59 49.3573Z" fill="#263238"/>
<path d="M158.909 47.9577C158.829 48.3609 158.592 48.6546 158.378 48.6143C158.164 48.574 158.054 48.2111 158.135 47.8079C158.216 47.4048 158.453 47.111 158.667 47.1571C158.881 47.2032 158.99 47.5545 158.909 47.9577Z" fill="#263238"/>
<path d="M87.1172 67.4258C84.5232 67.4259 81.9619 68.0036 79.6204 69.1167C77.279 70.2298 75.2167 71.8501 73.584 73.8594H41.1896C39.974 73.8288 38.7645 74.0411 37.6325 74.4837C36.5004 74.9263 35.4687 75.5903 34.5981 76.4365C33.7275 77.2827 33.0356 78.294 32.5632 79.4109C32.0908 80.5277 31.8474 81.7275 31.8474 82.9395C31.8474 84.1516 32.0908 85.3514 32.5632 86.4682C33.0356 87.5851 33.7275 88.5964 34.5981 89.4426C35.4687 90.2888 36.5004 90.9527 37.6325 91.3953C38.7645 91.8379 39.974 92.0502 41.1896 92.0197H71.2379C72.5142 94.8129 74.5075 97.2209 77.0164 99.0005L86.7185 106.488C86.7526 106.517 86.7953 106.533 86.8399 106.534C86.8834 106.533 86.9257 106.519 86.9612 106.494L97.6168 98.7643C99.8002 97.153 101.568 95.0471 102.773 92.6205C103.979 90.1939 104.588 87.5162 104.551 84.8086C104.545 80.2012 102.706 75.7843 99.4384 72.5258C96.1704 69.2674 91.7396 67.4334 87.1172 67.4258Z" fill="#263238"/>
<path d="M40.2651 90.2806H82.2749V72.5234H40.2651C37.9024 72.525 35.6368 73.4612 33.9661 75.1264C32.2954 76.7917 31.3561 79.0499 31.3546 81.4049C31.3561 83.7594 32.2956 86.017 33.9665 87.6813C35.6373 89.3457 37.9029 90.2806 40.2651 90.2806Z" fill="white" stroke="#263238" stroke-width="0.574" stroke-linecap="round" stroke-linejoin="round"/>
<path d="M39.3171 78.7949H61.8418" stroke="#263238" stroke-width="0.574" stroke-linejoin="round"/>
<path d="M39.3171 81.6289H61.8418" stroke="#263238" stroke-width="0.574" stroke-linejoin="round"/>
<path d="M39.3171 84.4629H61.8418" stroke="#263238" stroke-width="0.574" stroke-linejoin="round"/>
<path d="M96.5709 97.0702L85.921 104.788L76.2189 97.3006C73.8064 95.5941 71.875 93.2976 70.6104 90.632C69.3457 87.9663 68.7904 85.0212 68.9977 82.0798C69.2051 79.1385 70.1682 76.2997 71.7944 73.8366C73.4207 71.3734 75.6553 69.3687 78.2835 68.0153C80.9117 66.6618 83.8451 66.005 86.8016 66.1082C89.758 66.2113 92.6382 67.0709 95.165 68.6042C97.6918 70.1375 99.7804 72.293 101.23 74.8635C102.679 77.4339 103.441 80.3329 103.442 83.2815C103.478 85.9587 102.874 88.6062 101.679 91.0042C100.485 93.4022 98.7333 95.4817 96.5709 97.0702Z" fill="white" stroke="#263238" stroke-width="0.574" stroke-linecap="round" stroke-linejoin="round"/>
<path d="M88.5996 98.2068C96.8706 96.8804 102.497 89.122 101.166 80.8779C99.8354 72.6338 92.0516 67.0259 83.7806 68.3523C75.5096 69.6787 69.8833 77.4371 71.2141 85.6812C72.5448 93.9253 80.3285 99.5332 88.5996 98.2068Z" fill="#36B23B" stroke="#263238" stroke-width="0.574" stroke-linejoin="round"/>
<path d="M99.3677 90.7685C100.46 84.6114 94.3924 82.0887 93.7856 78.9554C93.7856 78.9554 95.3054 78.6501 95.8139 76.0179C96.3224 73.3858 95.2014 69.8436 89.8216 68.7319C84.4418 67.6203 78.1432 72.1877 77.1088 76.3232C76.0745 80.4587 79.0389 82.3939 77.5133 83.9145C77.2516 84.1451 76.9527 84.3301 76.6292 84.4617C75.8665 84.9225 74.7917 85.5791 74.0693 85.9765C72.8559 86.6446 72.1798 93.2337 78.5188 94.0401C84.8578 94.8464 86.3371 92.8305 89.8447 92.4273C92.0521 92.1739 95.7041 92.3986 98.108 92.6001" fill="#263238"/>
<path d="M99.3677 90.7685C100.46 84.6114 94.3924 82.0887 93.7856 78.9554C93.7856 78.9554 95.3054 78.6501 95.8139 76.0179C96.3224 73.3858 95.2014 69.8436 89.8216 68.7319C84.4418 67.6203 78.1432 72.1877 77.1088 76.3232C76.0745 80.4587 79.0389 82.3939 77.5133 83.9145C77.2516 84.1451 76.9527 84.3301 76.6292 84.4617C75.8665 84.9225 74.7917 85.5791 74.0693 85.9765C72.8559 86.6446 72.1798 93.2337 78.5188 94.0401C84.8578 94.8464 86.3371 92.8305 89.8447 92.4273C92.0521 92.1739 95.7041 92.3985 98.108 92.6001" stroke="#263238" stroke-width="0.574" stroke-linecap="round" stroke-linejoin="round"/>
<path d="M97.7381 89.2781C95.6116 89.2781 92.9708 90.7929 92.0578 90.7929C91.1448 90.7929 91.0408 86.9512 91.0408 86.9512L86.2677 85.9375C86.2677 85.9375 86.7762 89.6813 86.574 91.2019C86.3717 92.7224 82.9162 92.9298 81.4946 93.1199C80.0731 93.3099 79.2641 94.2372 78.8596 96.3626C78.8564 96.4067 78.8564 96.4509 78.8596 96.495C80.6847 97.5095 82.702 98.1333 84.7826 98.3266C86.8398 97.9638 88.9143 97.5548 90.5611 97.1344C91.6648 96.8521 92.7396 96.6045 93.7567 96.3914C96.1486 95.0231 98.1221 93.0322 99.4658 90.6317C99.3864 90.2381 99.1689 89.8856 98.8522 89.6375C98.5355 89.3895 98.1405 89.262 97.7381 89.2781Z" fill="white" stroke="#263238" stroke-width="0.574" stroke-linecap="round" stroke-linejoin="round"/>
<path d="M79.1775 96.6859C82.4184 98.3684 86.1597 98.8287 89.7138 97.9822C93.2679 97.1358 96.3963 95.0393 98.524 92.0781C95.993 92.4007 95.7618 93.7312 94.2883 93.7312C92.6645 93.7312 90.7345 93.5296 88.5098 94.5375C86.2851 95.5455 85.9672 95.9544 82.8237 95.9544C81.5713 95.951 80.3311 96.1998 79.1775 96.6859Z" fill="#36B23B" stroke="#263238" stroke-width="0.574" stroke-linecap="round" stroke-linejoin="round"/>
<path d="M90.5323 73.3867C90.5323 73.3867 94.0861 76.1226 94.2884 79.8664C94.4906 83.6102 93.2713 86.3403 92.0579 87.6593C90.8444 88.9782 89.2148 88.4656 87.5911 87.354C86.5179 86.5755 85.5891 85.6166 84.8463 84.5202C84.3519 84.4701 83.8883 84.2574 83.5288 83.9155C83.1168 83.579 82.8299 83.1146 82.714 82.5965C82.714 82.5965 85.7593 82.4986 86.47 80.4712C87.1808 78.4437 86.574 76.6294 87.5911 75.2125C88.3432 74.2979 89.377 73.6562 90.5323 73.3867Z" fill="white" stroke="#263238" stroke-width="0.574" stroke-linecap="round" stroke-linejoin="round"/>
<path d="M89.6192 78.5484C89.6192 78.5484 87.8856 77.742 87.1807 79.2568" stroke="#263238" stroke-width="0.574" stroke-linecap="round" stroke-linejoin="round"/>
<path d="M91.6476 78.0298C91.6476 78.0298 92.8668 77.1186 93.2713 78.1278" stroke="#263238" stroke-width="0.574" stroke-linecap="round" stroke-linejoin="round"/>
<path d="M91.1448 85.7373C90.8998 85.7921 90.6458 85.7932 90.4004 85.7404C90.1549 85.6876 89.9239 85.5823 89.7233 85.4316" stroke="#263238" stroke-width="0.574" stroke-linecap="round" stroke-linejoin="round"/>
<path d="M91.7516 78.8535C91.5302 79.8498 91.4274 80.8686 91.4454 81.8889C91.5494 83.1042 91.1449 83.4094 90.5323 83.2079" stroke="#263238" stroke-width="0.574" stroke-linecap="round" stroke-linejoin="round"/>
<path d="M88.533 81.3518C88.7341 81.3518 88.897 81.0011 88.897 80.5685C88.897 80.1359 88.7341 79.7852 88.533 79.7852C88.3319 79.7852 88.1689 80.1359 88.1689 80.5685C88.1689 81.0011 88.3319 81.3518 88.533 81.3518Z" fill="#263238"/>
<path d="M92.7743 80.9319C92.9754 80.9319 93.1384 80.5812 93.1384 80.1485C93.1384 79.7159 92.9754 79.3652 92.7743 79.3652C92.5733 79.3652 92.4103 79.7159 92.4103 80.1485C92.4103 80.5812 92.5733 80.9319 92.7743 80.9319Z" fill="#263238"/>
<path d="M86.6029 166.977C84.0094 166.977 81.4487 167.554 79.1074 168.666C76.7662 169.778 74.7034 171.397 73.0696 173.404H40.6753C38.2989 173.464 36.04 174.447 34.3804 176.143C32.7209 177.84 31.792 180.115 31.792 182.485C31.792 184.854 32.7209 187.13 34.3804 188.826C36.04 190.522 38.2989 191.505 40.6753 191.565H70.7235C72.002 194.357 73.9949 196.764 76.5021 198.545L86.2042 206.033C86.241 206.06 86.2857 206.074 86.3313 206.073C86.3734 206.074 86.4143 206.06 86.4469 206.033L97.0967 198.321C99.2809 196.709 101.049 194.602 102.255 192.174C103.46 189.747 104.069 187.068 104.031 184.359C104.025 179.753 102.187 175.337 98.9203 172.079C95.6536 168.82 91.2243 166.986 86.6029 166.977Z" fill="#263238"/>
<path d="M39.9125 190.009H81.9223V172.252H39.9125C37.5508 172.252 35.2859 173.187 33.6159 174.852C31.946 176.516 31.0078 178.774 31.0078 181.128C31.0071 182.294 31.2368 183.448 31.684 184.526C32.1311 185.604 32.7869 186.583 33.6139 187.407C34.4408 188.232 35.4227 188.887 36.5035 189.333C37.5842 189.779 38.7426 190.009 39.9125 190.009Z" fill="white" stroke="#263238" stroke-width="0.574" stroke-linecap="round" stroke-linejoin="round"/>
<path d="M38.9647 178.525H61.4894" stroke="#263238" stroke-width="0.574" stroke-linejoin="round"/>
<path d="M38.9647 181.357H61.4894" stroke="#263238" stroke-width="0.574" stroke-linejoin="round"/>
<path d="M38.9647 184.186H61.4894" stroke="#263238" stroke-width="0.574" stroke-linejoin="round"/>
<path d="M96.2242 196.801L85.5744 204.519L75.8722 197.031C73.4598 195.325 71.5283 193.028 70.2637 190.362C68.999 187.697 68.4437 184.752 68.6511 181.81C68.8584 178.869 69.8215 176.03 71.4478 173.567C73.074 171.104 75.3086 169.099 77.9369 167.746C80.5651 166.392 83.4984 165.736 86.4549 165.839C89.4114 165.942 92.2915 166.801 94.8183 168.335C97.3452 169.868 99.4337 172.024 100.883 174.594C102.333 177.164 103.094 180.063 103.095 183.012C103.131 185.689 102.526 188.336 101.332 190.734C100.137 193.132 98.3859 195.212 96.2242 196.801Z" fill="white" stroke="#263238" stroke-width="0.574" stroke-linecap="round" stroke-linejoin="round"/>
<path d="M70.7062 182.891C70.7062 185.881 71.5958 188.804 73.2626 191.291C74.9293 193.777 77.2983 195.715 80.07 196.859C82.8417 198.003 85.8916 198.303 88.8341 197.719C91.7765 197.136 94.4793 195.696 96.6006 193.582C98.722 191.467 100.167 188.773 100.752 185.84C101.337 182.908 101.037 179.868 99.8888 177.105C98.7407 174.342 96.7965 171.981 94.302 170.32C91.8076 168.658 88.8749 167.772 85.8748 167.772C83.8818 167.768 81.9076 168.156 80.0655 168.915C78.2235 169.673 76.5498 170.787 75.1405 172.191C73.7312 173.596 72.614 175.264 71.8531 177.1C71.0921 178.936 70.7024 180.904 70.7062 182.891Z" fill="#36B23B" stroke="#263238" stroke-width="0.574" stroke-linejoin="round"/>
<path d="M74.1908 192.539C75.5599 194.184 77.2633 195.522 79.1887 196.464C81.1142 197.405 83.2179 197.93 85.3614 198.002C87.5048 198.074 89.6394 197.693 91.6243 196.884C93.6092 196.074 95.3996 194.854 96.8773 193.305L89.5732 191.681L79.4666 191.18L74.1908 192.539Z" fill="#36B23B" stroke="#263238" stroke-width="0.574" stroke-linecap="round" stroke-linejoin="round"/>
<path d="M81.5351 187.511C82.1939 185.097 81.4253 181.365 81.4253 181.365C83.078 179.724 88.0302 187.701 88.0302 187.701C88.0302 187.701 87.9204 189.129 89.5731 191.652C89.6658 191.799 89.7661 191.941 89.8735 192.078C88.8507 193.714 86.6838 196.807 85.06 196.484C83.4363 196.162 80.8995 193.029 79.4664 191.151C80.9688 190.235 81.0324 189.354 81.5351 187.511Z" fill="white" stroke="#263238" stroke-width="0.574" stroke-linecap="round" stroke-linejoin="round"/>
<path d="M79.8305 178.191C79.8305 178.191 79.062 178.076 78.9522 179.505C78.8424 180.933 79.5011 181.705 80.0443 181.705H80.9226C81.0633 182.557 81.2562 183.399 81.5005 184.228C81.9397 185.875 81.9397 186.756 85.4646 188.179C88.9895 189.601 89.8678 189.388 90.8617 187.85C91.8556 186.313 91.8498 180.72 91.9596 178.307C92.0694 175.893 92.5086 173.123 92.5086 173.123C91.7811 172.386 90.923 171.791 89.9776 171.366C88.3249 170.6 83.2629 171.476 81.7201 172.247C80.1772 173.019 80.732 176.965 80.732 176.965L79.8305 178.191Z" fill="white" stroke="#263238" stroke-width="0.574" stroke-linecap="round" stroke-linejoin="round"/>
<path d="M90.307 185.575C89.2816 185.844 88.1972 185.782 87.2097 185.396" stroke="#263238" stroke-width="0.574" stroke-linecap="round" stroke-linejoin="round"/>
<path d="M90.2897 179.614C90.2897 179.976 90.4399 180.276 90.6191 180.276C90.7982 180.276 90.9542 179.976 90.9542 179.614C90.9542 179.251 90.804 178.957 90.6191 178.957C90.4341 178.957 90.2897 179.251 90.2897 179.614Z" fill="#263238"/>
<path d="M87.0999 180.051C87.0999 180.42 87.2443 180.714 87.4292 180.714C87.6141 180.714 87.7586 180.42 87.7586 180.051C87.7586 179.683 87.6141 179.395 87.4292 179.395C87.2443 179.395 87.0999 179.688 87.0999 180.051Z" fill="#263238"/>
<path d="M91.2836 177.528C91.1147 177.392 90.9094 177.309 90.6934 177.29C90.4775 177.27 90.2606 177.315 90.0701 177.418" stroke="#263238" stroke-width="0.574" stroke-linecap="round" stroke-linejoin="round"/>
<path d="M87.6489 177.747C87.6489 177.747 86.3257 177.2 85.3375 178.738" stroke="#263238" stroke-width="0.574" stroke-linecap="round" stroke-linejoin="round"/>
<path d="M89.4346 179.043L89.8506 183.455L87.7588 183.674" stroke="#263238" stroke-width="0.574" stroke-linecap="round" stroke-linejoin="round"/>
<path d="M77.6288 170.507C77.7386 168.75 80.5181 169.407 82.2516 168.75C83.9852 168.093 87.094 166.118 89.7348 166.118C90.4255 166.066 91.1127 166.257 91.6765 166.658C92.2404 167.059 92.6453 167.644 92.8205 168.312L92.7049 166.556C92.7049 166.556 94.4674 167.546 94.3576 169.407C94.2478 171.267 92.9303 173.467 92.0462 173.358C91.1621 173.248 83.6789 172.92 83.2397 174.02C82.8006 175.12 84.4532 177.199 84.4532 177.199C84.3434 178.3 82.7197 178.075 82.581 178.518C82.5187 179.579 82.5554 180.644 82.6908 181.698C82.6994 182.315 82.5417 182.924 82.2343 183.46C82.2128 184.007 82.3733 184.546 82.6908 184.992C82.9541 185.282 83.2778 185.51 83.6392 185.661C84.0006 185.813 84.3909 185.883 84.7826 185.868C84.7826 185.868 87.3136 183.564 89.1858 183.892C91.0581 184.221 91.4972 185.102 91.4972 185.102H91.5492C91.4972 185.493 91.4395 185.856 91.3759 186.202C91.0638 185.718 90.1508 184.537 88.7467 184.537C87.0131 184.537 85.112 186.622 85.112 186.622C85.112 186.622 86.9842 187.826 87.9723 187.826C88.9605 187.826 88.7467 186.622 89.4054 186.732C90.0642 186.841 89.8446 187.498 90.174 187.498C90.5866 187.423 90.9582 187.202 91.2199 186.876C91.1366 187.208 91.0083 187.528 90.8385 187.826C89.8446 189.364 88.9662 189.554 85.4413 188.154C81.9165 186.755 81.9165 185.851 81.4773 184.203L81.3559 183.737C81.4602 182.954 81.6362 182.183 81.8818 181.433C81.9107 180.102 81.7373 178.818 81.3675 178.374C80.7896 177.712 79.8246 178.156 79.8246 178.156C79.8246 178.156 77.519 172.263 77.6288 170.507Z" fill="#263238" stroke="#263238" stroke-width="0.574" stroke-linecap="round" stroke-linejoin="round"/>
<path d="M211.751 275.51H168.137C168.137 275.51 172.913 255.203 189.944 255.203C206.976 255.203 211.005 270.974 211.751 275.51Z" fill="#1F9686"/>
<path opacity="0.2" d="M211.751 275.51H168.137C168.137 275.51 172.913 255.203 189.944 255.203C206.976 255.203 211.005 270.974 211.751 275.51Z" fill="#212121"/>
<path d="M85.1697 277.702H41.5551C41.5551 277.702 46.3309 257.395 63.3624 257.395C80.3938 257.395 84.4235 273.165 85.1697 277.702Z" fill="#1F9686"/>
<path opacity="0.2" d="M85.1697 277.702H41.5551C41.5551 277.702 46.3309 257.395 63.3624 257.395C80.3938 257.395 84.4235 273.165 85.1697 277.702Z" fill="#212121"/>
<path d="M221.724 238.465C222.659 239.948 224.301 256.257 224.397 256.839C224.494 257.421 225.855 259.901 225.877 260.382C225.899 260.864 226.237 268.209 226.044 268.694C225.604 269.562 225.102 270.397 224.542 271.192C224.301 271.477 218.12 276.783 217.431 276.853C216.742 276.923 210.342 276.971 210.224 276.853C210.105 276.735 209.346 257.114 189.966 257.114C170.586 257.114 170.779 277.947 170.423 278.017C170.068 278.087 83.2294 280.064 83.2294 280.064C83.2294 276.875 82.9792 257.898 63.9504 257.898C51.5543 257.898 45.2905 268.082 45.0754 275.593C44.9876 278.717 45.5143 282.155 45.3387 282.155C44.7637 282.155 42.8103 282.3 42.4724 282.155C42.1344 282.011 38.0828 279.351 37.7492 279.255C37.4156 279.159 35.076 279.11 34.5053 278.97C33.9347 278.83 29.9226 275.331 29.8524 275.186C29.7822 275.042 29.6592 273.664 29.6373 273.546C29.6153 273.428 25.555 268.48 25.3663 267.933C25.1775 267.386 25.1029 262.867 25.1029 262.417C25.1029 261.966 32.4773 250.045 34.2024 248.733C35.9275 247.42 48.1612 243.168 51.7607 242.525C55.3601 241.882 75.0253 238.959 75.7408 238.456C76.4563 237.953 110.054 218.77 115.901 217.34C120.624 216.198 175.318 217.777 178.18 217.913C181.042 218.048 188.965 219.479 189.729 219.479C190.493 219.479 199.276 219.435 199.798 219.671C200.321 219.908 199.798 222.003 199.131 222.384C198.464 222.764 220.104 235.897 221.724 238.465Z" fill="#1F9686"/>
<path d="M220.473 237.232C220.267 237.42 216.847 237.503 216.487 237.363C216.127 237.223 194.592 222.927 194.575 222.524C194.575 222.314 198.613 222.367 199.105 222.393C199.596 222.419 220.868 236.873 220.473 237.232Z" fill="#455A64"/>
<path d="M196.484 237.003C195.549 239.751 82.4173 244.878 81.7984 243.565C81.3375 242.577 91.4554 234.479 96.1873 231.841C100.919 229.203 114.444 221.556 121.116 220.773C127.788 219.99 141.264 220.056 153.028 220.296C164.695 220.511 178.439 220.795 183.316 222.864C187.578 224.671 197.226 234.82 196.484 237.003Z" fill="#263238"/>
<path d="M193.328 235.4C193.043 236.432 168.062 239.109 138.779 240.466C109.497 241.822 95.0418 242.036 94.6862 241.892C94.3307 241.747 95.687 233.974 96.1874 233.33C96.6878 232.687 117.666 221.987 120.958 221.702C124.25 221.418 142.028 221.383 151.022 221.523C160.016 221.663 178.724 222.739 181.911 224.021C184.712 225.15 193.618 234.367 193.328 235.4Z" fill="#455A64"/>
<g opacity="0.1">
<path d="M154.573 221.609L171.341 238.325C174.335 238.063 177.1 237.8 179.589 237.546L164.037 222.047C160.723 221.85 157.417 221.701 154.573 221.609Z" fill="white"/>
<path d="M94.7388 240.241L96.4331 241.93C98.1319 241.93 101.077 241.873 105.287 241.759L96.5604 233.066C96.4269 233.14 96.3018 233.228 96.1873 233.329C95.8318 233.788 95.0329 237.887 94.7388 240.241Z" fill="white"/>
<path d="M142.063 221.451L159.893 239.226C161.324 239.125 162.729 239.024 164.098 238.915L146.575 221.473C145.157 221.46 143.63 221.451 142.063 221.451Z" fill="white"/>
<path d="M103.781 229.239L116.002 241.414L120.348 241.252L106.793 227.734C105.752 228.251 104.747 228.754 103.781 229.239Z" fill="white"/>
<path d="M167.039 222.234L182.13 237.275L183.281 237.143L168.413 222.326L167.039 222.234Z" fill="white"/>
<path d="M101.183 230.564L112.196 241.544L113.434 241.505L102.021 230.131L101.183 230.564Z" fill="white"/>
<path d="M117.007 223.021L134.697 240.646L135.926 240.598L117.929 222.662C117.635 222.763 117.327 222.89 117.007 223.021Z" fill="white"/>
<path d="M179.009 223.381L191.634 235.958C192.073 235.875 192.406 235.792 192.67 235.713L180.563 223.652C180.116 223.56 179.598 223.468 179.009 223.381Z" fill="white"/>
</g>
<path d="M177.657 223.19C177.539 223.19 177.486 223.343 177.587 223.627C178.175 225.246 182.754 234.411 183.899 236.55C183.971 236.663 184.066 236.76 184.177 236.835C184.288 236.911 184.413 236.962 184.545 236.988L176.477 237.863C176.617 237.805 176.734 237.701 176.806 237.568C176.879 237.435 176.904 237.281 176.876 237.132C176.793 236.625 173.803 225.85 172.86 223.203C172.754 222.956 172.562 222.756 172.32 222.639C172.162 222.639 173.698 222.665 175.155 222.814C176.424 222.923 177.657 223.19 177.657 223.19Z" fill="#263238"/>
<path d="M167.022 222.23C167.022 222.23 166.872 222.313 166.868 222.606C166.815 225.139 166.53 237.835 166.776 238.53C166.807 238.622 166.846 238.679 166.894 238.696L165.367 238.819C165.449 238.708 165.498 238.576 165.507 238.438C165.678 236.29 165.832 224.658 165.806 222.506C165.792 222.374 165.742 222.248 165.661 222.143L167.022 222.23Z" fill="#263238"/>
<path d="M141.94 221.973C141.76 222.538 141.466 239.109 141.466 239.647C141.466 240.185 142.076 240.308 142.076 240.308L132.621 240.745C132.621 240.745 133.235 240.575 133.341 240.286C133.446 239.997 136.413 222.131 136.413 221.912C136.413 221.693 135.931 221.475 135.931 221.475H142.515C142.266 221.56 142.06 221.739 141.94 221.973Z" fill="#263238"/>
<path d="M220.056 240.796C221.215 240.945 223.827 243.649 224.007 244.222C224.187 244.795 224.916 248.645 224.534 249.218C224.152 249.791 222.778 251.213 221.575 251.261C220.372 251.309 214.552 248.548 214.034 248.076C213.516 247.603 213.125 244.703 213.749 243.771C214.372 242.839 218.564 240.608 220.056 240.796Z" fill="#717171"/>
<path d="M214.042 248.075C214.565 248.547 220.39 251.307 221.584 251.259C222.492 251.224 223.515 250.384 224.116 249.733C223.441 250.227 222.623 250.489 221.786 250.481C221.14 250.424 215.689 248.083 214.986 247.445C214.284 246.806 214.258 244.382 214.35 243.945C214.442 243.507 217.962 241.25 217.962 241.25C216.206 241.919 214.174 243.14 213.757 243.765C213.138 244.702 213.52 247.598 214.042 248.075Z" fill="#EBEBEB"/>
<path d="M224.876 262.319C225.196 262.638 225.315 265.053 224.972 265.267C224.63 265.482 222.681 265.456 222.299 265.267C221.917 265.079 220.938 263.268 221.009 262.642C221.079 262.017 224.494 261.938 224.876 262.319Z" fill="white"/>
<path d="M50.6591 248.956C49.6319 250.614 42.0687 253.558 39.2463 254.022C37.4685 254.311 31.3012 254.7 30.9412 254.376C30.5813 254.052 33.575 249.953 35.0937 248.956C36.6125 247.959 44.3118 245.386 46.6558 245.496C48.9998 245.605 51.695 247.276 50.6591 248.956Z" fill="white"/>
<path d="M30.9365 254.375C31.2965 254.699 37.4594 254.309 39.2416 254.021C42.0684 253.557 49.6316 250.613 50.6544 248.95C51.6772 247.288 48.9732 245.604 46.6467 245.494C46.4655 245.484 46.2837 245.484 46.1024 245.494C48.2709 246.29 48.7142 247.979 47.393 248.942C46.0717 249.904 41.8446 252.161 40.1546 252.634C38.4646 253.106 32.4509 254.034 31.9286 253.618C31.827 253.499 31.7535 253.358 31.7132 253.207C31.673 253.055 31.6671 252.897 31.6959 252.743C31.1297 253.592 30.8004 254.257 30.9365 254.375Z" fill="#EBEBEB"/>
<g opacity="0.5">
<path d="M195.901 248.566C195.893 249.581 196.289 250.558 197.003 251.282C197.545 251.839 198.242 252.221 199.003 252.38C199.765 252.54 200.557 252.469 201.278 252.177C201.999 251.886 202.617 251.386 203.051 250.743C203.486 250.099 203.718 249.341 203.718 248.566C203.718 247.79 203.486 247.032 203.051 246.389C202.617 245.745 201.999 245.246 201.278 244.954C200.557 244.662 199.765 244.592 199.003 244.751C198.242 244.911 197.545 245.293 197.003 245.849C196.289 246.574 195.893 247.551 195.901 248.566ZM195.901 248.566C195.908 247.557 196.317 246.593 197.038 245.884C197.391 245.542 197.808 245.273 198.266 245.092C198.724 244.911 199.213 244.821 199.705 244.829C200.198 244.836 200.684 244.94 201.136 245.134C201.588 245.329 201.997 245.611 202.34 245.963C202.85 246.486 203.196 247.147 203.333 247.864C203.471 248.58 203.395 249.321 203.115 249.996C202.835 250.67 202.363 251.247 201.757 251.657C201.151 252.067 200.439 252.291 199.706 252.302C199.21 252.312 198.717 252.224 198.255 252.043C197.793 251.862 197.372 251.592 197.016 251.248C196.303 250.536 195.902 249.571 195.901 248.566Z" fill="#212121"/>
<path d="M211.752 260.154C212.142 259.279 212.498 258.404 212.845 257.551C213.191 256.698 213.521 255.801 213.859 254.926C214.197 254.051 214.499 253.177 214.802 252.267C215.105 251.357 215.404 250.482 215.68 249.576C215.29 250.451 214.934 251.326 214.583 252.201C214.232 253.076 213.907 253.951 213.569 254.826C213.231 255.701 212.928 256.576 212.625 257.486C212.322 258.396 212.015 259.231 211.752 260.154Z" fill="#212121"/>
<path d="M225.175 260.156C223.296 260.121 221.417 260.125 219.538 260.13L213.902 260.191L208.27 260.327C206.392 260.384 204.513 260.45 202.639 260.546C204.517 260.581 206.396 260.581 208.275 260.572L213.911 260.511L219.543 260.38C221.421 260.318 223.3 260.257 225.175 260.156Z" fill="#212121"/>
<path d="M136.479 241.939L135.834 246.502L135.553 248.79C135.514 249.171 135.47 249.551 135.439 249.941C135.408 250.33 135.439 250.706 135.439 251.091L135.523 260.309L135.602 264.92L135.637 267.225V268.376L135.724 269.526L136.084 274.107L136.479 278.704L136.247 274.107L135.979 269.509L135.913 268.363V267.208L135.891 264.907L135.843 260.304L135.685 251.118C135.685 250.737 135.654 250.348 135.685 249.971C135.716 249.595 135.738 249.21 135.773 248.825L136.005 246.537L136.479 241.939Z" fill="#212121"/>
<path d="M85.714 244.029L84.9326 248.618L84.5464 250.911L84.4498 251.484C84.4088 251.675 84.3853 251.87 84.3796 252.066C84.3796 252.455 84.3796 252.84 84.3796 253.229C84.4059 256.331 84.4849 259.428 84.5815 262.53C84.6034 263.304 84.6385 264.079 84.678 264.857C84.7185 265.638 84.8662 266.409 85.117 267.15C85.556 268.641 86.03 270.116 86.5656 271.577C87.0858 273.043 87.7077 274.471 88.4267 275.851L88.7164 276.363C88.8174 276.529 88.9315 276.691 89.0369 276.853C89.1426 277.019 89.2615 277.177 89.3924 277.325L89.5812 277.557C89.6861 277.616 89.8032 277.651 89.9236 277.658C90.7093 277.741 91.4818 277.75 92.2632 277.776C98.4876 277.903 104.712 277.846 110.932 277.806C117.152 277.767 123.381 277.671 129.601 277.557C135.821 277.443 142.045 277.273 148.265 277.045C151.373 276.918 154.481 276.818 157.589 276.538C157.987 276.508 158.382 276.445 158.769 276.35C158.989 276.267 159.121 276.166 159.305 276.083C159.489 276 159.652 275.917 159.827 275.838C160.53 275.518 161.258 275.238 161.961 274.889C162.675 274.547 163.335 274.105 163.923 273.576C164.435 272.982 164.907 272.355 165.336 271.699C167.092 269.136 168.764 266.52 170.437 263.908C172.109 261.296 173.764 258.658 175.41 256.034C177.056 253.409 178.68 250.758 180.283 248.098L180.88 247.096C180.928 247.017 180.972 246.921 181.02 246.834L181.09 246.702C181.104 246.655 181.112 246.607 181.112 246.558L181.169 245.981C181.235 245.206 181.297 244.432 181.323 243.658C181.323 243.465 181.323 243.268 181.323 243.076C181.296 242.882 181.254 242.69 181.196 242.503C181.086 242.131 180.963 241.763 180.831 241.4C180.572 240.67 180.291 239.943 180.002 239.213C180.294 239.933 180.565 240.662 180.814 241.4C180.941 241.768 181.064 242.135 181.165 242.507C181.223 242.691 181.264 242.88 181.288 243.071C181.288 243.264 181.288 243.461 181.288 243.653C181.253 244.428 181.187 245.197 181.112 245.967L181.055 246.549C181.051 246.597 181.042 246.643 181.029 246.689L180.963 246.812C180.915 246.895 180.875 246.974 180.822 247.057L180.221 248.054C178.597 250.679 176.942 253.304 175.283 255.929C171.96 261.178 168.655 266.428 165.187 271.555C164.762 272.195 164.299 272.808 163.8 273.392C163.225 273.901 162.581 274.325 161.886 274.652C161.192 274.994 160.468 275.273 159.757 275.593C159.577 275.672 159.397 275.755 159.221 275.842C159.046 275.93 158.862 276.048 158.717 276.096C158.333 276.192 157.943 276.258 157.549 276.293C154.476 276.56 151.342 276.652 148.234 276.77C142.019 276.984 135.799 277.115 129.579 277.233C123.359 277.351 117.134 277.465 110.914 277.535C104.694 277.605 98.47 277.666 92.25 277.561C91.4775 277.535 90.6917 277.526 89.9323 277.448C89.8585 277.439 89.7852 277.426 89.7129 277.408L89.5329 277.19C89.406 277.053 89.29 276.907 89.1861 276.752C89.0808 276.59 88.971 276.437 88.8701 276.271L88.5848 275.768C87.8645 274.399 87.2425 272.981 86.7236 271.524C86.1822 270.066 85.6964 268.596 85.2662 267.115C85.0147 266.386 84.8669 265.627 84.8273 264.857L84.7175 262.539C84.5946 259.441 84.4937 256.34 84.441 253.243C84.441 252.853 84.441 252.464 84.441 252.079C84.4441 251.886 84.4647 251.695 84.5025 251.506L84.5946 250.933L84.9634 248.636L85.714 244.029Z" fill="#212121"/>
<path d="M45.6683 251.918C46.4805 252.598 47.3434 253.215 48.2494 253.764C49.1273 254.333 50.0491 254.875 50.9489 255.426C51.8488 255.978 52.775 256.49 53.7012 257.001C54.6274 257.513 55.558 258.016 56.5061 258.484C55.6282 257.898 54.7283 257.343 53.8285 256.787L51.1157 255.151L48.381 253.545L47.0115 252.749C46.5475 252.499 46.099 252.221 45.6683 251.918Z" fill="#212121"/>
<path d="M176.653 260.986L164.529 261.301L152.409 261.669L128.17 262.408L103.935 263.253L91.8157 263.677L79.7005 264.15L91.82 263.835L103.94 263.467L128.183 262.728L152.418 261.883L164.537 261.459L176.653 260.986Z" fill="#212121"/>
<path d="M177.368 243.676L177.842 243.698H177.956C177.983 243.698 177.987 243.72 178.005 243.755C178.024 243.829 178.038 243.903 178.048 243.978C178.07 244.29 178.07 244.603 178.048 244.915C178.048 245.068 178.048 245.225 178.009 245.352C177.998 245.421 177.98 245.488 177.956 245.553H177.921C177.899 245.553 177.877 245.553 177.829 245.553C177.526 245.58 177.206 245.588 176.894 245.602C175.634 245.641 174.37 245.68 173.11 245.702L171.218 245.755H170.27H169.866C169.846 245.717 169.83 245.678 169.818 245.637C169.818 245.567 169.783 245.497 169.77 245.422C169.73 245.118 169.717 244.81 169.73 244.503C169.736 244.35 169.751 244.196 169.774 244.044C169.781 243.983 169.797 243.924 169.822 243.869C169.878 243.843 169.937 243.826 169.998 243.821C170.613 243.711 171.249 243.676 171.877 243.615C171.243 243.596 170.608 243.612 169.976 243.663C169.881 243.666 169.788 243.695 169.708 243.746C169.648 243.822 169.608 243.913 169.594 244.009C169.561 244.168 169.539 244.329 169.528 244.49C169.5 244.81 169.5 245.133 169.528 245.453C169.536 245.537 169.551 245.62 169.572 245.702C169.58 245.759 169.6 245.814 169.629 245.864C169.658 245.913 169.697 245.956 169.743 245.991C169.77 246.011 169.802 246.022 169.836 246.022H169.906H171.223L173.119 245.995C174.379 245.947 175.643 245.912 176.907 245.82C177.223 245.794 177.535 245.772 177.855 245.728C177.904 245.723 177.953 245.713 178 245.698C178.028 245.691 178.054 245.68 178.079 245.667C178.104 245.644 178.124 245.616 178.136 245.584C178.168 245.501 178.189 245.414 178.198 245.326C178.206 245.166 178.206 245.005 178.198 244.845C178.191 244.526 178.16 244.209 178.105 243.895C178.09 243.816 178.068 243.739 178.04 243.663L178.009 243.602C178.009 243.58 177.943 243.563 177.93 243.567H177.816L177.368 243.676Z" fill="#212121"/>
<path d="M130.975 244.817L131.449 244.843H131.567C131.594 244.843 131.598 244.865 131.615 244.9C131.636 244.974 131.649 245.051 131.655 245.127C131.686 245.437 131.694 245.749 131.677 246.059C131.678 246.222 131.669 246.384 131.651 246.545C131.644 246.615 131.626 246.682 131.598 246.746H131.563H131.471C131.163 246.777 130.847 246.781 130.531 246.794C129.271 246.834 128.012 246.873 126.747 246.895L124.856 246.948H123.912H123.508C123.487 246.91 123.469 246.87 123.455 246.829C123.455 246.764 123.425 246.694 123.411 246.615C123.372 246.31 123.359 246.003 123.372 245.696C123.377 245.55 123.39 245.404 123.411 245.259C123.421 245.198 123.439 245.14 123.464 245.084C123.464 245.062 123.569 245.044 123.64 245.031C124.254 244.922 124.891 244.887 125.518 244.826C124.883 244.809 124.247 244.825 123.613 244.874C123.518 244.877 123.426 244.906 123.346 244.957C123.288 245.034 123.25 245.124 123.236 245.219C123.204 245.378 123.181 245.539 123.166 245.701C123.139 246.022 123.139 246.346 123.166 246.668C123.166 246.746 123.179 246.829 123.205 246.917C123.224 247.031 123.287 247.133 123.381 247.201C123.407 247.222 123.439 247.233 123.473 247.232H123.543H124.86L126.756 247.206C128.02 247.162 129.285 247.123 130.544 247.031C130.865 247.004 131.177 246.983 131.497 246.939C131.545 246.935 131.592 246.925 131.637 246.908L131.716 246.882C131.741 246.857 131.762 246.829 131.778 246.799C131.81 246.716 131.829 246.629 131.835 246.541C131.851 246.381 131.858 246.22 131.857 246.059C131.849 245.741 131.817 245.423 131.76 245.11C131.748 245.029 131.728 244.95 131.699 244.874C131.691 244.851 131.679 244.831 131.664 244.812C131.655 244.801 131.643 244.793 131.63 244.788C131.617 244.782 131.603 244.78 131.589 244.782H131.471L130.975 244.817Z" fill="#212121"/>
</g>
<path d="M172.496 279.233C170.96 269.422 177.695 260.227 187.54 258.696C197.384 257.164 206.61 263.877 208.147 273.688C209.683 283.499 202.948 292.694 193.103 294.226C183.259 295.757 174.033 289.044 172.496 279.233Z" fill="#263238"/>
<path d="M177.323 278.565C176.153 271.408 181.024 264.661 188.205 263.495C195.385 262.328 202.155 267.183 203.326 274.34C204.497 281.496 199.625 288.243 192.444 289.409C185.264 290.576 178.494 285.721 177.323 278.565Z" fill="#DBDBDB"/>
<path d="M190.321 288.567C183.613 288.567 178.175 283.147 178.175 276.462C178.175 269.777 183.613 264.357 190.321 264.357C197.029 264.357 202.467 269.777 202.467 276.462C202.467 283.147 197.029 288.567 190.321 288.567Z" fill="#A6A6A6"/>
<path d="M188.416 273.427H192.227C190.94 271.572 195.427 265.115 195.427 265.115L193.42 264.445C192.104 266.729 191.419 267.398 190.321 267.398C189.224 267.398 188.566 266.729 187.214 264.445L185.212 265.115C185.212 265.115 189.703 271.572 188.416 273.427Z" fill="#DBDBDB"/>
<path d="M192.551 273.666L193.728 277.28C195.102 275.491 202.656 277.744 202.656 277.744V275.635C200.062 275.075 199.219 274.651 198.881 273.61C198.543 272.568 198.973 271.728 200.738 269.756L199.478 268.062C199.478 268.062 194.715 274.305 192.551 273.666Z" fill="#DBDBDB"/>
<path d="M193.609 277.648L190.537 279.884C192.674 280.628 192.859 288.489 192.859 288.489L194.86 287.855C194.597 285.23 194.742 284.294 195.629 283.651C196.515 283.007 197.45 283.156 199.882 284.219L201.107 282.504C201.107 282.504 193.658 279.901 193.609 277.648Z" fill="#DBDBDB"/>
<path d="M190.129 279.884L187.056 277.648C187.003 279.901 179.558 282.504 179.558 282.504L180.788 284.224C183.215 283.156 184.15 283.007 185.037 283.651C185.923 284.294 186.068 285.225 185.805 287.855L187.82 288.489C187.82 288.489 187.991 280.628 190.129 279.884Z" fill="#DBDBDB"/>
<path d="M186.919 277.271L188.096 273.666C185.932 274.314 181.147 268.062 181.147 268.062L179.887 269.756C181.643 271.728 182.082 272.568 181.749 273.61C181.415 274.651 180.563 275.075 177.969 275.639V277.744C177.969 277.744 185.545 275.478 186.919 277.271Z" fill="#DBDBDB"/>
<path d="M186.838 276.912C186.537 274.995 187.852 273.198 189.776 272.898C191.699 272.599 193.502 273.909 193.803 275.826C194.104 277.743 192.788 279.54 190.865 279.84C188.942 280.14 187.139 278.829 186.838 276.912Z" fill="#DBDBDB"/>
<path d="M57.8955 293.351C48.5403 289.933 43.7362 279.605 47.1653 270.281C50.5944 260.958 60.958 256.17 70.3132 259.588C79.6683 263.005 84.4724 273.334 81.0433 282.657C77.6143 291.981 67.2506 296.768 57.8955 293.351Z" fill="#263238"/>
<path d="M51.124 278.698C49.8857 271.553 54.6936 264.761 61.8627 263.527C69.0318 262.293 75.8474 267.084 77.0857 274.229C78.324 281.374 73.5162 288.166 66.347 289.401C59.1779 290.635 52.3624 285.843 51.124 278.698Z" fill="#DBDBDB"/>
<path d="M64.1041 288.567C57.3961 288.567 51.9582 283.147 51.9582 276.462C51.9582 269.777 57.3961 264.357 64.1041 264.357C70.8121 264.357 76.25 269.777 76.25 276.462C76.25 283.147 70.8121 288.567 64.1041 288.567Z" fill="#A6A6A6"/>
<path d="M62.1945 273.427H66.009C64.7229 271.572 69.209 265.115 69.209 265.115L67.203 264.445C65.8861 266.729 65.2013 267.398 64.1039 267.398C63.0065 267.398 62.3481 266.729 60.9961 264.445L58.9945 265.115C58.9945 265.115 63.4806 271.572 62.1945 273.427Z" fill="#DBDBDB"/>
<path d="M66.3298 273.666L67.5062 277.28C68.8802 275.491 76.4346 277.744 76.4346 277.744L76.4565 275.635C73.8623 275.075 73.0195 274.651 72.6815 273.61C72.3435 272.568 72.7737 271.728 74.5383 269.756L73.2785 268.062C73.2785 268.062 68.4939 274.305 66.3298 273.666Z" fill="#DBDBDB"/>
<path d="M67.3874 277.648L64.3147 279.884C66.448 280.628 66.6324 288.489 66.6324 288.489L68.6516 287.855C68.3838 285.23 68.5287 284.294 69.4154 283.651C70.3021 283.007 71.2414 283.156 73.6689 284.219L74.8936 282.504C74.8936 282.504 67.4357 279.901 67.3874 277.648Z" fill="#DBDBDB"/>
<path d="M63.9066 279.884L60.8339 277.648C60.7813 279.901 53.3366 282.504 53.3366 282.504L54.5656 284.224C56.9931 283.156 57.928 283.007 58.8147 283.651C59.7014 284.294 59.8463 285.225 59.5829 287.855L61.5977 288.489C61.5977 288.489 61.7689 280.628 63.9066 279.884Z" fill="#DBDBDB"/>
<path d="M60.698 277.271L61.8568 273.666C59.6928 274.314 54.9082 268.062 54.9082 268.062L53.6483 269.756C55.4042 271.728 55.8431 272.568 55.5095 273.61C55.1759 274.651 54.3243 275.075 51.7301 275.639V277.744C51.7301 277.744 59.3284 275.478 60.698 277.271Z" fill="#DBDBDB"/>
<path d="M60.5749 276.381C60.5749 277.073 60.7808 277.749 61.1667 278.325C61.5525 278.9 62.101 279.349 62.7427 279.614C63.3843 279.879 64.0904 279.948 64.7716 279.813C65.4528 279.678 66.0785 279.345 66.5696 278.855C67.0607 278.366 67.3952 277.742 67.5307 277.063C67.6662 276.384 67.5966 275.681 67.3308 275.041C67.0651 274.402 66.615 273.855 66.0375 273.471C65.46 273.086 64.781 272.881 64.0865 272.881C63.1552 272.881 62.262 273.25 61.6034 273.906C60.9448 274.562 60.5749 275.452 60.5749 276.381Z" fill="#DBDBDB"/>
<path d="M98.8254 235.171C99.4839 235.827 99.4224 241.689 98.9439 242.17C98.4655 242.652 91.9207 243.076 91.4071 239.436C90.8935 235.797 97.7983 234.16 98.8254 235.171Z" fill="#1F9686"/>
<path d="M74.9684 238.67H80.293C94.1332 229.567 113.131 220.568 113.131 220.568L109.98 219.807C98.4789 225.354 76.3072 238.04 75.741 238.452C75.4927 238.554 75.2335 238.627 74.9684 238.67Z" fill="#455A64"/>
<g opacity="0.5">
<path d="M211.751 264.721C210.638 262.893 209.278 261.227 207.709 259.769C206.142 258.3 204.396 257.035 202.511 256.002C198.709 253.937 194.437 252.882 190.107 252.94L188.491 253.018L187.688 253.053C187.42 253.084 187.152 253.128 186.885 253.163L185.287 253.39C184.76 253.5 184.238 253.64 183.715 253.762C181.618 254.279 179.62 255.133 177.798 256.291C175.989 257.457 174.373 258.898 173.009 260.56C171.68 262.236 170.545 264.056 169.625 265.985C170.617 264.103 171.806 262.33 173.172 260.696C174.55 259.093 176.17 257.713 177.974 256.606C181.586 254.357 185.875 253.443 190.107 253.403C192.229 253.37 194.348 253.598 196.414 254.082C198.481 254.567 200.477 255.316 202.353 256.308C204.237 257.296 205.988 258.518 207.564 259.944C209.166 261.344 210.574 262.951 211.751 264.721Z" fill="white"/>
<path d="M85.3629 264.721C84.2496 262.893 82.8892 261.227 81.3201 259.769C79.7534 258.3 78.0072 257.035 76.1229 256.002C72.3204 253.937 68.0482 252.882 63.718 252.94L62.1027 253.018L61.2994 253.053C61.0316 253.084 60.7639 253.128 60.4961 253.163L58.8983 253.39C58.3716 253.5 57.8492 253.64 57.3268 253.762C55.2297 254.279 53.2311 255.133 51.4097 256.291C49.6004 257.457 47.9847 258.898 46.6207 260.56C45.2913 262.236 44.156 264.056 43.2364 265.985C44.2286 264.103 45.4174 262.33 46.7831 260.696C48.1612 259.093 49.7813 257.713 51.5853 256.606C55.1979 254.357 59.4865 253.443 63.718 253.403C65.8406 253.37 67.9591 253.598 70.0258 254.082C72.0929 254.567 74.089 255.316 75.9649 256.308C77.8462 257.291 79.5954 258.506 81.1709 259.926C82.7755 261.332 84.1852 262.944 85.3629 264.721Z" fill="white"/>
<path d="M209.14 234.885C206.33 232.697 203.477 230.545 200.606 228.432C197.735 226.319 194.834 224.241 191.827 222.268C191.45 222.027 191.068 221.791 190.677 221.564C190.484 221.45 190.286 221.341 190.08 221.24C189.869 221.136 189.649 221.053 189.422 220.991C188.544 220.741 187.692 220.523 186.823 220.304C185.067 219.866 183.351 219.468 181.595 219.131C179.833 218.792 178.043 218.609 176.249 218.585C174.462 218.545 172.675 218.55 170.893 218.633C172.675 218.633 174.462 218.681 176.24 218.795C178.011 218.862 179.774 219.082 181.507 219.451C183.263 219.84 184.984 220.243 186.709 220.684C187.587 220.903 188.438 221.122 189.286 221.384C189.49 221.44 189.689 221.516 189.878 221.612C190.067 221.708 190.26 221.813 190.449 221.927C190.831 222.15 191.204 222.391 191.577 222.627C194.566 224.556 197.459 226.647 200.356 228.694L209.14 234.885Z" fill="white"/>
</g>
<path opacity="0.1" d="M69.2094 258.426C83.0277 261.576 83.2296 277.176 83.2296 280.037C83.2296 280.037 170.064 278.064 170.424 277.99C170.713 277.928 170.626 264.271 180.871 259.069C176.271 261.335 170.371 266.83 168.141 274.853C167.9 275.728 155.253 277.04 133.639 277.736C112.025 278.431 93.2553 277.99 89.6647 277.491C86.074 276.992 81.9127 258.356 69.2094 258.426Z" fill="#212121"/>
<path opacity="0.1" d="M25.3664 267.906C25.5551 268.457 29.6155 273.4 29.6374 273.518C29.6594 273.636 29.7779 275.014 29.8525 275.163C29.9272 275.312 33.9348 278.799 34.5054 278.943C35.0761 279.087 37.4157 279.131 37.7493 279.227C38.0829 279.324 42.1389 281.983 42.4769 282.128C42.8149 282.272 44.7638 282.128 45.3389 282.128C45.5101 282.128 44.9833 278.689 45.0755 275.566C45.2291 270.115 48.5871 263.255 55.132 259.904C51.572 260.661 45.633 265.504 43.2363 270.5C40.8396 275.496 41.4541 275.863 40.8966 276.463C40.3392 277.062 38.4736 275.85 37.6176 275.636C36.7617 275.421 33.9655 275.351 32.8901 275.137C31.8147 274.923 31.6434 272.993 30.906 272.565C30.1686 272.136 26.4287 269.166 25.3664 267.906Z" fill="#212121"/>
</svg>
