<svg width="240" height="359" viewBox="0 0 240 359" fill="none" xmlns="http://www.w3.org/2000/svg">
<path opacity="0.1" d="M100.168 357.349C40.6299 348.308 -7.75488 291.861 1.03556 229.121C8.53474 175.614 55.3171 133.974 111.418 130.042C115.48 129.756 119.589 129.668 123.737 129.789C155.033 130.695 182.84 143.248 203.407 162.243C223.876 181.147 237.175 206.432 239.596 232.959C246.044 303.536 174.22 368.595 100.168 357.349Z" fill="#211F96"/>
<g opacity="0.7">
<mask id="mask0_1685_15268" style="mask-type:luminance" maskUnits="userSpaceOnUse" x="74" y="128" width="141" height="193">
<path d="M80.6042 128.622L74.4727 315.98L208.17 320.38L214.301 133.021L80.6042 128.622Z" fill="white"/>
</mask>
<g mask="url(#mask0_1685_15268)">
<path d="M96.6143 302.922C94.7629 302.833 90.8138 301.002 89.9805 300.099C84.4356 294.09 73.3252 283.516 73.1388 274.864C73.107 273.386 79.552 271.491 80.362 270.066C84.1786 267.858 85.6393 267.329 88.2391 263.442C95.9145 251.967 74.8044 233.292 96.8996 224.341C113.084 217.785 127.569 222.387 123.705 196.685C119.841 170.982 136.493 122.231 165.16 138.06C181.612 147.145 167.523 170.406 176.863 185.969C185.739 200.757 180.246 213.966 164.668 224.531C149.09 235.096 158.381 241.499 164.301 255.756C171.413 272.882 144.685 278.179 132.137 279.569C122.033 280.688 97.0571 290.374 96.6143 302.922Z" fill="#36B23B"/>
<mask id="mask1_1685_15268" style="mask-type:luminance" maskUnits="userSpaceOnUse" x="73" y="134" width="109" height="169">
<path d="M96.6143 302.922C94.7629 302.833 90.8138 301.002 89.9805 300.099C84.4356 294.09 73.3252 283.516 73.1388 274.864C73.107 273.386 79.552 271.491 80.362 270.066C84.1786 267.858 85.6393 267.329 88.2391 263.442C95.9145 251.967 74.8044 233.292 96.8996 224.341C113.084 217.785 127.569 222.387 123.705 196.685C119.841 170.982 136.493 122.231 165.16 138.06C181.612 147.145 167.523 170.406 176.863 185.969C185.739 200.757 180.246 213.966 164.668 224.531C149.09 235.096 158.381 241.499 164.301 255.756C171.413 272.882 144.685 278.179 132.137 279.569C122.033 280.688 97.0571 290.374 96.6143 302.922Z" fill="white"/>
</mask>
<g mask="url(#mask1_1685_15268)">
<path d="M81.8479 288.204L81.6475 287.864C133.909 256.882 162.177 198.166 157.264 130.797L157.657 130.768C159.985 162.696 154.621 193.863 142.144 220.899C129.027 249.322 108.177 272.596 81.8479 288.204Z" fill="#1F7996"/>
<path d="M168.07 262.531C151.927 258.628 125.611 260.614 109.407 266.957L109.264 266.589C125.531 260.221 151.953 258.228 168.162 262.147L168.07 262.531Z" fill="#1F7996"/>
<path d="M92.0377 282.004L91.751 281.733C97.9543 275.137 100.594 265.649 99.5959 253.533C98.8642 244.649 96.2303 234.586 91.767 223.622L92.1321 223.473C96.6104 234.474 99.2539 244.577 99.9887 253.5C100.996 265.733 98.3212 275.323 92.0377 282.004Z" fill="#1F7996"/>
<path d="M143.767 216.994L143.467 216.737C154.522 203.7 171.859 199.051 184.456 197.445L184.506 197.838C171.978 199.434 154.74 204.053 143.767 216.994Z" fill="#1F7996"/>
<path d="M155.19 179.531L154.796 179.534C154.64 160.256 142.285 144.255 134.934 136.433L135.22 136.162C142.611 144.026 155.033 160.117 155.19 179.531Z" fill="#1F7996"/>
</g>
<path d="M72.1868 325.903C70.5472 325.036 67.7425 321.701 67.3688 320.529C64.8823 312.731 59.2811 298.435 62.7653 290.517C63.3604 289.164 69.9995 290.184 71.3346 289.237C75.7247 288.857 77.2712 288.998 81.2677 286.58C93.0661 279.442 81.826 253.561 105.622 254.832C123.053 255.763 134.232 266.082 141.583 241.156C148.934 216.23 184.603 179.133 203.891 205.644C214.961 220.858 192.375 235.951 194.267 254.015C196.065 271.181 185.511 280.817 166.938 283.775C148.364 286.733 154.077 296.478 153.422 311.907C152.634 330.441 126.184 323.894 114.229 319.826C104.602 316.55 77.8859 314.723 72.1868 325.903Z" fill="#96F69A"/>
</g>
</g>
<path d="M88.1102 150.971V284.904L76.0244 280.846V163.689L87.0154 152.123L87.9716 151.115L88.1102 150.971Z" fill="#97A6B7"/>
<path d="M121.702 150.84H88.1104V284.905H121.702V150.84Z" fill="white"/>
<path d="M98.7744 165.646H94.5088V276.1H98.7744V165.646Z" fill="#97A6B7"/>
<path d="M107.838 165.646H103.395V276.1H107.838V165.646Z" fill="#97A6B7"/>
<path d="M116.725 165.646H112.281V276.1H116.725V165.646Z" fill="#97A6B7"/>
<path opacity="0.5" d="M98.7744 165.646H97.3525V276.1H98.7744V165.646Z" fill="#97A6B7"/>
<path opacity="0.5" d="M107.838 165.646H106.416V276.1H107.838V165.646Z" fill="#97A6B7"/>
<path opacity="0.5" d="M116.902 165.646H115.48V276.1H116.902V165.646Z" fill="#97A6B7"/>
<path opacity="0.1" d="M121.701 284.897V284.905H88.1102L76.0244 280.847V267.221C81.6229 252.045 79.7799 245.734 80.9884 234.477C82.1686 223.487 79.6786 165.583 87.0154 152.124C87.2802 151.632 87.5575 151.204 87.8488 150.84C87.8897 150.932 87.9306 151.024 87.9715 151.116C88.0177 151.22 88.0639 151.324 88.1101 151.428C91.9278 160.028 93.6767 164.134 94.5084 168.5C95.319 172.755 95.2585 177.253 95.39 186.397C95.5535 197.643 95.5197 207.427 97.3521 214.163C97.736 215.583 98.2034 216.864 98.774 217.997C99.8813 220.202 101.374 221.838 103.395 222.795C103.619 222.903 103.848 223.003 104.085 223.091C104.872 223.387 105.65 223.851 106.416 224.464C106.896 224.844 107.371 225.284 107.838 225.784C109.408 227.445 110.906 229.726 112.282 232.5C113.444 234.841 114.519 237.53 115.481 240.488C115.92 241.84 116.336 243.249 116.725 244.71C116.785 244.934 116.844 245.158 116.902 245.386C119.078 253.806 120.368 263.791 120.254 273.956C120.205 278.382 120.759 281.944 121.701 284.897Z" fill="#97A6B7"/>
<path d="M109.683 217.176V284.901L100.18 282.849V223.607L108.822 217.759L109.574 217.249L109.683 217.176Z" fill="#97A6B7"/>
<path d="M136.098 217.109H109.684V284.901H136.098V217.109Z" fill="#F4F7FA"/>
<path d="M118.069 224.598H114.715V280.45H118.069V224.598Z" fill="#97A6B7"/>
<path d="M125.196 224.598H121.702V280.45H125.196V224.598Z" fill="#97A6B7"/>
<path d="M132.184 224.598H128.69V280.45H132.184V224.598Z" fill="#97A6B7"/>
<path opacity="0.5" d="M118.069 224.598H116.951V280.45H118.069V224.598Z" fill="#97A6B7"/>
<path opacity="0.5" d="M125.196 224.598H124.078V280.45H125.196V224.598Z" fill="#97A6B7"/>
<path opacity="0.5" d="M132.324 224.598H131.206V280.45H132.324V224.598Z" fill="#97A6B7"/>
<path opacity="0.1" d="M136.097 284.897V284.901H109.683L100.18 282.849V275.959C104.582 268.285 103.133 265.094 104.083 259.401C105.011 253.844 103.053 224.564 108.822 217.759C109.031 217.51 109.249 217.293 109.478 217.109C109.51 217.156 109.542 217.202 109.574 217.249C109.61 217.302 109.647 217.354 109.683 217.407C112.685 221.756 114.06 223.832 114.714 226.04C115.352 228.191 115.304 230.465 115.408 235.089C115.536 240.776 115.51 245.724 116.951 249.129C117.252 249.848 117.62 250.495 118.069 251.068C118.939 252.183 120.113 253.011 121.702 253.494C121.878 253.549 122.059 253.599 122.245 253.644C122.864 253.794 123.476 254.029 124.078 254.338C124.456 254.53 124.829 254.753 125.196 255.006C126.43 255.846 127.608 256.999 128.69 258.402C129.604 259.585 130.45 260.945 131.206 262.441C131.551 263.125 131.878 263.837 132.184 264.576C132.232 264.689 132.278 264.802 132.324 264.918C134.035 269.175 135.049 274.224 134.96 279.364C134.921 281.602 135.357 283.403 136.097 284.897Z" fill="#97A6B7"/>
<path d="M106.12 184.734H65.5898V284.904H106.12V184.734Z" fill="url(#paint0_linear_1685_15268)"/>
<path d="M103.044 194.244H68.6641V200.517H103.044V194.244Z" fill="#97A6B7"/>
<path d="M103.044 205.375H68.6641V211.648H103.044V205.375Z" fill="#97A6B7"/>
<path d="M103.044 216.506H68.6641V222.779H103.044V216.506Z" fill="#97A6B7"/>
<path d="M103.044 227.637H68.6641V233.91H103.044V227.637Z" fill="#97A6B7"/>
<path d="M103.044 238.766H68.6641V245.039H103.044V238.766Z" fill="#97A6B7"/>
<path d="M103.044 249.895H68.6641V256.168H103.044V249.895Z" fill="#97A6B7"/>
<path d="M103.044 261.025H68.6641V267.299H103.044V261.025Z" fill="#97A6B7"/>
<path d="M65.5896 184.734V284.904H54.6885V194.245L65.2737 185.01L65.5448 184.773L65.5896 184.734Z" fill="#97A6B7"/>
<path opacity="0.5" d="M58.0423 209.424H51.334V210.84H58.0423V209.424Z" fill="#97A6B7"/>
<path opacity="0.5" d="M58.0423 227.027H51.334V228.444H58.0423V227.027Z" fill="#97A6B7"/>
<path opacity="0.5" d="M58.0423 244.633H51.334V246.049H58.0423V244.633Z" fill="#97A6B7"/>
<path opacity="0.5" d="M58.0423 262.24H51.334V263.657H58.0423V262.24Z" fill="#97A6B7"/>
<path opacity="0.5" d="M103.044 194.244H68.6641V195.458H103.044V194.244Z" fill="#97A6B7"/>
<path opacity="0.5" d="M103.044 205.375H68.6641V206.589H103.044V205.375Z" fill="#97A6B7"/>
<path opacity="0.5" d="M103.044 216.506H68.6641V217.72H103.044V216.506Z" fill="#97A6B7"/>
<path opacity="0.5" d="M103.044 227.637H68.6641V228.851H103.044V227.637Z" fill="#97A6B7"/>
<path opacity="0.5" d="M103.044 238.766H68.6641V239.98H103.044V238.766Z" fill="#97A6B7"/>
<path opacity="0.5" d="M103.044 249.895H68.6641V251.109H103.044V249.895Z" fill="#97A6B7"/>
<path opacity="0.5" d="M103.044 261.025H68.6641V262.24H103.044V261.025Z" fill="#97A6B7"/>
<path opacity="0.1" d="M104.773 284.904H65.5896L54.6885 281.868V262.464C55.1175 261.254 55.5773 260.104 56.0693 259.046C60.6631 249.154 59.1677 245.134 60.1292 237.895C61.0781 230.75 59.0083 192.42 65.2737 185.01C65.3562 184.912 65.4386 184.821 65.5239 184.734C65.5309 184.746 65.5379 184.761 65.5448 184.773C65.5602 184.801 65.5755 184.827 65.5896 184.854C68.0619 189.354 69.4581 191.951 70.2588 194.245C70.4028 194.656 70.5272 195.059 70.6334 195.46C71.0443 196.983 71.219 198.501 71.3098 200.519C71.3686 201.864 71.3923 203.433 71.4217 205.375C71.4273 205.764 71.4343 206.169 71.4413 206.59C71.4454 206.832 71.4497 207.081 71.4538 207.334C71.4803 208.816 71.5 210.256 71.5279 211.649C71.5614 213.345 71.6075 214.969 71.69 216.505C71.7124 216.916 71.7375 217.321 71.7654 217.72C71.8954 219.559 72.0939 221.255 72.4111 222.779C72.8067 224.693 73.3881 226.33 74.2546 227.635C74.5481 228.081 74.8751 228.485 75.2399 228.85C76.0574 229.669 77.0595 230.28 78.2907 230.657C79.8448 231.13 81.3598 232.262 82.7714 233.909C83.8992 235.222 84.96 236.865 85.9228 238.765C86.1213 239.158 86.317 239.565 86.507 239.98C87.2198 241.534 87.8683 243.23 88.4371 245.039C88.9234 246.583 89.3511 248.21 89.7117 249.896C89.7983 250.296 89.8794 250.701 89.9576 251.11C90.2721 252.751 90.5223 254.445 90.6983 256.169C90.8632 257.766 90.9666 259.388 90.9988 261.026C91.0072 261.428 91.0113 261.833 91.0113 262.24C91.0113 262.489 91.01 262.738 91.0057 262.989C90.9834 264.595 91.1161 266.022 91.3719 267.299C93.3971 277.429 103.151 278.222 104.773 284.904Z" fill="#97A6B7"/>
<path opacity="0.5" d="M40.4243 209.281H33.5762V210.698H40.4243V209.281Z" fill="#97A6B7"/>
<path opacity="0.5" d="M40.4243 226.889H33.5762V228.305H40.4243V226.889Z" fill="#97A6B7"/>
<path opacity="0.5" d="M40.4243 244.492H33.5762V245.909H40.4243V244.492Z" fill="#97A6B7"/>
<path d="M26.5964 199.707V284.902L15.6953 282.32V207.796L26.5964 199.707Z" fill="#97A6B7"/>
<path d="M60.6966 199.908H26.5957V284.901H60.6966V199.908Z" fill="white"/>
<path d="M39.4545 210.029H32.7461V223.385H39.4545V210.029Z" fill="#97A6B7"/>
<path d="M48.8189 210.029H41.9707V223.385H48.8189V210.029Z" fill="#97A6B7"/>
<path d="M58.0423 210.029H51.334V223.385H58.0423V210.029Z" fill="#97A6B7"/>
<path d="M39.4545 227.635H32.7461V240.991H39.4545V227.635Z" fill="#97A6B7"/>
<path d="M48.8189 227.635H41.9707V240.991H48.8189V227.635Z" fill="#97A6B7"/>
<path d="M58.0423 227.635H51.334V240.991H58.0423V227.635Z" fill="#97A6B7"/>
<path d="M39.4545 245.238H32.7461V258.594H39.4545V245.238Z" fill="#97A6B7"/>
<path d="M48.8189 245.238H41.9707V258.594H48.8189V245.238Z" fill="#97A6B7"/>
<path d="M58.0423 245.238H51.334V258.594H58.0423V245.238Z" fill="#97A6B7"/>
<path d="M39.4545 262.848H32.7461V276.204H39.4545V262.848Z" fill="#97A6B7"/>
<path d="M48.8189 262.848H41.9707V276.204H48.8189V262.848Z" fill="#97A6B7"/>
<path d="M58.0423 262.848H51.334V276.204H58.0423V262.848Z" fill="#97A6B7"/>
<path opacity="0.5" d="M39.4545 210.027H32.7461V211.444H39.4545V210.027Z" fill="#97A6B7"/>
<path opacity="0.5" d="M39.4545 227.633H32.7461V229.049H39.4545V227.633Z" fill="#97A6B7"/>
<path opacity="0.5" d="M39.4545 245.238H32.7461V246.655H39.4545V245.238Z" fill="#97A6B7"/>
<path opacity="0.5" d="M39.4545 262.844H32.7461V264.26H39.4545V262.844Z" fill="#97A6B7"/>
<path opacity="0.1" d="M60.6973 283.49V284.901H26.5964L15.6953 282.318V269.707C16.4249 267.018 17.3054 264.399 18.3507 262.236C22.3575 253.939 21.0522 250.566 21.8908 244.495C22.7293 238.424 20.8663 205.508 26.5964 199.908C31.9534 209.284 31.5816 208.879 31.7675 218.864C31.8667 224.204 31.8597 228.927 32.7458 232.434C33.5145 235.482 34.9581 237.608 37.7309 238.424C38.3137 238.596 38.8895 238.869 39.4542 239.235C41.257 240.399 42.9523 242.502 44.389 245.238C46.2785 248.829 47.7278 253.512 48.4028 258.593C48.5887 259.984 48.7159 261.406 48.7774 262.843C48.7984 263.321 48.8123 263.802 48.8179 264.284C48.8235 264.703 48.8235 265.122 48.8179 265.541C48.815 265.688 48.815 265.834 48.8179 265.978C48.8444 269.608 49.8787 272.111 51.3335 274.032C51.9499 274.845 52.6416 275.553 53.3656 276.199C56.2572 278.777 59.6477 280.333 60.6973 283.49Z" fill="#97A6B7"/>
<path d="M78.7396 319.007C78.0603 318.732 76.7856 318.625 75.6347 318.769C74.2813 318.939 73.6082 319.392 74.1338 319.781C76.3886 321.452 79.304 323.131 82.8749 324.767C83.9601 325.265 85.0835 325.748 86.2391 326.215C90.168 327.803 94.4734 329.213 98.9856 330.419C100.036 330.7 101.7 330.669 102.705 330.351C103.586 330.071 103.664 329.662 102.957 329.376C102.859 329.336 102.747 329.299 102.62 329.265C98.368 328.129 94.283 326.792 90.5457 325.281C89.447 324.837 88.3786 324.377 87.3438 323.903C83.9425 322.345 81.1718 320.748 79.0397 319.167C78.9609 319.109 78.8595 319.055 78.7396 319.007Z" fill="url(#paint1_linear_1685_15268)"/>
<path d="M63.4625 317.601C62.8133 317.339 61.6145 317.226 60.4865 317.348C59.1052 317.497 58.3568 317.94 58.8101 318.338C62.0071 321.138 66.6242 323.987 72.6423 326.744C74.0851 327.406 75.58 328.048 77.1162 328.669C83.2462 331.148 90.0613 333.297 97.1944 335.065C98.281 335.334 99.9425 335.286 100.909 334.957C101.735 334.676 101.78 334.28 101.096 334.003C100.981 333.957 100.845 333.914 100.689 333.875C93.8803 332.188 87.3261 330.123 81.4209 327.735C79.9416 327.137 78.5024 326.518 77.1092 325.88C71.3071 323.222 66.8662 320.479 63.808 317.799C63.7248 317.726 63.6073 317.66 63.4625 317.601Z" fill="#48485C"/>
<path d="M177.005 328.043C176.552 327.859 175.814 327.741 174.965 327.74C173.513 327.739 172.287 328.082 172.223 328.507C171.93 330.494 170.613 332.29 168.337 333.804C167.197 334.562 165.821 335.249 164.214 335.859C162.604 336.469 160.764 337.002 158.681 337.454C158.29 337.539 157.89 337.621 157.478 337.7L157.48 337.7C155.202 338.141 152.755 338.47 150.151 338.697C146.248 339.036 141.982 339.142 137.456 339.019C132.931 338.897 128.151 338.544 123.268 337.972C121.94 337.817 120.387 338.011 119.801 338.407C119.415 338.666 119.543 338.949 120.055 339.156C120.321 339.263 120.691 339.35 121.147 339.404C128.173 340.225 135.157 340.649 141.803 340.603C145.128 340.58 148.364 340.439 151.461 340.17C154.559 339.901 157.513 339.503 160.256 338.973L160.258 338.972C160.75 338.877 161.232 338.779 161.704 338.677C164.215 338.132 166.425 337.489 168.332 336.766C171.19 335.682 173.359 334.419 174.871 333.028C176.382 331.638 177.242 330.12 177.478 328.512C177.505 328.335 177.327 328.173 177.005 328.043Z" fill="url(#paint2_linear_1685_15268)"/>
<path d="M43.3823 315.757C42.7564 315.504 41.613 315.389 40.5065 315.494C39.1089 315.627 38.2995 316.062 38.7002 316.465C42.9352 320.742 49.6971 325.147 58.9607 329.391C60.8809 330.272 62.8689 331.126 64.913 331.952C73.9733 335.616 84.1553 338.738 94.7833 341.221C95.8937 341.48 97.5529 341.419 98.4887 341.083C99.2711 340.801 99.2974 340.416 98.6293 340.146C98.5005 340.094 98.3461 340.046 98.1663 340.004C87.9165 337.61 78.0273 334.581 69.2196 331.018C67.2323 330.215 65.2994 329.384 63.4283 328.527C54.4138 324.397 47.8484 320.115 43.7576 315.983C43.6748 315.899 43.5463 315.823 43.3823 315.757Z" fill="#48485C"/>
<path d="M117.89 292.208C117.674 292.12 117.388 292.046 117.039 291.992C106.142 290.307 95.1802 289.316 84.779 289.143C79.5807 289.058 74.5208 289.179 69.7035 289.526C64.888 289.872 60.3144 290.445 56.1192 291.257L56.121 291.256C55.4746 291.381 54.8438 291.511 54.2275 291.645C50.3634 292.482 47.0379 293.499 44.2642 294.657C40.101 296.396 37.1741 298.451 35.4193 300.724C33.6657 302.998 33.0784 305.491 33.6159 308.122C33.6452 308.269 33.8155 308.402 34.0861 308.512C34.593 308.717 35.4519 308.838 36.3971 308.811C37.8465 308.769 38.9529 308.391 38.8667 307.969L38.8655 307.969C38.1819 304.625 39.4265 301.56 42.5237 298.985C44.0711 297.696 46.0785 296.53 48.5329 295.505C50.9896 294.48 53.8882 293.595 57.2493 292.867C57.7881 292.75 58.336 292.638 58.8942 292.53L58.896 292.529C62.5486 291.823 66.5183 291.324 70.7655 291.018C77.1322 290.56 84.1382 290.539 91.5209 290.937C98.9003 291.335 106.645 292.152 114.435 293.357C115.697 293.553 117.301 293.405 118.021 293.028C118.542 292.755 118.456 292.437 117.89 292.208Z" fill="url(#paint3_linear_1685_15268)"/>
<path d="M197.083 329.887C196.601 329.692 195.801 329.572 194.899 329.585C193.446 329.607 192.283 329.969 192.299 330.393C192.417 333.414 190.881 336.168 187.761 338.491C186.202 339.652 184.248 340.706 181.912 341.637C179.574 342.569 176.855 343.379 173.736 344.055C173.199 344.171 172.65 344.284 172.09 344.392C168.693 345.048 165.022 345.526 161.108 345.836C155.239 346.301 148.814 346.386 142.033 346.107C135.251 345.827 128.123 345.183 120.903 344.197C119.608 344.02 118.026 344.19 117.368 344.576C116.911 344.844 117.02 345.145 117.561 345.364C117.8 345.461 118.124 345.541 118.522 345.596C128.662 346.979 138.785 347.75 148.381 347.802C153.177 347.827 157.843 347.672 162.289 347.319C166.737 346.967 170.966 346.419 174.867 345.664L174.868 345.664C175.513 345.54 176.142 345.41 176.758 345.276C180.343 344.499 183.463 343.569 186.109 342.514C190.082 340.931 192.988 339.07 194.878 337.014C196.77 334.956 197.649 332.701 197.559 330.313C197.552 330.153 197.377 330.006 197.083 329.887Z" fill="#71798E"/>
<path d="M166.076 304.968C158.267 301.811 149.624 299.055 140.584 296.765C139.508 296.493 137.845 296.536 136.868 296.861C136.026 297.143 135.97 297.542 136.662 297.821C136.772 297.866 136.9 297.907 137.048 297.945C145.783 300.158 154.177 302.831 161.771 305.902C163.758 306.705 165.691 307.536 167.559 308.393C177.719 313.047 184.768 317.895 188.67 322.505C188.75 322.599 188.888 322.685 189.071 322.758C189.676 323.003 190.767 323.121 191.85 323.031C193.262 322.913 194.124 322.487 193.78 322.079C189.734 317.3 182.467 312.312 172.028 307.529C170.106 306.648 168.119 305.794 166.076 304.968Z" fill="url(#paint4_linear_1685_15268)"/>
<path d="M16.7906 313.314C16.182 313.067 15.0805 312.95 13.9927 313.044C12.5839 313.164 11.7309 313.593 12.0882 314C17.5427 320.222 27.0887 326.705 40.6712 332.929C43.2315 334.102 45.8783 335.24 48.6022 336.341C61.5694 341.584 76.258 345.994 91.5421 349.406C92.6723 349.658 94.3294 349.587 95.2397 349.245C95.9916 348.963 96.0011 348.586 95.3454 348.321C95.2062 348.265 95.0371 348.214 94.8387 348.169C79.977 344.852 65.6046 340.542 52.9087 335.407C50.2416 334.329 47.648 333.215 45.1383 332.065C31.8301 325.968 22.4962 319.621 17.1865 313.562C17.1057 313.469 16.9694 313.386 16.7906 313.314Z" fill="#71798E"/>
<path d="M121.173 284.034C120.97 283.951 120.704 283.88 120.38 283.827C105.372 281.359 90.2254 279.877 75.9009 279.557C68.7414 279.398 61.784 279.53 55.1766 279.98C48.571 280.431 42.3149 281.201 36.5894 282.308L36.5912 282.308C35.742 282.472 34.9125 282.642 34.1009 282.818C28.8207 283.963 24.3051 285.361 20.5661 286.962C14.9556 289.365 11.084 292.221 8.87952 295.388C6.67454 298.557 6.13048 302.039 7.19639 305.712C7.23684 305.851 7.40416 305.978 7.66256 306.082C8.18262 306.293 9.07159 306.414 10.0393 306.379C11.4861 306.326 12.5612 305.942 12.4381 305.52C11.0621 300.789 12.4834 296.431 16.6324 292.758C18.7058 290.921 21.4574 289.256 24.8734 287.794C28.2894 286.331 32.3667 285.072 37.124 284.04C37.8564 283.881 38.6025 283.728 39.3645 283.581L39.368 283.58C44.5283 282.583 50.1551 281.888 56.1744 281.478C65.1983 280.862 75.115 280.887 85.5177 281.518C95.9174 282.149 106.786 283.385 117.662 285.174C118.906 285.379 120.523 285.243 121.272 284.871C121.828 284.596 121.753 284.268 121.173 284.034Z" fill="#71798E"/>
<path d="M223.671 332.33C223.169 332.127 222.323 332.006 221.387 332.03C219.937 332.069 218.817 332.443 218.889 332.866C219.645 337.274 217.885 341.316 213.685 344.729C211.585 346.436 208.879 347.986 205.574 349.352C202.269 350.719 198.372 351.901 193.862 352.88C193.129 353.038 192.383 353.192 191.62 353.339C186.717 354.287 181.395 354.961 175.716 355.378C167.201 356.004 157.87 356.05 148.069 355.547C138.27 355.044 128.01 353.992 117.687 352.434C116.418 352.242 114.817 352.394 114.11 352.773C113.603 353.045 113.695 353.36 114.256 353.587C114.477 353.676 114.77 353.752 115.128 353.806C129.4 355.96 143.71 357.21 157.234 357.402C163.995 357.497 170.561 357.327 176.803 356.869C183.044 356.411 188.96 355.663 194.396 354.612C195.243 354.448 196.074 354.277 196.884 354.102C201.89 353.017 206.209 351.704 209.83 350.206C215.262 347.959 219.13 345.299 221.496 342.349C223.861 339.399 224.729 336.156 224.143 332.727C224.118 332.577 223.946 332.441 223.671 332.33Z" fill="#71798E"/>
<path d="M182.388 300.582C170.664 295.841 157.531 291.782 143.828 288.526C142.724 288.263 141.063 288.321 140.12 288.655C139.324 288.937 139.293 289.325 139.966 289.597C140.091 289.647 140.24 289.694 140.412 289.735C153.755 292.905 166.602 296.873 178.083 301.515C180.749 302.593 183.34 303.708 185.849 304.857C200.305 311.48 210.07 318.396 215.084 324.919C215.161 325.02 215.304 325.11 215.497 325.188C216.089 325.428 217.152 325.547 218.221 325.464C219.64 325.356 220.533 324.935 220.218 324.524C215.062 317.818 205.07 310.753 190.316 303.993C187.756 302.82 185.11 301.682 182.388 300.582Z" fill="#48485C"/>
<path d="M31.888 311.155L34.7535 314.857L61.7996 318.575L114.518 334.926L141.255 325.544L123.773 307.517L34.8204 288.947L26.6094 298.516L31.888 311.155Z" fill="black"/>
<path d="M140.196 339.95C140.049 340.015 139.753 340.129 139.753 340.129L131.244 343.749L126.877 341.967L118.666 336.013V323.074L119.077 317.678L128.645 313.358C133.44 311.238 139.886 315.331 143.041 322.503C146.194 329.673 144.993 337.83 140.196 339.95Z" fill="#211F96"/>
<path d="M56.3627 321.309L48.6546 324.648L39.1943 317.817L38.168 308.516L39.47 302.153L46.1297 299.868C46.3204 299.789 46.514 299.727 46.7075 299.668L46.7544 299.653L46.7573 299.656C50.6986 298.548 55.5167 301.818 57.8833 307.408C60.4257 313.404 60.4389 319.418 56.3627 321.309Z" fill="url(#paint5_linear_1685_15268)"/>
<path d="M130.672 344.024C135.54 341.871 136.89 334.225 133.688 326.946C130.486 319.667 123.944 315.512 119.076 317.665C114.208 319.819 112.858 327.465 116.06 334.744C119.262 342.023 125.804 346.177 130.672 344.024Z" fill="#D8DEE8"/>
<path d="M129.094 339.366C132.101 338.036 132.935 333.313 130.957 328.816C128.979 324.32 124.938 321.754 121.931 323.084C118.924 324.414 118.09 329.137 120.068 333.633C122.046 338.129 126.087 340.696 129.094 339.366Z" fill="white"/>
<path d="M48.3441 324.794C52.647 323.106 54.1569 316.667 51.7165 310.413C49.2762 304.159 43.8098 300.458 39.5069 302.146C35.204 303.835 33.6941 310.273 36.1344 316.527C38.5748 322.781 44.0412 326.482 48.3441 324.794Z" fill="#D8DEE8"/>
<path d="M47.1953 320.781C49.8532 319.738 50.7859 315.761 49.2785 311.898C47.7711 308.035 44.3944 305.749 41.7365 306.791C39.0785 307.834 38.1458 311.811 39.6532 315.674C41.1606 319.538 44.5373 321.824 47.1953 320.781Z" fill="white"/>
<path d="M146.598 339.332C143.828 339.428 141.293 339.48 139.358 339.508C137.294 339.538 135.495 338.095 135.086 336.067C134.48 333.055 133.572 330.68 132.801 328.99C132.053 327.358 126.774 315.822 118.299 315.134C117.115 315.037 115.681 314.978 114.408 315.825C109.939 318.795 112.657 329.396 112.657 329.396L114.487 334.836L55.0931 320.018C53.9052 319.722 52.9289 318.877 52.4637 317.742C51.4257 315.209 49.4964 310.563 48.0657 307.488C46.013 303.078 42.3474 298.814 38.6817 298.814C35.0161 298.814 34.1363 299.99 33.4032 302.489C32.6701 304.989 34.5762 312.635 34.5762 314.84C34.5762 314.84 28.3446 310.062 26.805 308.518C23.371 305.074 23.5381 300.604 23.286 298.078C22.3125 288.304 26.9897 280.479 29.0044 277.494C32.9193 274.986 36.8371 272.475 40.752 269.966C44.0511 267.228 49.2533 263.991 55.7519 260.959H55.7547C57.4821 260.612 59.3442 260.306 61.3588 260.048C74.9335 258.31 93.2265 271.766 93.2265 271.766C93.2265 271.766 124.458 292.197 143.323 323.171C145.249 326.332 148.287 333.413 146.598 339.332Z" fill="#1F9686"/>
<path d="M77.17 321.751C76.9494 321.751 76.7592 321.585 76.7335 321.36L74.5557 302.209C74.3719 300.788 74.2728 299.336 74.2618 297.899C74.2452 295.737 74.427 293.558 74.802 291.423L74.8274 291.192C74.8548 290.95 75.0716 290.776 75.3141 290.804C75.5555 290.831 75.7289 291.05 75.7014 291.292L75.6722 291.549C75.3026 293.659 75.1254 295.784 75.1416 297.893C75.1523 299.294 75.2489 300.71 75.4291 302.103L77.6075 321.26C77.635 321.502 77.4618 321.72 77.2204 321.748C77.2035 321.75 77.1866 321.751 77.17 321.751Z" fill="#212121"/>
<path d="M52.6502 294.171L52.736 298.401L49.442 297.527L49.3477 293.311L52.6502 294.171Z" fill="#211F96"/>
<path d="M59.3311 295.915L59.3994 300.172L56.0557 299.284L55.9785 295.041L59.3311 295.915Z" fill="#211F96"/>
<path d="M66.1127 297.68L66.1631 301.965L62.7684 301.064L62.709 296.793L66.1127 297.68Z" fill="#211F96"/>
<path d="M72.998 299.477L73.0298 303.789L69.5831 302.874L69.542 298.576L72.998 299.477Z" fill="#211F96"/>
<path d="M79.9901 301.3L80.0028 305.64L76.5028 304.711L76.4805 300.385L79.9901 301.3Z" fill="#211F96"/>
<path d="M87.0918 303.152L87.0847 307.521L83.5302 306.577L83.5273 302.223L87.0918 303.152Z" fill="#211F96"/>
<path d="M94.3038 305.03L94.2763 309.428L90.666 308.469L90.6832 304.086L94.3038 305.03Z" fill="#211F96"/>
<path d="M101.632 306.941L101.583 311.368L97.916 310.395L97.9539 305.982L101.632 306.941Z" fill="#211F96"/>
<path d="M109.075 308.88L109.005 313.337L105.279 312.348L105.338 307.906L109.075 308.88Z" fill="#211F96"/>
<path d="M56.056 299.33L56.1326 303.551L52.8227 302.656L52.7373 298.449L56.056 299.33Z" fill="#211F96"/>
<path d="M62.7684 301.111L62.8274 305.358L59.4674 304.45L59.3994 300.217L62.7684 301.111Z" fill="#211F96"/>
<path d="M69.5835 302.922L69.6244 307.196L66.2131 306.274L66.1631 302.014L69.5835 302.922Z" fill="#211F96"/>
<path d="M76.5023 304.758L76.5246 309.06L73.0609 308.124L73.0293 303.836L76.5023 304.758Z" fill="#211F96"/>
<path d="M83.5299 306.626L83.5327 310.956L80.0155 310.006L80.0029 305.689L83.5299 306.626Z" fill="#211F96"/>
<path d="M90.6663 308.521L90.6492 312.88L87.0771 311.915L87.0842 307.57L90.6663 308.521Z" fill="#211F96"/>
<path d="M97.9149 310.447L97.8772 314.834L94.249 313.853L94.2764 309.48L97.9149 310.447Z" fill="#211F96"/>
<path d="M105.279 312.399L105.22 316.816L101.534 315.82L101.582 311.418L105.279 312.399Z" fill="#211F96"/>
<path d="M55.9777 295.037L56.0549 299.281L52.7362 298.4L52.6504 294.17L55.9777 295.037Z" fill="white"/>
<path d="M62.708 296.793L62.7674 301.063L59.3984 300.169L59.3301 295.912L62.708 296.793Z" fill="white"/>
<path d="M69.542 298.574L69.5831 302.872L66.1627 301.964L66.1123 297.68L69.542 298.574Z" fill="white"/>
<path d="M76.4807 300.383L76.503 304.709L73.0298 303.787L72.998 299.475L76.4807 300.383Z" fill="white"/>
<path d="M83.5271 302.219L83.5299 306.574L80.0029 305.637L79.9902 301.297L83.5271 302.219Z" fill="white"/>
<path d="M90.6833 304.085L90.6662 308.468L87.084 307.517L87.0911 303.148L90.6833 304.085Z" fill="white"/>
<path d="M97.9539 305.979L97.916 310.391L94.2773 309.425L94.3049 305.027L97.9539 305.979Z" fill="white"/>
<path d="M105.339 307.906L105.28 312.348L101.583 311.367L101.632 306.939L105.339 307.906Z" fill="white"/>
<path d="M52.7373 298.449L52.8226 302.656L49.5372 301.768L49.4434 297.574L52.7373 298.449Z" fill="white"/>
<path d="M59.4003 300.218L59.4682 304.451L56.1333 303.55L56.0566 299.33L59.4003 300.218Z" fill="white"/>
<path d="M66.1631 302.013L66.2131 306.273L62.8276 305.358L62.7686 301.111L66.1631 302.013Z" fill="white"/>
<path d="M73.0306 303.837L73.0622 308.125L69.6249 307.196L69.584 302.922L73.0306 303.837Z" fill="white"/>
<path d="M80.0028 305.689L80.0154 310.005L76.5252 309.062L76.5029 304.76L80.0028 305.689Z" fill="white"/>
<path d="M87.0836 307.569L87.0766 311.913L83.5321 310.955L83.5293 306.625L87.0836 307.569Z" fill="white"/>
<path d="M94.2767 309.478L94.2493 313.851L90.6494 312.878L90.6665 308.52L94.2767 309.478Z" fill="white"/>
<path d="M101.582 311.417L101.534 315.819L97.877 314.831L97.9146 310.443L101.582 311.417Z" fill="white"/>
<path d="M109.004 313.39L108.935 317.821L105.22 316.817L105.279 312.4L109.004 313.39Z" fill="white"/>
<path d="M195.571 304.106V321.446C195.571 323.885 194.15 326.099 191.934 327.105C184.68 330.4 168.467 337.466 160.968 338.364C156.678 338.878 151.296 339.167 146.598 339.331C148.288 333.412 145.249 326.331 143.323 323.17C124.458 292.196 93.2266 271.765 93.2266 271.765C93.2266 271.765 74.9336 258.308 61.359 260.046C59.3443 260.305 57.4821 260.611 55.7549 260.958C66.9602 255.729 82.0127 251.113 97.7721 250.733C111.737 250.398 118.004 252.304 127.684 255.585C133.857 257.679 140.364 261.511 149.384 266.466C156.554 270.403 164.132 276.549 173.871 281.316C173.871 281.316 190.293 290.138 192.932 295.284C195.571 300.43 195.571 304.106 195.571 304.106Z" fill="url(#paint6_linear_1685_15268)"/>
<path d="M74.3404 276.341L74.5633 288.751C67.1381 286.269 56.7337 282.928 53.0504 282.002C47.9683 280.728 40.2441 277.2 40.2441 277.2C43.7749 274.121 47.0211 272.186 49.2381 271.024C58.5724 266.128 70.1939 264.137 77.4782 266.79C75.3844 269.516 74.2788 272.851 74.3404 276.341Z" fill="#212121"/>
<path d="M114.731 300.529C114.731 300.529 86.3854 292.884 81.2037 291.022C80.1949 290.66 78.7082 290.146 76.9252 289.543L76.6876 276.298C76.6319 273.14 77.7051 270.132 79.7228 267.744C80.843 268.259 82.3943 269.006 84.1362 269.947C84.9368 270.382 87.2651 271.623 89.9748 273.478C93.2592 275.725 95.9689 278.116 100.558 282.003C107.499 287.884 116.197 298.571 116.197 299.256C116.197 299.941 116.687 300.529 114.731 300.529Z" fill="#212121"/>
<path d="M139.623 262.404C149.931 268.676 160.239 274.947 170.547 281.219C170.547 281.219 151.08 291.697 122.928 297.088C119.516 293.662 115.819 290.141 111.823 286.577C107.787 282.976 103.829 279.673 100.002 276.649C105.706 273.545 112.62 270.305 120.687 267.503C127.577 265.11 133.977 263.501 139.623 262.404Z" fill="#212121"/>
<path opacity="0.2" d="M53.9091 268.891C52.3113 269.522 50.7447 270.235 49.2381 271.026C47.0212 272.187 43.7749 274.122 40.2441 277.201C40.2441 277.201 47.9684 280.73 53.0504 282.003C56.7337 282.929 67.1383 286.27 74.5634 288.752L74.3769 278.367C72.7682 277.872 71.1472 277.398 69.5183 276.936C64.26 275.481 57.2561 273.402 53.9091 268.891Z" fill="#808080"/>
<path opacity="0.2" d="M76.7383 279.111L76.9253 289.541C78.7083 290.143 80.195 290.658 81.2038 291.02C84.5415 292.219 97.4886 295.817 106.282 298.227C106.244 298.179 106.204 298.133 106.167 298.084C98.5429 287.818 88.0391 282.787 76.7383 279.111Z" fill="#808080"/>
<path opacity="0.2" d="M139.623 262.404C136.925 262.929 134.053 263.571 131.039 264.359C136.585 272.925 139.024 284.303 136.367 294.004C157.087 288.463 170.547 281.219 170.547 281.219C160.239 274.947 149.931 268.676 139.623 262.404Z" fill="#808080"/>
<path d="M130.029 307.27C132.132 306.183 138.892 303.038 146.598 305.285C150.579 306.446 158.132 310.015 158.695 315.504C158.75 316.043 158.728 316.501 158.695 316.827C158.695 316.827 141.979 318.591 138.68 317.415C135.381 316.239 130.029 308.373 130.029 307.27Z" fill="white"/>
<path d="M191.074 305.61C190.288 304.459 188.79 301.934 188.46 298.371C188.165 295.198 188.936 292.7 189.432 291.42C190.223 292.066 191.35 292.779 192.252 293.981C192.537 294.36 193.358 295.221 193.719 296.652C194.15 298.361 194.064 300.744 193.523 302.194C192.846 304.005 191.681 305.109 191.074 305.61Z" fill="white"/>
<path d="M190.292 313.777V316.691L166.686 325.543V322.632L190.292 313.777Z" fill="#212121"/>
<path d="M190.292 318.574V321.403L166.686 330.254V327.428L190.292 318.574Z" fill="#212121"/>
<path d="M106.188 301.765C105.628 302.18 104.692 301.792 104.443 301.68L101.12 298.348L93.9416 297.863C93.5926 297.839 93.2672 297.71 93.0062 297.504C92.7423 297.296 92.5399 297.013 92.4314 296.678C92.2378 296.069 92.3933 295.408 92.8391 294.952C94.1264 293.635 96.9623 291.094 99.6777 291.094C103.343 291.094 104.15 295.119 104.15 295.119C104.156 295.146 104.162 295.172 104.167 295.199C104.181 295.269 104.192 295.339 104.201 295.409C104.298 296.23 104.613 297.024 105.223 297.581C105.518 297.851 105.797 298.183 106.021 298.592C106.525 299.513 106.956 301.198 106.188 301.765Z" fill="#E6E6E6"/>
<path opacity="0.3" d="M69.2552 312.362C67.4097 312.362 66.0915 310.776 64.5096 309.718C60.0276 305.753 57.9184 300.201 53.9636 296.235C46.345 288.82 36.8214 283.508 26.3651 282.08C24.4704 286.003 22.6419 291.614 23.286 298.079C23.5381 300.605 23.371 305.075 26.805 308.518C28.3445 310.062 34.5762 314.841 34.5762 314.841C34.5762 312.635 32.6699 304.99 33.4031 302.49C34.1363 299.99 35.016 298.814 38.6816 298.814C42.3473 298.814 46.0131 303.078 48.0657 307.489C49.4965 310.563 51.4258 315.209 52.4637 317.742C52.929 318.877 53.9053 319.722 55.0931 320.018L105.593 332.618C105.52 332.563 105.447 332.51 105.375 332.455C93.5108 323.995 84.0195 312.891 69.2552 312.362Z" fill="#212121"/>
<path d="M93.7402 254.494L95.5823 249.136C95.5823 249.136 95.8682 248.416 97.1985 248.345C98.4847 248.276 105.775 248.123 105.775 248.123C105.775 248.123 106.647 248.12 107.138 248.982C107.632 249.85 108.93 252.821 108.93 252.821L93.7402 254.494Z" fill="black"/>
<path d="M95.124 254.461L96.9661 249.103C96.9661 249.103 97.252 248.383 98.5823 248.312C99.8685 248.243 107.159 248.09 107.159 248.09C107.159 248.09 108.031 248.087 108.522 248.949C109.016 249.816 110.314 252.788 110.314 252.788L95.124 254.461Z" fill="black"/>
<path d="M94.2754 256.635L95.1034 254.355L110.205 252.529L110.894 253.752C110.992 253.926 110.885 254.145 110.688 254.174L94.2754 256.635Z" fill="url(#paint7_linear_1685_15268)"/>
<path d="M108.34 252.767L97.8711 254.117L98.3654 249.484L107.571 249.088L108.34 252.767Z" fill="#211F96"/>
<path d="M95.1198 254.357L94.0159 253.539L92.8897 254.783C92.7935 254.889 92.7947 255.052 92.8924 255.157L94.2795 256.645L95.1198 254.357Z" fill="url(#paint8_linear_1685_15268)"/>
<path d="M101.54 249.248L101.628 251.268L99.7578 251.417L99.7634 249.326L101.54 249.248Z" fill="#211F96"/>
<path d="M104.785 249.104L105.028 250.994L103.381 251.125L103.211 249.172L104.785 249.104Z" fill="url(#paint9_linear_1685_15268)"/>
<path d="M107.675 248.979L108.039 250.755L106.578 250.872L106.271 249.04L107.675 248.979Z" fill="url(#paint10_linear_1685_15268)"/>
<path d="M99.7573 251.441L99.751 253.777L97.6309 254.032L97.7567 251.602L99.7573 251.441Z" fill="url(#paint11_linear_1685_15268)"/>
<path d="M103.383 251.15L103.572 253.316L101.727 253.538L101.629 251.291L103.383 251.15Z" fill="#211F96"/>
<path d="M106.582 250.893L106.92 252.911L105.3 253.107L105.031 251.017L106.582 250.893Z" fill="url(#paint12_linear_1685_15268)"/>
<path d="M99.7627 249.326L99.7571 251.418L97.7578 251.577L97.8701 249.409L99.7627 249.326Z" fill="white"/>
<path d="M103.21 249.174L103.38 251.127L101.627 251.267L101.539 249.247L103.21 249.174Z" fill="white"/>
<path d="M106.271 249.041L106.578 250.873L105.028 250.996L104.785 249.106L106.271 249.041Z" fill="white"/>
<path d="M101.629 251.291L101.727 253.538L99.751 253.776L99.7573 251.441L101.629 251.291Z" fill="white"/>
<path d="M105.031 251.018L105.299 253.107L103.572 253.315L103.383 251.15L105.031 251.018Z" fill="white"/>
<path d="M108.044 250.779L108.444 252.732L106.92 252.915L106.582 250.896L108.044 250.779Z" fill="white"/>
<path d="M159.025 242.25C159.025 259.442 172.431 272.966 189.566 272.438C207.398 271.889 222.395 256.446 222.395 237.966C222.395 219.486 207.398 206.07 189.566 207.932C172.431 209.721 159.025 225.058 159.025 242.25Z" fill="#212121"/>
<path d="M154.396 240.768C154.396 257.96 167.802 271.484 184.936 270.956C202.768 270.407 217.765 254.964 217.765 236.484C217.765 218.003 202.768 204.588 184.936 206.45C167.802 208.239 154.396 223.576 154.396 240.768Z" fill="url(#paint13_linear_1685_15268)"/>
<path d="M155.74 240.677C155.74 257.112 168.567 270.018 184.936 269.487C201.94 268.935 216.216 254.197 216.216 236.588C216.216 218.98 201.94 206.172 184.936 207.919C168.567 209.601 155.74 224.242 155.74 240.677Z" fill="white"/>
<path d="M157.157 240.583C157.157 255.015 167.556 266.576 181.39 267.871C182.552 267.981 183.743 268.018 184.949 267.977C201.107 267.433 214.657 253.419 214.657 236.697C214.657 222.155 204.412 211.049 191.113 209.478C189.12 209.242 187.055 209.218 184.949 209.433C169.379 211.013 157.157 224.937 157.157 240.583Z" fill="url(#paint14_linear_1685_15268)"/>
<path opacity="0.4" d="M181.391 267.868C182.553 267.978 183.743 268.015 184.95 267.974C201.108 267.43 214.658 253.416 214.658 236.694C214.658 222.152 204.413 211.046 191.114 209.475C186.623 212.991 182.601 217.491 181.909 222.822C180.779 231.512 189.437 235.512 190.393 244.958C191.178 252.75 187.457 261.432 181.391 267.868Z" fill="url(#paint15_linear_1685_15268)"/>
<path d="M188.105 259.792C190.334 259.115 191.594 256.755 190.919 254.52C190.244 252.285 187.89 251.022 185.662 251.699C183.433 252.375 182.173 254.736 182.848 256.971C183.523 259.205 185.877 260.469 188.105 259.792Z" fill="white"/>
<path d="M186.879 220.309C195.688 220.309 203.744 223.542 209.932 228.889C211.202 229.986 211.293 231.926 210.108 233.114L209.989 233.234C208.934 234.291 207.24 234.368 206.112 233.391C200.952 228.921 194.232 226.215 186.879 226.215C179.526 226.215 172.806 228.921 167.646 233.391C166.518 234.368 164.824 234.291 163.769 233.234L163.65 233.114C162.465 231.926 162.556 229.986 163.826 228.889C170.014 223.542 178.07 220.309 186.879 220.309Z" fill="white"/>
<path d="M186.879 230.152C192.965 230.152 198.55 232.292 202.934 235.858C204.247 236.925 204.33 238.907 203.135 240.105L203.115 240.126C202.068 241.176 200.411 241.233 199.258 240.302C195.87 237.567 191.566 235.928 186.879 235.928C182.191 235.928 177.887 237.567 174.5 240.302C173.347 241.233 171.689 241.176 170.642 240.126L170.622 240.105C169.427 238.907 169.511 236.925 170.823 235.858C175.208 232.292 180.793 230.152 186.879 230.152Z" fill="white"/>
<path d="M196.113 247.149C195.077 248.188 193.469 248.306 192.242 247.502C190.7 246.492 188.858 245.904 186.879 245.904C184.901 245.904 183.059 246.492 181.517 247.502C180.29 248.306 178.682 248.188 177.645 247.149L177.632 247.136C176.361 245.862 176.561 243.743 178.046 242.727C180.562 241.006 183.603 239.998 186.879 239.998C190.156 239.998 193.197 241.006 195.713 242.727C197.198 243.743 197.397 245.861 196.127 247.136L196.113 247.149Z" fill="white"/>
<path d="M178.28 258.051L199.371 216.563C199.997 215.332 199.506 213.827 198.275 213.201C197.045 212.576 195.54 213.066 194.914 214.297L173.822 255.785C173.197 257.016 173.687 258.521 174.918 259.147C176.149 259.772 177.654 259.282 178.28 258.051Z" fill="white"/>
<path d="M94.8306 2.03746C94.5752 2.14233 94.4531 2.43443 94.558 2.68989L96.2669 6.85275C96.3718 7.1082 96.6639 7.23028 96.9194 7.1254C97.1748 7.02053 97.2969 6.72843 97.192 6.47298L95.6729 2.77266L99.3733 1.25358C99.6287 1.1487 99.7508 0.856604 99.6459 0.60115C99.541 0.345696 99.2489 0.223624 98.9935 0.328494L94.8306 2.03746ZM119.5 23.1211L119.911 22.8365L119.5 23.1211ZM101.705 108.217C101.482 108.38 101.433 108.693 101.596 108.916C101.759 109.139 102.072 109.188 102.295 109.025L101.705 108.217ZM96.674 3.76685C96.9252 3.8814 97.2218 3.77057 97.3363 3.5193C97.4509 3.26804 97.34 2.97149 97.0888 2.85694L96.674 3.76685ZM100.753 4.69275C100.511 4.55956 100.207 4.64769 100.074 4.88959C99.9408 5.13149 100.029 5.43555 100.271 5.56874L100.753 4.69275ZM103.706 7.65216C103.936 7.80528 104.246 7.74312 104.4 7.51333C104.553 7.28353 104.491 6.97311 104.261 6.81998L103.706 7.65216ZM107.575 9.24001C107.359 9.06785 107.045 9.10331 106.873 9.31921C106.7 9.53512 106.736 9.84971 106.952 10.0219L107.575 9.24001ZM109.99 12.6542C110.192 12.8431 110.508 12.833 110.697 12.6315C110.886 12.4301 110.876 12.1137 110.674 11.9248L109.99 12.6542ZM113.557 14.8345C113.37 14.6316 113.053 14.619 112.851 14.8064C112.648 14.9937 112.635 15.31 112.822 15.5129L113.557 14.8345ZM115.459 18.5588C115.634 18.773 115.949 18.8053 116.163 18.631C116.377 18.4567 116.409 18.1418 116.235 17.9276L115.459 18.5588ZM118.726 21.1675C118.564 20.9443 118.251 20.8951 118.028 21.0576C117.805 21.2202 117.755 21.5329 117.918 21.7561L118.726 21.1675ZM120.206 25.0809C120.355 25.3133 120.664 25.3807 120.897 25.2315C121.129 25.0823 121.196 24.773 121.047 24.5406L120.206 25.0809ZM123.144 28.0596C123.011 27.8178 122.706 27.7301 122.465 27.8636C122.223 27.9971 122.135 28.3013 122.269 28.543L123.144 28.0596ZM124.106 32.1368C124.224 32.3865 124.522 32.4934 124.772 32.3756C125.022 32.2577 125.129 31.9597 125.011 31.71L124.106 32.1368ZM126.644 35.4729C126.542 35.2162 126.252 35.0908 125.995 35.1928C125.738 35.2948 125.613 35.5855 125.715 35.8421L126.644 35.4729ZM127.085 39.6342C127.171 39.8967 127.453 40.0401 127.716 39.9545C127.978 39.8688 128.122 39.5866 128.036 39.3241L127.085 39.6342ZM129.183 43.2632C129.115 42.9957 128.842 42.8345 128.575 42.9032C128.307 42.9718 128.146 43.2443 128.215 43.5118L129.183 43.2632ZM129.089 47.4469C129.14 47.7183 129.401 47.897 129.672 47.846C129.944 47.7951 130.123 47.5337 130.072 47.2623L129.089 47.4469ZM130.693 51.3188C130.661 51.0445 130.412 50.8486 130.138 50.8811C129.863 50.9137 129.668 51.1623 129.7 51.4366L130.693 51.3188ZM130.036 55.4514C130.049 55.7272 130.284 55.94 130.56 55.9266C130.835 55.9132 131.048 55.6787 131.035 55.4029L130.036 55.4514ZM131.088 59.5085C131.094 59.2324 130.875 59.0035 130.599 58.9971C130.323 58.9907 130.094 59.2093 130.088 59.4854L131.088 59.5085ZM129.848 63.5046C129.821 63.7795 130.023 64.0238 130.298 64.0504C130.572 64.077 130.817 63.8757 130.843 63.6008L129.848 63.5046ZM130.297 67.6688C130.344 67.3967 130.161 67.138 129.889 67.0911C129.617 67.0442 129.359 67.2267 129.312 67.4988L130.297 67.6688ZM128.478 71.4426C128.411 71.7104 128.574 71.982 128.841 72.0492C129.109 72.1164 129.381 71.9538 129.448 71.6859L128.478 71.4426ZM128.303 75.6218C128.39 75.3597 128.248 75.0767 127.986 74.9898C127.724 74.9028 127.441 75.0448 127.354 75.3069L128.303 75.6218ZM125.944 79.083C125.838 79.338 125.959 79.6306 126.214 79.7366C126.469 79.8426 126.761 79.7218 126.867 79.4669L125.944 79.083ZM125.154 83.2019C125.278 82.9552 125.179 82.6546 124.932 82.5306C124.685 82.4066 124.385 82.506 124.261 82.7528L125.154 83.2019ZM122.329 86.2846C122.188 86.5222 122.266 86.8289 122.504 86.9696C122.742 87.1104 123.048 87.0319 123.189 86.7943L122.329 86.2846ZM120.986 90.2462C121.142 90.0184 121.084 89.7072 120.856 89.5511C120.629 89.3951 120.317 89.4532 120.161 89.681L120.986 90.2462ZM117.778 92.9351C117.608 93.1528 117.647 93.467 117.865 93.6369C118.082 93.8069 118.396 93.7682 118.566 93.5506L117.778 92.9351ZM115.951 96.7024C116.134 96.4951 116.113 96.1791 115.906 95.9967C115.699 95.8143 115.383 95.8345 115.2 96.0418L115.951 96.7024ZM112.449 98.9989C112.256 99.196 112.259 99.5125 112.456 99.706C112.653 99.8995 112.969 99.8967 113.163 99.6997L112.449 98.9989ZM110.221 102.544C110.424 102.357 110.438 102.04 110.251 101.837C110.064 101.634 109.748 101.621 109.544 101.807L110.221 102.544ZM106.504 104.47C106.292 104.647 106.264 104.963 106.441 105.175C106.618 105.387 106.933 105.415 107.145 105.238L106.504 104.47ZM103.951 107.788C104.171 107.62 104.213 107.306 104.045 107.087C103.878 106.867 103.564 106.825 103.345 106.993L103.951 107.788ZM94.8277 2.96133C95.4447 3.21917 96.06 3.48695 96.674 3.76685L97.0888 2.85694C96.4644 2.57229 95.8393 2.30027 95.2133 2.03867L94.8277 2.96133ZM100.271 5.56874C101.418 6.20024 102.562 6.88989 103.706 7.65216L104.261 6.81998C103.092 6.04128 101.923 5.33711 100.753 4.69275L100.271 5.56874ZM106.952 10.0219C107.963 10.8282 108.975 11.7022 109.99 12.6542L110.674 11.9248C109.64 10.9547 108.607 10.0631 107.575 9.24001L106.952 10.0219ZM112.822 15.5129C113.698 16.4616 114.577 17.4748 115.459 18.5588L116.235 17.9276C115.34 16.828 114.448 15.799 113.557 14.8345L112.822 15.5129ZM117.918 21.7561C118.307 22.2911 118.698 22.8407 119.089 23.4057L119.911 22.8365C119.516 22.2651 119.121 21.709 118.726 21.1675L117.918 21.7561ZM119.089 23.4057C119.466 23.95 119.838 24.5086 120.206 25.0809L121.047 24.5406C120.674 23.9587 120.295 23.3904 119.911 22.8365L119.089 23.4057ZM122.269 28.543C122.907 29.6993 123.522 30.8985 124.106 32.1368L125.011 31.71C124.417 30.4524 123.793 29.2343 123.144 28.0596L122.269 28.543ZM125.715 35.8421C126.205 37.076 126.664 38.3411 127.085 39.6342L128.036 39.3241C127.608 38.0107 127.142 36.7259 126.644 35.4729L125.715 35.8421ZM128.215 43.5118C128.546 44.8016 128.838 46.1143 129.089 47.4469L130.072 47.2623C129.817 45.9077 129.52 44.5737 129.183 43.2632L128.215 43.5118ZM129.7 51.4366C129.857 52.7597 129.97 54.0988 130.036 55.4514L131.035 55.4029C130.968 54.0266 130.853 52.6644 130.693 51.3188L129.7 51.4366ZM130.088 59.4854C130.057 60.8157 129.978 62.1562 129.848 63.5046L130.843 63.6008C130.976 62.2276 131.056 60.8627 131.088 59.5085L130.088 59.4854ZM129.312 67.4988C129.086 68.8087 128.809 70.124 128.478 71.4426L129.448 71.6859C129.785 70.3428 130.067 69.003 130.297 67.6688L129.312 67.4988ZM127.354 75.3069C126.936 76.5648 126.467 77.8241 125.944 79.083L126.867 79.4669C127.4 78.1852 127.878 76.9029 128.303 75.6218L127.354 75.3069ZM124.261 82.7528C123.668 83.9323 123.024 85.1101 122.329 86.2846L123.189 86.7943C123.896 85.6 124.551 84.4021 125.154 83.2019L124.261 82.7528ZM120.161 89.681C119.415 90.7701 118.622 91.8552 117.778 92.9351L118.566 93.5506C119.422 92.4545 120.228 91.3526 120.986 90.2462L120.161 89.681ZM115.2 96.0418C114.328 97.0332 113.411 98.0192 112.449 98.9989L113.163 99.6997C114.138 98.7071 115.067 97.7077 115.951 96.7024L115.2 96.0418ZM109.544 101.807C108.572 102.702 107.559 103.589 106.504 104.47L107.145 105.238C108.212 104.347 109.237 103.449 110.221 102.544L109.544 101.807ZM103.345 106.993C102.808 107.403 102.261 107.811 101.705 108.217L102.295 109.025C102.857 108.614 103.409 108.202 103.951 107.788L103.345 106.993Z" fill="black"/>
<defs>
<linearGradient id="paint0_linear_1685_15268" x1="65.5899" y1="234.819" x2="106.12" y2="234.819" gradientUnits="userSpaceOnUse">
<stop offset="0.494" stop-color="#EBEFF2"/>
<stop offset="1" stop-color="white"/>
</linearGradient>
<linearGradient id="paint1_linear_1685_15268" x1="151.624" y1="278.473" x2="-77.5172" y2="394.592" gradientUnits="userSpaceOnUse">
<stop offset="0.0036" stop-color="#E38DDD"/>
<stop offset="1" stop-color="#9571F6"/>
</linearGradient>
<linearGradient id="paint2_linear_1685_15268" x1="171.623" y1="317.94" x2="-57.5201" y2="434.06" gradientUnits="userSpaceOnUse">
<stop offset="0.0036" stop-color="#E38DDD"/>
<stop offset="1" stop-color="#9571F6"/>
</linearGradient>
<linearGradient id="paint3_linear_1685_15268" x1="137.997" y1="251.581" x2="-91.1458" y2="367.702" gradientUnits="userSpaceOnUse">
<stop offset="0.0036" stop-color="#E38DDD"/>
<stop offset="1" stop-color="#9571F6"/>
</linearGradient>
<linearGradient id="paint4_linear_1685_15268" x1="166.837" y1="308.49" x2="-62.3038" y2="424.609" gradientUnits="userSpaceOnUse">
<stop offset="0.0036" stop-color="#E38DDD"/>
<stop offset="1" stop-color="#9571F6"/>
</linearGradient>
<linearGradient id="paint5_linear_1685_15268" x1="38.1679" y1="312.045" x2="59.6374" y2="312.045" gradientUnits="userSpaceOnUse">
<stop stop-color="#444B8C"/>
<stop offset="0.9964" stop-color="#3E4177"/>
</linearGradient>
<linearGradient id="paint6_linear_1685_15268" x1="84.5" y1="258.5" x2="164" y2="337.5" gradientUnits="userSpaceOnUse">
<stop stop-color="#1C8A7B"/>
<stop offset="0.805495" stop-color="#1F8896"/>
<stop offset="1" stop-color="#155A63"/>
</linearGradient>
<linearGradient id="paint7_linear_1685_15268" x1="101.245" y1="275.616" x2="103.366" y2="244.023" gradientUnits="userSpaceOnUse">
<stop stop-color="#444B8C"/>
<stop offset="0.9964" stop-color="#26264F"/>
</linearGradient>
<linearGradient id="paint8_linear_1685_15268" x1="92.6085" y1="275.038" x2="94.7293" y2="243.446" gradientUnits="userSpaceOnUse">
<stop stop-color="#444B8C"/>
<stop offset="0.9964" stop-color="#26264F"/>
</linearGradient>
<linearGradient id="paint9_linear_1685_15268" x1="103.211" y1="250.433" x2="105.028" y2="250.433" gradientUnits="userSpaceOnUse">
<stop stop-color="#444B8C"/>
<stop offset="0.9964" stop-color="#3E4177"/>
</linearGradient>
<linearGradient id="paint10_linear_1685_15268" x1="106.271" y1="250.238" x2="108.039" y2="250.238" gradientUnits="userSpaceOnUse">
<stop stop-color="#444B8C"/>
<stop offset="0.9964" stop-color="#3E4177"/>
</linearGradient>
<linearGradient id="paint11_linear_1685_15268" x1="97.6309" y1="253.122" x2="99.7573" y2="253.122" gradientUnits="userSpaceOnUse">
<stop stop-color="#444B8C"/>
<stop offset="0.9964" stop-color="#3E4177"/>
</linearGradient>
<linearGradient id="paint12_linear_1685_15268" x1="105.031" y1="252.328" x2="106.92" y2="252.328" gradientUnits="userSpaceOnUse">
<stop stop-color="#444B8C"/>
<stop offset="0.9964" stop-color="#3E4177"/>
</linearGradient>
<linearGradient id="paint13_linear_1685_15268" x1="217.765" y1="238.624" x2="154.396" y2="238.624" gradientUnits="userSpaceOnUse">
<stop stop-color="#211F96"/>
<stop offset="1" stop-color="#1F9686"/>
</linearGradient>
<linearGradient id="paint14_linear_1685_15268" x1="214.657" y1="238.639" x2="157.157" y2="238.639" gradientUnits="userSpaceOnUse">
<stop stop-color="#211F96"/>
<stop offset="1" stop-color="#1F9686"/>
</linearGradient>
<linearGradient id="paint15_linear_1685_15268" x1="214.658" y1="238.732" x2="181.391" y2="238.732" gradientUnits="userSpaceOnUse">
<stop stop-color="#211F96"/>
<stop offset="1" stop-color="#1F9686"/>
</linearGradient>
</defs>
</svg>
