<svg width="334" height="237" viewBox="0 0 334 237" fill="none" xmlns="http://www.w3.org/2000/svg">
<path opacity="0.05" d="M306.282 178.732C312.535 129.348 282.206 63.7197 250.815 36.6201C194.102 -12.3108 146.984 -2.85033 110.332 14.6685C73.6798 32.1873 68.4823 90.713 43.1742 117.182C17.8661 143.652 3.47717 179.256 41.8712 214.704C80.2653 250.152 111.267 232.138 151.374 229.886C191.482 227.634 244.74 245.337 273.532 229.95C293.642 219.208 303.541 200.584 306.282 178.732Z" fill="#211F96"/>
<path d="M21.8528 187.074C25.4288 196.18 31.8514 205.449 41.8712 214.69C80.2653 250.131 111.267 232.124 151.374 229.872C191.482 227.62 244.74 245.323 273.532 229.936C291.022 220.589 300.794 205.258 304.859 187.059L21.8528 187.074Z" fill="#B3B3B3"/>
<path opacity="0.3" d="M182.9 33.9293C180.641 32.6971 179.614 33.7239 178.792 32.6971C177.971 31.6704 181.051 28.9937 174.884 26.3241C174.884 26.3241 174.473 20.5671 166.046 20.3617C157.62 20.1564 159.886 26.1187 157.627 27.5562C155.368 28.9937 154.745 26.7348 152.486 28.1723C150.227 29.6097 151.254 32.4918 149.406 32.9025C147.557 33.3132 145.086 31.0472 142.827 32.4918C140.568 33.9363 140.568 35.1614 139.542 35.1614C138.515 35.1614 136.461 34.34 135.222 35.1614C133.983 35.9828 132.552 37.0096 132.552 37.0096H184.542C184.542 37.0096 185.194 35.1614 182.9 33.9293Z" fill="#211F96"/>
<path opacity="0.3" d="M232.468 58.7133C230.209 57.4812 229.182 58.508 228.361 57.4812C227.539 56.4544 230.62 53.7777 224.452 51.1081C224.452 51.1081 224.041 45.3512 215.615 45.1458C207.188 44.9404 209.454 50.9028 207.195 52.3403C204.936 53.7777 204.313 51.5188 202.054 52.9563C199.795 54.3938 200.822 57.2758 198.974 57.6865C197.126 58.0972 194.654 55.8313 192.395 57.2758C190.136 58.7204 190.136 59.9454 189.11 59.9454C188.083 59.9454 186.029 59.124 184.79 59.9454C183.551 60.7668 182.121 61.7936 182.121 61.7936H234.111C234.111 61.7936 234.762 59.9454 232.468 58.7133Z" fill="#211F96"/>
<g opacity="0.6">
<path opacity="0.3" d="M121.538 67.8126C117.028 65.3484 114.974 67.4019 113.331 65.3484C111.688 63.2948 117.849 57.9627 105.542 52.6023C105.542 52.6023 104.721 41.1096 87.8958 40.6989C71.0709 40.2881 75.5887 52.1916 71.0709 55.0594C66.5531 57.9273 65.3281 53.4237 60.8174 56.2916C56.3067 59.1594 58.3531 64.9093 54.6568 65.7307C50.9604 66.5522 46.039 62.0415 41.5283 64.9093C37.0176 67.7772 37.0034 70.291 34.957 70.291C32.9105 70.291 28.7964 68.6482 26.3392 70.291C23.882 71.9338 21 73.9803 21 73.9803H124.824C124.824 73.9803 126.042 70.291 121.538 67.8126Z" fill="#211F96"/>
</g>
<path d="M21.449 167.154C21.449 167.154 31.653 168.167 36.8222 174.49C36.8222 174.49 42.2818 167.161 52.0892 167.317C54.4873 164.425 56.0145 160.912 56.493 157.186C56.9715 153.46 56.3816 149.674 54.792 146.271C53.2024 142.867 50.6785 139.985 47.5142 137.96C44.35 135.935 40.6756 134.851 36.9189 134.833C33.1623 134.816 29.478 135.866 26.2951 137.862C23.1123 139.857 20.5618 142.716 18.9408 146.105C17.3198 149.494 16.695 153.274 17.139 157.004C17.5831 160.734 19.0777 164.262 21.449 167.175V167.154Z" fill="#1F9686"/>
<path d="M21.449 167.154C21.449 167.154 31.653 168.167 36.8222 174.49C36.8222 174.49 42.2818 167.161 52.0892 167.317C54.4873 164.425 56.0145 160.912 56.493 157.186C56.9715 153.46 56.3816 149.674 54.792 146.271C53.2024 142.867 50.6785 139.985 47.5142 137.96C44.35 135.935 40.6756 134.851 36.9189 134.833C33.1623 134.816 29.478 135.866 26.2951 137.862C23.1123 139.857 20.5618 142.716 18.9408 146.105C17.3198 149.494 16.695 153.274 17.139 157.004C17.5831 160.734 19.0777 164.262 21.449 167.175V167.154Z" fill="#36B23B"/>
<path d="M36.4822 136.238L36.1353 187.364H37.8631L36.4822 136.238Z" fill="black"/>
<path d="M36.9993 172.564C36.9993 172.564 40.4407 166.361 46.6438 164.47C46.6438 164.47 40.1008 166.021 36.8293 171.353L36.9993 172.564Z" fill="black"/>
<path d="M36.9993 155.003C36.9993 155.003 40.4407 148.807 46.6438 146.909C46.6438 146.909 40.1008 148.46 36.8293 153.799L36.9993 155.003Z" fill="black"/>
<path d="M36.9993 163.762C36.9993 163.762 40.4407 157.559 46.6438 155.668C46.6438 155.668 40.1008 157.219 36.8293 162.551L36.9993 163.762Z" fill="black"/>
<path d="M36.4895 159.514C36.4895 159.514 33.1684 153.318 27.1848 151.42C27.1848 151.42 33.5012 152.971 36.6523 158.31L36.4895 159.514Z" fill="black"/>
<path d="M36.4895 168.082C36.4895 168.082 33.1684 161.886 27.1848 159.995C27.1848 159.995 33.5012 161.546 36.6523 166.878L36.4895 168.082Z" fill="black"/>
<path d="M53.0805 163.281C53.0805 163.281 65.2318 164.485 71.3995 172.019C71.3995 172.019 77.9071 163.288 89.5981 163.465C92.4517 160.018 94.2677 155.832 94.8348 151.394C95.4019 146.955 94.6968 142.447 92.8015 138.394C90.9062 134.34 87.8986 130.909 84.1289 128.498C80.3592 126.088 75.9824 124.797 71.5079 124.777C67.0334 124.757 62.6452 126.009 58.8542 128.385C55.0631 130.762 52.0251 134.167 50.0937 138.203C48.1623 142.24 47.417 146.741 47.9445 151.185C48.472 155.628 50.2507 159.83 53.0734 163.302L53.0805 163.281Z" fill="#1F9686"/>
<path d="M53.0805 163.281C53.0805 163.281 65.2318 164.485 71.3995 172.019C71.3995 172.019 77.9071 163.288 89.5981 163.465C92.4517 160.018 94.2677 155.832 94.8348 151.394C95.4019 146.955 94.6968 142.447 92.8015 138.394C90.9062 134.34 87.8986 130.909 84.1289 128.498C80.3592 126.088 75.9824 124.797 71.5079 124.777C67.0334 124.757 62.6452 126.009 58.8542 128.385C55.0631 130.762 52.0251 134.167 50.0937 138.203C48.1623 142.24 47.417 146.741 47.9445 151.185C48.472 155.628 50.2507 159.83 53.0734 163.302L53.0805 163.281Z" fill="#66CC6A"/>
<path d="M70.9959 126.43L70.5852 187.364H72.6387L70.9959 126.43Z" fill="black"/>
<path d="M71.6118 169.725C71.6118 169.725 75.7118 162.339 83.0975 160.08C83.0975 160.08 75.3082 161.928 71.4065 168.287L71.6118 169.725Z" fill="black"/>
<path d="M71.6118 148.793C71.6118 148.793 75.7118 141.407 83.0975 139.148C83.0975 139.148 75.3082 140.996 71.4065 147.355L71.6118 148.793Z" fill="black"/>
<path d="M71.6118 159.259C71.6118 159.259 75.7118 151.873 83.0975 149.614C83.0975 149.614 75.3082 151.462 71.4065 157.821L71.6118 159.259Z" fill="black"/>
<path d="M71.0029 154.132C71.0029 154.132 67.0446 146.746 59.9138 144.487C59.9138 144.487 67.4411 146.335 71.2012 152.694L71.0029 154.132Z" fill="black"/>
<path d="M71.0029 164.385C71.0029 164.385 67.0446 157 59.9138 154.741C59.9138 154.741 67.4411 156.589 71.2012 162.948L71.0029 164.385Z" fill="black"/>
<path d="M85.7176 170.319C85.7176 170.319 94.3283 171.169 98.6832 176.501C100.251 174.603 102.22 173.076 104.448 172.029C106.677 170.983 109.109 170.442 111.571 170.447C113.592 168.007 114.879 165.043 115.281 161.9C115.683 158.757 115.185 155.564 113.843 152.694C112.501 149.823 110.371 147.393 107.702 145.686C105.032 143.979 101.933 143.065 98.7641 143.051C95.5955 143.037 92.4881 143.924 89.8038 145.607C87.1195 147.291 84.9686 149.703 83.6016 152.561C82.2346 155.42 81.7078 158.608 82.0824 161.754C82.457 164.901 83.7177 167.876 85.7176 170.334V170.319Z" fill="#1F9686"/>
<path d="M85.7176 170.319C85.7176 170.319 94.3283 171.169 98.6832 176.501C100.251 174.603 102.22 173.076 104.448 172.029C106.677 170.983 109.109 170.442 111.571 170.447C113.592 168.007 114.879 165.043 115.281 161.9C115.683 158.757 115.185 155.564 113.843 152.694C112.501 149.823 110.371 147.393 107.702 145.686C105.032 143.979 101.933 143.065 98.7641 143.051C95.5955 143.037 92.4881 143.924 89.8038 145.607C87.1195 147.291 84.9686 149.703 83.6016 152.561C82.2346 155.42 81.7078 158.608 82.0824 161.754C82.457 164.901 83.7177 167.876 85.7176 170.334V170.319Z" fill="#749E76"/>
<path d="M98.3999 144.232L98.1096 187.364H99.5613L98.3999 144.232Z" fill="black"/>
<path d="M98.8391 174.88C98.8391 174.88 101.742 169.647 106.968 168.053C106.968 168.053 101.452 169.356 98.6904 173.86L98.8391 174.88Z" fill="black"/>
<path d="M98.8391 160.066C98.8391 160.066 101.742 154.833 106.968 153.24C106.968 153.24 101.452 154.543 98.6904 159.046L98.8391 160.066Z" fill="black"/>
<path d="M98.8391 167.473C98.8391 167.473 101.742 162.24 106.968 160.647C106.968 160.647 101.452 161.95 98.6904 166.453L98.8391 167.473Z" fill="black"/>
<path d="M98.4072 163.84C98.4072 163.84 95.5747 158.614 90.5613 157.014C90.5613 157.014 95.8863 158.324 98.5488 162.82L98.4072 163.84Z" fill="black"/>
<path d="M98.4072 171.098C98.4072 171.098 95.5747 165.872 90.5613 164.272C90.5613 164.272 95.8863 165.582 98.5488 170.086L98.4072 171.098Z" fill="black"/>
<path d="M249.682 167.154C249.682 167.154 259.879 168.167 265.048 174.49C265.048 174.49 270.515 167.161 280.322 167.317C282.72 164.425 284.247 160.912 284.726 157.186C285.204 153.46 284.615 149.674 283.025 146.271C281.435 142.867 278.911 139.985 275.747 137.96C272.583 135.935 268.908 134.851 265.152 134.833C261.395 134.816 257.711 135.866 254.528 137.862C251.345 139.857 248.795 142.716 247.174 146.105C245.553 149.494 244.928 153.274 245.372 157.004C245.816 160.734 247.311 164.262 249.682 167.175V167.154Z" fill="#1F9686"/>
<path d="M249.682 167.154C249.682 167.154 259.879 168.167 265.048 174.49C265.048 174.49 270.515 167.161 280.322 167.317C282.72 164.425 284.247 160.912 284.726 157.186C285.204 153.46 284.615 149.674 283.025 146.271C281.435 142.867 278.911 139.985 275.747 137.96C272.583 135.935 268.908 134.851 265.152 134.833C261.395 134.816 257.711 135.866 254.528 137.862C251.345 139.857 248.795 142.716 247.174 146.105C245.553 149.494 244.928 153.274 245.372 157.004C245.816 160.734 247.311 164.262 249.682 167.175V167.154Z" fill="#749E76"/>
<path d="M264.715 136.238L264.368 187.364H266.089L264.715 136.238Z" fill="black"/>
<path d="M265.211 172.564C265.211 172.564 268.652 166.361 274.848 164.47C274.848 164.47 268.305 166.021 265.034 171.353L265.211 172.564Z" fill="black"/>
<path d="M265.211 155.003C265.211 155.003 268.652 148.807 274.848 146.909C274.848 146.909 268.305 148.46 265.034 153.799L265.211 155.003Z" fill="black"/>
<path d="M265.211 163.762C265.211 163.762 268.652 157.559 274.848 155.668C274.848 155.668 268.305 157.219 265.034 162.551L265.211 163.762Z" fill="black"/>
<path d="M264.722 159.514C264.722 159.514 261.394 153.318 255.418 151.42C255.418 151.42 261.727 152.971 264.885 158.31L264.722 159.514Z" fill="black"/>
<path d="M264.722 168.082C264.722 168.082 261.394 161.886 255.418 159.995C255.418 159.995 261.727 161.546 264.885 166.878L264.722 168.082Z" fill="black"/>
<path d="M269.884 160.3C269.884 160.3 283.544 161.638 290.462 170.135C290.462 170.135 297.777 160.328 310.913 160.526C314.116 156.652 316.153 151.948 316.788 146.961C317.422 141.975 316.628 136.91 314.497 132.357C312.366 127.804 308.986 123.95 304.751 121.243C300.516 118.535 295.598 117.086 290.572 117.063C285.545 117.041 280.615 118.446 276.355 121.115C272.096 123.785 268.682 127.609 266.51 132.142C264.339 136.676 263.499 141.733 264.089 146.725C264.678 151.717 266.674 156.439 269.842 160.342L269.884 160.3Z" fill="#1F9686"/>
<path d="M269.884 160.3C269.884 160.3 283.544 161.638 290.462 170.135C290.462 170.135 297.777 160.328 310.913 160.526C314.116 156.652 316.153 151.948 316.788 146.961C317.422 141.975 316.628 136.91 314.497 132.357C312.366 127.804 308.986 123.95 304.751 121.243C300.516 118.535 295.598 117.086 290.572 117.063C285.545 117.041 280.615 118.446 276.355 121.115C272.096 123.785 268.682 127.609 266.51 132.142C264.339 136.676 263.499 141.733 264.089 146.725C264.678 151.717 266.674 156.439 269.842 160.342L269.884 160.3Z" fill="#66CC6A"/>
<path d="M290.009 118.896L289.549 187.364H291.857L290.009 118.896Z" fill="black"/>
<path d="M290.703 167.544C290.703 167.544 295.313 159.245 303.612 156.702C303.612 156.702 294.853 158.777 290.469 165.908L290.703 167.544Z" fill="black"/>
<path d="M290.703 144.027C290.703 144.027 295.313 135.728 303.612 133.193C303.612 133.193 294.853 135.268 290.469 142.398L290.703 144.027Z" fill="black"/>
<path d="M290.703 155.782C290.703 155.782 295.313 147.483 303.612 144.948C303.612 144.948 294.853 147.022 290.469 154.153L290.703 155.782Z" fill="black"/>
<path d="M289.995 150.018C289.995 150.018 285.548 141.719 277.539 139.184C277.539 139.184 285.994 141.258 290.222 148.389L289.995 150.018Z" fill="black"/>
<path d="M289.995 161.546C289.995 161.546 285.548 153.247 277.539 150.712C277.539 150.712 285.994 152.786 290.222 159.917L289.995 161.546Z" fill="black"/>
<path d="M275.358 49.4229L297.076 52.8218V35.827L275.358 39.226V49.4229Z" fill="black" stroke="black" stroke-width="0.708116" stroke-linecap="round" stroke-linejoin="round"/>
<path d="M265.296 42.6957L257.981 187.364H272.611L265.296 42.6957Z" stroke="black" stroke-width="0.708116" stroke-linecap="round" stroke-linejoin="round"/>
<path d="M265.445 42.9152V33.7168" stroke="black" stroke-width="0.708116" stroke-linecap="round" stroke-linejoin="round"/>
<path d="M257.493 43.0498H273.185" stroke="black" stroke-width="0.708116" stroke-linecap="round" stroke-linejoin="round"/>
<path d="M269.035 117.841H261.437L267.073 83.0017H263.398L269.035 117.841Z" stroke="black" stroke-width="0.708116" stroke-linecap="round" stroke-linejoin="round"/>
<path d="M258.973 39.9057L258.406 43.1206L243.394 41.5769L244.336 36.2235L258.973 39.9057Z" fill="#FFBD80" stroke="black" stroke-width="0.708116" stroke-linecap="round" stroke-linejoin="round"/>
<path d="M258.335 42.3063L258.902 45.514L244.265 49.2033L243.323 43.85L258.335 42.3063Z" fill="black" stroke="black" stroke-width="0.708116" stroke-linecap="round" stroke-linejoin="round"/>
<path d="M258.555 44.7705L260.183 47.5959L247.692 56.065L244.973 51.356L258.555 44.7705Z" fill="#FFBD80" stroke="black" stroke-width="0.708116" stroke-linecap="round" stroke-linejoin="round"/>
<path d="M259.603 47.0223L262.103 49.1184L253.258 61.3475L249.094 57.8494L259.603 47.0223Z" fill="black" stroke="black" stroke-width="0.708116" stroke-linecap="round" stroke-linejoin="round"/>
<path d="M261.359 48.7714L264.425 49.8902L260.297 64.4066L255.191 62.5442L261.359 48.7714Z" fill="#FFBD80" stroke="black" stroke-width="0.708116" stroke-linecap="round" stroke-linejoin="round"/>
<path d="M263.611 49.8193H266.868L267.959 64.8668H262.52L263.611 49.8193Z" fill="black" stroke="black" stroke-width="0.708116" stroke-linecap="round" stroke-linejoin="round"/>
<path d="M266.075 50.0318L269.141 48.913L275.309 62.6858L270.203 64.5482L266.075 50.0318Z" fill="#FFBD80" stroke="black" stroke-width="0.708116" stroke-linecap="round" stroke-linejoin="round"/>
<path d="M268.476 49.3874L270.968 47.2914L281.477 58.1185L277.313 61.6166L268.476 49.3874Z" fill="black" stroke="black" stroke-width="0.708116" stroke-linecap="round" stroke-linejoin="round"/>
<path d="M270.501 47.957L272.129 45.1387L285.711 51.7242L282.992 56.426L270.501 47.957Z" fill="#FFBD80" stroke="black" stroke-width="0.708116" stroke-linecap="round" stroke-linejoin="round"/>
<path d="M271.924 45.9247L272.491 42.7169L287.503 44.2606L286.554 49.614L271.924 45.9247Z" fill="black" stroke="black" stroke-width="0.708116" stroke-linecap="round" stroke-linejoin="round"/>
<path d="M272.561 43.5313L271.995 40.3165L286.632 36.6343L287.573 41.9876L272.561 43.5313Z" fill="#FFBD80" stroke="black" stroke-width="0.708116" stroke-linecap="round" stroke-linejoin="round"/>
<path d="M272.342 41.06L270.713 38.2346L283.204 29.7726L285.923 34.4745L272.342 41.06Z" fill="black" stroke="black" stroke-width="0.708116" stroke-linecap="round" stroke-linejoin="round"/>
<path d="M271.294 38.8153L268.794 36.7193L277.639 24.4901L281.802 27.9811L271.294 38.8153Z" fill="#FFBD80" stroke="black" stroke-width="0.708116" stroke-linecap="round" stroke-linejoin="round"/>
<path d="M269.538 37.0662L266.472 35.9474L270.6 21.431L275.706 23.2934L269.538 37.0662Z" fill="black" stroke="black" stroke-width="0.708116" stroke-linecap="round" stroke-linejoin="round"/>
<path d="M260.389 37.8735L258.76 40.6989L245.178 34.1134L247.898 29.4044L260.389 37.8735Z" fill="black" stroke="black" stroke-width="0.708116" stroke-linecap="round" stroke-linejoin="round"/>
<path d="M262.421 36.4501L259.922 38.5461L249.413 27.712L253.577 24.2209L262.421 36.4501Z" fill="#FFBD80" stroke="black" stroke-width="0.708116" stroke-linecap="round" stroke-linejoin="round"/>
<path d="M264.815 35.8057L261.748 36.9174L255.581 23.1446L260.693 21.2893L264.815 35.8057Z" fill="black" stroke="black" stroke-width="0.708116" stroke-linecap="round" stroke-linejoin="round"/>
<path d="M267.286 36.0182H264.028L262.938 20.9636H268.376L267.286 36.0182Z" fill="#FFBD80" stroke="black" stroke-width="0.708116" stroke-linecap="round" stroke-linejoin="round"/>
<path d="M267.336 42.9152C267.336 42.5427 267.225 42.1785 267.018 41.8687C266.811 41.559 266.517 41.3176 266.173 41.175C265.829 41.0324 265.45 40.9951 265.084 41.0678C264.719 41.1405 264.383 41.3199 264.12 41.5833C263.857 41.8467 263.677 42.1824 263.605 42.5477C263.532 42.9131 263.569 43.2918 263.712 43.636C263.854 43.9802 264.096 44.2744 264.405 44.4814C264.715 44.6883 265.079 44.7988 265.452 44.7988C265.952 44.7988 266.431 44.6003 266.784 44.2471C267.137 43.8939 267.336 43.4148 267.336 42.9152Z" fill="black" stroke="black" stroke-width="0.708116" stroke-linecap="round" stroke-linejoin="round"/>
<path d="M266.627 140.274H196.524V187.364H266.627V140.274Z" fill="#C4AADD" stroke="black" stroke-width="0.708116" stroke-linecap="round" stroke-linejoin="round"/>
<path d="M198.174 187.364H104.235V140.161L121.555 95.9178L150.496 81.8546L180.329 96.0169L198.174 140.161V187.364Z" fill="#E9E9E9" stroke="black" stroke-width="0.75" stroke-linecap="round" stroke-linejoin="round"/>
<path d="M100.128 145.365L98.0459 142.505L102.953 138.936L120.359 94.5582L150.531 79.8931L181.597 94.6431L199.505 138.879L204.363 141.974L202.465 144.955L196.934 141.435L196.722 141.103L179.146 97.3977L150.553 83.8231L122.844 97.2844L105.602 141.379L100.128 145.365Z" fill="white" stroke="black" stroke-width="0.708116" stroke-linecap="round" stroke-linejoin="round"/>
<path d="M158.994 99.3237H143.415V139.099H158.994V99.3237Z" fill="white" stroke="black" stroke-width="0.708116" stroke-linecap="round" stroke-linejoin="round"/>
<path d="M167.491 144.764H134.917V187.371H167.491V144.764Z" fill="white" stroke="black" stroke-width="0.75" stroke-linecap="round" stroke-linejoin="round"/>
<path d="M177.872 137.682H124.53V140.515H177.872V137.682Z" fill="white" stroke="black" stroke-width="0.708116" stroke-linecap="round" stroke-linejoin="round"/>
<path d="M177.872 96.4913H124.53V99.3238H177.872V96.4913Z" fill="white" stroke="black" stroke-width="0.708116" stroke-linecap="round" stroke-linejoin="round"/>
<path d="M142.183 167.133L136.688 150.988V183.278L142.183 167.133Z" fill="black"/>
<path d="M148.52 148.538H137.523L143.018 164.683L148.52 148.538Z" fill="black"/>
<path d="M143.018 169.59L137.523 185.728H148.52L143.018 169.59Z" fill="black"/>
<path d="M143.861 167.133L149.356 183.278V150.988L143.861 167.133Z" fill="black"/>
<path d="M164.8 148.538H153.803L159.298 164.683L164.8 148.538Z" fill="black"/>
<path d="M158.462 167.133L153.052 151.25V183.023L158.462 167.133Z" fill="black"/>
<path d="M160.134 167.133L165.721 183.533V150.733L160.134 167.133Z" fill="black"/>
<path d="M159.298 169.59L153.803 185.728H164.8L159.298 169.59Z" fill="black"/>
<path d="M272.342 141.974L267.484 138.879L249.576 94.6431L218.511 79.8931H150.531L181.597 94.6431L199.505 138.879L204.363 141.974H265.749L270.444 144.955L272.342 141.974Z" fill="black"/>
<mask id="mask0_9_208" style="mask-type:luminance" maskUnits="userSpaceOnUse" x="150" y="79" width="123" height="66">
<path d="M272.342 141.974L267.484 138.879L249.576 94.6431L218.511 79.8931H150.531L181.597 94.6431L199.505 138.879L204.363 141.974H265.749L270.444 144.955L272.342 141.974Z" fill="white"/>
</mask>
<g mask="url(#mask0_9_208)">
<path opacity="0.5" d="M272.342 141.974L267.484 138.879L249.576 94.6431L218.511 79.8931H150.531L181.597 94.6431L199.505 138.879L204.363 141.974H265.749L270.444 144.955L272.342 141.974Z" fill="#212121"/>
<path opacity="0.5" d="M181.597 94.6431H249.576L218.511 79.8931H150.531L181.597 94.6431Z" fill="#212121"/>
</g>
<path d="M272.342 141.974L267.484 138.879L249.576 94.6431L218.511 79.8931H150.531L181.597 94.6431L199.505 138.879L204.363 141.974H265.749L270.444 144.955L272.342 141.974Z" stroke="black" stroke-width="0.708116" stroke-linecap="round" stroke-linejoin="round"/>
<path d="M204.363 141.974H272.342L270.444 144.955H202.465L204.363 141.974Z" fill="white" stroke="black" stroke-width="0.708116" stroke-linecap="round" stroke-linejoin="round"/>
<path d="M207.762 152.786H204.398V158.211H207.762V152.786Z" fill="white"/>
<path d="M211.833 152.786H208.469V158.211H211.833V152.786Z" fill="white"/>
<path d="M207.762 158.919H204.398V163.762H207.762V158.919Z" fill="white"/>
<path d="M211.833 158.919H208.469V163.762H211.833V158.919Z" fill="white"/>
<path d="M221.69 152.786H218.327V158.211H221.69V152.786Z" fill="white"/>
<path d="M225.762 152.786H222.398V158.211H225.762V152.786Z" fill="white"/>
<path d="M221.69 158.919H218.327V163.762H221.69V158.919Z" fill="white"/>
<path d="M225.762 158.919H222.398V163.762H225.762V158.919Z" fill="white"/>
<path d="M244.584 152.786H241.22V158.211H244.584V152.786Z" fill="white"/>
<path d="M248.655 152.786H245.292V158.211H248.655V152.786Z" fill="white"/>
<path d="M244.584 158.919H241.22V163.762H244.584V158.919Z" fill="white"/>
<path d="M248.655 158.919H245.292V163.762H248.655V158.919Z" fill="white"/>
<path d="M258.512 152.786H255.149V158.211H258.512V152.786Z" fill="white"/>
<path d="M262.584 152.786H259.22V158.211H262.584V152.786Z" fill="white"/>
<path d="M258.512 158.919H255.149V163.762H258.512V158.919Z" fill="white"/>
<path d="M262.584 158.919H259.22V163.762H262.584V158.919Z" fill="white"/>
<path d="M238.069 146.534H228.155V151.257H238.069V146.534Z" fill="white"/>
<path d="M300.383 174.15V176.742H292.594V174.15H290.646V176.742H282.914V174.15H280.931V176.742H273.142V174.15H271.195V176.742H263.405V174.15H261.465V176.742H253.676V174.15H251.757V176.742H243.967V174.15H242.02V176.742H234.231V174.15H232.283V176.742H224.494V174.15H222.554V176.742H214.765V174.15H212.817V191.648H214.765V185.813H222.554V191.648H224.494V185.813H232.283V191.648H234.231V185.813H242.02V191.648H243.967V185.813H251.757V191.648H253.704V185.813H261.493V191.648H263.434V185.813H271.223V191.648H273.17V185.813H280.959V191.648H282.914V185.813H290.703V191.648H292.65V185.813H300.44V191.648H302.38V174.15H300.383ZM214.807 183.547V179.008H222.596V183.547H214.807ZM224.53 183.547V179.008H232.319V183.547H224.53ZM234.259 183.547V179.008H242.048V183.547H234.259ZM243.982 183.547V179.008H251.771V183.547H243.982ZM253.704 183.547V179.008H261.493V183.547H253.704ZM263.426 183.547V179.008H271.216V183.547H263.426ZM273.156 183.547V179.008H280.945V183.547H273.156ZM282.878 183.547V179.008H290.668V183.547H282.878ZM292.601 183.547V179.008H300.39V183.547H292.601Z" fill="white" stroke="black" stroke-width="0.708116" stroke-linecap="round" stroke-linejoin="round"/>
<path d="M212.86 191.648H302.323" stroke="black" stroke-width="0.708116" stroke-linecap="round" stroke-linejoin="round"/>
<path d="M108.5 218.5C140.256 218.5 166 216.893 166 214.912C166 212.93 140.256 211.323 108.5 211.323C76.7436 211.323 51 212.93 51 214.912C51 216.893 76.7436 218.5 108.5 218.5Z" fill="black"/>
<path d="M59.2114 203.265H84.1651C84.1651 203.265 81.4326 190.829 71.6882 190.829C61.9439 190.829 59.6384 200.487 59.2114 203.265Z" fill="#211F96"/>
<path opacity="0.2" d="M59.2114 203.265H84.1651C84.1651 203.265 81.4326 190.829 71.6882 190.829C61.9439 190.829 59.6384 200.487 59.2114 203.265Z" fill="#211F96"/>
<path d="M131.633 204.607H156.587C156.587 204.607 153.854 192.171 144.11 192.171C134.366 192.171 132.06 201.829 131.633 204.607Z" fill="#211F96"/>
<path opacity="0.2" d="M131.633 204.607H156.587C156.587 204.607 153.854 192.171 144.11 192.171C134.366 192.171 132.06 201.829 131.633 204.607Z" fill="#211F96"/>
<path d="M53.5052 180.578C52.9703 181.487 52.031 191.474 51.9758 191.831C51.9205 192.187 51.142 193.706 51.1294 194.001C51.1168 194.295 50.9235 198.793 51.034 199.091C51.2853 199.622 51.5724 200.133 51.8929 200.621C52.031 200.795 55.5671 204.044 55.9614 204.087C56.3557 204.13 60.0174 204.16 60.0852 204.087C60.153 204.015 60.5875 191.999 71.6755 191.999C82.7635 191.999 82.653 204.757 82.8564 204.8C83.0598 204.843 132.744 206.054 132.744 206.054C132.744 204.101 132.887 192.479 143.774 192.479C150.866 192.479 154.45 198.716 154.573 203.316C154.623 205.229 154.322 207.334 154.422 207.334C154.751 207.334 155.869 207.423 156.062 207.334C156.256 207.246 158.574 205.617 158.765 205.558C158.955 205.499 160.294 205.47 160.621 205.384C160.947 205.298 163.242 203.155 163.283 203.067C163.323 202.978 163.393 202.134 163.406 202.062C163.418 201.99 165.741 198.96 165.849 198.625C165.957 198.29 166 195.522 166 195.246C166 194.97 161.781 187.67 160.794 186.866C159.807 186.063 152.807 183.458 150.748 183.065C148.689 182.671 137.437 180.881 137.028 180.573C136.619 180.265 117.396 168.517 114.051 167.641C111.349 166.942 80.0561 167.909 78.4187 167.992C76.7812 168.075 72.2481 168.951 71.8111 168.951C71.3741 168.951 66.3487 168.925 66.0498 169.069C65.751 169.214 66.0499 170.497 66.4316 170.73C66.8133 170.963 54.4319 179.006 53.5052 180.578Z" fill="url(#paint0_linear_9_208)"/>
<path d="M54.2211 179.823C54.3392 179.938 56.2956 179.989 56.5015 179.903C56.7074 179.818 69.0286 171.062 69.0386 170.816C69.0386 170.687 66.7281 170.719 66.4468 170.736C66.1655 170.752 53.9951 179.603 54.2211 179.823Z" fill="#455A64"/>
<path d="M67.9463 179.684C68.4812 181.366 133.208 184.506 133.563 183.702C133.826 183.097 128.037 178.138 125.33 176.522C122.623 174.907 114.885 170.224 111.068 169.744C107.25 169.265 99.5401 169.305 92.8095 169.452C86.1341 169.583 78.2708 169.758 75.4806 171.025C73.042 172.131 67.5218 178.347 67.9463 179.684Z" fill="#263238"/>
<path d="M69.752 178.7C69.9152 179.333 84.2078 180.972 100.962 181.803C117.715 182.633 125.986 182.765 126.189 182.676C126.392 182.588 125.616 177.827 125.33 177.433C125.044 177.039 113.042 170.486 111.158 170.312C109.274 170.138 99.1032 170.117 93.9572 170.202C88.8113 170.288 78.1075 170.947 76.2842 171.732C74.6819 172.423 69.5862 178.068 69.752 178.7Z" fill="#455A64"/>
<g opacity="0.1">
<path d="M91.925 170.256L82.3313 180.493C80.6185 180.332 79.0363 180.171 77.6123 180.016L86.5103 170.524C88.4065 170.403 90.2976 170.312 91.925 170.256Z" fill="white"/>
<path d="M126.159 181.666L125.189 182.7C124.217 182.7 122.532 182.666 120.124 182.596L125.116 177.273C125.193 177.318 125.264 177.372 125.33 177.433C125.533 177.715 125.99 180.225 126.159 181.666Z" fill="white"/>
<path d="M99.083 170.16L88.8815 181.045C88.0628 180.983 87.2592 180.921 86.4756 180.854L96.5012 170.173C97.3124 170.165 98.1864 170.16 99.083 170.16Z" fill="white"/>
<path d="M120.985 174.928L113.993 182.384L111.507 182.285L119.262 174.007C119.857 174.323 120.432 174.631 120.985 174.928Z" fill="white"/>
<path d="M84.7928 170.639L76.1585 179.85L75.5005 179.769L84.0067 170.695L84.7928 170.639Z" fill="white"/>
<path d="M122.472 175.74L116.171 182.465L115.462 182.44L121.992 175.475L122.472 175.74Z" fill="white"/>
<path d="M113.418 171.121L103.297 181.915L102.594 181.886L112.891 170.902C113.059 170.963 113.235 171.041 113.418 171.121Z" fill="white"/>
<path d="M77.9443 171.341L70.7214 179.043C70.4702 178.992 70.2793 178.941 70.1287 178.893L77.0552 171.507C77.3114 171.451 77.6077 171.395 77.9443 171.341Z" fill="white"/>
</g>
<path d="M78.718 171.223C78.7858 171.223 78.816 171.317 78.7582 171.491C78.4217 172.482 75.8023 178.095 75.1468 179.405C75.1056 179.474 75.0517 179.534 74.9882 179.58C74.9247 179.626 74.853 179.658 74.7776 179.673L79.3936 180.209C79.3132 180.173 79.2466 180.11 79.205 180.028C79.1634 179.947 79.1493 179.853 79.1651 179.761C79.2128 179.451 80.9231 172.852 81.463 171.231C81.5237 171.08 81.6334 170.957 81.7719 170.886C81.8624 170.886 80.9833 170.902 80.1496 170.993C79.4237 171.06 78.718 171.223 78.718 171.223Z" fill="#263238"/>
<path d="M84.8022 170.636C84.8022 170.636 84.8876 170.687 84.8901 170.867C84.9203 172.418 85.0835 180.193 84.9429 180.619C84.9253 180.675 84.9027 180.71 84.8751 180.72L85.7491 180.795C85.7021 180.728 85.6742 180.647 85.6687 180.562C85.5707 179.247 85.4828 172.123 85.4979 170.805C85.5059 170.724 85.5345 170.647 85.5808 170.583L84.8022 170.636Z" fill="#263238"/>
<path d="M99.1535 170.478C99.2564 170.824 99.4247 180.972 99.4247 181.302C99.4247 181.631 99.0756 181.706 99.0756 181.706L104.485 181.974C104.485 181.974 104.134 181.87 104.073 181.693C104.013 181.516 102.315 170.575 102.315 170.441C102.315 170.307 102.592 170.173 102.592 170.173H98.8245C98.9671 170.226 99.085 170.335 99.1535 170.478Z" fill="#263238"/>
<path d="M54.4596 182.006C53.7965 182.097 52.3022 183.753 52.1993 184.104C52.0963 184.455 51.6794 186.813 51.8979 187.164C52.1164 187.515 52.9025 188.385 53.5906 188.415C54.2787 188.444 57.6089 186.754 57.9053 186.464C58.2016 186.175 58.4251 184.399 58.0685 183.828C57.7119 183.257 55.3135 181.891 54.4596 182.006Z" fill="#717171"/>
<path d="M57.9005 186.464C57.6016 186.754 54.2689 188.444 53.5858 188.415C53.066 188.393 52.4808 187.879 52.1367 187.48C52.5231 187.782 52.991 187.943 53.4703 187.938C53.8395 187.903 56.9587 186.47 57.3605 186.079C57.7623 185.687 57.7774 184.203 57.7247 183.935C57.6719 183.667 55.6578 182.285 55.6578 182.285C56.6623 182.695 57.8251 183.442 58.0637 183.825C58.4178 184.399 58.1993 186.172 57.9005 186.464Z" fill="#EBEBEB"/>
<path d="M51.7021 195.187C51.5187 195.383 51.4509 196.862 51.6468 196.993C51.8427 197.125 52.9578 197.109 53.1763 196.993C53.3948 196.878 53.9548 195.769 53.9146 195.386C53.8745 195.003 51.9206 194.954 51.7021 195.187Z" fill="white"/>
<path d="M151.379 187.003C151.966 188.018 156.294 189.821 157.909 190.105C158.926 190.282 162.454 190.52 162.66 190.322C162.866 190.124 161.153 187.614 160.284 187.003C159.415 186.392 155.01 184.817 153.669 184.884C152.328 184.951 150.786 185.974 151.379 187.003Z" fill="white"/>
<path d="M162.662 190.322C162.456 190.52 158.93 190.282 157.911 190.105C156.293 189.821 151.966 188.018 151.381 187C150.796 185.982 152.343 184.951 153.674 184.884C153.778 184.877 153.882 184.877 153.985 184.884C152.745 185.371 152.491 186.405 153.247 186.995C154.003 187.584 156.421 188.967 157.388 189.256C158.355 189.545 161.796 190.113 162.095 189.859C162.153 189.786 162.195 189.699 162.218 189.607C162.241 189.514 162.244 189.417 162.228 189.323C162.552 189.843 162.74 190.25 162.662 190.322Z" fill="#EBEBEB"/>
<g opacity="0.5">
<path d="M68.2798 186.764C68.2843 187.386 68.0577 187.984 67.6495 188.428C67.3391 188.769 66.9406 189.003 66.5048 189.101C66.069 189.198 65.6158 189.155 65.2032 188.976C64.7906 188.798 64.4374 188.492 64.1887 188.098C63.94 187.704 63.8071 187.239 63.8071 186.764C63.8071 186.289 63.94 185.825 64.1887 185.431C64.4374 185.037 64.7906 184.731 65.2032 184.553C65.6158 184.374 66.069 184.331 66.5048 184.428C66.9406 184.526 67.3391 184.76 67.6495 185.101C68.0577 185.545 68.2843 186.143 68.2798 186.764ZM68.2798 186.764C68.2756 186.147 68.0416 185.556 67.6294 185.122C67.4272 184.913 67.1884 184.748 66.9265 184.637C66.6647 184.526 66.3848 184.471 66.1031 184.476C65.8214 184.48 65.5432 184.544 65.2845 184.663C65.0259 184.782 64.7917 184.955 64.5956 185.17C64.3037 185.491 64.1061 185.896 64.0274 186.334C63.9486 186.773 63.992 187.227 64.1523 187.64C64.3125 188.053 64.5826 188.407 64.9292 188.658C65.2757 188.909 65.6836 189.046 66.1024 189.052C66.3863 189.059 66.6685 189.005 66.9328 188.894C67.1971 188.783 67.4381 188.618 67.6419 188.407C68.0496 187.971 68.2789 187.38 68.2798 186.764Z" fill="#211F96"/>
<path d="M59.2106 193.861C58.9871 193.325 58.7837 192.79 58.5853 192.267C58.3869 191.745 58.1985 191.196 58.0051 190.66C57.8118 190.124 57.6385 189.588 57.4652 189.031C57.2919 188.474 57.1211 187.938 56.9629 187.383C57.1864 187.919 57.3898 188.455 57.5907 188.991C57.7917 189.527 57.9775 190.062 58.1709 190.598C58.3643 191.134 58.5376 191.67 58.7109 192.227C58.8841 192.784 59.0599 193.296 59.2106 193.861Z" fill="#211F96"/>
<path d="M51.531 193.861C52.6059 193.84 53.6808 193.842 54.7557 193.845L57.9804 193.883L61.2025 193.966C62.2774 194.001 63.3523 194.041 64.4247 194.1C63.3498 194.121 62.2749 194.121 61.2 194.116L57.9754 194.078L54.7532 193.998C53.6783 193.96 52.6034 193.923 51.531 193.861Z" fill="#211F96"/>
<path d="M102.277 182.706L102.646 185.5L102.807 186.901C102.83 187.134 102.855 187.367 102.872 187.606C102.89 187.844 102.872 188.074 102.872 188.31L102.825 193.955L102.779 196.779L102.759 198.191V198.895L102.709 199.6L102.503 202.405L102.277 205.22L102.41 202.405L102.563 199.589L102.601 198.887V198.18L102.614 196.771L102.641 193.952L102.732 188.326C102.732 188.093 102.749 187.855 102.732 187.624C102.714 187.394 102.702 187.158 102.681 186.922L102.548 185.521L102.277 182.706Z" fill="#211F96"/>
<path d="M131.322 183.986L131.769 186.797L131.99 188.2L132.045 188.551C132.068 188.669 132.082 188.788 132.085 188.908C132.085 189.146 132.085 189.382 132.085 189.62C132.07 191.52 132.025 193.417 131.97 195.316C131.957 195.79 131.937 196.264 131.914 196.741C131.891 197.219 131.807 197.692 131.663 198.145C131.412 199.059 131.141 199.962 130.834 200.856C130.537 201.754 130.181 202.629 129.77 203.474L129.604 203.787C129.546 203.889 129.481 203.988 129.421 204.087C129.36 204.189 129.292 204.286 129.217 204.377L129.109 204.519C129.049 204.555 128.982 204.576 128.913 204.58C128.464 204.631 128.022 204.637 127.575 204.653C124.013 204.73 120.452 204.695 116.894 204.671C113.335 204.647 109.771 204.588 106.212 204.519C102.654 204.449 99.0924 204.345 95.5337 204.205C93.7556 204.128 91.9776 204.066 90.1995 203.894C89.9716 203.876 89.7457 203.838 89.5239 203.779C89.3983 203.728 89.323 203.667 89.2175 203.616C89.112 203.565 89.0191 203.514 88.9186 203.466C88.5168 203.27 88.0999 203.099 87.6981 202.884C87.2896 202.676 86.9115 202.405 86.5755 202.081C86.2825 201.717 86.0123 201.333 85.7668 200.931C84.7622 199.361 83.8053 197.759 82.8485 196.16C81.8916 194.561 80.9448 192.945 80.003 191.338C79.0612 189.73 78.132 188.107 77.2153 186.478L76.8738 185.864C76.8461 185.816 76.821 185.757 76.7934 185.704L76.7532 185.623C76.7452 185.594 76.741 185.565 76.7407 185.535L76.708 185.181C76.6703 184.707 76.6352 184.233 76.6201 183.759C76.6201 183.641 76.6201 183.52 76.6201 183.402C76.6354 183.283 76.6598 183.166 76.693 183.051C76.7557 182.824 76.8261 182.599 76.9014 182.376C77.0496 181.929 77.2103 181.484 77.3761 181.037C77.2086 181.478 77.0538 181.924 76.9114 182.376C76.8386 182.601 76.7683 182.826 76.7105 183.054C76.6775 183.167 76.654 183.282 76.6402 183.4C76.6402 183.517 76.6402 183.638 76.6402 183.756C76.6603 184.23 76.698 184.702 76.7407 185.173L76.7733 185.529C76.7759 185.558 76.7809 185.587 76.7884 185.615L76.8261 185.69C76.8537 185.741 76.8763 185.789 76.9064 185.84L77.2505 186.451C78.1797 188.058 79.1265 189.666 80.0759 191.273C81.977 194.488 83.8681 197.703 85.8522 200.843C86.0952 201.235 86.3602 201.611 86.6458 201.968C86.9746 202.28 87.3433 202.539 87.7408 202.74C88.1376 202.949 88.552 203.12 88.9588 203.316C89.0618 203.364 89.1647 203.415 89.2652 203.468C89.3657 203.522 89.4711 203.594 89.554 203.624C89.7733 203.683 89.9967 203.723 90.2221 203.744C91.9801 203.908 93.7732 203.964 95.5513 204.036C99.1075 204.168 102.666 204.248 106.225 204.32C109.784 204.393 113.345 204.462 116.904 204.505C120.462 204.548 124.023 204.586 127.582 204.521C128.024 204.505 128.474 204.5 128.908 204.452C128.95 204.446 128.992 204.438 129.034 204.428L129.137 204.294C129.209 204.21 129.276 204.12 129.335 204.026C129.395 203.927 129.458 203.833 129.516 203.731L129.679 203.423C130.091 202.585 130.447 201.716 130.744 200.824C131.054 199.931 131.332 199.031 131.578 198.124C131.722 197.678 131.806 197.212 131.829 196.741L131.892 195.321C131.962 193.425 132.02 191.525 132.05 189.628C132.05 189.39 132.05 189.152 132.05 188.916C132.048 188.798 132.036 188.68 132.015 188.565L131.962 188.214L131.751 186.807L131.322 183.986Z" fill="#211F96"/>
<path d="M154.233 188.817C153.769 189.233 153.275 189.611 152.757 189.947C152.254 190.295 151.727 190.628 151.212 190.965C150.697 191.303 150.167 191.616 149.638 191.93C149.108 192.243 148.575 192.551 148.033 192.838C148.535 192.479 149.05 192.139 149.565 191.798L151.117 190.796L152.681 189.813L153.465 189.326C153.73 189.173 153.987 189.003 154.233 188.817Z" fill="#211F96"/>
<path d="M79.292 194.37L86.2286 194.563L93.1627 194.788L107.031 195.241L120.896 195.758L127.831 196.018L134.762 196.308L127.828 196.115L120.894 195.89L107.023 195.437L93.1576 194.92L86.2236 194.66L79.292 194.37Z" fill="#211F96"/>
<path d="M78.8827 183.769L78.6115 183.783H78.5462C78.5311 183.783 78.5286 183.796 78.5186 183.818C78.5075 183.862 78.4992 183.908 78.4934 183.954C78.4809 184.145 78.4809 184.337 78.4934 184.528C78.4934 184.621 78.4934 184.718 78.516 184.796C78.5225 184.838 78.5326 184.879 78.5462 184.919H78.5663C78.5788 184.919 78.5914 184.919 78.619 184.919C78.7923 184.935 78.9756 184.94 79.154 184.948C79.8747 184.972 80.598 184.996 81.3188 185.01L82.4012 185.042H82.9437H83.1748C83.1865 185.019 83.1958 184.995 83.2024 184.97C83.2024 184.927 83.2225 184.884 83.23 184.838C83.2527 184.652 83.2602 184.464 83.2526 184.276C83.2494 184.181 83.241 184.088 83.2275 183.994C83.2236 183.957 83.2143 183.921 83.1999 183.887C83.1683 183.871 83.1343 183.861 83.0994 183.858C82.7478 183.791 82.3837 183.769 82.0245 183.732C82.3872 183.72 82.7503 183.73 83.112 183.761C83.1665 183.763 83.2195 183.78 83.2652 183.812C83.2999 183.859 83.3225 183.914 83.3305 183.973C83.3492 184.07 83.3618 184.169 83.3681 184.268C83.3845 184.464 83.3845 184.661 83.3681 184.857C83.3634 184.909 83.355 184.96 83.343 185.01C83.3384 185.045 83.3274 185.078 83.3106 185.109C83.2938 185.139 83.2715 185.166 83.2451 185.187C83.2301 185.199 83.2114 185.206 83.1923 185.205H83.1522H82.3987L81.3138 185.189C80.593 185.16 79.8697 185.138 79.1464 185.082C78.9656 185.066 78.7873 185.053 78.6039 185.026C78.5758 185.022 78.5481 185.016 78.5211 185.007C78.5054 185.003 78.4902 184.997 78.4759 184.988C78.4614 184.974 78.4502 184.957 78.4432 184.938C78.425 184.887 78.4132 184.834 78.4081 184.779C78.403 184.681 78.403 184.583 78.4081 184.485C78.4118 184.29 78.4294 184.095 78.4608 183.903C78.4698 183.855 78.4824 183.807 78.4985 183.761L78.516 183.724C78.516 183.71 78.5537 183.7 78.5613 183.702H78.6266L78.8827 183.769Z" fill="#211F96"/>
<path d="M105.426 184.469L105.155 184.485H105.087C105.072 184.485 105.069 184.498 105.059 184.519C105.048 184.565 105.04 184.612 105.037 184.659C105.019 184.848 105.015 185.039 105.024 185.23C105.024 185.329 105.029 185.428 105.039 185.527C105.043 185.569 105.053 185.611 105.069 185.65H105.089H105.142C105.318 185.669 105.499 185.672 105.68 185.68C106.4 185.704 107.121 185.728 107.845 185.741L108.927 185.773H109.467H109.698C109.71 185.75 109.72 185.726 109.728 185.701C109.728 185.661 109.746 185.618 109.753 185.57C109.776 185.383 109.783 185.195 109.776 185.007C109.773 184.917 109.766 184.828 109.753 184.739C109.748 184.702 109.737 184.666 109.723 184.632C109.723 184.619 109.663 184.608 109.623 184.6C109.271 184.533 108.907 184.511 108.548 184.474C108.911 184.464 109.275 184.474 109.638 184.503C109.692 184.505 109.745 184.523 109.791 184.554C109.824 184.602 109.846 184.657 109.854 184.715C109.872 184.812 109.885 184.911 109.894 185.01C109.909 185.207 109.909 185.405 109.894 185.602C109.894 185.65 109.886 185.701 109.871 185.755C109.861 185.825 109.825 185.887 109.771 185.929C109.756 185.942 109.737 185.948 109.718 185.948H109.678H108.924L107.84 185.932C107.116 185.905 106.393 185.881 105.672 185.824C105.489 185.808 105.31 185.795 105.127 185.768C105.1 185.766 105.073 185.76 105.047 185.749L105.002 185.733C104.988 185.718 104.976 185.701 104.966 185.682C104.948 185.632 104.937 185.578 104.934 185.524C104.925 185.426 104.921 185.328 104.921 185.23C104.926 185.034 104.944 184.84 104.976 184.648C104.983 184.599 104.995 184.55 105.012 184.503C105.016 184.49 105.023 184.477 105.032 184.466C105.037 184.459 105.043 184.454 105.051 184.451C105.058 184.447 105.066 184.446 105.074 184.447H105.142L105.426 184.469Z" fill="#211F96"/>
</g>
<path d="M81.6706 205.545C82.5496 199.537 78.6961 193.906 73.0636 192.968C67.4311 192.031 62.1525 196.141 61.2735 202.15C60.3945 208.158 64.2479 213.789 69.8804 214.727C75.513 215.665 80.7916 211.554 81.6706 205.545Z" fill="#263238"/>
<path d="M78.9086 205.136C79.5784 200.753 76.791 196.621 72.6828 195.907C68.5746 195.192 64.7012 198.166 64.0314 202.548C63.3616 206.93 66.149 211.062 70.2572 211.777C74.3654 212.491 78.2388 209.518 78.9086 205.136Z" fill="#DBDBDB"/>
<path d="M71.4718 211.262C75.3098 211.262 78.421 207.943 78.421 203.849C78.421 199.755 75.3098 196.436 71.4718 196.436C67.6339 196.436 64.5227 199.755 64.5227 203.849C64.5227 207.943 67.6339 211.262 71.4718 211.262Z" fill="#A6A6A6"/>
<path d="M72.5623 201.99H70.3823C71.1182 200.854 68.5515 196.899 68.5515 196.899L69.6992 196.489C70.4527 197.888 70.8445 198.298 71.4723 198.298C72.1002 198.298 72.4769 197.888 73.2504 196.489L74.3956 196.899C74.3956 196.899 71.8264 200.854 72.5623 201.99Z" fill="#DBDBDB"/>
<path d="M70.1961 202.137L69.5231 204.35C68.737 203.254 64.4148 204.634 64.4148 204.634V203.342C65.8991 203 66.3812 202.74 66.5746 202.102C66.768 201.464 66.5219 200.95 65.5123 199.742L66.2331 198.705C66.2331 198.705 68.958 202.528 70.1961 202.137Z" fill="#DBDBDB"/>
<path d="M69.591 204.575L71.3491 205.944C70.126 206.399 70.0205 211.214 70.0205 211.214L68.8753 210.825C69.026 209.218 68.9431 208.644 68.4358 208.251C67.9285 207.857 67.3935 207.948 66.0022 208.599L65.3015 207.549C65.3015 207.549 69.5634 205.955 69.591 204.575Z" fill="#DBDBDB"/>
<path d="M71.5823 205.944L73.3403 204.575C73.3704 205.955 77.6298 207.549 77.6298 207.549L76.9266 208.601C75.5378 207.948 75.0029 207.857 74.4955 208.251C73.9882 208.644 73.9054 209.215 74.056 210.825L72.9033 211.214C72.9033 211.214 72.8053 206.399 71.5823 205.944Z" fill="#DBDBDB"/>
<path d="M73.4184 204.344L72.7454 202.137C73.9835 202.533 76.721 198.705 76.721 198.705L77.4417 199.742C76.4372 200.95 76.186 201.464 76.3769 202.102C76.5678 202.74 77.055 203 78.5392 203.345V204.634C78.5392 204.634 74.2045 203.246 73.4184 204.344Z" fill="#DBDBDB"/>
<path d="M73.4648 204.124C73.6369 202.95 72.8844 201.85 71.784 201.666C70.6836 201.483 69.652 202.285 69.4799 203.459C69.3077 204.633 70.0603 205.733 71.1607 205.917C72.2611 206.101 73.2927 205.298 73.4648 204.124Z" fill="#DBDBDB"/>
<path d="M147.238 214.191C152.59 212.098 155.339 205.773 153.377 200.063C151.415 194.354 145.486 191.422 140.133 193.514C134.781 195.607 132.032 201.932 133.994 207.642C135.956 213.352 141.886 216.284 147.238 214.191Z" fill="#263238"/>
<path d="M151.112 205.218C151.821 200.842 149.07 196.682 144.968 195.927C140.867 195.171 136.967 198.105 136.259 202.481C135.55 206.856 138.301 211.016 142.403 211.772C146.504 212.527 150.404 209.593 151.112 205.218Z" fill="#DBDBDB"/>
<path d="M143.686 211.262C147.524 211.262 150.635 207.943 150.635 203.849C150.635 199.755 147.524 196.436 143.686 196.436C139.848 196.436 136.737 199.755 136.737 203.849C136.737 207.943 139.848 211.262 143.686 211.262Z" fill="#A6A6A6"/>
<path d="M144.778 201.99H142.596C143.332 200.854 140.765 196.899 140.765 196.899L141.913 196.489C142.666 197.888 143.058 198.298 143.686 198.298C144.314 198.298 144.691 197.888 145.464 196.489L146.609 196.899C146.609 196.899 144.043 200.854 144.778 201.99Z" fill="#DBDBDB"/>
<path d="M142.413 202.137L141.739 204.35C140.953 203.254 136.631 204.634 136.631 204.634L136.619 203.342C138.103 203 138.585 202.74 138.778 202.102C138.972 201.464 138.726 200.95 137.716 199.742L138.437 198.705C138.437 198.705 141.174 202.528 142.413 202.137Z" fill="#DBDBDB"/>
<path d="M141.807 204.575L143.565 205.944C142.345 206.399 142.239 211.214 142.239 211.214L141.084 210.825C141.237 209.218 141.154 208.644 140.647 208.251C140.14 207.857 139.602 207.948 138.213 208.599L137.513 207.549C137.513 207.549 141.78 205.955 141.807 204.575Z" fill="#DBDBDB"/>
<path d="M143.799 205.944L145.557 204.575C145.587 205.955 149.846 207.549 149.846 207.549L149.143 208.601C147.754 207.948 147.219 207.857 146.712 208.251C146.205 208.644 146.122 209.215 146.272 210.825L145.12 211.214C145.12 211.214 145.022 206.399 143.799 205.944Z" fill="#DBDBDB"/>
<path d="M145.634 204.344L144.971 202.137C146.21 202.533 148.947 198.705 148.947 198.705L149.668 199.742C148.663 200.95 148.412 201.464 148.603 202.102C148.794 202.74 149.281 203 150.765 203.345V204.634C150.765 204.634 146.418 203.246 145.634 204.344Z" fill="#DBDBDB"/>
<path d="M145.705 203.798C145.705 204.222 145.587 204.636 145.366 204.989C145.145 205.341 144.832 205.616 144.465 205.778C144.097 205.94 143.693 205.983 143.304 205.9C142.914 205.817 142.556 205.613 142.275 205.313C141.994 205.014 141.803 204.632 141.725 204.216C141.648 203.8 141.687 203.369 141.839 202.978C141.992 202.586 142.249 202.251 142.579 202.016C142.91 201.78 143.298 201.655 143.696 201.655C144.229 201.655 144.74 201.88 145.116 202.282C145.493 202.684 145.705 203.229 145.705 203.798Z" fill="#DBDBDB"/>
<path d="M123.82 178.561C123.444 178.963 123.479 182.553 123.753 182.848C124.026 183.142 127.771 183.402 128.065 181.173C128.359 178.944 124.408 177.942 123.82 178.561Z" fill="#211F96"/>
<path d="M137.47 180.704H134.424C126.505 175.129 115.636 169.618 115.636 169.618L117.439 169.152C124.019 172.549 136.704 180.319 137.028 180.57C137.17 180.633 137.319 180.678 137.47 180.704Z" fill="#455A64"/>
<g opacity="0.5">
<path d="M59.2114 196.658C59.8484 195.539 60.6267 194.519 61.5245 193.626C62.4209 192.726 63.4199 191.951 64.498 191.319C66.6736 190.054 69.1178 189.408 71.5953 189.444L72.5195 189.492L72.9791 189.513C73.1323 189.532 73.2855 189.559 73.4387 189.58L74.3529 189.719C74.6542 189.786 74.9531 189.872 75.252 189.947C76.4518 190.264 77.5953 190.787 78.6374 191.496C79.6726 192.21 80.597 193.092 81.3774 194.11C82.138 195.137 82.7875 196.251 83.3137 197.432C82.746 196.28 82.0658 195.194 81.2844 194.194C80.496 193.211 79.5691 192.366 78.5369 191.689C76.47 190.312 74.0163 189.752 71.5953 189.727C70.3809 189.707 69.1688 189.847 67.9864 190.143C66.8037 190.44 65.6617 190.899 64.5884 191.506C63.5106 192.111 62.509 192.859 61.6073 193.733C60.6909 194.59 59.8852 195.574 59.2114 196.658Z" fill="white"/>
<path d="M131.523 196.658C132.16 195.539 132.938 194.519 133.836 193.626C134.732 192.726 135.731 191.951 136.81 191.319C138.985 190.054 141.429 189.408 143.907 189.444L144.831 189.492L145.291 189.513C145.444 189.532 145.597 189.559 145.75 189.58L146.664 189.719C146.966 189.786 147.265 189.872 147.563 189.947C148.763 190.264 149.907 190.787 150.949 191.496C151.984 192.21 152.908 193.092 153.689 194.11C154.449 195.137 155.099 196.251 155.625 197.432C155.058 196.28 154.377 195.194 153.596 194.194C152.808 193.211 151.881 192.366 150.848 191.689C148.782 190.312 146.328 189.752 143.907 189.727C142.692 189.707 141.48 189.847 140.298 190.143C139.115 190.44 137.973 190.899 136.9 191.506C135.824 192.108 134.823 192.853 133.921 193.722C133.003 194.583 132.197 195.57 131.523 196.658Z" fill="white"/>
<path d="M60.7056 178.387C62.3129 177.047 63.9453 175.729 65.5878 174.435C67.2303 173.141 68.8903 171.869 70.6107 170.661C70.8267 170.513 71.0452 170.368 71.2687 170.229C71.3792 170.16 71.4922 170.093 71.6102 170.031C71.7309 169.967 71.8571 169.916 71.9869 169.878C72.4892 169.726 72.9764 169.592 73.4737 169.458C74.4783 169.19 75.4603 168.946 76.4648 168.74C77.4732 168.532 78.4969 168.42 79.5238 168.405C80.5459 168.381 81.5681 168.383 82.5877 168.434C81.5681 168.434 80.5459 168.464 79.5288 168.533C78.5153 168.575 77.5069 168.709 76.5151 168.935C75.5105 169.174 74.526 169.42 73.539 169.691C73.0367 169.825 72.5495 169.959 72.0648 170.119C71.9476 170.153 71.834 170.2 71.7258 170.259C71.6178 170.318 71.5073 170.382 71.3993 170.452C71.1808 170.588 70.9673 170.736 70.7538 170.88C69.0435 172.062 67.3885 173.342 65.7309 174.596L60.7056 178.387Z" fill="white"/>
</g>
<path opacity="0.1" d="M140.765 192.803C132.859 194.732 132.744 204.285 132.744 206.038C132.744 206.038 83.0626 204.829 82.8566 204.784C82.6909 204.746 82.7411 196.382 76.8794 193.197C79.5114 194.585 82.8868 197.949 84.1626 202.863C84.3007 203.399 91.5361 204.202 103.902 204.628C116.269 205.054 127.008 204.784 129.062 204.478C131.116 204.173 133.497 192.76 140.765 192.803Z" fill="#211F96"/>
<path opacity="0.1" d="M165.849 198.609C165.741 198.946 163.418 201.973 163.406 202.046C163.393 202.118 163.325 202.962 163.283 203.053C163.24 203.144 160.947 205.279 160.621 205.368C160.294 205.456 158.955 205.483 158.765 205.542C158.574 205.601 156.253 207.23 156.06 207.318C155.866 207.407 154.751 207.318 154.422 207.318C154.324 207.318 154.626 205.212 154.573 203.3C154.485 199.961 152.564 195.761 148.819 193.708C150.856 194.172 154.254 197.138 155.625 200.197C156.997 203.257 156.645 203.482 156.964 203.849C157.283 204.216 158.35 203.474 158.84 203.342C159.33 203.211 160.929 203.168 161.545 203.037C162.16 202.906 162.258 201.724 162.68 201.462C163.102 201.199 165.242 199.38 165.849 198.609Z" fill="#211F96"/>
<defs>
<linearGradient id="paint0_linear_9_208" x1="108.5" y1="207.374" x2="108.5" y2="167.389" gradientUnits="userSpaceOnUse">
<stop stop-color="#FA5A00"/>
<stop offset="1" stop-color="#FFC187"/>
</linearGradient>
</defs>
</svg>
