<svg width="334" height="192" viewBox="0 0 334 192" fill="none" xmlns="http://www.w3.org/2000/svg">
<path d="M167 192C249.843 192 317 187.766 317 182.544C317 177.321 249.843 173.088 167 173.088C84.1573 173.088 17 177.321 17 182.544C17 187.766 84.1573 192 167 192Z" fill="#C2C2C2"/>
<path d="M72.2728 174.306V83.806H68.1743V174.306L62.9167 176.348V177.952H69.7425H70.7046H77.5228V176.348L72.2728 174.306Z" fill="#212121"/>
<path d="M148.076 174.306V83.806H143.978V174.306L138.728 176.348V177.952H145.546H146.508H153.334V176.348L148.076 174.306Z" fill="#212121"/>
<path opacity="0.5" d="M77.5304 176.348V177.952H62.9167V176.348L68.1743 174.298V83.806H72.2728V174.298L77.5304 176.348Z" fill="white"/>
<path opacity="0.5" d="M153.334 176.348V177.952H138.728V176.348L143.978 174.298V83.806H148.076V174.298L153.334 176.348Z" fill="white"/>
<path opacity="0.2" d="M68.1743 83.806H72.2728V92.4906L68.1743 92.0291V83.806Z" fill="#211F96"/>
<path opacity="0.2" d="M148.076 83.806V100.978L143.978 100.517V83.806H148.076Z" fill="#211F96"/>
<path d="M55.75 0.875H55.625V1V89.3057V89.4307H55.75H160.5H160.625V89.3057V1V0.875H160.5H55.75Z" fill="#E6E6E6" stroke="#211F96" stroke-width="0.25"/>
<path d="M160.606 78.4122H55.6365V89.3133H160.606V78.4122Z" fill="#211F96"/>
<path d="M160.606 1H55.6365V11.9011H160.606V1Z" fill="#211F96"/>
<g opacity="0.7">
<path d="M66.2652 78.4122L58.4773 89.3058H55.75V85.2963L60.6742 78.4122H66.2652Z" fill="white"/>
<path d="M69.2652 89.3058H63.6667L71.4622 78.4122H77.0531L69.2652 89.3058Z" fill="white"/>
<path d="M80.0531 89.3058H74.4546L82.2501 78.4122H87.841L80.0531 89.3058Z" fill="white"/>
<path d="M90.8409 89.3058H85.2424L93.0379 78.4122H98.6288L90.8409 89.3058Z" fill="white"/>
<path d="M101.629 89.3058H96.0378L103.826 78.4122H109.424L101.629 89.3058Z" fill="white"/>
<path d="M112.417 89.3058H106.826L114.614 78.4122H120.212L112.417 89.3058Z" fill="white"/>
<path d="M123.204 89.3058H117.614L125.409 78.4122H131L123.204 89.3058Z" fill="white"/>
<path d="M134 89.3058H128.402L136.197 78.4122H141.788L134 89.3058Z" fill="white"/>
<path d="M144.788 89.3058H139.189L146.985 78.4122H152.576L144.788 89.3058Z" fill="white"/>
<path d="M160.5 78.4122V82.4216L155.576 89.3058H149.985L157.773 78.4122H160.5Z" fill="white"/>
</g>
<g opacity="0.7">
<path d="M66.2652 1L58.4773 11.9011H55.75V7.8841L60.6742 1H66.2652Z" fill="white"/>
<path d="M69.2652 11.9011H63.6667L71.4622 1H77.0531L69.2652 11.9011Z" fill="white"/>
<path d="M80.0531 11.9011H74.4546L82.2501 1H87.841L80.0531 11.9011Z" fill="white"/>
<path d="M90.8409 11.9011H85.2424L93.0379 1H98.6288L90.8409 11.9011Z" fill="white"/>
<path d="M101.629 11.9011H96.0378L103.826 1H109.424L101.629 11.9011Z" fill="white"/>
<path d="M112.417 11.9011H106.826L114.614 1H120.212L112.417 11.9011Z" fill="white"/>
<path d="M123.204 11.9011H117.614L125.409 1H131L123.204 11.9011Z" fill="white"/>
<path d="M134 11.9011H128.402L136.197 1H141.788L134 11.9011Z" fill="white"/>
<path d="M144.788 11.9011H139.189L146.985 1H152.576L144.788 11.9011Z" fill="white"/>
<path d="M160.5 1V5.01699L155.576 11.9011H149.985L157.773 1H160.5Z" fill="white"/>
</g>
<path d="M94.6971 57.9717H89.5229V64.6516H85.735V57.9717H70.5835V55.2559L84.5002 37.4783H88.6971L75.3638 54.6356H85.8183V48.7349H89.4699V54.6356H94.6971V57.9717Z" fill="black"/>
<path opacity="0.3" d="M94.6971 57.9717H89.5229V64.6516H85.735V57.9717H70.5835V55.2559L84.5002 37.4783H88.6971L75.3638 54.6356H85.8183V48.7349H89.4699V54.6356H94.6971V57.9717Z" fill="black"/>
<path d="M94.6971 57.9717H89.5229V64.6516H85.735V57.9717H70.5835V55.2559L84.5002 37.4783H88.6971L75.3638 54.6356H85.8183V48.7349H89.4699V54.6356H94.6971V57.9717Z" fill="black"/>
<path d="M97.0229 51.0649C97.0229 42.2139 101.765 37.1681 108.144 37.1681C114.523 37.1681 119.227 42.2139 119.227 51.0649C119.227 59.9159 114.477 64.9617 108.144 64.9617C101.811 64.9617 97.0229 59.9159 97.0229 51.0649ZM115.334 51.0649C115.334 44.1127 112.379 40.6253 108.144 40.6253C103.909 40.6253 100.917 44.1127 100.917 51.0649C100.917 58.0171 103.871 61.5046 108.144 61.5046C112.417 61.5046 115.334 58.0095 115.334 51.0649Z" fill="black"/>
<path opacity="0.3" d="M97.0229 51.0649C97.0229 42.2139 101.765 37.1681 108.144 37.1681C114.523 37.1681 119.227 42.2139 119.227 51.0649C119.227 59.9159 114.477 64.9617 108.144 64.9617C101.811 64.9617 97.0229 59.9159 97.0229 51.0649ZM115.334 51.0649C115.334 44.1127 112.379 40.6253 108.144 40.6253C103.909 40.6253 100.917 44.1127 100.917 51.0649C100.917 58.0171 103.871 61.5046 108.144 61.5046C112.417 61.5046 115.334 58.0095 115.334 51.0649Z" fill="black"/>
<path d="M97.0229 51.0649C97.0229 42.2139 101.765 37.1681 108.144 37.1681C114.523 37.1681 119.227 42.2139 119.227 51.0649C119.227 59.9159 114.477 64.9617 108.144 64.9617C101.811 64.9617 97.0229 59.9159 97.0229 51.0649ZM115.334 51.0649C115.334 44.1127 112.379 40.6253 108.144 40.6253C103.909 40.6253 100.917 44.1127 100.917 51.0649C100.917 58.0171 103.871 61.5046 108.144 61.5046C112.417 61.5046 115.334 58.0095 115.334 51.0649Z" fill="black"/>
<path d="M146.629 57.9717H141.455V64.6516H137.667V57.9717H122.515V55.2559L136.432 37.4783H140.636L127.303 54.6356H137.758V48.7349H141.409V54.6356H146.583L146.629 57.9717Z" fill="black"/>
<path opacity="0.3" d="M146.629 57.9717H141.455V64.6516H137.667V57.9717H122.515V55.2559L136.432 37.4783H140.636L127.303 54.6356H137.758V48.7349H141.409V54.6356H146.583L146.629 57.9717Z" fill="black"/>
<path d="M146.629 57.9717H141.455V64.6516H137.667V57.9717H122.515V55.2559L136.432 37.4783H140.636L127.303 54.6356H137.758V48.7349H141.409V54.6356H146.583L146.629 57.9717Z" fill="black"/>
<path d="M95.2121 25.397V26.7511H89.5454V19.4358H95.0757V20.7975H91.2272V22.3861H94.6287V23.7024H91.2272V25.397H95.2121Z" fill="black"/>
<path d="M101.227 26.7511L99.8106 24.7161H98.2575V26.7511H96.5605V19.4358H99.7272C101.689 19.4358 102.909 20.4495 102.909 22.0911C102.921 22.579 102.781 23.0586 102.51 23.4646C102.239 23.8707 101.849 24.1835 101.394 24.3606L103.038 26.7133L101.227 26.7511ZM99.6363 20.8202H98.2575V23.3696H99.6363C100.674 23.3696 101.197 22.8854 101.197 22.0911C101.197 21.2968 100.674 20.8202 99.6363 20.8202Z" fill="black"/>
<path d="M108.909 26.7511L107.5 24.7161H105.939V26.7511H104.242V19.4358H107.417C109.371 19.4358 110.598 20.4495 110.598 22.0911C110.609 22.5787 110.469 23.0579 110.198 23.4637C109.927 23.8696 109.538 24.1826 109.083 24.3606L110.72 26.7133L108.909 26.7511ZM107.318 20.8202H105.939V23.3696H107.318C108.356 23.3696 108.879 22.8854 108.879 22.0911C108.879 21.2968 108.333 20.8202 107.318 20.8202Z" fill="black"/>
<path d="M111.47 23.0972C111.424 22.2958 111.621 21.4992 112.033 20.8105C112.446 20.1218 113.057 19.5728 113.786 19.2344C114.515 18.8961 115.329 18.784 116.122 18.9127C116.916 19.0415 117.652 19.405 118.236 19.9564C118.821 20.5078 119.226 21.2216 119.399 22.0054C119.572 22.7892 119.506 23.607 119.209 24.3528C118.912 25.0986 118.397 25.7382 117.732 26.1887C117.066 26.6392 116.281 26.8799 115.477 26.8797C114.962 26.9096 114.445 26.8339 113.96 26.6573C113.475 26.4806 113.031 26.2067 112.656 25.8525C112.28 25.4982 111.981 25.0711 111.777 24.5972C111.573 24.1234 111.469 23.6129 111.47 23.0972ZM117.765 23.0972C117.752 22.6515 117.607 22.2196 117.349 21.8554C117.092 21.4913 116.732 21.211 116.316 21.0496C115.9 20.8883 115.445 20.8529 115.009 20.948C114.572 21.0431 114.174 21.2645 113.863 21.5844C113.552 21.9044 113.342 22.3087 113.26 22.747C113.177 23.1853 113.226 23.638 113.4 24.0488C113.574 24.4595 113.865 24.81 114.237 25.0565C114.609 25.303 115.046 25.4346 115.492 25.4348C115.798 25.4403 116.102 25.3831 116.385 25.2667C116.667 25.1503 116.923 24.9772 117.136 24.758C117.349 24.5389 117.515 24.2784 117.623 23.9928C117.731 23.7071 117.78 23.4023 117.765 23.0972Z" fill="black"/>
<path d="M125.424 26.7511L124.008 24.7161H122.447V26.7511H120.758V19.4358H123.924C125.879 19.4358 127.106 20.4495 127.106 22.0911C127.118 22.579 126.978 23.0586 126.707 23.4646C126.436 23.8707 126.046 24.1835 125.591 24.3606L127.235 26.7133L125.424 26.7511ZM123.833 20.8202H122.447V23.3696H123.833C124.864 23.3696 125.386 22.8854 125.386 22.0911C125.386 21.2968 124.864 20.8202 123.833 20.8202Z" fill="black"/>
<path d="M246.674 186.039C262.573 186.039 275.462 184.362 275.462 182.294C275.462 180.226 262.573 178.55 246.674 178.55C230.775 178.55 217.886 180.226 217.886 182.294C217.886 184.362 230.775 186.039 246.674 186.039Z" fill="url(#paint0_radial_10_121)"/>
<path d="M207.591 71.7173H175.22C174.34 71.7163 173.468 71.8886 172.655 72.2242C171.841 72.5598 171.102 73.0523 170.479 73.6733C169.857 74.2944 169.363 75.032 169.026 75.8438C168.689 76.6557 168.515 77.5259 168.515 78.4047V89.7522C168.515 91.5278 169.222 93.2307 170.479 94.4862C171.736 95.7418 173.442 96.4471 175.22 96.4471H196.735L206.583 106.955L201.28 96.4471H207.629C209.407 96.4471 211.112 95.7418 212.37 94.4862C213.627 93.2307 214.333 91.5278 214.333 89.7522V78.4047C214.333 77.5227 214.159 76.6494 213.819 75.835C213.48 75.0207 212.982 74.2815 212.356 73.6599C211.729 73.0383 210.985 72.5467 210.168 72.2133C209.35 71.8799 208.474 71.7113 207.591 71.7173Z" fill="#D90000"/>
<path opacity="0.7" d="M207.591 71.7173H175.22C174.34 71.7163 173.468 71.8886 172.655 72.2242C171.841 72.5598 171.102 73.0523 170.479 73.6733C169.857 74.2944 169.363 75.032 169.026 75.8438C168.689 76.6557 168.515 77.5259 168.515 78.4047V89.7522C168.515 91.5278 169.222 93.2307 170.479 94.4862C171.736 95.7418 173.442 96.4471 175.22 96.4471H196.735L206.583 106.955L201.28 96.4471H207.629C209.407 96.4471 211.112 95.7418 212.37 94.4862C213.627 93.2307 214.333 91.5278 214.333 89.7522V78.4047C214.333 77.5227 214.159 76.6494 213.819 75.835C213.48 75.0207 212.982 74.2815 212.356 73.6599C211.729 73.0383 210.985 72.5467 210.168 72.2133C209.35 71.8799 208.474 71.7113 207.591 71.7173Z" fill="white"/>
<path d="M176.803 83.4581C176.774 82.6944 176.975 81.9396 177.379 81.2904C177.783 80.6412 178.371 80.1273 179.07 79.8147C179.768 79.502 180.544 79.4048 181.298 79.5355C182.052 79.6663 182.75 80.019 183.302 80.5485C183.854 81.0779 184.235 81.76 184.396 82.5071C184.557 83.2543 184.491 84.0324 184.206 84.7418C183.921 85.4512 183.431 86.0594 182.797 86.4884C182.164 86.9175 181.417 87.1478 180.651 87.1499C180.153 87.1735 179.654 87.0954 179.186 86.9202C178.719 86.745 178.292 86.4764 177.932 86.1309C177.572 85.7854 177.286 85.3702 177.092 84.9107C176.898 84.4511 176.799 83.9569 176.803 83.4581ZM183.447 83.4581C183.454 82.9009 183.296 82.354 182.991 81.8871C182.686 81.4203 182.249 81.0547 181.735 80.8369C181.221 80.6191 180.654 80.559 180.106 80.6642C179.558 80.7694 179.054 81.0352 178.657 81.4277C178.261 81.8202 177.991 82.3216 177.881 82.868C177.771 83.4145 177.827 83.9812 178.041 84.496C178.254 85.0108 178.617 85.4503 179.082 85.7586C179.547 86.0668 180.093 86.2299 180.651 86.2269C181.019 86.2372 181.386 86.1728 181.728 86.0376C182.07 85.9024 182.382 85.6992 182.643 85.4404C182.904 85.1815 183.11 84.8723 183.249 84.5316C183.387 84.1909 183.454 83.8257 183.447 83.4581Z" fill="#D90000"/>
<path d="M185.409 84.3356C185.399 83.7709 185.557 83.2158 185.863 82.7412C186.17 82.2665 186.611 81.8937 187.13 81.6703C187.65 81.4468 188.224 81.3829 188.78 81.4866C189.336 81.5903 189.849 81.8569 190.252 82.2525C190.656 82.6481 190.933 83.1548 191.047 83.708C191.161 84.2611 191.108 84.8357 190.894 85.3586C190.68 85.8814 190.315 86.3288 189.845 86.6438C189.376 86.9587 188.823 87.127 188.258 87.1271C187.883 87.145 187.509 87.0854 187.159 86.9521C186.809 86.8189 186.49 86.6148 186.223 86.3527C185.955 86.0906 185.745 85.7761 185.605 85.429C185.465 85.0819 185.398 84.7097 185.409 84.3356ZM190.098 84.3356C190.082 83.9742 189.96 83.6256 189.747 83.333C189.534 83.0404 189.239 82.8169 188.9 82.6901C188.56 82.5633 188.191 82.5388 187.838 82.6198C187.485 82.7008 187.164 82.8835 186.914 83.1454C186.664 83.4073 186.496 83.7368 186.432 84.0929C186.368 84.449 186.411 84.816 186.554 85.1483C186.697 85.4806 186.935 85.7636 187.238 85.9621C187.541 86.1606 187.895 86.2658 188.258 86.2647C188.509 86.2706 188.758 86.224 188.991 86.1279C189.223 86.0319 189.432 85.8884 189.605 85.7068C189.779 85.5252 189.912 85.3094 189.997 85.0732C190.082 84.8371 190.117 84.5859 190.098 84.3356Z" fill="#D90000"/>
<path d="M198.167 84.3357C198.186 84.7048 198.128 85.0738 197.996 85.4192C197.864 85.7646 197.662 86.0787 197.402 86.3414C197.141 86.6042 196.829 86.8098 196.485 86.9451C196.14 87.0804 195.771 87.1424 195.402 87.1272C195.036 87.1381 194.674 87.0638 194.342 86.9101C194.011 86.7565 193.72 86.5277 193.492 86.2421V89.0638H192.5V81.6047H193.447V82.4671C193.675 82.1691 193.972 81.9304 194.312 81.771C194.652 81.6117 195.026 81.5365 195.402 81.5518C195.771 81.5355 196.14 81.5965 196.484 81.7309C196.829 81.8653 197.141 82.0702 197.401 82.3324C197.662 82.5945 197.864 82.9082 197.996 83.2532C198.128 83.5982 198.186 83.9669 198.167 84.3357ZM197.167 84.3357C197.15 83.9746 197.028 83.6262 196.815 83.3338C196.603 83.0414 196.309 82.8178 195.97 82.6908C195.631 82.5638 195.262 82.5389 194.909 82.6192C194.556 82.6996 194.235 82.8816 193.984 83.1428C193.734 83.4039 193.566 83.7327 193.501 84.0883C193.437 84.4439 193.478 84.8107 193.62 85.1432C193.762 85.4756 193.998 85.7591 194.3 85.9585C194.602 86.1579 194.956 86.2644 195.318 86.2648C195.567 86.2663 195.814 86.2167 196.043 86.1188C196.271 86.0209 196.478 85.877 196.648 85.6959C196.819 85.5149 196.95 85.3006 197.034 85.0666C197.118 84.8326 197.153 84.5837 197.136 84.3357H197.167Z" fill="#D90000"/>
<path d="M198.818 86.4916L199.227 85.7352C199.8 86.1065 200.469 86.3037 201.151 86.3025C202.068 86.3025 202.447 86.0226 202.447 85.546C202.447 84.3205 198.992 85.3796 198.992 83.2009C198.992 82.225 199.871 81.5669 201.265 81.5669C201.961 81.5539 202.648 81.7234 203.258 82.0586L202.833 82.8151C202.361 82.5208 201.814 82.3709 201.258 82.3839C200.386 82.3839 199.962 82.7016 199.962 83.1404C199.962 84.4264 203.432 83.3749 203.432 85.5006C203.432 86.4917 202.523 87.1195 201.068 87.1195C200.272 87.1399 199.488 86.9211 198.818 86.4916Z" fill="#D90000"/>
<path d="M204.455 86.4689C204.455 86.3806 204.472 86.2931 204.507 86.2117C204.541 86.1304 204.592 86.0568 204.656 85.9954C204.719 85.9339 204.795 85.8859 204.877 85.8542C204.96 85.8225 205.048 85.8077 205.136 85.8108C205.224 85.8087 205.31 85.8243 205.391 85.8567C205.472 85.889 205.545 85.9374 205.607 85.9989C205.669 86.0605 205.717 86.1339 205.75 86.2146C205.782 86.2954 205.798 86.3819 205.796 86.4689C205.797 86.5557 205.78 86.6417 205.747 86.722C205.715 86.8023 205.666 86.8753 205.605 86.9366C205.543 86.9979 205.47 87.0463 205.39 87.0791C205.309 87.1118 205.223 87.1281 205.136 87.1271C205.048 87.1291 204.961 87.1136 204.878 87.0815C204.796 87.0494 204.721 87.0014 204.658 86.9402C204.594 86.879 204.544 86.8058 204.509 86.7249C204.474 86.644 204.456 86.557 204.455 86.4689ZM204.545 79.8496H205.742L205.546 84.7895H204.788L204.545 79.8496Z" fill="#D90000"/>
<path d="M93.684 167.136L188.429 168.79L188.879 142.978L105.366 141.52L97.4747 146.92C96.384 147.666 95.4993 148.616 94.8854 149.701C94.2716 150.786 93.9442 151.979 93.9273 153.192L93.684 167.136Z" fill="url(#paint1_linear_10_121)"/>
<path opacity="0.5" d="M93.684 167.136L188.429 168.79L188.879 142.978L105.366 141.52L97.4747 146.92C96.384 147.666 95.4993 148.616 94.8854 149.701C94.2716 150.786 93.9442 151.979 93.9273 153.192L93.684 167.136Z" fill="black"/>
<path d="M189.014 166.471C189.178 157.05 184.41 149.328 178.418 149.224L189.976 149.425C196.006 149.531 200.737 157.233 200.572 166.673C200.407 176.113 195.372 183.65 189.381 183.545L177.801 183.343C183.841 183.448 188.85 175.893 189.014 166.471Z" fill="#373737"/>
<path d="M177.801 183.338C171.773 183.233 167.019 175.511 167.184 166.09C167.348 156.67 172.368 149.118 178.396 149.223C184.425 149.329 189.178 157.051 189.014 166.471C188.849 175.892 183.829 183.443 177.801 183.338Z" fill="#373737"/>
<path d="M176.99 179.567C172.716 179.492 169.354 173.477 169.483 166.13C169.611 158.784 173.18 152.89 177.455 152.964C181.729 153.039 185.09 159.055 184.962 166.401C184.834 173.747 181.265 179.641 176.99 179.567Z" fill="#808080"/>
<path d="M251.929 167.57C252.093 158.148 247.324 150.427 241.333 150.322L252.891 150.524C258.92 150.629 263.651 158.331 263.486 167.771C263.322 177.212 258.287 184.748 252.295 184.643L240.716 184.441C246.745 184.546 251.764 176.991 251.929 167.57Z" fill="#373737"/>
<path d="M240.715 184.436C234.687 184.331 229.933 176.609 230.098 167.188C230.262 157.768 235.282 150.216 241.311 150.322C247.339 150.427 252.093 158.149 251.928 167.57C251.764 176.99 246.743 184.542 240.715 184.436Z" fill="#373737"/>
<path d="M114.214 165.166C114.379 155.744 109.61 148.023 103.619 147.918L115.176 148.12C121.2 148.225 125.937 155.927 125.772 165.367C125.607 174.808 120.572 182.344 114.581 182.24L103.001 182.037C109.025 182.143 114.05 174.587 114.214 165.166Z" fill="#373737"/>
<path d="M103.002 182.033C96.9738 181.927 92.2203 174.205 92.3847 164.785C92.5491 155.364 97.5693 147.813 103.598 147.918C109.626 148.023 114.379 155.745 114.215 165.166C114.051 174.586 109.03 182.138 103.002 182.033Z" fill="#373737"/>
<path d="M102.185 178.261C97.9105 178.186 94.5493 172.171 94.6775 164.825C94.8058 157.479 98.3749 151.584 102.649 151.658C106.924 151.733 110.285 157.749 110.157 165.095C110.029 172.441 106.46 178.336 102.185 178.261Z" fill="#808080"/>
<path d="M201.828 171.457L215.832 171.702L216.628 171.049C217.446 170.357 218.546 169.979 219.686 169.997L254.687 170.608C255.827 170.63 256.913 171.046 257.707 171.766L258.179 172.188L259.453 172.211C260.444 172.228 261.427 172.074 262.347 171.758C263.267 171.441 264.106 170.969 264.815 170.368C265.525 169.766 266.09 169.048 266.48 168.253C266.869 167.459 267.075 166.604 267.085 165.739L267.261 155.67L187.837 154.284L193.946 166.4C194.503 167.85 195.561 169.115 196.973 170.021C198.385 170.927 200.081 171.428 201.828 171.457Z" fill="url(#paint2_linear_10_121)"/>
<path opacity="0.8" d="M201.828 171.457L215.832 171.702L216.628 171.049C217.446 170.357 218.546 169.979 219.686 169.997L254.687 170.608C255.827 170.63 256.913 171.046 257.707 171.766L258.179 172.188L259.453 172.211C260.444 172.228 261.427 172.074 262.347 171.758C263.267 171.441 264.106 170.969 264.815 170.368C265.525 169.766 266.09 169.048 266.48 168.253C266.869 167.459 267.075 166.604 267.085 165.739L267.261 155.67L187.837 154.284L193.946 166.4C194.503 167.85 195.561 169.115 196.973 170.021C198.385 170.927 200.081 171.428 201.828 171.457Z" fill="black"/>
<path d="M120.198 110.163C120.246 110.165 120.294 110.154 120.335 110.132C120.366 110.117 120.394 110.097 120.416 110.073C120.439 110.049 120.455 110.021 120.465 109.991C120.475 109.961 120.477 109.929 120.473 109.898C120.468 109.867 120.457 109.837 120.439 109.81L116.726 104.031C116.711 104 116.688 103.973 116.66 103.95C116.632 103.927 116.599 103.91 116.563 103.899C116.527 103.888 116.488 103.884 116.451 103.887C116.413 103.89 116.376 103.9 116.343 103.916C116.309 103.932 116.28 103.955 116.258 103.981C116.235 104.008 116.219 104.038 116.21 104.071C116.202 104.103 116.201 104.137 116.209 104.17C116.216 104.202 116.231 104.233 116.253 104.261L119.966 110.04C119.989 110.076 120.023 110.107 120.064 110.128C120.104 110.15 120.151 110.162 120.198 110.163Z" fill="black"/>
<path d="M99.5934 138.233L99.7067 131.74C99.7663 128.326 105.723 112.32 113.581 109.438C121.438 106.556 140.345 105.543 152.231 106.303C164.117 107.063 179.62 129.087 179.62 129.087L177.567 147.757C175.149 147.714 167.458 146.942 166.008 165.422C165.91 166.725 165.241 167.943 164.142 168.822C163.042 169.702 161.595 170.177 160.101 170.148L118.456 169.421C117.057 169.396 115.713 168.929 114.672 168.108C113.631 167.286 112.963 166.165 112.791 164.95C111.817 158.338 109.179 146.549 102.322 146.429C97.5122 146.345 94.0016 149.884 93.9295 154.011C94.0074 149.477 95.3452 145.032 97.8278 141.06L99.5934 138.233Z" fill="url(#paint3_linear_10_121)"/>
<path d="M195.804 107.064C217.466 107.442 241.619 130.169 241.619 130.169L179.598 129.087C179.598 129.087 164.111 107.068 152.209 106.303L195.804 107.064Z" fill="url(#paint4_linear_10_121)"/>
<path d="M194.45 108.478C212.697 108.797 231.578 123.935 237.079 128.696C237.216 128.813 237.307 128.961 237.342 129.121C237.376 129.28 237.352 129.444 237.272 129.592C237.193 129.74 237.062 129.865 236.895 129.951C236.728 130.037 236.534 130.081 236.336 130.077L186.303 129.204C184.289 129.173 182.309 128.754 180.524 127.982C178.738 127.209 177.198 126.104 176.029 124.756C170.752 118.668 160.565 108.257 152.184 107.741L194.45 108.478Z" fill="white"/>
<path d="M179.598 129.086L202.231 145.287L263.885 146.192C263.885 146.192 267.347 150.752 267.261 155.67L187.837 154.284C186.588 151.247 182.082 147.835 177.545 147.756C177.643 142.148 179.598 129.086 179.598 129.086Z" fill="url(#paint5_linear_10_121)"/>
<path opacity="0.2" d="M194.398 140.493C194.463 140.493 194.527 140.474 194.576 140.437C194.626 140.4 194.659 140.349 194.669 140.293C194.679 140.231 194.662 140.168 194.62 140.118C194.578 140.067 194.515 140.033 194.445 140.022C188.959 139.147 183.85 136.965 179.681 133.717C178.856 133.088 178.328 132.215 178.198 131.267C178.069 130.319 178.347 129.365 178.98 128.59C179.003 128.565 179.02 128.536 179.03 128.505C179.04 128.474 179.042 128.441 179.037 128.409C179.032 128.377 179.02 128.346 179.001 128.318C178.982 128.291 178.956 128.267 178.926 128.248C178.896 128.229 178.862 128.215 178.826 128.208C178.79 128.201 178.753 128.2 178.716 128.206C178.68 128.212 178.646 128.224 178.615 128.242C178.584 128.26 178.558 128.284 178.538 128.311C177.829 129.182 177.516 130.254 177.662 131.319C177.807 132.384 178.4 133.365 179.326 134.072C183.568 137.381 188.77 139.601 194.355 140.487L194.398 140.493Z" fill="black"/>
<path d="M263.885 146.192C263.885 146.192 253.249 134.972 241.619 130.169L179.598 129.086L202.231 145.287L263.885 146.192Z" fill="url(#paint6_linear_10_121)"/>
<path d="M215.926 145.355L256.597 146.064L256.579 147.098L215.908 146.388L215.926 145.355Z" fill="white"/>
<path d="M216.808 143.303L214.662 141.361C214.18 140.924 213.565 140.618 212.891 140.477L196.491 137.058C195.914 136.937 195.313 136.943 194.742 137.075L193.855 137.274C193.266 137.408 192.725 137.671 192.284 138.038C191.842 138.404 191.515 138.863 191.332 139.372C191.149 139.88 191.117 140.421 191.238 140.944C191.358 141.468 191.629 141.957 192.023 142.366L195.502 145.965C196.101 146.584 196.948 146.98 197.869 147.073L213.822 148.618C214.349 148.671 214.882 148.622 215.384 148.474C215.885 148.327 216.343 148.084 216.724 147.764C217.41 147.184 217.804 146.389 217.82 145.553C217.835 144.717 217.471 143.908 216.808 143.303Z" fill="#E6E6E6"/>
<path d="M255.466 144.988L257.32 142.072C257.581 141.664 257.964 141.325 258.427 141.092C258.867 140.871 259.366 140.753 259.874 140.749C260.383 140.745 260.885 140.856 261.331 141.071L262.688 141.723C263.354 142.045 263.855 142.577 264.089 143.21L264.885 145.381C265.017 145.738 265.059 146.116 265.009 146.489C264.958 146.861 264.815 147.219 264.591 147.538C264.366 147.857 264.065 148.129 263.707 148.335C263.35 148.542 262.946 148.678 262.522 148.735L258.748 149.236C258.133 149.318 257.502 149.228 256.946 148.98C256.39 148.732 255.937 148.338 255.65 147.853L255.407 147.444C255.183 147.061 255.071 146.637 255.081 146.208C255.092 145.779 255.224 145.36 255.466 144.988Z" fill="#E6E6E6"/>
<path d="M166.918 129.498L109.576 128.498C109.09 128.489 108.612 128.382 108.181 128.183C107.75 127.985 107.377 127.702 107.093 127.356C106.809 127.01 106.621 126.611 106.545 126.191C106.468 125.771 106.505 125.341 106.652 124.937C108.026 121.151 110.635 115.239 114.452 112.268C114.876 111.94 115.394 111.719 115.951 111.627C122.732 110.493 133.612 109.85 141.682 109.505C145.34 109.35 148.996 109.89 152.4 111.087C155.803 112.284 158.873 114.11 161.398 116.44C164.418 119.201 167.137 122.203 169.518 125.406C169.816 125.811 169.983 126.28 170.002 126.761C170.02 127.242 169.889 127.718 169.622 128.137C169.356 128.557 168.963 128.906 168.487 129.145C168.011 129.385 167.469 129.507 166.918 129.498Z" fill="#E6E6E6"/>
<path d="M203.47 160.138C203.443 161.699 205.25 163.002 207.505 163.042C209.76 163.081 211.613 161.842 211.64 160.28C211.667 158.719 209.865 157.421 207.604 157.381C205.344 157.342 203.497 158.576 203.47 160.138Z" fill="white"/>
<path d="M236.684 143.555C235.344 143.531 234.669 144.72 235.177 146.205C235.685 147.69 237.178 148.921 238.524 148.944C239.869 148.968 240.538 147.779 240.03 146.29C239.522 144.8 238.023 143.578 236.684 143.555Z" fill="white"/>
<path d="M263.868 161.192C263.841 162.754 264.363 164.034 264.968 164.045C265.572 164.055 266.145 162.794 266.172 161.232C266.199 159.671 265.677 158.395 265.066 158.384C264.456 158.374 263.895 159.631 263.868 161.192Z" fill="white"/>
<path d="M168.691 129.077L168.719 127.473C168.727 127.012 168.618 126.556 168.4 126.136C168.181 125.716 167.858 125.344 167.454 125.046C167.051 124.748 166.577 124.533 166.067 124.415C165.557 124.297 165.024 124.28 164.507 124.366L157.502 125.515C156.702 125.646 155.98 126.015 155.457 126.558C154.933 127.101 154.64 127.786 154.628 128.498L154.622 128.831C154.608 129.653 154.967 130.447 155.62 131.039C156.274 131.632 157.169 131.975 158.108 131.992L165.091 132.114C166.031 132.131 166.939 131.82 167.614 131.25C168.289 130.681 168.676 129.899 168.691 129.077Z" fill="black"/>
<path d="M132.274 110.007C132.274 110.007 133.207 109.942 134.833 109.847C127.429 122.575 129.151 128.839 129.151 128.839L123.671 128.743C123.754 120.916 132.274 110.007 132.274 110.007Z" fill="black"/>
<path d="M203.184 125.064C203.25 125.857 203.666 126.603 204.351 127.159C205.036 127.715 205.941 128.04 206.89 128.071L229.962 128.8C231.645 128.853 235.982 129.327 234.799 128.121C232.664 125.957 226.149 121.633 223.5 120C219.808 117.724 214.563 115.083 209.511 115.217L207.602 115.272C206.778 115.3 205.99 115.549 205.354 115.984C204.719 116.418 204.271 117.014 204.077 117.682C203.327 120.086 203.026 122.576 203.184 125.064Z" fill="#E6E6E6"/>
<path opacity="0.2" d="M127.845 166.199C127.917 166.2 127.987 166.176 128.038 166.132C128.09 166.089 128.12 166.029 128.121 165.966C128.205 161.148 125.742 141.232 125.058 138.244C124.395 135.342 124.451 132.114 125.202 130.027C125.223 129.967 125.216 129.902 125.182 129.846C125.148 129.79 125.091 129.748 125.022 129.729C124.953 129.711 124.879 129.718 124.815 129.747C124.752 129.776 124.704 129.825 124.681 129.885C123.908 132.043 123.85 135.361 124.534 138.335C125.217 141.309 127.671 161.157 127.587 165.956C127.586 166.018 127.612 166.077 127.66 166.123C127.708 166.168 127.774 166.195 127.845 166.199Z" fill="black"/>
<path opacity="0.2" d="M129.052 138.566L135.691 138.682C135.817 138.688 135.943 138.668 136.058 138.625C136.174 138.582 136.276 138.515 136.358 138.432C136.439 138.348 136.498 138.249 136.528 138.142C136.559 138.035 136.561 137.924 136.534 137.816L136.41 137.142C136.359 136.9 136.217 136.679 136.005 136.515C135.793 136.352 135.525 136.255 135.243 136.241L128.604 136.125C128.478 136.119 128.352 136.139 128.237 136.182C128.121 136.226 128.019 136.292 127.937 136.376C127.856 136.459 127.797 136.558 127.767 136.665C127.736 136.772 127.734 136.884 127.761 136.991L127.885 137.665C127.936 137.908 128.079 138.129 128.29 138.292C128.502 138.456 128.77 138.552 129.052 138.566Z" fill="black"/>
<path d="M68.3327 178.929L60.6175 140.558H57.6629L49.9421 178.929L44.2727 182.397V183.422H73.8182V182.397L68.3327 178.929Z" fill="#36B23B"/>
<path opacity="0.2" d="M73.8182 182.397H44.2727V183.689H73.8182V182.397Z" fill="white"/>
<path opacity="0.2" d="M60.6174 140.558H57.6628L49.8528 178.818H68.2379L60.6174 140.558Z" fill="white"/>
<path opacity="0.6" d="M65.7684 166.399L64.0124 157.592H54.1844L52.3838 166.399H65.7684Z" fill="white"/>
<path d="M303.778 179.411L296.843 144.921H294.187L287.247 179.411L282.151 182.528V183.449H308.708V182.528L303.778 179.411Z" fill="#36B23B"/>
<path opacity="0.2" d="M308.708 182.528H282.151V183.689H308.708V182.528Z" fill="white"/>
<path opacity="0.2" d="M296.843 144.921H294.187L287.167 179.311H303.692L296.843 144.921Z" fill="white"/>
<path opacity="0.6" d="M301.473 168.148L299.895 160.232H291.061L289.442 168.148H301.473Z" fill="white"/>
<defs>
<radialGradient id="paint0_radial_10_121" cx="0" cy="0" r="1" gradientUnits="userSpaceOnUse" gradientTransform="translate(247 184.376) rotate(-5.04245) scale(17.066 2.21991)">
<stop/>
<stop offset="0.5"/>
<stop offset="1" stop-color="#888888"/>
</radialGradient>
<linearGradient id="paint1_linear_10_121" x1="141.507" y1="142.151" x2="141.056" y2="167.963" gradientUnits="userSpaceOnUse">
<stop stop-color="#FFD4AD"/>
<stop offset="1" stop-color="#FF7A00"/>
</linearGradient>
<linearGradient id="paint2_linear_10_121" x1="227.549" y1="154.977" x2="227.254" y2="171.901" gradientUnits="userSpaceOnUse">
<stop stop-color="#FFD4AD"/>
<stop offset="1" stop-color="#FF7A00"/>
</linearGradient>
<linearGradient id="paint3_linear_10_121" x1="137.397" y1="105.923" x2="136.283" y2="169.732" gradientUnits="userSpaceOnUse">
<stop stop-color="#FFD4AD"/>
<stop offset="1" stop-color="#FF7A00"/>
</linearGradient>
<linearGradient id="paint4_linear_10_121" x1="197.109" y1="107.087" x2="196.72" y2="129.385" gradientUnits="userSpaceOnUse">
<stop stop-color="#FFD4AD"/>
<stop offset="1" stop-color="#FF7A00"/>
</linearGradient>
<linearGradient id="paint5_linear_10_121" x1="222.785" y1="129.84" x2="222.348" y2="154.886" gradientUnits="userSpaceOnUse">
<stop stop-color="#FFD4AD"/>
<stop offset="1" stop-color="#FF7A00"/>
</linearGradient>
<linearGradient id="paint6_linear_10_121" x1="221.878" y1="129.824" x2="221.602" y2="145.625" gradientUnits="userSpaceOnUse">
<stop stop-color="#FFD4AD"/>
<stop offset="1" stop-color="#FF7A00"/>
</linearGradient>
</defs>
</svg>
