<svg width="147" height="120" viewBox="0 0 147 120" fill="none" xmlns="http://www.w3.org/2000/svg">
  <g clip-path="url(#clip0_1414_19915)">
    <path
      d="M73.6262 16.0352C74.2901 8.50707 68.7255 1.86607 61.1974 1.20215C53.6692 0.53822 47.0282 6.10279 46.3643 13.631C45.7003 21.1591 51.2649 27.8001 58.7931 28.4641C66.3212 29.128 72.9623 23.5634 73.6262 16.0352Z"
      fill="#36B23B" />
    <path d="M65.38 24.1245L64.4316 27.518L68.3542 29.6083L68.8316 25.2599L65.38 24.1245Z"
      fill="#36B23B" />
    <path
      d="M76.683 14.3503C76.6408 14.3454 76.602 14.3247 76.5745 14.2924C76.5469 14.2601 76.5327 14.2185 76.5346 14.1761C76.629 11.975 76.1805 9.78449 75.2287 7.7976C74.2768 5.8107 72.8509 4.08842 71.0765 2.78255C71.0591 2.77032 71.0443 2.75476 71.0329 2.73677C71.0215 2.71878 71.0137 2.69871 71.0101 2.67771C71.0065 2.65672 71.0071 2.63522 71.0119 2.61445C71.0166 2.59369 71.0255 2.57407 71.0378 2.55674C71.0501 2.53929 71.0656 2.52444 71.0836 2.51305C71.1016 2.50165 71.1217 2.49392 71.1427 2.49033C71.1637 2.48673 71.1852 2.48732 71.2059 2.49208C71.2267 2.49683 71.2463 2.50565 71.2636 2.51803C73.0821 3.85655 74.5434 5.62177 75.5188 7.65815C76.4943 9.69454 76.9539 11.9396 76.8572 14.1955C76.8564 14.2172 76.8512 14.2386 76.8419 14.2583C76.8326 14.278 76.8194 14.2956 76.8032 14.3101C76.7869 14.3245 76.7679 14.3356 76.7472 14.3425C76.7265 14.3494 76.7047 14.3521 76.683 14.3503Z"
      fill="#36B23B" />
    <path
      d="M76.0887 18.3697H76.0307C76.0106 18.3619 75.9922 18.3501 75.9768 18.3351C75.9613 18.3201 75.949 18.3021 75.9406 18.2823C75.9321 18.2624 75.9278 18.2411 75.9277 18.2195C75.9277 18.198 75.932 18.1766 75.9404 18.1568C76.1943 17.5438 76.3174 16.8846 76.3016 16.2213C76.3016 16.1785 76.3186 16.1375 76.3489 16.1072C76.3791 16.077 76.4202 16.06 76.4629 16.06C76.4838 16.0591 76.5046 16.0625 76.5242 16.0699C76.5437 16.0773 76.5615 16.0885 76.5766 16.103C76.5917 16.1174 76.6037 16.1348 76.6119 16.154C76.62 16.1733 76.6242 16.1939 76.6242 16.2148C76.6395 16.9182 76.5076 17.617 76.2371 18.2664C76.2255 18.2965 76.2052 18.3224 76.1787 18.3408C76.1523 18.3592 76.1209 18.3692 76.0887 18.3697Z"
      fill="#36B23B" />
    <path
      d="M59.7536 20.6084L52.8633 16.0019L54.4697 13.5954L59.0891 16.6858L64.8375 9.07932L67.1472 10.8213L59.7536 20.6084Z"
      fill="white" />
    <path d="M233.638 99.3858L8.65234 104.662V66.1799H235.803L233.638 99.3858Z" fill="#263238" />
    <path opacity="0.5" d="M233.638 99.3858L8.65234 104.662V66.1799H235.803L233.638 99.3858Z"
      fill="black" />
    <path
      d="M0 76.0552V95.5693C0.00100746 97.6046 0.653877 99.5859 1.86293 101.223C3.07197 102.86 4.77363 104.067 6.71849 104.667L8.30601 105.149C9.28632 105.453 10.3094 105.596 11.3355 105.572L21.8431 105.326C20.7245 101.416 20.5169 97.3012 21.2362 93.2981C21.9555 89.2949 23.5825 85.5098 25.9924 82.2334C28.4023 78.957 31.531 76.2764 35.1382 74.3974C38.7454 72.5184 42.7352 71.4909 46.8013 71.394C50.8674 71.297 54.9016 72.1331 58.5943 73.838C62.287 75.543 65.5398 78.0714 68.1032 81.2293C70.6665 84.3871 72.4721 88.0903 73.3814 92.0547C74.2906 96.019 74.2794 100.139 73.3485 104.098L180.244 101.555C180.07 100.308 179.986 99.049 179.994 97.7891C179.918 94.2365 180.554 90.7046 181.864 87.4017C183.175 84.0987 185.133 81.0916 187.624 78.5576C190.115 76.0236 193.089 74.014 196.369 72.6473C199.649 71.2806 203.17 70.5845 206.723 70.6C210.276 70.6155 213.791 71.3423 217.059 72.7375C220.327 74.1327 223.282 76.1682 225.751 78.7238C228.22 81.2794 230.153 84.3035 231.434 87.6177C232.716 90.932 233.321 94.4693 233.214 98.0211C233.214 98.5397 233.169 99.0491 233.169 99.5631C233.31 99.504 233.455 99.4494 233.596 99.3812L237.235 97.7482C238.999 96.9482 240.494 95.657 241.543 94.029C242.592 92.401 243.149 90.5053 243.148 88.5688V48.831C243.149 46.9968 242.648 45.1973 241.7 43.6274C240.751 42.0574 239.391 40.7769 237.767 39.9246L210.375 25.4732C210.128 25.3416 209.924 25.1412 209.788 24.8962C209.652 24.6513 209.59 24.3723 209.609 24.0928C209.629 23.8134 209.728 23.5455 209.896 23.3215C210.064 23.0975 210.294 22.9269 210.557 22.8304L213.918 21.625C214.087 21.5688 214.232 21.4568 214.328 21.3075C214.425 21.1581 214.468 20.9803 214.45 20.8034C214.432 20.6264 214.354 20.4609 214.229 20.3341C214.104 20.2072 213.94 20.1267 213.764 20.1057C200.709 18.2862 149.922 11.645 123.244 14.9065C92.4486 18.6774 62.9364 45.3831 62.9364 45.3831C40.2518 44.5506 19.0865 52.4473 9.97994 56.4001C8.52603 57.0345 7.22091 57.966 6.14846 59.1348C5.07601 60.3036 4.25994 61.6838 3.75271 63.1868L0.636828 72.4208C0.228114 73.5895 0.0130045 74.8172 0 76.0552Z"
      fill="#1F9686" />
    <path
      d="M180.295 101.574C180.14 100.402 180.062 99.2213 180.063 98.0393C180.063 97.4344 180.063 96.8385 180.122 96.2471L160.794 88.3278C159.663 87.8679 158.442 87.6689 157.223 87.7455L89.9747 92.1578C88.8754 92.2278 87.8024 92.5236 86.8224 93.0266L74.045 99.5995C73.9537 101.118 73.7361 102.625 73.3945 104.107L180.295 101.574Z"
      fill="#263238" />
    <path
      d="M3.10156 102.574C4.14353 103.536 5.3866 104.254 6.74056 104.676L8.33262 105.158C9.31137 105.462 10.333 105.605 11.3575 105.581L21.8651 105.335C21.4855 104.007 21.2117 102.65 21.0464 101.278L3.10156 102.574Z"
      fill="#263238" />
    <path
      d="M47.4706 68.9092C43.0164 68.9033 38.6203 69.9196 34.6206 71.8798C30.621 73.84 27.1244 76.6918 24.4002 80.2158C21.676 83.7397 19.7967 87.8418 18.907 92.2062C18.0173 96.5706 18.1409 101.081 19.2684 105.39L21.8521 105.335C20.7351 101.425 20.5287 97.3114 21.2489 93.3092C21.9691 89.307 23.5966 85.523 26.0066 82.2476C28.4166 78.9722 31.545 76.2925 35.1517 74.4141C38.7584 72.5358 42.7475 71.5087 46.8129 71.4118C50.8782 71.3149 54.9117 72.1506 58.6038 73.8549C62.2959 75.5593 65.5485 78.0868 68.1119 81.2436C70.6752 84.4005 72.4813 88.1026 73.3914 92.066C74.3015 96.0293 74.2915 100.148 73.362 104.107L75.9412 104.048C76.8388 99.8066 76.7776 95.418 75.7622 91.203C74.7468 86.988 72.8028 83.0531 70.0721 79.6855C67.3415 76.3179 63.8931 73.6028 59.9789 71.7384C56.0647 69.874 51.7834 68.9074 47.4479 68.9092H47.4706Z"
      fill="#263238" />
    <path
      d="M72.8119 46.5339C72.4927 46.8123 72.2738 47.1879 72.1888 47.6028C72.0704 48.0646 72.1289 48.5538 72.3527 48.9746C72.5766 49.3955 72.9497 49.7174 73.3987 49.8772L84.5113 52.9931C85.4912 53.2703 86.5168 53.3476 87.5271 53.2206L169.937 43.0086C172.003 42.7206 173.888 41.6749 175.227 40.0747L186.035 27.4792C186.407 27.0472 186.634 26.5096 186.685 25.9417C186.831 24.5089 185.935 23.2125 184.675 23.0533C164.942 20.4378 139.992 18.0497 124.24 19.9829C103.593 22.5029 82.801 38.0232 72.8119 46.5339Z"
      fill="#1F9686" />
    <path opacity="0.8"
      d="M73.1844 46.5339C72.8637 46.8119 72.6432 47.1874 72.5567 47.6028C72.4396 48.0651 72.4992 48.5544 72.7238 48.9751C72.9484 49.3957 73.3219 49.7174 73.7712 49.8772L84.8837 52.9931C85.8636 53.2703 86.8892 53.3476 87.8996 53.2206L168.462 47.6984C170.468 47.4436 173.566 43.7546 175.74 40.7661L186.389 27.4792C186.756 27.0444 186.983 26.5083 187.039 25.9417C187.185 24.5089 186.284 23.2125 185.029 23.0533C165.296 20.4378 140.347 18.0497 124.59 19.9829C103.961 22.5029 83.1734 38.0232 73.1844 46.5339Z"
      fill="white" />
    <g opacity="0.3">
      <path
        d="M127.014 54.3714C126.889 54.3262 126.773 54.2566 126.675 54.1667C126.576 54.0768 126.496 53.9683 126.44 53.8474C126.383 53.7266 126.351 53.5957 126.345 53.4624C126.339 53.3291 126.359 53.1959 126.405 53.0705C126.518 52.7507 126.725 52.4723 126.998 52.2712C127.271 52.0701 127.599 51.9556 127.938 51.9424L137.745 51.5284C137.878 51.5229 138.011 51.5429 138.136 51.5876C138.263 51.6329 138.379 51.7027 138.479 51.7931C138.579 51.8835 138.66 51.9926 138.717 52.1143C138.774 52.236 138.807 52.3678 138.814 52.5022C138.82 52.6366 138.8 52.771 138.755 52.8976C138.637 53.2167 138.429 53.4941 138.154 53.6948C137.88 53.8955 137.552 54.0106 137.213 54.0257L127.406 54.4305C127.273 54.4358 127.14 54.4157 127.014 54.3714Z"
        fill="black" />
    </g>
    <path
      d="M22.543 60.1164L12.8224 59.0566L7.24107 61.331C6.66052 61.5687 6.14398 61.9396 5.73311 62.4137C5.32224 62.8877 5.02854 63.4518 4.87573 64.0602C4.69269 64.7712 4.79557 65.5257 5.1623 66.1617L5.26237 66.33C5.56659 66.8564 6.02064 67.2802 6.56665 67.5476C7.11266 67.8149 7.72591 67.9136 8.32823 67.8311L13.9323 67.0578C14.4787 66.9807 14.9967 66.7663 15.4379 66.4347L21.9062 61.5448L22.543 60.1164Z"
      fill="white" />
    <path
      d="M62.9277 45.3876L64.4743 45.8425C65.0666 46.0105 65.6909 46.0307 66.2928 45.9015C66.8947 45.7722 67.4557 45.4974 67.9268 45.1011C76.9379 37.4774 92.5992 25.7871 109.502 20.3377C109.577 20.3118 109.64 20.2602 109.68 20.1921C109.701 20.1558 109.714 20.1157 109.719 20.0742C109.724 20.0326 109.721 19.9905 109.709 19.9502C109.698 19.9099 109.679 19.8724 109.652 19.8397C109.626 19.807 109.594 19.7799 109.557 19.76L107.455 18.682C83.0741 27.1244 62.9277 45.3876 62.9277 45.3876Z"
      fill="#1F9686" />
    <path opacity="0.8"
      d="M62.9277 45.3876L64.4743 45.8425C65.0666 46.0105 65.6909 46.0307 66.2928 45.9015C66.8947 45.7722 67.4557 45.4974 67.9268 45.1011C76.9379 37.4774 92.5992 25.7871 109.502 20.3377C109.577 20.3118 109.64 20.2602 109.68 20.1921C109.701 20.1558 109.714 20.1157 109.719 20.0742C109.724 20.0326 109.721 19.9905 109.709 19.9502C109.698 19.9099 109.679 19.8724 109.652 19.8397C109.626 19.807 109.594 19.7799 109.557 19.76L107.455 18.682C83.0741 27.1244 62.9277 45.3876 62.9277 45.3876Z"
      fill="white" />
    <path opacity="0.2"
      d="M155.308 55.6769L73.3848 61.5447L74.9268 71.6475C75.4 74.74 76.5477 77.6906 78.2883 80.2901L85.1342 90.5248L155.057 81.0679L188.113 55.6769H155.308Z"
      fill="white" />
    <path
      d="M47.4707 120.21C59.7202 120.21 69.6504 110.28 69.6504 98.0302C69.6504 85.7807 59.7202 75.8506 47.4707 75.8506C35.2212 75.8506 25.291 85.7807 25.291 98.0302C25.291 110.28 35.2212 120.21 47.4707 120.21Z"
      fill="#263238" />
    <path opacity="0.4"
      d="M47.4712 111.626C54.9802 111.626 61.0674 105.539 61.0674 98.0302C61.0674 90.5212 54.9802 84.434 47.4712 84.434C39.9622 84.434 33.875 90.5212 33.875 98.0302C33.875 105.539 39.9622 111.626 47.4712 111.626Z"
      fill="white" />
    <g opacity="0.3">
      <path
        d="M47.4706 85.7987H47.466C46.8656 85.7987 46.3789 86.2854 46.3789 86.8858V93.8545C46.3789 94.4549 46.8656 94.9417 47.466 94.9417H47.4706C48.071 94.9417 48.5578 94.4549 48.5578 93.8545V86.8858C48.5578 86.2854 48.071 85.7987 47.4706 85.7987Z"
        fill="white" />
    </g>
    <g opacity="0.3">
      <path
        d="M47.4706 101.119H47.466C46.8656 101.119 46.3789 101.606 46.3789 102.206V109.175C46.3789 109.775 46.8656 110.262 47.466 110.262H47.4706C48.071 110.262 48.5578 109.775 48.5578 109.175V102.206C48.5578 101.606 48.071 101.119 47.4706 101.119Z"
        fill="white" />
    </g>
    <g opacity="0.3">
      <path
        d="M51.6229 96.8885C51.4997 96.9587 51.3638 97.0039 51.2231 97.0213C51.0824 97.0388 50.9396 97.0281 50.803 96.9901C50.6663 96.952 50.5386 96.8873 50.4272 96.7996C50.3157 96.7119 50.2228 96.6029 50.1537 96.4791C50.0811 96.3563 50.0337 96.2203 50.0141 96.079C49.9945 95.9377 50.0032 95.7939 50.0396 95.6559C50.076 95.518 50.1394 95.3887 50.2261 95.2754C50.3128 95.1622 50.4212 95.0673 50.5449 94.9962L56.581 91.4937C56.7046 91.4221 56.841 91.3757 56.9826 91.3571C57.1241 91.3385 57.2679 91.3481 57.4058 91.3853C57.5436 91.4225 57.6727 91.4866 57.7857 91.5739C57.8986 91.6612 57.9932 91.77 58.0639 91.894C58.1355 92.0175 58.1819 92.154 58.2005 92.2955C58.2191 92.437 58.2095 92.5809 58.1723 92.7187C58.1351 92.8565 58.071 92.9856 57.9837 93.0986C57.8964 93.2115 57.7876 93.3061 57.6636 93.3769L51.6229 96.8794V96.8885Z"
        fill="white" />
    </g>
    <g opacity="0.3">
      <path
        d="M36.8723 104.116C36.8015 103.993 36.7557 103.857 36.7374 103.716C36.7192 103.575 36.729 103.432 36.7661 103.294C36.8033 103.157 36.8672 103.028 36.9541 102.916C37.041 102.803 37.1492 102.709 37.2726 102.638L43.3043 99.1356C43.554 98.9899 43.8514 98.9492 44.1312 99.0226C44.4109 99.0959 44.6501 99.2772 44.7962 99.5268C44.868 99.651 44.9146 99.7881 44.9333 99.9304C44.952 100.073 44.9425 100.217 44.9053 100.356C44.8682 100.494 44.804 100.624 44.7166 100.738C44.6292 100.852 44.5203 100.947 44.3959 101.019L38.3643 104.521C38.1126 104.665 37.8144 104.702 37.5348 104.627C37.2553 104.551 37.0171 104.367 36.8723 104.116Z"
        fill="white" />
    </g>
    <g opacity="0.3">
      <path
        d="M58.0609 104.148C57.9164 104.397 57.6792 104.578 57.4012 104.653C57.1233 104.727 56.8273 104.688 56.578 104.544L50.5418 101.041C50.2923 100.895 50.111 100.656 50.0376 100.376C49.9643 100.097 50.005 99.7993 50.1506 99.5495C50.2217 99.4258 50.3166 99.3175 50.4299 99.2307C50.5431 99.144 50.6725 99.0806 50.8104 99.0442C50.9483 99.0078 51.0921 98.9992 51.2334 99.0187C51.3747 99.0383 51.5107 99.0858 51.6335 99.1583L57.6652 102.661C57.9139 102.805 58.0952 103.043 58.1694 103.321C58.2436 103.598 58.2046 103.894 58.0609 104.144V104.148Z"
        fill="white" />
    </g>
    <g opacity="0.3">
      <path
        d="M44.8008 96.4927C44.6548 96.7411 44.416 96.9214 44.1371 96.9939C43.8582 97.0664 43.5619 97.0252 43.3134 96.8793L37.2726 93.3859C37.1487 93.3152 37.0399 93.2206 36.9526 93.1076C36.8653 92.9947 36.8012 92.8656 36.764 92.7277C36.7268 92.5899 36.7172 92.4461 36.7358 92.3045C36.7544 92.163 36.8008 92.0265 36.8724 91.903C37.0179 91.6529 37.2564 91.4704 37.5359 91.3954C37.8154 91.3205 38.1132 91.359 38.3643 91.5027L44.396 95.0053C44.6447 95.1498 44.826 95.387 44.9002 95.6649C44.9744 95.9429 44.9354 96.2389 44.7917 96.4881L44.8008 96.4927Z"
        fill="white" />
    </g>
    <path
      d="M47.4699 96.2016C47.8298 96.2016 48.1815 96.3083 48.4808 96.5082C48.78 96.7082 49.0132 96.9923 49.1509 97.3248C49.2886 97.6573 49.3246 98.0231 49.2544 98.3761C49.1842 98.729 49.0109 99.0532 48.7565 99.3077C48.502 99.5621 48.1778 99.7354 47.8249 99.8056C47.4719 99.8758 47.1061 99.8398 46.7736 99.7021C46.4411 99.5644 46.157 99.3312 45.957 99.032C45.7571 98.7327 45.6504 98.381 45.6504 98.0211C45.6504 97.5385 45.8421 97.0757 46.1833 96.7345C46.5245 96.3933 46.9873 96.2016 47.4699 96.2016Z"
      fill="#263238" />
    <path
      d="M72.1888 47.5801C72.0704 48.0418 72.1289 48.5311 72.3527 48.9519C72.5766 49.3727 72.9497 49.6946 73.3987 49.8545L84.5159 52.9704C85.5187 53.277 86.5567 53.4543 87.6045 53.498L91.1025 53.266L87.8001 35.435C80.1809 40.4386 79.6578 40.6706 72.8119 46.4975C72.4901 46.7795 72.271 47.1602 72.1888 47.5801Z"
      fill="#263238" />
    <path
      d="M144.587 19.4097L137.596 49.8545L146.73 49.1949L150.91 19.6963C148.772 19.569 146.664 19.4734 144.587 19.4097Z"
      fill="#263238" />
    <path
      d="M82.2954 50.6778C81.7671 50.6844 81.2428 50.5867 80.7524 50.3904C80.2619 50.1941 79.815 49.9029 79.4373 49.5336C79.0596 49.1643 78.7584 48.7242 78.551 48.2383C78.3436 47.7524 78.2341 47.2304 78.2288 46.7022C78.2183 45.7856 78.521 44.8929 79.0867 44.1716C79.6525 43.4504 80.4474 42.9438 81.3401 42.7357L86.6985 41.4802L88.0632 50.4595L82.4045 50.6732L82.2954 50.6778Z"
      fill="#1F9686" />
    <path opacity="0.3"
      d="M86.4897 50.5186L88.059 50.4595L86.6989 41.4802L85.166 41.8441L86.4897 50.5186Z"
      fill="black" />
    <path opacity="0.6"
      d="M139.573 89.0192H139.55C139.536 89.016 139.522 89.0099 139.509 89.0012C139.497 88.9926 139.487 88.9816 139.479 88.969C139.471 88.9563 139.465 88.9421 139.463 88.9273C139.46 88.9125 139.46 88.8974 139.464 88.8827C139.523 88.6052 145.377 61.1354 146.128 57.3781C146.414 55.9453 146.519 53.1933 146.432 49.1904C146.432 49.1602 146.444 49.1313 146.466 49.11C146.487 49.0886 146.516 49.0767 146.546 49.0767C146.576 49.0766 146.604 49.088 146.625 49.1084C146.646 49.1287 146.659 49.1565 146.66 49.1858C146.746 53.1933 146.66 55.9589 146.351 57.41C145.6 61.1581 139.746 88.6416 139.687 88.9191C139.682 88.9465 139.669 88.9714 139.648 88.9897C139.627 89.008 139.601 89.0184 139.573 89.0192Z"
      fill="black" />
    <path opacity="0.6"
      d="M86.8135 93.1403C86.7947 93.1401 86.7763 93.1355 86.7597 93.1268C86.7431 93.1181 86.7287 93.1056 86.7179 93.0903C86.6452 92.9766 79.0897 81.7957 76.4924 77.1196C73.8223 72.3071 72.0983 49.2404 72.0255 48.2579C72.0242 48.2284 72.0344 48.1997 72.0539 48.1776C72.0734 48.1556 72.1007 48.1419 72.1301 48.1396C72.1452 48.1377 72.1605 48.1389 72.175 48.1433C72.1896 48.1476 72.2031 48.1549 72.2146 48.1648C72.2262 48.1746 72.2356 48.1868 72.2421 48.2005C72.2487 48.2141 72.2524 48.229 72.2529 48.2442C72.2529 48.4808 74.0451 72.2388 76.6925 77.0105C79.2807 81.6775 86.8317 92.8537 86.909 92.9629C86.925 92.9885 86.9306 93.0192 86.9247 93.0488C86.9188 93.0784 86.9018 93.1047 86.8771 93.1221C86.8584 93.1349 86.8361 93.1413 86.8135 93.1403Z"
      fill="black" />
    <path opacity="0.6"
      d="M12.8231 59.1703C12.8009 59.1704 12.7792 59.164 12.7606 59.1518C12.742 59.1397 12.7274 59.1224 12.7185 59.1021C12.7078 59.0736 12.7085 59.0422 12.7203 59.0143C12.7322 58.9863 12.7543 58.964 12.7822 58.9519C18.5773 56.5821 37.1498 52.1288 41.5075 51.4147C46.9978 50.5368 65.7568 45.9062 65.9433 45.8607C65.9735 45.8538 66.0051 45.859 66.0315 45.8751C66.0578 45.8913 66.0768 45.9171 66.0843 45.9471C66.0877 45.9617 66.0881 45.9769 66.0856 45.9917C66.083 46.0065 66.0776 46.0207 66.0696 46.0333C66.0615 46.046 66.0511 46.057 66.0388 46.0656C66.0265 46.0742 66.0126 46.0803 65.9979 46.0836C65.8114 46.129 47.0433 50.7597 41.5439 51.6421C37.3135 52.3199 18.5181 56.8504 12.8868 59.1657L12.8231 59.1703Z"
      fill="black" />
    <path
      d="M105.594 38.3462C105.594 38.3462 108.996 50.3185 110.652 50.7415C113.645 51.5148 123.771 49.7772 123.57 49.4406L122.738 45.2239C122.738 45.2239 112.403 44.4824 112.189 44.5643L108.91 37.0589L105.594 38.3462Z"
      fill="#EE9888" />
    <path
      d="M108.938 39.1649C108.938 39.1649 109.97 38.2052 109.997 37.0361C110.025 35.8671 110.357 34.9483 110.32 34.0795C110.284 33.2106 109.556 34.134 109.27 34.7026C108.983 35.2712 108.651 35.9126 108.255 35.6124C107.859 35.3122 106.163 31.5185 105.571 31.1955C104.98 30.8726 105.067 31.564 105.067 31.564C105.067 31.564 104.612 30.6543 104.22 30.727C104.116 30.727 103.898 30.9636 104.034 31.4093C104.339 32.4146 105.085 34.4934 105.085 34.4934C105.044 34.3751 103.938 31.8733 103.72 31.5231C103.443 31.0682 103.074 30.9863 102.81 31.1592C102.442 31.4002 103.72 34.5434 103.661 34.7163C103.661 34.7163 102.997 32.8968 102.428 32.7922C101.86 32.6875 102.219 33.8839 102.728 34.8618C103.183 35.7716 103.884 37.6411 104.448 38.5008C105.144 39.5652 105.853 40.1247 107.032 39.9428C107.724 39.8529 108.38 39.5848 108.938 39.1649Z"
      fill="#EE9888" />
    <path opacity="0.3"
      d="M106.044 34.0021C106.032 34.0028 106.02 33.9996 106.01 33.9931C106.001 33.9865 105.993 33.9769 105.989 33.9657C105.725 33.197 105.421 32.4419 105.08 31.6914C105.073 31.6775 105.073 31.6616 105.078 31.6472C105.083 31.6328 105.093 31.6209 105.107 31.614C105.121 31.6088 105.136 31.6086 105.15 31.6136C105.165 31.6186 105.177 31.6284 105.184 31.6413C105.512 32.3782 105.816 33.1424 106.094 33.9157C106.099 33.9296 106.098 33.9448 106.092 33.9582C106.086 33.9717 106.075 33.9825 106.062 33.9885L106.044 34.0021Z"
      fill="black" />
    <path opacity="0.3"
      d="M103.897 35.5078C103.889 35.5073 103.88 35.505 103.872 35.5011C103.865 35.4972 103.858 35.4917 103.852 35.485C103.847 35.4799 103.843 35.4739 103.84 35.4673C103.837 35.4607 103.836 35.4535 103.836 35.4464C103.836 35.4392 103.837 35.4321 103.84 35.4254C103.843 35.4188 103.847 35.4128 103.852 35.4077C104.676 34.7309 105.68 34.3103 106.74 34.1977C106.755 34.1964 106.77 34.2008 106.782 34.2101C106.794 34.2194 106.802 34.2329 106.804 34.2478C106.805 34.2553 106.805 34.263 106.803 34.2704C106.801 34.2778 106.798 34.2847 106.793 34.2907C106.789 34.2967 106.783 34.3017 106.776 34.3052C106.769 34.3088 106.762 34.3109 106.754 34.3114C105.716 34.4216 104.733 34.8327 103.925 35.4941C103.917 35.5014 103.908 35.5062 103.897 35.5078Z"
      fill="black" />
    <path opacity="0.3"
      d="M107.283 38.3917C107.272 38.3914 107.261 38.3877 107.252 38.3812C107.243 38.3747 107.236 38.3657 107.233 38.3553C107.063 37.9441 107.044 37.4865 107.178 37.0625C107.312 36.6385 107.59 36.2749 107.965 36.0354C107.97 36.0303 107.976 36.0263 107.983 36.0235C107.989 36.0208 107.996 36.0193 108.004 36.0193C108.011 36.0193 108.018 36.0208 108.024 36.0235C108.031 36.0263 108.037 36.0303 108.042 36.0354C108.052 36.0469 108.057 36.0614 108.057 36.0763C108.057 36.0913 108.052 36.1058 108.042 36.1173C107.692 36.3441 107.43 36.6846 107.301 37.0816C107.177 37.4816 107.194 37.9122 107.351 38.3007C107.355 38.3146 107.353 38.3294 107.348 38.3426C107.342 38.3559 107.332 38.3667 107.319 38.3735L107.283 38.3917Z"
      fill="black" />
    <path
      d="M132.278 34.3569C132.278 34.3569 136.067 31.1728 135.917 30.0902C135.767 29.0076 135.144 29.3488 135.144 29.3488C135.144 29.3488 136.458 26.7696 135.167 26.3239C133.875 25.8781 133.802 26.3239 133.802 26.3239C133.802 26.3239 134.316 24.2178 133.288 23.5946C132.51 23.1079 132.178 24.0768 132.178 24.0768C132.178 24.0768 130.691 21.766 128.912 21.8024C128.034 21.8706 127.598 22.4347 127.725 23.1124C127.723 23.1427 127.723 23.1731 127.725 23.2034C127.725 23.2034 124.131 21.6341 122.462 22.6212C120.793 23.6083 122.971 24.6772 122.971 24.6772C122.971 24.6772 119.469 24.3133 118.787 25.7234C118.241 26.8424 119.796 27.593 119.796 27.593C119.422 27.7357 119.075 27.9436 118.773 28.207C118.563 28.3868 118.412 28.6263 118.341 28.8937C118.27 29.1611 118.282 29.4438 118.375 29.7043C118.468 29.9648 118.638 30.1908 118.863 30.3524C119.088 30.5139 119.356 30.6033 119.633 30.6088H119.665C119.851 30.6088 120.183 30.6543 120.32 30.5269C120.32 30.5269 119.715 31.7915 121.011 32.2008C122.307 32.6102 122.926 31.1046 122.926 31.1046L132.278 34.3569Z"
      fill="#263238" />
    <path
      d="M131.086 42.5947C131.086 42.5947 130.876 40.7752 132.173 36.3311L131.941 36.2174C132.118 35.5987 132.309 35.0256 132.491 34.5298C132.492 34.5222 132.492 34.5146 132.491 34.507L126.405 38.2461C126.546 39.6698 126.027 42.4127 125.723 43.5681L127.297 46.2382L131.086 42.5947Z"
      fill="#EE9888" />
    <path opacity="0.2"
      d="M126.3 40.243L129.798 39.4651C129.48 40.5523 128.511 41.8351 126.082 41.9351C126.2 41.3779 126.273 40.812 126.3 40.243Z"
      fill="black" />
    <path
      d="M122.238 27.7431C121.52 29.1441 121.26 32.2372 123.498 31.5958C125.736 30.9545 123.494 25.3277 122.238 27.7431Z"
      fill="#263238" />
    <path
      d="M132.545 31.5594C132.126 35.4077 131.967 37.5865 129.92 39.4606C126.845 42.2763 122.265 40.3294 121.523 36.422C120.855 32.9013 121.651 27.1972 125.513 25.878C126.367 25.5843 127.282 25.5123 128.172 25.669C129.062 25.8256 129.897 26.2056 130.6 26.7734C131.303 27.3413 131.85 28.0783 132.19 28.9154C132.531 29.7525 132.653 30.6623 132.545 31.5594Z"
      fill="#EE9888" />
    <path
      d="M126.969 32.4328C126.969 32.824 126.728 33.1333 126.469 33.1196C126.209 33.106 126.014 32.7739 126.014 32.3782C126.014 31.9825 126.259 31.6731 126.514 31.6868C126.769 31.7004 126.987 32.0188 126.969 32.4328Z"
      fill="#263238" />
    <path
      d="M123.089 32.3054C123.089 32.7012 122.848 33.0105 122.588 32.9968C122.329 32.9832 122.133 32.6466 122.156 32.2554C122.179 31.8642 122.397 31.5504 122.656 31.564C122.916 31.5776 123.107 31.9097 123.089 32.3054Z"
      fill="#263238" />
    <path
      d="M124.363 32.1462C124.363 32.1462 122.999 34.0522 122.58 34.83C123.108 35.3531 124.063 35.1712 124.063 35.1712L124.363 32.1462Z"
      fill="#FD504E" />
    <path
      d="M127.925 30.2903C127.894 30.299 127.861 30.299 127.829 30.2902C127.798 30.2813 127.77 30.2641 127.748 30.2403C127.587 30.0721 127.39 29.9435 127.171 29.8645C126.953 29.7856 126.719 29.7585 126.488 29.7854C126.442 29.7899 126.396 29.7771 126.359 29.7496C126.321 29.722 126.296 29.6817 126.287 29.6364C126.278 29.5911 126.286 29.544 126.31 29.5043C126.333 29.4646 126.371 29.4351 126.415 29.4215C126.708 29.3846 127.005 29.4177 127.283 29.5181C127.56 29.6186 127.81 29.7834 128.012 29.9992C128.045 30.034 128.064 30.0805 128.064 30.1289C128.064 30.1772 128.045 30.2237 128.012 30.2585C127.987 30.2782 127.957 30.2894 127.925 30.2903Z"
      fill="#263238" />
    <path
      d="M121.442 30.5223C121.411 30.5113 121.383 30.4923 121.361 30.4672C121.339 30.442 121.324 30.4117 121.318 30.3791C121.312 30.3464 121.314 30.3127 121.324 30.2812C121.335 30.2497 121.354 30.2215 121.378 30.1994C121.602 30.0095 121.868 29.8764 122.154 29.8115C122.44 29.7465 122.737 29.7516 123.021 29.8264C123.067 29.842 123.105 29.875 123.127 29.9183C123.149 29.9616 123.153 30.0119 123.139 30.0584C123.132 30.0815 123.12 30.103 123.104 30.1216C123.089 30.1401 123.069 30.1553 123.048 30.1664C123.026 30.1774 123.003 30.184 122.978 30.1857C122.954 30.1875 122.93 30.1844 122.907 30.1766C122.682 30.1203 122.447 30.1194 122.222 30.1741C121.997 30.2288 121.789 30.3374 121.615 30.4905C121.591 30.5096 121.563 30.5225 121.533 30.5281C121.502 30.5336 121.471 30.5316 121.442 30.5223Z"
      fill="#263238" />
    <path
      d="M124.585 36.2583C125.208 36.0627 126.35 35.6442 126.905 35.062C126.977 35.1968 127.031 35.3406 127.064 35.4896C127.128 35.751 127.128 36.0241 127.064 36.2856C126.928 36.8178 126.459 37.3955 125.208 37.7412H125.181C125.181 37.7412 124.503 37.9141 124.162 36.3766C124.158 36.3811 124.326 36.3402 124.585 36.2583Z"
      fill="#263238" />
    <path
      d="M124.586 36.2583L124.827 36.6723C126.005 36.3447 126.792 35.9536 127.065 35.4896C127.031 35.3406 126.978 35.1968 126.906 35.062C126.351 35.6442 125.209 36.0718 124.586 36.2583Z"
      fill="white" />
    <path
      d="M125.213 37.7412C126.464 37.3955 126.932 36.8314 127.069 36.2856C126.595 36.4271 126.149 36.652 125.754 36.9497C125.496 37.1512 125.307 37.4277 125.213 37.7412Z"
      fill="#FB504E" />
    <path
      d="M131.391 34.5389C131.041 34.3885 130.741 34.1406 130.527 33.8247C130.385 33.5003 130.34 33.1414 130.399 32.7921C130.43 32.4256 130.482 32.0611 130.554 31.7005C130.213 31.8733 129.794 31.6004 129.608 31.2456C129.372 30.7181 129.294 30.1333 129.385 29.5625C129.167 29.6134 128.939 29.6052 128.724 29.5388C128.51 29.4725 128.317 29.3504 128.166 29.185C128.024 29.0111 127.946 28.7933 127.946 28.5686C127.946 28.344 128.024 28.1262 128.166 27.9523C126.74 28.1427 125.291 28.0531 123.899 27.6885C123.995 27.8659 123.899 28.0797 123.758 28.2389C123.255 28.8901 122.53 29.3337 121.72 29.4852C121.602 29.508 121.457 29.5125 121.388 29.4124C121.361 29.3544 121.351 29.2894 121.361 29.2259C121.401 28.8351 121.517 28.4559 121.704 28.1101C121.891 27.7644 122.143 27.4588 122.448 27.2108C123.059 26.7199 123.75 26.3382 124.491 26.0828C125.696 25.5915 126.969 25.2848 128.266 25.173C129.569 25.0655 130.878 25.2925 132.069 25.8326C132.331 25.9428 132.565 26.1089 132.756 26.3193C132.917 26.5382 133.033 26.7872 133.097 27.0516C133.574 28.6255 133.756 30.2741 133.634 31.9142"
      fill="#263238" />
    <path
      d="M133.919 34.8482C133.751 35.2982 133.495 35.7104 133.166 36.0609C132.838 36.4115 132.443 36.6934 132.004 36.8906C130.826 37.4091 130.044 36.3947 130.212 35.1848C130.362 34.0931 131.154 32.5101 132.414 32.5056C133.674 32.501 134.329 33.7292 133.919 34.8482Z"
      fill="#EE9888" />
    <path opacity="0.2"
      d="M131.273 34.9255C131.258 34.9233 131.244 34.9181 131.231 34.9103C131.218 34.9024 131.206 34.892 131.197 34.8797C131.188 34.8674 131.182 34.8535 131.179 34.8387C131.175 34.8239 131.175 34.8086 131.177 34.7936C131.235 34.4436 131.382 34.1145 131.605 33.8384C131.79 33.5908 132.055 33.4155 132.356 33.3426C132.515 33.3089 132.68 33.3228 132.832 33.3827C132.983 33.4426 133.113 33.5457 133.206 33.6792C133.221 33.7055 133.225 33.7363 133.218 33.7657C133.212 33.795 133.194 33.8209 133.17 33.8384C133.143 33.8535 133.112 33.8577 133.082 33.8501C133.052 33.8424 133.027 33.8236 133.011 33.7974C132.943 33.7037 132.849 33.6318 132.74 33.5906C132.632 33.5494 132.514 33.5407 132.401 33.5654C132.153 33.6281 131.935 33.7743 131.782 33.9794C131.586 34.226 131.456 34.5189 131.405 34.83C131.403 34.845 131.397 34.8594 131.39 34.8724C131.382 34.8854 131.371 34.8967 131.359 34.9056C131.347 34.9145 131.333 34.9208 131.318 34.9242C131.303 34.9277 131.288 34.9281 131.273 34.9255Z"
      fill="black" />
    <path
      d="M125.436 48.8765C125.436 48.8765 114.123 52.1834 110.016 52.329C105.908 52.4746 96.8242 50.555 96.8242 50.555L97.3382 46.3792L110.684 47.0616L125.195 42.2171L125.436 48.8765Z"
      fill="#EE9888" />
    <path
      d="M121.393 51.4284L123.617 42.2353L129.266 41.2483C129.517 41.2119 134.102 40.8343 135.48 45.8698L135.785 49.8681L121.393 51.4284Z"
      fill="#263238" />
    <path
      d="M126.714 50.5095C126.4 50.5095 117.616 52.1152 117.616 52.1152L115.797 44.9555C118.355 43.8997 120.97 42.9886 123.63 42.2263C127.815 41.0936 131.736 40.7434 132.636 42.6811C134.333 46.402 126.714 50.5095 126.714 50.5095Z"
      fill="#263238" />
    <path opacity="0.3"
      d="M108.482 47.0161L110.679 47.1298L116.388 45.1738C116.388 45.1738 117.571 44.6644 117.271 44.769C116.97 44.8736 114.605 44.6234 114.446 44.6507C114.287 44.678 108.482 47.0161 108.482 47.0161Z"
      fill="black" />
    <path
      d="M92.9483 44.4824C92.689 44.6371 89.6641 47.7621 89.6641 47.7621L90.2554 51.6376L94.0581 47.712L92.9483 44.4824Z"
      fill="#263238" />
    <path
      d="M97.5023 52.5656C97.1793 52.7236 96.807 52.7477 96.4663 52.6327C96.1256 52.5177 95.844 52.2729 95.6828 51.9515L89.6603 39.7108C89.5023 39.3878 89.4782 39.0155 89.5931 38.6748C89.7081 38.334 89.9529 38.0525 90.2744 37.8913C90.5974 37.7333 90.9697 37.7092 91.3104 37.8241C91.6511 37.9391 91.9327 38.184 92.0939 38.5054L98.1301 50.7324C98.2099 50.8939 98.2571 51.0695 98.2687 51.2493C98.2804 51.429 98.2564 51.6093 98.198 51.7797C98.1397 51.9501 98.0481 52.1073 97.9287 52.2422C97.8093 52.3771 97.6644 52.487 97.5023 52.5656Z"
      fill="#263238" />
    <path
      d="M101.846 46.7159L96.8793 46.0472L95.4464 44.3096C95.4464 44.3096 92.9219 44.0822 92.3806 44.5325C91.8393 44.9828 91.2934 46.4156 91.2934 46.4156C91.2934 46.4156 90.6338 47.5938 91.7483 48.2079C91.7483 48.2079 91.0341 49.2541 92.3078 49.991C92.3078 49.991 91.3707 50.5232 92.7126 51.0736C93.2287 51.2793 93.7807 51.3797 94.3361 51.3688C94.8916 51.3578 95.4392 51.2358 95.9468 51.0099C96.6904 50.8283 97.4589 50.7714 98.2211 50.8416L102.738 51.6376L101.846 46.7159Z"
      fill="#EE9888" />
  </g>
  <defs>
    <clipPath id="clip0_1414_19915">
      <rect width="147" height="120" fill="white" />
    </clipPath>
  </defs>
</svg>