<svg width="76" height="38" viewBox="0 0 76 38" fill="none" xmlns="http://www.w3.org/2000/svg">
<path d="M45 40C20.1472 40 0 38.7427 0 37.1917C0 35.6407 20.1472 34.3834 45 34.3834C69.8528 34.3834 90 35.6407 90 37.1917C90 38.7427 69.8528 40 45 40Z" fill="black"/>
<path d="M83.5742 28.0768H64.0453C64.0453 28.0768 66.1837 18.3441 73.8098 18.3441C81.4358 18.3441 83.2401 25.9026 83.5742 28.0768Z" fill="#211F96"/>
<path opacity="0.2" d="M83.5742 28.0768H64.0453C64.0453 28.0768 66.1837 18.3441 73.8098 18.3441C81.4358 18.3441 83.2401 25.9026 83.5742 28.0768Z" fill="#211F96"/>
<path d="M26.8945 29.1272H7.3656C7.3656 29.1272 9.50403 19.3945 17.1301 19.3945C24.7561 19.3945 26.5604 26.953 26.8945 29.1272Z" fill="#211F96"/>
<path opacity="0.2" d="M26.8945 29.1272H7.3656C7.3656 29.1272 9.50403 19.3945 17.1301 19.3945C24.7561 19.3945 26.5604 26.953 26.8945 29.1272Z" fill="#211F96"/>
<path d="M88.0394 10.3222C88.458 11.033 89.1931 18.8494 89.2364 19.1282C89.2796 19.4071 89.8889 20.5959 89.8987 20.8265C89.9086 21.0572 90.0599 24.5775 89.9734 24.8102C89.7767 25.226 89.552 25.6261 89.3012 26.0074C89.1931 26.1437 86.4257 28.6869 86.1172 28.7205C85.8086 28.754 82.9429 28.7771 82.8899 28.7205C82.8368 28.6638 82.4968 19.2603 73.8192 19.2603C65.1416 19.2603 65.2281 29.2446 65.0689 29.2782C64.9097 29.3117 26.0268 30.2594 26.0268 30.2594C26.0268 28.7309 25.9147 19.6356 17.3944 19.6356C11.8439 19.6356 9.0392 24.5166 8.94289 28.1166C8.90359 29.6136 9.13944 31.2616 9.06082 31.2616C8.80334 31.2616 7.92871 31.3308 7.77737 31.2616C7.62603 31.1924 5.8119 29.9177 5.66252 29.8715C5.51315 29.8254 4.46555 29.8023 4.21004 29.7352C3.95453 29.6681 2.15809 27.9908 2.12665 27.9216C2.0952 27.8524 2.04015 27.192 2.03033 27.1354C2.0205 27.0788 0.202438 24.7074 0.117928 24.4454C0.0334091 24.1833 0 22.0174 0 21.8015C0 21.5855 3.30199 15.8721 4.07442 15.2431C4.84686 14.6141 10.3246 12.5762 11.9363 12.2679C13.548 11.9597 22.3533 10.5592 22.6737 10.3181C22.9941 10.0769 38.0378 0.883068 40.6558 0.19746C42.7706 -0.349769 67.2604 0.407126 68.5419 0.472122C69.8234 0.537119 73.3711 1.22273 73.7131 1.22273C74.0551 1.22273 77.988 1.20176 78.2219 1.31498C78.4557 1.4282 78.2219 2.4325 77.9231 2.61491C77.6244 2.79732 87.3141 9.0915 88.0394 10.3222Z" fill="url(#paint0_linear_1414_19785)"/>
<path d="M87.478 9.73097C87.3857 9.82113 85.8546 9.86097 85.6934 9.79387C85.5322 9.72678 75.8896 2.87489 75.8818 2.68199C75.8818 2.58135 77.69 2.60651 77.9101 2.61909C78.1302 2.63167 87.6549 9.55904 87.478 9.73097Z" fill="#455A64"/>
<path d="M76.7377 9.62195C76.3191 10.9387 25.663 13.3959 25.3858 12.7669C25.1795 12.2931 29.7099 8.41218 31.8287 7.14789C33.9474 5.8836 40.0031 2.21863 42.9906 1.84333C45.9781 1.46803 52.0121 1.49948 57.2796 1.61479C62.5038 1.71753 68.6577 1.85381 70.8413 2.84553C72.7498 3.71145 77.0699 8.57571 76.7377 9.62195Z" fill="#263238"/>
<path d="M75.325 8.8525C75.1973 9.34731 64.0118 10.6305 50.9001 11.2804C37.7884 11.9304 31.3162 12.0331 31.1569 11.9639C30.9977 11.8948 31.6051 8.16899 31.8291 7.86079C32.0532 7.55258 41.4462 2.42414 42.9203 2.28785C44.3944 2.15157 52.3546 2.1348 56.3818 2.20189C60.4091 2.26898 68.7859 2.78477 70.2128 3.39909C71.4668 3.94003 75.4548 8.35769 75.325 8.8525Z" fill="#455A64"/>
<g opacity="0.1">
<path d="M57.9706 2.2438L65.4788 10.2551C66.8192 10.1293 68.0575 10.0035 69.1719 9.88194L62.2082 2.45347C60.7243 2.35912 59.2443 2.28783 57.9706 2.2438Z" fill="white"/>
<path d="M31.1793 11.1735L31.938 11.9829C32.6986 11.9829 34.0175 11.9556 35.9023 11.9011L31.995 7.73502C31.9352 7.77041 31.8792 7.81259 31.8279 7.86082C31.6687 8.08097 31.311 10.0455 31.1793 11.1735Z" fill="white"/>
<path d="M52.3697 2.16833L60.3534 10.6871C60.9941 10.6388 61.6231 10.5906 62.2363 10.5382L54.3902 2.17882C53.7553 2.17253 53.0713 2.16833 52.3697 2.16833Z" fill="white"/>
<path d="M35.2288 5.90039L40.7007 11.7354L42.6465 11.6578L36.5771 5.17914C36.1113 5.42654 35.6612 5.66766 35.2288 5.90039Z" fill="white"/>
<path d="M63.552 2.54367L70.3093 9.752L70.8242 9.6891L64.1672 2.58771L63.552 2.54367Z" fill="white"/>
<path d="M34.0651 6.53569L38.9965 11.7983L39.5508 11.7794L34.4406 6.32812L34.0651 6.53569Z" fill="white"/>
<path d="M41.1499 2.92101L49.0708 11.3685L49.6211 11.3454L41.5627 2.74908C41.431 2.79731 41.2934 2.85811 41.1499 2.92101Z" fill="white"/>
<path d="M68.9127 3.09296L74.5654 9.12086C74.762 9.08103 74.9114 9.04119 75.0293 9.00345L69.6085 3.22296C69.408 3.17893 69.1761 3.13489 68.9127 3.09296Z" fill="white"/>
</g>
<path d="M68.3068 3.00069C68.2537 3.00069 68.2301 3.07407 68.2754 3.21035C68.5387 3.98612 70.5887 8.37863 71.1017 9.40389C71.1339 9.45803 71.1761 9.50456 71.2258 9.54062C71.2755 9.57668 71.3316 9.6015 71.3906 9.61356L67.7781 10.0329C67.841 10.0053 67.8931 9.95538 67.9257 9.89163C67.9582 9.82789 67.9693 9.75415 67.9569 9.68275C67.9196 9.43954 66.5811 4.27546 66.1585 3.00698C66.1111 2.88874 66.0252 2.79271 65.9168 2.73651C65.846 2.73651 66.5339 2.74909 67.1865 2.82038C67.7545 2.87279 68.3068 3.00069 68.3068 3.00069Z" fill="#263238"/>
<path d="M63.5469 2.54157C63.5469 2.54157 63.48 2.5814 63.4781 2.72188C63.4545 3.93585 63.3267 10.0204 63.4368 10.3537C63.4506 10.3978 63.4683 10.425 63.4899 10.4334L62.8059 10.4921C62.8427 10.4389 62.8645 10.3756 62.8688 10.3097C62.9454 9.28024 63.0142 3.70521 63.0024 2.67365C62.9962 2.61039 62.9738 2.55018 62.9376 2.49963L63.5469 2.54157Z" fill="#263238"/>
<path d="M52.3148 2.41782C52.2342 2.68829 52.1025 10.6305 52.1025 10.8883C52.1025 11.1462 52.3757 11.2049 52.3757 11.2049L48.1421 11.4146C48.1421 11.4146 48.4173 11.3328 48.4644 11.1945C48.5116 11.0561 49.8403 2.4933 49.8403 2.38847C49.8403 2.28364 49.6241 2.1788 49.6241 2.1788H52.5723C52.4607 2.21991 52.3684 2.30559 52.3148 2.41782Z" fill="#263238"/>
<path d="M11.4428 15.35C10.9829 16.1447 7.59635 17.5557 6.33255 17.778C5.53654 17.9163 2.77505 18.1029 2.61388 17.9478C2.45271 17.7926 3.79316 15.8281 4.47322 15.35C5.15327 14.872 8.60071 13.6391 9.65027 13.6916C10.6998 13.744 11.9066 14.5449 11.4428 15.35Z" fill="white"/>
<path d="M2.61247 17.9478C2.77363 18.1029 5.53316 17.9163 6.33114 17.778C7.59691 17.5557 10.9834 16.1447 11.4414 15.3479C11.8993 14.5512 10.6886 13.744 9.64689 13.6916C9.56572 13.6865 9.48434 13.6865 9.40317 13.6916C10.3741 14.0732 10.5726 14.8825 9.98102 15.3437C9.38941 15.805 7.49666 16.8869 6.73996 17.1133C5.98325 17.3398 3.29056 17.7842 3.05667 17.5851C3.0112 17.5278 2.97827 17.4605 2.96025 17.3879C2.94223 17.3154 2.93958 17.2395 2.95249 17.1657C2.69894 17.5725 2.55154 17.8912 2.61247 17.9478Z" fill="#EBEBEB"/>
<g opacity="0.5">
<path d="M49.8691 11.987L49.5802 14.1738L49.4544 15.2703C49.4367 15.4528 49.4171 15.6352 49.4033 15.8218C49.3896 16.0084 49.4033 16.1887 49.4033 16.3732L49.4407 20.7909L49.476 23.0007L49.4918 24.1057V24.6571L49.5311 25.2085L49.6922 27.4037L49.8691 29.6073L49.765 27.4037L49.6451 25.2001L49.6156 24.6508V24.0973L49.6058 22.9944L49.5841 20.7888L49.5134 16.3858C49.5134 16.2034 49.4996 16.0168 49.5134 15.8364C49.5271 15.6561 49.537 15.4716 49.5527 15.2871L49.6569 14.1906L49.8691 11.987Z" fill="#211F96"/>
<path d="M27.1393 12.9892L26.7894 15.1886L26.6165 16.2873L26.5732 16.5619C26.5549 16.6537 26.5444 16.747 26.5418 16.8408C26.5418 17.0274 26.5418 17.2119 26.5418 17.3985C26.5536 18.885 26.5889 20.3695 26.6322 21.856C26.642 22.2271 26.6577 22.5982 26.6754 22.9714C26.6935 23.3455 26.7597 23.7152 26.872 24.0701C27.0685 24.785 27.2808 25.4916 27.5206 26.1919C27.7535 26.8945 28.032 27.5789 28.3539 28.2403L28.4837 28.4856C28.5289 28.5653 28.58 28.6429 28.6271 28.7205C28.6745 28.8004 28.7277 28.8761 28.7863 28.9469L28.8709 29.058C28.9178 29.0864 28.9703 29.1029 29.0242 29.1063C29.376 29.1461 29.7219 29.1503 30.0718 29.1629C32.8588 29.2237 35.6458 29.1964 38.4309 29.1775C41.216 29.1587 44.005 29.1125 46.7901 29.058C49.5751 29.0035 52.3622 28.9217 55.1472 28.8127C56.5388 28.7519 57.9304 28.7037 59.3219 28.5695C59.5002 28.5552 59.677 28.5251 59.8506 28.4794C59.9489 28.4395 60.0079 28.3913 60.0904 28.3515C60.173 28.3116 60.2457 28.2718 60.3243 28.234C60.6388 28.081 60.965 27.9468 61.2795 27.7791C61.5992 27.6156 61.8951 27.4037 62.1581 27.1501C62.3874 26.8654 62.5988 26.5649 62.791 26.2506C63.5772 25.022 64.326 23.7682 65.0748 22.5164C65.8237 21.2647 66.5647 20.0005 67.3017 18.7425C68.0388 17.4845 68.766 16.2139 69.4834 14.9391L69.7507 14.459C69.7723 14.4212 69.792 14.3751 69.8136 14.3332L69.845 14.2703C69.8513 14.2478 69.8546 14.2245 69.8549 14.2011L69.8804 13.9243C69.9099 13.5532 69.9374 13.1821 69.9492 12.811C69.9492 12.7187 69.9492 12.6244 69.9492 12.5321C69.9372 12.4391 69.9182 12.3472 69.8922 12.2575C69.8431 12.0793 69.788 11.9031 69.7291 11.7291C69.6131 11.379 69.4873 11.0309 69.3576 10.6808C69.4886 11.026 69.6098 11.3755 69.7212 11.7291C69.7782 11.9052 69.8333 12.0814 69.8785 12.2596C69.9043 12.3478 69.9227 12.4383 69.9335 12.53C69.9335 12.6223 69.9335 12.7167 69.9335 12.8089C69.9178 13.18 69.8883 13.549 69.8549 13.918L69.8293 14.1969C69.8273 14.2196 69.8234 14.242 69.8175 14.264L69.788 14.3227C69.7664 14.3625 69.7487 14.4003 69.7252 14.4401L69.4559 14.9181C68.7287 16.1761 67.9877 17.4341 67.2447 18.6921C65.7569 21.2081 64.2769 23.7241 62.7241 26.1814C62.534 26.488 62.3266 26.7821 62.1031 27.062C61.8457 27.3057 61.5572 27.509 61.2461 27.6658C60.9356 27.8294 60.6113 27.9636 60.2929 28.1166C60.2123 28.1544 60.1317 28.1942 60.0531 28.2361C59.9744 28.2781 59.8919 28.3347 59.827 28.3577C59.6554 28.404 59.4806 28.4355 59.3042 28.4521C57.9284 28.58 56.525 28.624 55.1335 28.6806C52.3504 28.7834 49.5653 28.8463 46.7802 28.9029C43.9952 28.9595 41.2081 29.014 38.423 29.0475C35.638 29.0811 32.8509 29.1104 30.0659 29.0601C29.7199 29.0475 29.3681 29.0434 29.0281 29.0056C28.995 29.0014 28.9622 28.995 28.9298 28.9867L28.8492 28.8819C28.7924 28.8165 28.7405 28.7464 28.694 28.6722C28.6468 28.5947 28.5977 28.5213 28.5524 28.4416L28.4247 28.2005C28.1022 27.5444 27.8237 26.8648 27.5913 26.1667C27.3489 25.4678 27.1314 24.7634 26.9388 24.0533C26.8262 23.7043 26.76 23.3401 26.7422 22.9714L26.6931 21.8602C26.6381 20.3758 26.5929 18.8892 26.5693 17.4048C26.5693 17.2182 26.5693 17.0316 26.5693 16.8471C26.5707 16.7548 26.5799 16.6629 26.5968 16.5724L26.6381 16.2977L26.8032 15.197L27.1393 12.9892Z" fill="#211F96"/>
<path d="M9.2078 16.7695C9.57149 17.0952 9.95783 17.391 10.3635 17.6543C10.7566 17.9269 11.1693 18.1869 11.5723 18.4511C11.9752 18.7152 12.3899 18.9605 12.8046 19.2059C13.2193 19.4512 13.636 19.6923 14.0605 19.9166C13.6675 19.6357 13.2645 19.3694 12.8616 19.1031L11.6469 18.319L10.4225 17.5495L9.80923 17.1679C9.60148 17.048 9.40064 16.915 9.2078 16.7695Z" fill="#211F96"/>
<path d="M67.8574 21.1159L62.4288 21.2669L57.0021 21.443L46.1488 21.7974L35.2974 22.2021L29.8707 22.4055L24.446 22.632L29.8727 22.481L35.2994 22.3048L46.1547 21.9505L57.006 21.5457L62.4327 21.3423L67.8574 21.1159Z" fill="#211F96"/>
<path d="M68.1783 12.8194L68.3906 12.8299H68.4417C68.4535 12.8299 68.4555 12.8403 68.4633 12.8571C68.4719 12.8923 68.4785 12.928 68.483 12.9641C68.4928 13.1135 68.4928 13.2634 68.483 13.4128C68.483 13.4862 68.483 13.5617 68.4653 13.6225C68.4602 13.6554 68.4523 13.6877 68.4417 13.719H68.426C68.4161 13.719 68.4063 13.719 68.3847 13.719C68.2491 13.7315 68.1056 13.7357 67.966 13.742C67.402 13.7609 66.8359 13.7798 66.2718 13.7903L65.4247 13.8154H65.0001H64.8193C64.8102 13.7975 64.8029 13.7785 64.7977 13.7588C64.7977 13.7253 64.782 13.6917 64.7761 13.6561C64.7583 13.5101 64.7524 13.3628 64.7584 13.2157C64.761 13.142 64.7675 13.0684 64.7781 12.9955C64.7811 12.9665 64.7884 12.9382 64.7997 12.9116C64.8244 12.899 64.851 12.8912 64.8783 12.8886C65.1535 12.8362 65.4385 12.8194 65.7195 12.79C65.4356 12.781 65.1515 12.7887 64.8685 12.8131C64.8258 12.8144 64.7843 12.8281 64.7486 12.8529C64.7214 12.8893 64.7037 12.9327 64.6975 12.9787C64.6828 13.0548 64.673 13.1319 64.668 13.2094C64.6552 13.3629 64.6552 13.5173 64.668 13.6707C64.6717 13.7111 64.6782 13.751 64.6876 13.7903C64.6913 13.8176 64.6999 13.8439 64.713 13.8676C64.7262 13.8914 64.7436 13.9121 64.7643 13.9287C64.7761 13.9385 64.7906 13.9437 64.8056 13.9433H64.837H65.4267L66.2757 13.9308C66.8398 13.9077 67.4059 13.8909 67.9719 13.8469C68.1135 13.8343 68.253 13.8238 68.3965 13.8028C68.4185 13.8001 68.4402 13.7952 68.4613 13.7882C68.4736 13.7848 68.4855 13.7798 68.4967 13.7735C68.508 13.7625 68.5168 13.7489 68.5223 13.7336C68.5365 13.6939 68.5458 13.6523 68.5498 13.6099C68.5537 13.5331 68.5537 13.4561 68.5498 13.3793C68.5469 13.2267 68.5331 13.0746 68.5085 12.9242C68.5014 12.8864 68.4916 12.8493 68.479 12.8131L68.4653 12.7837C68.4653 12.7732 68.4358 12.7649 68.4299 12.767H68.3788L68.1783 12.8194Z" fill="#211F96"/>
<path d="M47.4057 13.3666L47.6179 13.3792H47.671C47.6828 13.3792 47.6848 13.3897 47.6926 13.4065C47.7017 13.4421 47.7076 13.4786 47.7103 13.5155C47.7244 13.6639 47.7277 13.8132 47.7201 13.9621C47.7207 14.0399 47.7167 14.1176 47.7083 14.1949C47.7054 14.2282 47.6975 14.2608 47.6848 14.2914H47.669H47.6278C47.4902 14.306 47.3487 14.3081 47.2071 14.3144C46.6431 14.3333 46.079 14.3522 45.5129 14.3627L44.6658 14.3878H44.2432H44.0624C44.0529 14.3698 44.045 14.3508 44.0388 14.3312C44.0388 14.2998 44.025 14.2662 44.0192 14.2285C44.0014 14.0825 43.9955 13.9352 44.0015 13.7881C44.0036 13.7179 44.0095 13.6479 44.0192 13.5784C44.0236 13.5495 44.0315 13.5213 44.0427 13.4945C44.0427 13.484 44.0899 13.4757 44.1214 13.4694C44.3965 13.4169 44.6815 13.4002 44.9626 13.3708C44.6781 13.3628 44.3933 13.3705 44.1096 13.3939C44.067 13.3955 44.0256 13.4092 43.9897 13.4337C43.9638 13.4707 43.9469 13.5139 43.9405 13.5595C43.9263 13.6358 43.9159 13.7128 43.9091 13.7902C43.8973 13.9444 43.8973 14.0994 43.9091 14.2536C43.9091 14.2914 43.915 14.3312 43.9268 14.3731C43.9351 14.4279 43.9633 14.4769 44.0054 14.5094C44.0171 14.5194 44.0317 14.5246 44.0467 14.5241H44.0781H44.6678L45.5168 14.5115C46.0829 14.4906 46.649 14.4717 47.213 14.4277C47.3565 14.4151 47.4961 14.4046 47.6395 14.3836C47.6611 14.3819 47.6822 14.377 47.7024 14.3689L47.7378 14.3564C47.7488 14.3446 47.758 14.3312 47.7653 14.3165C47.7797 14.2769 47.7883 14.2352 47.7909 14.1928C47.798 14.1162 47.8013 14.0392 47.8007 13.9621C47.7972 13.8095 47.7828 13.6574 47.7575 13.5071C47.752 13.4684 47.7428 13.4305 47.73 13.3939C47.7262 13.3832 47.7209 13.3733 47.7142 13.3645C47.7103 13.3593 47.7052 13.3551 47.6993 13.3526C47.6935 13.35 47.6871 13.3491 47.6808 13.3498H47.6278L47.4057 13.3666Z" fill="#211F96"/>
</g>
<path d="M65.9965 29.8616C65.3086 25.1593 68.3244 20.7525 72.7324 20.0187C77.1405 19.2848 81.2716 22.5019 81.9595 27.2042C82.6474 31.9064 79.6316 36.3133 75.2236 37.0471C70.8155 37.7809 66.6844 34.5639 65.9965 29.8616Z" fill="#263238"/>
<path d="M68.1578 29.5408C67.6336 26.1111 69.8151 22.8775 73.0302 22.3183C76.2453 21.7591 79.2767 24.0861 79.8009 27.5159C80.3251 30.9456 78.1436 34.1793 74.9285 34.7384C71.7133 35.2976 68.682 32.9706 68.1578 29.5408Z" fill="#DBDBDB"/>
<path d="M73.9795 34.3354C70.9759 34.3354 68.541 31.738 68.541 28.5339C68.541 25.3298 70.9759 22.7324 73.9795 22.7324C76.9831 22.7324 79.418 25.3298 79.418 28.5339C79.418 31.738 76.9831 34.3354 73.9795 34.3354Z" fill="#A6A6A6"/>
<path d="M73.1248 27.0787H74.8308C74.255 26.1898 76.2637 23.0951 76.2637 23.0951L75.3655 22.7743C74.7758 23.8687 74.4692 24.1895 73.9778 24.1895C73.4865 24.1895 73.1916 23.8687 72.5863 22.7743L71.69 23.0951C71.69 23.0951 73.7007 26.1898 73.1248 27.0787Z" fill="#DBDBDB"/>
<path d="M74.9774 27.1941L75.5042 28.9259C76.1194 28.0684 79.502 29.1482 79.502 29.1482V28.1376C78.3404 27.8692 77.963 27.6658 77.8116 27.1668C77.6603 26.6678 77.8529 26.2652 78.643 25.3196L78.079 24.5082C78.079 24.5082 75.9464 27.5002 74.9774 27.1941Z" fill="#DBDBDB"/>
<path d="M75.4516 29.102L74.0757 30.1734C75.0329 30.5298 75.1155 34.2975 75.1155 34.2975L76.0117 33.9935C75.8938 32.7355 75.9587 32.2869 76.3557 31.9786C76.7527 31.6704 77.1714 31.7417 78.2602 32.2512L78.8086 31.4293C78.8086 31.4293 75.4732 30.1818 75.4516 29.102Z" fill="#DBDBDB"/>
<path d="M73.8926 30.1734L72.5167 29.102C72.4932 30.1818 69.1597 31.4293 69.1597 31.4293L69.7101 32.2533C70.797 31.7417 71.2156 31.6704 71.6126 31.9786C72.0097 32.2869 72.0745 32.7334 71.9566 33.9935L72.8587 34.2975C72.8587 34.2975 72.9354 30.5298 73.8926 30.1734Z" fill="#DBDBDB"/>
<path d="M72.4557 28.9217L72.9824 27.1941C72.0134 27.5044 69.8711 24.5082 69.8711 24.5082L69.307 25.3196C70.0932 26.2652 70.2897 26.6678 70.1404 27.1668C69.991 27.6658 69.6097 27.8692 68.4481 28.1397V29.1482C68.4481 29.1482 71.8405 28.0621 72.4557 28.9217Z" fill="#DBDBDB"/>
<path d="M72.4187 28.7492C72.284 27.8305 72.8729 26.9693 73.7341 26.8256C74.5953 26.6819 75.4026 27.3102 75.5373 28.2288C75.6721 29.1475 75.0831 30.0087 74.2219 30.1524C73.3608 30.2961 72.5534 29.6679 72.4187 28.7492Z" fill="#DBDBDB"/>
<path d="M14.6833 36.6278C10.4944 34.9899 8.34337 30.0397 9.87877 25.5713C11.4142 21.1028 16.0546 18.8081 20.2435 20.446C24.4324 22.0839 26.5834 27.0341 25.048 31.5026C23.5126 35.971 18.8722 38.2657 14.6833 36.6278Z" fill="#263238"/>
<path d="M11.6507 29.6051C11.0962 26.1808 13.249 22.9253 16.4591 22.3338C19.6691 21.7423 22.7209 24.0388 23.2753 27.4631C23.8298 30.8874 21.677 34.1429 18.467 34.7344C15.2569 35.3258 12.2052 33.0294 11.6507 29.6051Z" fill="#DBDBDB"/>
<path d="M17.4639 34.3354C14.4603 34.3354 12.0254 31.738 12.0254 28.5339C12.0254 25.3298 14.4603 22.7324 17.4639 22.7324C20.4675 22.7324 22.9023 25.3298 22.9023 28.5339C22.9023 31.738 20.4675 34.3354 17.4639 34.3354Z" fill="#A6A6A6"/>
<path d="M16.6092 27.0787H18.3172C17.7413 26.1898 19.75 23.0951 19.75 23.0951L18.8518 22.7743C18.2621 23.8687 17.9555 24.1895 17.4642 24.1895C16.9728 24.1895 16.678 23.8687 16.0726 22.7743L15.1763 23.0951C15.1763 23.0951 17.1851 26.1898 16.6092 27.0787Z" fill="#DBDBDB"/>
<path d="M18.4598 27.1941L18.9865 28.9259C19.6017 28.0684 22.9843 29.1482 22.9843 29.1482L22.9941 28.1376C21.8325 27.8692 21.4552 27.6658 21.3038 27.1668C21.1525 26.6678 21.3451 26.2652 22.1352 25.3196L21.5711 24.5082C21.5711 24.5082 19.4288 27.5002 18.4598 27.1941Z" fill="#DBDBDB"/>
<path d="M18.934 29.102L17.5581 30.1734C18.5134 30.5298 18.5959 34.2975 18.5959 34.2975L19.5 33.9935C19.3801 32.7355 19.445 32.2869 19.842 31.9786C20.239 31.6704 20.6596 31.7417 21.7466 32.2512L22.2949 31.4293C22.2949 31.4293 18.9556 30.1818 18.934 29.102Z" fill="#DBDBDB"/>
<path d="M17.375 30.1734L15.9992 29.102C15.9756 30.1818 12.6421 31.4293 12.6421 31.4293L13.1925 32.2533C14.2794 31.7417 14.698 31.6704 15.0951 31.9786C15.4921 32.2869 15.5569 32.7334 15.439 33.9935L16.3412 34.2975C16.3412 34.2975 16.4178 30.5298 17.375 30.1734Z" fill="#DBDBDB"/>
<path d="M15.9381 28.9217L16.457 27.1941C15.4881 27.5044 13.3457 24.5082 13.3457 24.5082L12.7816 25.3196C13.5678 26.2652 13.7643 26.6678 13.615 27.1668C13.4656 27.6658 13.0843 27.8692 11.9227 28.1397V29.1482C11.9227 29.1482 15.3249 28.0621 15.9381 28.9217Z" fill="#DBDBDB"/>
<path d="M15.8826 28.494C15.8826 28.8258 15.9748 29.1501 16.1476 29.4259C16.3204 29.7017 16.5659 29.9167 16.8532 30.0437C17.1406 30.1706 17.4567 30.2039 17.7617 30.1391C18.0667 30.0744 18.3469 29.9147 18.5668 29.6801C18.7867 29.4455 18.9365 29.1466 18.9971 28.8213C19.0578 28.4959 19.0267 28.1586 18.9077 27.8521C18.7886 27.5457 18.5871 27.2837 18.3285 27.0994C18.07 26.9151 17.766 26.8167 17.455 26.8167C17.0379 26.8167 16.638 26.9934 16.3431 27.308C16.0483 27.6225 15.8826 28.0492 15.8826 28.494Z" fill="#DBDBDB"/>
<path d="M33.009 8.74352C33.3038 9.05802 33.2763 11.8675 33.0621 12.0982C32.8478 12.3288 29.9173 12.5322 29.6874 10.7878C29.4574 9.04334 32.5491 8.25919 33.009 8.74352Z" fill="#211F96"/>
<path d="M22.3282 10.4208H24.7123C30.9095 6.05766 39.416 1.74482 39.416 1.74482L38.0048 1.38C32.8553 4.03857 22.9277 10.1189 22.6741 10.316C22.563 10.3649 22.4469 10.4001 22.3282 10.4208Z" fill="#455A64"/>
<g opacity="0.5">
<path d="M83.5742 22.9064C83.0757 22.0305 82.4666 21.2319 81.764 20.533C81.0625 19.8294 80.2806 19.2229 79.4369 18.7278C77.7343 17.7379 75.8214 17.2325 73.8825 17.2601L73.1592 17.2979L72.7995 17.3147C72.6796 17.3293 72.5597 17.3503 72.4398 17.3671L71.7244 17.4761C71.4885 17.5285 71.2546 17.5956 71.0207 17.6543C70.0817 17.902 69.1868 18.3113 68.3713 18.8662C67.5612 19.4253 66.8377 20.1157 66.227 20.9125C65.6317 21.7155 65.1234 22.5877 64.7116 23.5124C65.1558 22.6102 65.6882 21.7605 66.2997 20.9775C66.9167 20.209 67.6421 19.5476 68.4499 19.0171C70.0675 17.9395 71.9878 17.5013 73.8825 17.4824C74.8329 17.4666 75.7815 17.5757 76.7069 17.8074C77.6324 18.0403 78.5262 18.3989 79.3661 18.8746C80.2096 19.348 80.9935 19.9334 81.6992 20.6169C82.4164 21.2882 83.0469 22.0581 83.5742 22.9064Z" fill="white"/>
<path d="M26.9824 22.9064C26.4839 22.0305 25.8748 21.2319 25.1722 20.533C24.4707 19.8294 23.6888 19.2229 22.8451 18.7278C21.1425 17.7379 19.2296 17.2325 17.2907 17.2601L16.5674 17.2979L16.2077 17.3147C16.0878 17.3293 15.9679 17.3503 15.848 17.3671L15.1326 17.4761C14.8967 17.5285 14.6628 17.5956 14.429 17.6543C13.4899 17.902 12.595 18.3113 11.7795 18.8662C10.9694 19.4253 10.2459 20.1157 9.63517 20.9125C9.03992 21.7155 8.53157 22.5877 8.11979 23.5124C8.56405 22.6102 9.09637 21.7605 9.70789 20.9775C10.3249 20.209 11.0504 19.5476 11.8581 19.0171C13.4757 17.9395 15.396 17.5013 17.2907 17.4824C18.2411 17.4666 19.1897 17.5757 20.1151 17.8074C21.0406 18.0403 21.9344 18.3989 22.7744 18.8746C23.6167 19.3455 24.3999 19.9281 25.1054 20.6085C25.8239 21.2823 26.4551 22.055 26.9824 22.9064Z" fill="white"/>
<path d="M82.4043 8.60716C81.1464 7.55883 79.8688 6.52727 78.5834 5.51458C77.298 4.50189 75.9988 3.50598 74.6525 2.56038C74.4834 2.44507 74.3124 2.33185 74.1375 2.22282C74.051 2.16831 73.9626 2.11589 73.8702 2.06767C73.7758 2.01784 73.677 1.97782 73.5754 1.94816C73.1823 1.82865 72.801 1.72381 72.4118 1.61898C71.6256 1.40931 70.8571 1.21852 70.071 1.05708C69.2818 0.89455 68.4807 0.806847 67.677 0.794993C66.8771 0.776123 66.0771 0.778223 65.2791 0.818059C66.0771 0.818059 66.8771 0.841121 67.6731 0.895635C68.4663 0.927983 69.2554 1.03321 70.0316 1.21013C70.8178 1.39674 71.5883 1.58963 72.3607 1.80139C72.7538 1.90623 73.1351 2.01106 73.5145 2.13686C73.6062 2.16332 73.6951 2.19987 73.7798 2.24589C73.8643 2.29201 73.9508 2.34233 74.0353 2.39685C74.2063 2.50378 74.3734 2.61909 74.5404 2.73231C75.8789 3.65693 77.1742 4.65914 78.4714 5.64038L82.4043 8.60716Z" fill="white"/>
</g>
<path opacity="0.1" d="M19.7484 19.8893C25.9357 21.3989 26.0261 28.8756 26.0261 30.2468C26.0261 30.2468 64.9071 29.3012 65.0683 29.2656C65.198 29.2362 65.1587 22.6905 69.7461 20.1975C67.6863 21.2836 65.0447 23.917 64.0462 27.7623C63.9381 28.1816 58.2756 28.8106 48.5976 29.144C38.9196 29.4773 30.5153 29.2656 28.9075 29.0266C27.2998 28.7875 25.4365 19.8558 19.7484 19.8893Z" fill="#211F96"/>
<path opacity="0.1" d="M0.117446 24.4327C0.201961 24.6969 2.02002 27.0661 2.02985 27.1227C2.03967 27.1794 2.09275 27.8398 2.12616 27.9111C2.15958 27.9824 3.95405 29.6534 4.20956 29.7226C4.46507 29.7918 5.51267 29.8128 5.66204 29.8589C5.81142 29.905 7.62752 31.1798 7.77886 31.249C7.9302 31.3182 8.80287 31.249 9.06034 31.249C9.137 31.249 8.90114 29.601 8.94241 28.104C9.01121 25.4915 10.5148 22.204 13.4453 20.5979C11.8513 20.9607 9.19203 23.2817 8.11888 25.676C7.04573 28.0704 7.3209 28.2466 7.07129 28.5338C6.82167 28.821 5.98635 28.2403 5.60308 28.1375C5.21981 28.0348 3.96781 28.0012 3.48627 27.8985C3.00473 27.7958 2.92807 26.8711 2.59787 26.6657C2.26767 26.4602 0.59309 25.0366 0.117446 24.4327Z" fill="#211F96"/>
<defs>
<linearGradient id="paint0_linear_1414_19785" x1="0" y1="15.6462" x2="90" y2="15.6462" gradientUnits="userSpaceOnUse">
<stop stop-color="#211F96"/>
<stop offset="1" stop-color="#1F9686"/>
</linearGradient>
</defs>
</svg>
