<svg width="82" height="40" viewBox="0 0 82 40" fill="none" xmlns="http://www.w3.org/2000/svg">
  <path
    d="M19.2625 6.82709C19.1423 6.90776 17.661 7.70522 17.9013 10.2221C18.1417 12.7389 19.2625 13.2575 19.2625 13.2575V6.82709Z"
    fill="url(#paint0_linear_1414_19857)" />
  <path
    d="M25.7371 12.0959C25.7371 12.0959 23.1072 13.617 19.2617 13.2575V6.82711C19.2617 6.82711 22.6658 5.94898 25.2287 7.62687C27.3941 9.04432 25.7348 12.0959 25.7348 12.0959H25.7371Z"
    fill="#212121" />
  <path opacity="0.3"
    d="M25.7371 12.0959C25.7371 12.0959 23.1072 13.617 19.2617 13.2575V6.82711C19.2617 6.82711 22.6658 5.94898 25.2287 7.62687C27.3941 9.04432 25.7348 12.0959 25.7348 12.0959H25.7371Z"
    fill="url(#paint1_linear_1414_19857)" />
  <path
    d="M18.1055 4.56839C18.1055 4.56839 22.9863 2.68307 26.4504 5.23678C28.9001 7.04375 29.2537 9.55137 29.2537 9.55137L27.8532 10.8282L18.1055 4.5707V4.56839Z"
    fill="#808080" />
  <path
    d="M14.3942 34.3464L13.1602 33.6757L26.9822 8.34366L34.3241 0.737823L35.3364 1.71044L28.1261 9.1803L14.3942 34.3464Z"
    fill="#212121" />
  <g opacity="0.3">
    <path
      d="M14.3942 34.3464L13.1602 33.6757L26.9822 8.34366L34.3241 0.737823L35.3364 1.71044L28.1261 9.1803L14.3942 34.3464Z"
      fill="url(#paint2_linear_1414_19857)" />
  </g>
  <path
    d="M42.3922 37.8013C41.521 37.8013 40.7075 37.7874 40.005 37.7575C36.3051 37.6031 34.9763 36.3124 33.9109 35.2729C33.7307 35.0977 33.562 34.9341 33.3933 34.7866C32.1823 33.7402 25.7855 19.4758 23.8535 15.1313L25.1384 14.5643C28.2282 21.5133 33.451 32.8644 34.3223 33.7379C34.5141 33.9039 34.7059 34.0905 34.8931 34.2726C35.836 35.1899 36.9013 36.2271 40.0651 36.3585C44.3797 36.5382 51.174 36.1464 52.3849 35.6509C53.6906 35.1139 56.1565 31.8641 57.342 30.3015C59.9626 26.8466 63.1195 21.8705 63.1518 21.8221L64.3397 22.5712C64.3073 22.6219 61.1205 27.6463 58.4628 31.1496C56.4985 33.7379 54.4533 36.3193 52.9211 36.9485C51.5692 37.504 46.381 37.8036 42.3945 37.8036L42.3922 37.8013Z"
    fill="#212121" />
  <g opacity="0.3">
    <path
      d="M42.3922 37.8013C41.521 37.8013 40.7075 37.7874 40.005 37.7575C36.3051 37.6031 34.9763 36.3124 33.9109 35.2729C33.7307 35.0977 33.562 34.9341 33.3933 34.7866C32.1823 33.7402 25.7855 19.4758 23.8535 15.1313L25.1384 14.5643C28.2282 21.5133 33.451 32.8644 34.3223 33.7379C34.5141 33.9039 34.7059 34.0905 34.8931 34.2726C35.836 35.1899 36.9013 36.2271 40.0651 36.3585C44.3797 36.5382 51.174 36.1464 52.3849 35.6509C53.6906 35.1139 56.1565 31.8641 57.342 30.3015C59.9626 26.8466 63.1195 21.8705 63.1518 21.8221L64.3397 22.5712C64.3073 22.6219 61.1205 27.6463 58.4628 31.1496C56.4985 33.7379 54.4533 36.3193 52.9211 36.9485C51.5692 37.504 46.381 37.8036 42.3945 37.8036L42.3922 37.8013Z"
      fill="url(#paint3_linear_1414_19857)" />
  </g>
  <path d="M63.4085 17.805L62.041 18.6668L72.2 34.7L73.5676 33.8381L63.4085 17.805Z" fill="#212121" />
  <path
    d="M67.1315 20.8749C67.1315 20.8749 70.6881 18.9895 77.9654 20.5176C85.2427 22.0457 87.103 27.8307 87.103 27.8307H89.6197C89.6197 27.8307 88.0875 21.4464 79.9343 18.4456C73.0869 15.9241 70.7436 17.6827 68.7191 18.2266C66.6947 18.7729 67.1315 20.8749 67.1315 20.8749Z"
    fill="url(#paint4_linear_1414_19857)" />
  <path
    d="M42.8281 37.4648L46.7013 39.0896C47.1612 39.2833 47.6558 39.3824 48.1549 39.3824H73.9941V36.0681L53.632 36.2755L42.8281 37.4671V37.4648Z"
    fill="#212121" />
  <path
    d="M60.1442 19.349C59.8275 19.3836 48.8619 19.349 48.8619 19.349C48.8619 19.349 48.8273 25.5951 49.2872 25.9753C49.7493 26.3556 50.1376 26.2427 50.1376 26.2427C50.1376 26.2427 50.5628 28.9416 53.4377 29.0822C56.3125 29.2205 57.0567 28.4784 58.0134 28.2663C58.9725 28.0543 63.1138 21.9696 62.9058 21.4211C62.6978 20.8702 61.7387 19.1739 60.1418 19.349H60.1442Z"
    fill="#212121" />
  <path opacity="0.3"
    d="M60.1442 19.349C59.8275 19.3836 48.8619 19.349 48.8619 19.349C48.8619 19.349 48.8273 25.5951 49.2872 25.9753C49.7493 26.3556 50.1376 26.2427 50.1376 26.2427C50.1376 26.2427 50.5628 28.9416 53.4377 29.0822C56.3125 29.2205 57.0567 28.4784 58.0134 28.2663C58.9725 28.0543 63.1138 21.9696 62.9058 21.4211C62.6978 20.8702 61.7387 19.1739 60.1418 19.349H60.1442Z"
    fill="url(#paint5_linear_1414_19857)" />
  <path
    d="M27.7831 8.27449C27.9633 8.15464 32.8857 9.56057 32.8857 9.56057L31.5684 18.2266L33.8517 21.4211L39.0422 19.8192L40.8817 22.6564L40.2208 23.3202L41.1844 25.2954L43.165 23.3202V22.2969H49.2336L60.5297 22.3568L62.5726 24.0093L54.6413 34.0583L49.9292 34.7151L35.6589 30.3867C35.6589 30.3867 32.5922 22.9561 29.8884 19.3375C27.1845 15.719 26.3433 17.5628 26.3456 17.6181L24.7695 13.8705L27.8455 8.57642"
    fill="#212121" />
  <path
    d="M67.092 17.8809C67.2607 18.3995 69.9785 21.3128 69.9785 21.3128L67.092 22.7394L64.4922 19.3352L67.092 17.8809Z"
    fill="#212121" />
  <g opacity="0.3">
    <path d="M63.4085 17.805L62.041 18.6668L72.2 34.7L73.5676 33.8381L63.4085 17.805Z"
      fill="url(#paint6_linear_1414_19857)" />
  </g>
  <path opacity="0.3"
    d="M67.092 17.8809C67.2607 18.3995 69.9785 21.3128 69.9785 21.3128L67.092 22.7394L64.4922 19.3352L67.092 17.8809Z"
    fill="url(#paint7_linear_1414_19857)" />
  <path
    d="M18.6119 35.1391C19.236 32.4767 17.5779 29.8138 14.9084 29.1913C12.2389 28.5688 9.56878 30.2225 8.94461 32.8849C8.32044 35.5473 9.97854 38.2102 12.6481 38.8327C15.3176 39.4552 17.9877 37.8015 18.6119 35.1391Z"
    fill="#212121" />
  <path
    d="M74.6062 20.5176C66.9961 20.5176 60.8281 26.6691 60.8281 34.2588C60.8281 41.8485 66.9961 48 74.6062 48C82.2163 48 88.3843 41.8485 88.3843 34.2588C88.3843 26.6691 82.2163 20.5176 74.6062 20.5176ZM74.6062 44.6995C68.6855 44.6995 63.8879 39.9125 63.8879 34.0099C63.8879 28.1073 68.6878 23.3202 74.6062 23.3202C80.5247 23.3202 85.3246 28.1073 85.3246 34.0099C85.3246 39.9125 80.5247 44.6995 74.6062 44.6995Z"
    fill="url(#paint8_linear_1414_19857)" />
  <path
    d="M79.44 35.1397C80.0642 32.4773 78.4061 29.8144 75.7365 29.1919C73.067 28.5694 70.3969 30.223 69.7727 32.8854C69.1486 35.5478 70.8067 38.2107 73.4762 38.8332C76.1457 39.4557 78.8158 37.8021 79.44 35.1397Z"
    fill="#212121" />
  <path
    d="M42.8281 37.4648L46.7013 39.0896C47.1612 39.2833 47.6558 39.3824 48.1549 39.3824H73.9941V36.0681L53.632 36.2755L42.8281 37.4671V37.4648Z"
    fill="#212121" />
  <path
    d="M54.7997 14.3592C54.7997 14.3592 49.5006 13.836 50.6653 16.1016C51.8301 18.3672 54.2173 19.8192 58.2939 19.8192C62.3705 19.8192 69.4167 19.19 72.5619 17.6182C75.7072 16.0463 75.3582 14.0711 75.2403 12.2111C75.1248 10.3534 73.6689 9.73345 71.5705 10.8259C69.4744 11.9207 69.1486 11.9 66.0958 12.732C62.9043 13.6032 58.1853 14.2462 54.7974 14.3592H54.7997Z"
    fill="#808080" />
  <path
    d="M43.1939 36.3285C44.317 36.2571 45.8238 36.2939 46.9261 36.0658C48.0285 35.8399 49.177 35.5495 49.9258 34.7129C50.6907 33.8555 50.9519 32.9543 51.1252 31.8203C51.2407 31.0667 50.9288 29.9534 50.4989 29.3219C50.1685 28.8356 49.6161 28.5383 49.0453 28.4C48.4745 28.2617 47.8806 28.264 47.2913 28.2663C44.3609 28.2825 41.396 28.3055 38.5604 29.0407C37.391 29.345 36.2124 29.7921 35.3643 30.6518C34.5161 31.5115 34.0817 32.8667 34.5855 33.9615C35.0361 34.9387 36.083 35.4827 37.0906 35.8699C37.0906 35.8699 39.1173 36.5867 43.1916 36.3285H43.1939Z"
    fill="#212121" />
  <g opacity="0.7">
    <path
      d="M43.1939 36.3285C44.317 36.2571 45.8238 36.2939 46.9261 36.0658C48.0285 35.8399 49.177 35.5495 49.9258 34.7129C50.6907 33.8555 50.9519 32.9543 51.1252 31.8203C51.2407 31.0667 50.9288 29.9534 50.4989 29.3219C50.1685 28.8356 49.6161 28.5383 49.0453 28.4C48.4745 28.2617 47.8806 28.264 47.2913 28.2663C44.3609 28.2825 41.396 28.3055 38.5604 29.0407C37.391 29.345 36.2124 29.7921 35.3643 30.6518C34.5161 31.5115 34.0817 32.8667 34.5855 33.9615C35.0361 34.9387 36.083 35.4827 37.0906 35.8699C37.0906 35.8699 39.1173 36.5867 43.1916 36.3285H43.1939Z"
      fill="url(#paint9_linear_1414_19857)" />
  </g>
  <path
    d="M41.3079 32.9223C41.6276 31.5785 40.7946 30.2307 39.4472 29.9118C38.0998 29.5929 36.7483 30.4237 36.4286 31.7675C36.1088 33.1113 36.9419 34.4591 38.2893 34.778C39.6367 35.0969 40.9881 34.2661 41.3079 32.9223Z"
    fill="#212121" />
  <path
    d="M48.472 33.7263C49.5703 32.6309 49.5703 30.8549 48.472 29.7595C47.3737 28.6641 45.5929 28.6641 44.4946 29.7595C43.3962 30.8549 43.3962 32.6309 44.4946 33.7263C45.5929 34.8217 47.3737 34.8217 48.472 33.7263Z"
    fill="#212121" />
  <path
    d="M39.0598 9.97776C38.8842 9.9501 27.3986 7.47475 28.3577 14.8939C28.3577 14.8939 29.1734 18.7706 31.2857 19.25C33.0698 19.6533 46.0921 19.3744 50.0855 19.2799C50.9082 19.2592 51.6686 18.8328 52.0984 18.1344L52.1123 18.1114C52.5652 17.3692 52.6207 14.7787 50.624 13.0754C47.6497 10.5378 41.6389 10.3811 39.0598 9.97776Z"
    fill="url(#paint10_linear_1414_19857)" />
  <path
    d="M6.9627 22.3154L5.92969 20.967C5.92969 20.967 14.2631 16.3943 21.7091 20.967C21.7091 20.967 32.9566 27.5081 27.5559 40.6892L26.2825 40.0369C26.2825 40.0369 26.8857 36.1142 25.6054 30.8039C24.3228 25.4914 20.6252 22.1978 16.2367 21.5571C11.8481 20.9186 6.9627 22.3154 6.9627 22.3154Z"
    fill="url(#paint11_linear_1414_19857)" />
  <path
    d="M13.7781 20.5176C6.16802 20.5176 0 26.6691 0 34.2588C0 41.8485 6.16802 48 13.7781 48C21.3882 48 27.5562 41.8485 27.5562 34.2588C27.5562 26.6691 21.3882 20.5176 13.7781 20.5176ZM13.7781 44.6995C7.85735 44.6995 3.05974 39.9125 3.05974 34.0099C3.05974 28.1073 7.85966 23.3202 13.7781 23.3202C19.6965 23.3202 24.4964 28.1073 24.4964 34.0099C24.4964 39.9125 19.6965 44.6995 13.7781 44.6995Z"
    fill="url(#paint12_linear_1414_19857)" />
  <path opacity="0.3"
    d="M35.1052 9.9547C35.1052 9.9547 30.7998 11.9322 30.6588 13.8268C30.4901 16.0947 30.9986 18.3972 30.9986 18.3972C30.9986 18.3972 27.8857 15.1082 29.2538 12.7228C30.6219 10.3373 34.4928 9.84177 35.1052 9.9547Z"
    fill="url(#paint13_linear_1414_19857)" />
  <path d="M52.5172 38.3737L43.2812 41.1249L43.6007 42.1916L52.8366 39.4404L52.5172 38.3737Z"
    fill="#212121" />
  <path opacity="0.3"
    d="M52.5172 38.3737L43.2812 41.1249L43.6007 42.1916L52.8366 39.4404L52.5172 38.3737Z"
    fill="url(#paint14_linear_1414_19857)" />
  <path
    d="M33.9462 4.11176C35.0846 4.11176 36.0076 3.19131 36.0076 2.05588C36.0076 0.920448 35.0846 0 33.9462 0C32.8077 0 31.8848 0.920448 31.8848 2.05588C31.8848 3.19131 32.8077 4.11176 33.9462 4.11176Z"
    fill="#212121" />
  <path
    d="M35.5749 2.05587C35.5749 2.61825 35.1173 3.0769 34.5511 3.0769C33.9849 3.0769 33.5273 2.62055 33.5273 2.05587C33.5273 1.4912 33.9849 1.03485 34.5511 1.03485C35.1173 1.03485 35.5749 1.4912 35.5749 2.05587Z"
    fill="#212121" />
  <path opacity="0.3" d="M22.455 12.5315L24.5741 8.51883L20.7656 13.0293L22.455 12.5315Z"
    fill="#212121" />
  <defs>
    <linearGradient id="paint0_linear_1414_19857" x1="19.2625" y1="10.0423" x2="17.875" y2="10.0423"
      gradientUnits="userSpaceOnUse">
      <stop stop-color="#211F96" />
      <stop offset="1" stop-color="#1F9686" />
    </linearGradient>
    <linearGradient id="paint1_linear_1414_19857" x1="26.3424" y1="9.95497" x2="19.2617"
      y2="9.95497" gradientUnits="userSpaceOnUse">
      <stop stop-color="#211F96" />
      <stop offset="1" stop-color="#1F9686" />
    </linearGradient>
    <linearGradient id="paint2_linear_1414_19857" x1="35.3364" y1="17.5421" x2="13.1602"
      y2="17.5421" gradientUnits="userSpaceOnUse">
      <stop stop-color="#211F96" />
      <stop offset="1" stop-color="#1F9686" />
    </linearGradient>
    <linearGradient id="paint3_linear_1414_19857" x1="64.3397" y1="26.1839" x2="23.8535"
      y2="26.1839" gradientUnits="userSpaceOnUse">
      <stop stop-color="#211F96" />
      <stop offset="1" stop-color="#1F9686" />
    </linearGradient>
    <linearGradient id="paint4_linear_1414_19857" x1="89.6197" y1="22.4766" x2="67.0918"
      y2="22.4766" gradientUnits="userSpaceOnUse">
      <stop stop-color="#211F96" />
      <stop offset="1" stop-color="#1F9686" />
    </linearGradient>
    <linearGradient id="paint5_linear_1414_19857" x1="62.9133" y1="24.2178" x2="48.8613"
      y2="24.2178" gradientUnits="userSpaceOnUse">
      <stop stop-color="#211F96" />
      <stop offset="1" stop-color="#1F9686" />
    </linearGradient>
    <linearGradient id="paint6_linear_1414_19857" x1="68.488" y1="25.8216" x2="67.1226" y2="26.6867"
      gradientUnits="userSpaceOnUse">
      <stop stop-color="#211F96" />
      <stop offset="1" stop-color="#1F9686" />
    </linearGradient>
    <linearGradient id="paint7_linear_1414_19857" x1="69.9785" y1="20.3102" x2="64.4922"
      y2="20.3102" gradientUnits="userSpaceOnUse">
      <stop stop-color="#211F96" />
      <stop offset="1" stop-color="#1F9686" />
    </linearGradient>
    <linearGradient id="paint8_linear_1414_19857" x1="74.6062" y1="20.5176" x2="74.6062" y2="48"
      gradientUnits="userSpaceOnUse">
      <stop stop-color="#212121" />
      <stop offset="1" stop-color="#878787" />
    </linearGradient>
    <linearGradient id="paint9_linear_1414_19857" x1="51.1494" y1="32.3252" x2="34.3711"
      y2="32.3252" gradientUnits="userSpaceOnUse">
      <stop stop-color="#211F96" />
      <stop offset="1" stop-color="#1F9686" />
    </linearGradient>
    <linearGradient id="paint10_linear_1414_19857" x1="52.3714" y1="14.5108" x2="28.3008"
      y2="14.5108" gradientUnits="userSpaceOnUse">
      <stop stop-color="#211F96" />
      <stop offset="1" stop-color="#1F9686" />
    </linearGradient>
    <linearGradient id="paint11_linear_1414_19857" x1="29.0231" y1="29.812" x2="5.92969" y2="29.812"
      gradientUnits="userSpaceOnUse">
      <stop stop-color="#211F96" />
      <stop offset="1" stop-color="#1F9686" />
    </linearGradient>
    <linearGradient id="paint12_linear_1414_19857" x1="13.7781" y1="20.5176" x2="13.7781" y2="48"
      gradientUnits="userSpaceOnUse">
      <stop stop-color="#212121" />
      <stop offset="1" stop-color="#878787" />
    </linearGradient>
    <linearGradient id="paint13_linear_1414_19857" x1="35.1052" y1="14.1685" x2="28.9062"
      y2="14.1685" gradientUnits="userSpaceOnUse">
      <stop stop-color="#211F96" />
      <stop offset="1" stop-color="#1F9686" />
    </linearGradient>
    <linearGradient id="paint14_linear_1414_19857" x1="52.6769" y1="38.907" x2="43.445" y2="41.6718"
      gradientUnits="userSpaceOnUse">
      <stop stop-color="#211F96" />
      <stop offset="1" stop-color="#1F9686" />
    </linearGradient>
  </defs>
</svg>