<svg width="250" height="200" viewBox="0 0 250 200" fill="none" xmlns="http://www.w3.org/2000/svg">
<g clip-path="url(#clip0_464_28015)">
<g opacity="0.5">
<path d="M125.293 16.8999L149.714 23.5509C149.714 25.3059 149.04 31.7769 147.702 42.9729C146.354 54.1689 138.891 62.8809 125.293 69.0999V16.8999Z" fill="black"/>
</g>
<path d="M124.793 11.5L154.587 19.645C154.587 21.157 153.766 28.762 152.135 42.487C150.504 56.203 141.39 66.877 124.793 74.5C108.197 66.877 99.0832 56.203 97.4519 42.487C95.8205 28.762 95 21.157 95 19.645L124.793 11.5Z" fill="#36B23B"/>
<path d="M124.793 11.5L154.587 19.645C154.587 21.157 153.766 28.762 152.135 42.487C150.504 56.203 141.39 66.877 124.793 74.5C108.197 66.877 99.0832 56.203 97.4519 42.487C95.8205 28.762 95 21.157 95 19.645L124.793 11.5Z" stroke="#2E9933" stroke-width="1.58687"/>
<g opacity="0.4">
<path d="M125.339 16.8999L149.76 23.5509C149.76 25.3059 149.086 31.7769 147.747 42.9729C146.399 54.1689 138.936 62.8809 125.339 69.0999C111.741 62.8809 104.278 54.1689 102.93 42.9729C101.592 31.7769 100.918 25.3059 100.918 23.5509L125.339 16.8999Z" fill="black"/>
<path d="M125.339 16.8999L149.76 23.5509C149.76 25.3059 149.086 31.7769 147.747 42.9729C146.399 54.1689 138.936 62.8809 125.339 69.0999C111.741 62.8809 104.278 54.1689 102.93 42.9729C101.592 31.7769 100.918 25.3059 100.918 23.5509L125.339 16.8999Z" stroke="#27802A" stroke-width="0.793433"/>
</g>
<path d="M117.523 39.002L124.07 45.034L136.569 33.5183" stroke="white" stroke-width="5.4953"/>
<path d="M125 199.369C55.9644 199.369 0 196.084 0 192.033C0 187.982 55.9644 184.698 125 184.698C194.036 184.698 250 187.982 250 192.033C250 196.084 194.036 199.369 125 199.369Z" fill="#999999"/>
<path d="M232.152 168.226H177.905C177.905 168.226 183.845 142.805 205.029 142.805C226.212 142.805 231.224 162.547 232.152 168.226Z" fill="#1F9686"/>
<path opacity="0.2" d="M232.152 168.226H177.905C177.905 168.226 183.845 142.805 205.029 142.805C226.212 142.805 231.224 162.547 232.152 168.226Z" fill="#212121"/>
<path d="M74.707 170.97H20.46C20.46 170.97 26.4001 145.548 47.5835 145.548C68.7669 145.548 73.7789 165.291 74.707 170.97Z" fill="#1F9686"/>
<path opacity="0.2" d="M74.707 170.97H20.46C20.46 170.97 26.4001 145.548 47.5835 145.548C68.7669 145.548 73.7789 165.291 74.707 170.97Z" fill="#212121"/>
<path d="M244.554 121.852C245.717 123.709 247.759 144.125 247.879 144.853C247.999 145.581 249.691 148.686 249.719 149.289C249.746 149.891 250.166 159.086 249.926 159.694C249.38 160.78 248.756 161.825 248.059 162.821C247.759 163.177 240.071 169.82 239.214 169.907C238.357 169.995 230.397 170.055 230.25 169.907C230.102 169.759 229.158 145.198 205.053 145.198C180.949 145.198 181.189 171.276 180.747 171.364C180.305 171.452 72.2966 173.927 72.2966 173.927C72.2966 169.935 71.9854 146.178 48.3178 146.178C32.8998 146.178 25.1089 158.927 24.8414 168.33C24.7322 172.24 25.3873 176.545 25.1689 176.545C24.4537 176.545 22.0242 176.725 21.6038 176.545C21.1834 176.364 16.1441 173.034 15.7292 172.914C15.3143 172.793 12.4043 172.733 11.6945 172.558C10.9848 172.383 5.99469 168.001 5.90735 167.821C5.81999 167.64 5.66708 165.915 5.63979 165.767C5.61249 165.619 0.562332 159.425 0.32756 158.741C0.092804 158.056 0 152.399 0 151.835C0 151.271 9.1722 136.348 11.3178 134.705C13.4635 133.062 28.6795 127.739 33.1564 126.934C37.6333 126.129 62.0925 122.471 62.9825 121.841C63.8724 121.211 105.66 97.1976 112.933 95.4069C118.807 93.9775 186.834 95.9545 190.394 96.1243C193.954 96.294 203.809 98.0848 204.759 98.0848C205.708 98.0848 216.633 98.0301 217.283 98.3258C217.933 98.6215 217.283 101.245 216.453 101.721C215.623 102.198 242.539 118.638 244.554 121.852Z" fill="#1F9686"/>
<path d="M242.997 120.308C242.741 120.544 238.487 120.648 238.04 120.472C237.592 120.297 210.807 102.4 210.785 101.897C210.785 101.634 215.808 101.699 216.42 101.732C217.031 101.765 243.489 119.859 242.997 120.308Z" fill="#455A64"/>
<path d="M213.161 120.023C211.998 123.462 71.2863 129.88 70.5164 128.237C69.9432 127 82.5277 116.863 88.4132 113.561C94.2987 110.259 111.12 100.686 119.418 99.7056C127.717 98.7253 144.478 98.8075 159.11 99.1087C173.622 99.377 190.716 99.733 196.782 102.323C202.083 104.585 214.083 117.29 213.161 120.023Z" fill="#263238"/>
<path d="M209.238 118.013C208.883 119.306 177.812 122.657 141.39 124.355C104.969 126.053 86.9906 126.321 86.5484 126.14C86.1061 125.96 87.7932 116.228 88.4156 115.423C89.038 114.618 115.13 101.223 119.224 100.867C123.319 100.511 145.431 100.467 156.617 100.642C167.804 100.818 191.073 102.165 195.037 103.769C198.52 105.182 209.598 116.721 209.238 118.013Z" fill="#455A64"/>
<g opacity="0.1">
<path d="M161.026 100.752L181.882 121.677C185.605 121.349 189.045 121.02 192.141 120.702L172.797 101.3C168.675 101.053 164.564 100.867 161.026 100.752Z" fill="white"/>
<path d="M86.6109 124.076L88.7184 126.19C90.8312 126.19 94.4947 126.119 99.7305 125.976L88.8767 115.095C88.7107 115.187 88.5551 115.297 88.4126 115.423C87.9704 115.998 86.9767 121.13 86.6109 124.076Z" fill="white"/>
<path d="M145.479 100.555L167.656 122.805C169.436 122.679 171.183 122.553 172.887 122.416L151.092 100.582C149.328 100.566 147.428 100.555 145.479 100.555Z" fill="white"/>
<path d="M97.8484 110.302L113.048 125.543L118.453 125.34L101.594 108.418C100.3 109.065 99.0496 109.694 97.8484 110.302Z" fill="white"/>
<path d="M176.53 101.535L195.3 120.363L196.73 120.199L178.239 101.65L176.53 101.535Z" fill="white"/>
<path d="M94.6215 111.962L108.32 125.708L109.859 125.658L95.6643 111.42L94.6215 111.962Z" fill="white"/>
<path d="M114.309 102.521L136.311 124.585L137.84 124.525L115.455 102.072C115.09 102.198 114.707 102.357 114.309 102.521Z" fill="white"/>
<path d="M191.424 102.97L207.126 118.714C207.672 118.61 208.086 118.506 208.414 118.408L193.356 103.309C192.799 103.194 192.155 103.079 191.424 102.97Z" fill="white"/>
</g>
<path d="M189.742 102.729C189.595 102.729 189.529 102.92 189.655 103.276C190.387 105.302 196.081 116.775 197.506 119.453C197.595 119.595 197.713 119.716 197.851 119.81C197.989 119.905 198.145 119.97 198.309 120.001L188.274 121.096C188.449 121.024 188.593 120.894 188.684 120.727C188.774 120.561 188.805 120.368 188.771 120.182C188.667 119.546 184.949 106.058 183.775 102.745C183.643 102.436 183.405 102.185 183.103 102.039C182.907 102.039 184.818 102.071 186.63 102.258C188.208 102.395 189.742 102.729 189.742 102.729Z" fill="#263238"/>
<path d="M176.512 101.529C176.512 101.529 176.326 101.633 176.321 102C176.255 105.171 175.9 121.064 176.206 121.934C176.244 122.049 176.293 122.121 176.353 122.142L174.453 122.296C174.556 122.157 174.616 121.992 174.628 121.819C174.841 119.13 175.032 104.569 174.999 101.874C174.982 101.709 174.92 101.552 174.819 101.42L176.512 101.529Z" fill="#263238"/>
<path d="M145.324 101.206C145.1 101.913 144.734 122.657 144.734 123.331C144.734 124.004 145.493 124.158 145.493 124.158L133.733 124.705C133.733 124.705 134.497 124.492 134.628 124.13C134.759 123.769 138.45 101.403 138.45 101.13C138.45 100.856 137.85 100.582 137.85 100.582H146.039C145.729 100.689 145.473 100.913 145.324 101.206Z" fill="#263238"/>
<path d="M242.475 124.771C243.916 124.957 247.165 128.341 247.389 129.059C247.613 129.776 248.519 134.595 248.044 135.313C247.569 136.03 245.86 137.81 244.364 137.87C242.868 137.931 235.629 134.475 234.984 133.884C234.34 133.292 233.854 129.661 234.63 128.495C235.405 127.328 240.619 124.535 242.475 124.771Z" fill="#717171"/>
<path d="M234.997 133.884C235.647 134.475 242.892 137.931 244.377 137.871C245.507 137.827 246.779 136.775 247.527 135.959C246.687 136.578 245.67 136.907 244.628 136.896C243.826 136.825 237.045 133.895 236.171 133.095C235.298 132.296 235.265 129.262 235.38 128.714C235.494 128.167 239.873 125.341 239.873 125.341C237.689 126.179 235.161 127.707 234.643 128.49C233.873 129.662 234.348 133.287 234.997 133.884Z" fill="#EBEBEB"/>
<path d="M248.478 151.715C248.877 152.114 249.024 155.138 248.598 155.406C248.173 155.674 245.748 155.642 245.273 155.406C244.798 155.171 243.581 152.903 243.668 152.12C243.756 151.337 248.003 151.238 248.478 151.715Z" fill="white"/>
<path d="M31.7827 134.984C30.5051 137.06 21.0982 140.746 17.5876 141.326C15.3765 141.688 7.70566 142.175 7.25797 141.77C6.81028 141.364 10.5338 136.233 12.4228 134.984C14.3118 133.736 23.888 130.516 26.8035 130.653C29.7189 130.79 33.0712 132.882 31.7827 134.984Z" fill="white"/>
<path d="M7.24925 141.77C7.69695 142.175 15.3623 141.687 17.5789 141.326C21.0949 140.745 30.5019 137.06 31.774 134.979C33.0461 132.898 29.6829 130.789 26.7893 130.653C26.5639 130.639 26.3378 130.639 26.1123 130.653C28.8094 131.649 29.3608 133.763 27.7175 134.968C26.0741 136.173 20.8165 138.999 18.7145 139.59C16.6125 140.181 9.13284 141.342 8.48314 140.822C8.35686 140.673 8.26537 140.497 8.21532 140.307C8.16527 140.118 8.15789 139.92 8.19376 139.727C7.48947 140.789 7.08001 141.622 7.24925 141.77Z" fill="#EBEBEB"/>
<g opacity="0.5">
<path d="M212.437 134.497C212.427 135.768 212.92 136.991 213.807 137.898C214.482 138.594 215.348 139.073 216.296 139.272C217.243 139.472 218.228 139.383 219.125 139.018C220.022 138.653 220.79 138.028 221.331 137.222C221.871 136.417 222.16 135.468 222.16 134.497C222.16 133.526 221.871 132.577 221.331 131.772C220.79 130.966 220.022 130.341 219.125 129.976C218.228 129.611 217.243 129.522 216.296 129.722C215.348 129.921 214.482 130.4 213.807 131.096C212.92 132.003 212.427 133.226 212.437 134.497ZM212.437 134.497C212.446 133.234 212.955 132.027 213.851 131.14C214.29 130.712 214.81 130.375 215.379 130.148C215.948 129.921 216.556 129.81 217.169 129.819C217.781 129.828 218.386 129.958 218.948 130.202C219.511 130.445 220.02 130.798 220.446 131.239C221.081 131.894 221.51 132.721 221.681 133.618C221.853 134.515 221.758 135.443 221.41 136.287C221.061 137.131 220.474 137.854 219.721 138.367C218.968 138.88 218.081 139.161 217.17 139.174C216.553 139.187 215.94 139.077 215.365 138.85C214.791 138.624 214.267 138.285 213.824 137.854C212.937 136.963 212.439 135.756 212.437 134.497Z" fill="#212121"/>
<path d="M232.149 149.004C232.635 147.909 233.077 146.814 233.508 145.746C233.94 144.678 234.349 143.555 234.769 142.46C235.19 141.365 235.567 140.269 235.943 139.13C236.32 137.991 236.691 136.896 237.035 135.762C236.549 136.857 236.107 137.953 235.67 139.048C235.233 140.143 234.829 141.239 234.409 142.334C233.989 143.429 233.612 144.524 233.235 145.663C232.859 146.803 232.476 147.849 232.149 149.004Z" fill="#212121"/>
<path d="M248.84 149.004C246.503 148.96 244.166 148.965 241.83 148.971L234.819 149.048L227.815 149.217C225.478 149.289 223.141 149.371 220.81 149.491C223.147 149.535 225.483 149.535 227.82 149.524L234.83 149.447L241.835 149.283C244.172 149.206 246.509 149.13 248.84 149.004Z" fill="#212121"/>
<path d="M138.523 126.2L137.721 131.912L137.371 134.776C137.322 135.253 137.268 135.729 137.23 136.216C137.191 136.704 137.23 137.175 137.23 137.657L137.333 149.195L137.432 154.968L137.475 157.854V159.294L137.584 160.734L138.032 166.468L138.523 172.224L138.234 166.468L137.901 160.712L137.819 159.277V157.832L137.792 154.951L137.732 149.19L137.535 137.69C137.535 137.213 137.497 136.726 137.535 136.255C137.573 135.784 137.601 135.302 137.644 134.82L137.934 131.956L138.523 126.2Z" fill="#212121"/>
<path d="M75.3804 128.818L74.4085 134.563L73.9281 137.432L73.808 138.15C73.7571 138.389 73.7278 138.633 73.7206 138.878C73.7206 139.366 73.7206 139.847 73.7206 140.335C73.7534 144.218 73.8517 148.095 73.9718 151.978C73.9991 152.947 74.0427 153.916 74.0919 154.891C74.1422 155.868 74.3259 156.834 74.6378 157.761C75.1838 159.628 75.7735 161.474 76.4395 163.303C77.0866 165.138 77.8601 166.926 78.7544 168.653L79.1148 169.294C79.2403 169.502 79.3823 169.705 79.5133 169.907C79.6448 170.116 79.7926 170.314 79.9556 170.499L80.1903 170.789C80.3207 170.863 80.4665 170.906 80.6162 170.915C81.5934 171.019 82.5543 171.03 83.5261 171.063C91.2679 171.221 99.0097 171.15 106.746 171.101C114.482 171.052 122.23 170.931 129.966 170.789C137.702 170.646 145.444 170.433 153.18 170.148C157.046 169.989 160.911 169.863 164.777 169.513C165.272 169.476 165.763 169.397 166.245 169.277C166.518 169.173 166.682 169.047 166.911 168.943C167.141 168.839 167.343 168.735 167.561 168.637C168.435 168.237 169.341 167.886 170.214 167.448C171.102 167.021 171.924 166.468 172.655 165.805C173.292 165.062 173.879 164.277 174.413 163.456C176.597 160.247 178.677 156.972 180.757 153.703C182.837 150.433 184.895 147.131 186.943 143.845C188.99 140.559 191.01 137.241 193.003 133.911L193.745 132.657C193.806 132.558 193.86 132.438 193.92 132.328L194.008 132.164C194.025 132.105 194.034 132.045 194.035 131.983L194.106 131.26C194.188 130.291 194.264 129.322 194.297 128.353C194.297 128.112 194.297 127.865 194.297 127.624C194.264 127.381 194.211 127.141 194.139 126.907C194.002 126.441 193.849 125.981 193.685 125.527C193.363 124.612 193.014 123.703 192.654 122.789C193.017 123.69 193.354 124.603 193.664 125.527C193.822 125.987 193.975 126.447 194.1 126.912C194.172 127.143 194.223 127.379 194.253 127.619C194.253 127.86 194.253 128.106 194.253 128.347C194.21 129.316 194.128 130.28 194.035 131.244L193.964 131.972C193.958 132.032 193.947 132.09 193.931 132.148L193.849 132.301C193.789 132.405 193.74 132.504 193.674 132.608L192.926 133.856C190.906 137.142 188.848 140.428 186.784 143.714C182.651 150.285 178.54 156.857 174.227 163.275C173.699 164.076 173.123 164.844 172.502 165.575C171.787 166.212 170.986 166.743 170.122 167.153C169.259 167.58 168.358 167.93 167.474 168.33C167.25 168.429 167.026 168.533 166.808 168.642C166.589 168.752 166.36 168.899 166.18 168.96C165.703 169.081 165.217 169.163 164.727 169.206C160.906 169.54 157.008 169.655 153.142 169.803C145.411 170.071 137.675 170.236 129.939 170.384C122.202 170.531 114.461 170.674 106.724 170.761C98.9879 170.849 91.2461 170.926 83.5098 170.794C82.5489 170.761 81.5716 170.751 80.6271 170.652C80.5352 170.641 80.4441 170.624 80.3541 170.603L80.1302 170.329C79.9724 170.158 79.8282 169.975 79.6989 169.781C79.5679 169.579 79.4314 169.387 79.3059 169.179L78.951 168.549C78.0551 166.835 77.2816 165.06 76.6361 163.237C75.9627 161.412 75.3585 159.571 74.8235 157.717C74.5106 156.805 74.3268 155.854 74.2775 154.891L74.141 151.989C73.9881 148.111 73.8626 144.229 73.7971 140.351C73.7971 139.864 73.7971 139.376 73.7971 138.895C73.8009 138.654 73.8265 138.413 73.8735 138.177L73.9881 137.46L74.4468 134.585L75.3804 128.818Z" fill="#212121"/>
<path d="M25.5748 138.692C26.5851 139.543 27.6583 140.315 28.7851 141.003C29.877 141.715 31.0235 142.394 32.1428 143.084C33.262 143.774 34.414 144.415 35.566 145.055C36.718 145.696 37.8754 146.326 39.0547 146.912C37.9628 146.178 36.8435 145.483 35.7243 144.787L32.3502 142.739L28.9489 140.729L27.2455 139.732C26.6684 139.419 26.1105 139.072 25.5748 138.692Z" fill="#212121"/>
<path d="M188.484 150.044L173.405 150.439L158.331 150.899L128.183 151.824L98.0399 152.882L82.9658 153.413L67.8972 154.004L82.9713 153.61L98.0453 153.15L128.199 152.224L158.342 151.167L173.416 150.636L188.484 150.044Z" fill="#212121"/>
<path d="M189.382 128.375L189.971 128.402H190.113C190.146 128.402 190.152 128.429 190.173 128.473C190.197 128.565 190.216 128.658 190.228 128.753C190.255 129.143 190.255 129.534 190.228 129.925C190.228 130.116 190.228 130.313 190.179 130.472C190.165 130.558 190.143 130.642 190.113 130.724H190.07C190.042 130.724 190.015 130.724 189.955 130.724C189.578 130.757 189.18 130.768 188.792 130.784C187.225 130.834 185.653 130.883 184.086 130.91L181.733 130.976H180.554H180.051C180.026 130.929 180.006 130.88 179.991 130.828C179.991 130.741 179.948 130.653 179.931 130.56C179.882 130.179 179.865 129.794 179.882 129.41C179.889 129.217 179.907 129.025 179.937 128.835C179.945 128.759 179.965 128.685 179.997 128.616C180.065 128.583 180.139 128.562 180.215 128.555C180.979 128.418 181.771 128.375 182.552 128.298C181.763 128.274 180.974 128.294 180.188 128.358C180.069 128.361 179.954 128.397 179.855 128.462C179.779 128.557 179.73 128.671 179.713 128.791C179.672 128.99 179.645 129.191 179.631 129.393C179.595 129.794 179.595 130.197 179.631 130.598C179.641 130.704 179.659 130.808 179.686 130.91C179.696 130.982 179.72 131.05 179.756 131.112C179.793 131.175 179.841 131.229 179.898 131.272C179.931 131.298 179.972 131.311 180.013 131.31H180.1H181.738L184.097 131.277C185.664 131.217 187.236 131.173 188.809 131.058C189.202 131.025 189.589 130.998 189.988 130.943C190.049 130.936 190.109 130.923 190.168 130.905C190.202 130.896 190.235 130.883 190.266 130.867C190.298 130.838 190.322 130.802 190.337 130.763C190.377 130.659 190.403 130.55 190.414 130.439C190.425 130.239 190.425 130.038 190.414 129.837C190.406 129.438 190.367 129.041 190.299 128.648C190.279 128.55 190.252 128.453 190.217 128.358L190.179 128.281C190.179 128.254 190.097 128.232 190.081 128.238H189.939L189.382 128.375Z" fill="#212121"/>
<path d="M131.676 129.804L132.266 129.837H132.413C132.446 129.837 132.451 129.864 132.473 129.908C132.498 130.001 132.515 130.096 132.522 130.193C132.561 130.58 132.57 130.97 132.549 131.359C132.551 131.562 132.54 131.765 132.517 131.967C132.509 132.054 132.486 132.139 132.451 132.219H132.407H132.293C131.911 132.257 131.518 132.263 131.124 132.279C129.558 132.329 127.991 132.378 126.418 132.405L124.065 132.471H122.891H122.389C122.363 132.424 122.341 132.374 122.323 132.323C122.323 132.241 122.285 132.153 122.269 132.055C122.22 131.674 122.203 131.289 122.22 130.905C122.226 130.721 122.242 130.538 122.269 130.357C122.281 130.281 122.303 130.208 122.334 130.138C122.334 130.11 122.465 130.089 122.553 130.072C123.317 129.935 124.109 129.891 124.89 129.815C124.099 129.794 123.308 129.814 122.52 129.875C122.402 129.879 122.287 129.915 122.187 129.979C122.115 130.076 122.068 130.188 122.051 130.308C122.011 130.507 121.982 130.708 121.963 130.91C121.93 131.313 121.93 131.718 121.963 132.121C121.963 132.219 121.98 132.323 122.012 132.433C122.035 132.576 122.114 132.704 122.231 132.789C122.263 132.815 122.304 132.828 122.345 132.827H122.433H124.071L126.429 132.794C128.002 132.739 129.574 132.69 131.141 132.575C131.539 132.542 131.927 132.515 132.326 132.46C132.385 132.456 132.444 132.443 132.5 132.422L132.599 132.389C132.629 132.358 132.655 132.323 132.675 132.285C132.715 132.181 132.739 132.072 132.746 131.962C132.766 131.762 132.775 131.56 132.773 131.359C132.764 130.961 132.723 130.563 132.653 130.171C132.638 130.07 132.612 129.971 132.577 129.875C132.566 129.847 132.552 129.821 132.533 129.798C132.522 129.785 132.508 129.774 132.492 129.767C132.475 129.76 132.458 129.758 132.44 129.76H132.293L131.676 129.804Z" fill="#212121"/>
</g>
<path d="M183.323 172.888C181.413 160.606 189.79 149.096 202.034 147.179C214.279 145.262 225.754 153.665 227.665 165.947C229.576 178.229 221.199 189.739 208.954 191.656C196.71 193.573 185.234 185.17 183.323 172.888Z" fill="#263238"/>
<path d="M189.326 172.05C187.87 163.092 193.93 154.646 202.861 153.185C211.792 151.725 220.212 157.803 221.668 166.761C223.124 175.719 217.065 184.165 208.134 185.626C199.203 187.087 190.783 181.008 189.326 172.05Z" fill="#DBDBDB"/>
<path d="M205.495 184.573C197.151 184.573 190.388 177.789 190.388 169.42C190.388 161.051 197.151 154.267 205.495 154.267C213.838 154.267 220.602 161.051 220.602 169.42C220.602 177.789 213.838 184.573 205.495 184.573Z" fill="#A6A6A6"/>
<path d="M203.129 165.619H207.868C206.268 163.297 211.848 155.214 211.848 155.214L209.353 154.376C207.715 157.235 206.863 158.073 205.498 158.073C204.133 158.073 203.314 157.235 201.633 154.376L199.143 155.214C199.143 155.214 204.728 163.297 203.129 165.619Z" fill="#DBDBDB"/>
<path d="M208.272 165.92L209.735 170.444C211.444 168.204 220.84 171.024 220.84 171.024V168.385C217.613 167.684 216.565 167.153 216.145 165.849C215.724 164.546 216.259 163.494 218.454 161.025L216.887 158.905C216.887 158.905 210.963 166.72 208.272 165.92Z" fill="#DBDBDB"/>
<path d="M209.593 170.904L205.771 173.702C208.43 174.633 208.659 184.474 208.659 184.474L211.149 183.68C210.821 180.394 211.001 179.222 212.104 178.417C213.207 177.612 214.37 177.799 217.395 179.129L218.918 176.983C218.918 176.983 209.653 173.724 209.593 170.904Z" fill="#DBDBDB"/>
<path d="M205.262 173.702L201.44 170.904C201.374 173.724 192.115 176.983 192.115 176.983L193.644 179.135C196.663 177.799 197.826 177.612 198.929 178.417C200.031 179.222 200.212 180.389 199.884 183.68L202.39 184.474C202.39 184.474 202.603 174.633 205.262 173.702Z" fill="#DBDBDB"/>
<path d="M201.259 170.433L202.723 165.92C200.031 166.731 194.08 158.905 194.08 158.905L192.513 161.025C194.697 163.494 195.243 164.546 194.828 165.849C194.413 167.153 193.354 167.684 190.127 168.39V171.024C190.127 171.024 199.551 168.188 201.259 170.433Z" fill="#DBDBDB"/>
<path d="M201.16 169.982C200.785 167.583 202.421 165.333 204.814 164.958C207.206 164.583 209.448 166.224 209.822 168.623C210.197 171.023 208.561 173.272 206.169 173.647C203.776 174.023 201.534 172.382 201.16 169.982Z" fill="#DBDBDB"/>
<path d="M40.7874 190.561C29.1517 186.283 23.1765 173.353 27.4415 161.682C31.7065 150.01 44.5966 144.017 56.2323 148.295C67.8681 152.573 73.8433 165.503 69.5783 177.174C65.3133 188.845 52.4232 194.839 40.7874 190.561Z" fill="#263238"/>
<path d="M32.362 172.218C30.8218 163.274 36.8017 154.771 45.7185 153.226C54.6353 151.681 63.1124 157.679 64.6526 166.623C66.1928 175.567 60.2129 184.07 51.2961 185.615C42.3793 187.16 33.9022 181.162 32.362 172.218Z" fill="#DBDBDB"/>
<path d="M48.5142 184.573C40.171 184.573 33.4074 177.789 33.4074 169.42C33.4074 161.051 40.171 154.267 48.5142 154.267C56.8575 154.267 63.6211 161.051 63.6211 169.42C63.6211 177.789 56.8575 184.573 48.5142 184.573Z" fill="#A6A6A6"/>
<path d="M46.131 165.619H50.8754C49.2757 163.297 54.8555 155.214 54.8555 155.214L52.3604 154.376C50.7225 157.235 49.8708 158.073 48.5059 158.073C47.141 158.073 46.322 157.235 44.6405 154.376L42.1509 155.214C42.1509 155.214 47.7306 163.297 46.131 165.619Z" fill="#DBDBDB"/>
<path d="M51.2757 165.92L52.7389 170.444C54.4477 168.204 63.8438 171.024 63.8438 171.024L63.8711 168.385C60.6444 167.684 59.5962 167.153 59.1758 165.849C58.7554 164.546 59.2905 163.494 61.4852 161.025L59.9183 158.905C59.9183 158.905 53.9673 166.72 51.2757 165.92Z" fill="#DBDBDB"/>
<path d="M52.5859 170.904L48.7641 173.702C51.4175 174.633 51.6468 184.474 51.6468 184.474L54.1583 183.68C53.8252 180.394 54.0054 179.222 55.1082 178.417C56.2111 177.612 57.3794 177.799 60.3986 179.129L61.9219 176.983C61.9219 176.983 52.6459 173.724 52.5859 170.904Z" fill="#DBDBDB"/>
<path d="M48.2578 173.702L44.4361 170.904C44.3705 173.724 35.111 176.983 35.111 176.983L36.6397 179.135C39.6589 177.799 40.8218 177.612 41.9246 178.417C43.0275 179.222 43.2076 180.389 42.8801 183.68L45.386 184.474C45.386 184.474 45.599 174.633 48.2578 173.702Z" fill="#DBDBDB"/>
<path d="M44.2657 170.433L45.707 165.92C43.0154 166.731 37.0644 158.905 37.0644 158.905L35.4975 161.025C37.6813 163.494 38.2273 164.546 37.8124 165.849C37.3975 167.153 36.3383 167.684 33.1116 168.39V171.024C33.1116 171.024 42.5623 168.188 44.2657 170.433Z" fill="#DBDBDB"/>
<path d="M44.1161 169.316C44.1161 170.182 44.3723 171.029 44.8522 171.75C45.3322 172.47 46.0143 173.032 46.8124 173.363C47.6105 173.695 48.4887 173.782 49.3359 173.613C50.1832 173.444 50.9615 173.026 51.5723 172.414C52.1831 171.801 52.5991 171.02 52.7676 170.17C52.9362 169.321 52.8497 168.44 52.5191 167.639C52.1885 166.839 51.6287 166.154 50.9104 165.673C50.1922 165.192 49.3477 164.935 48.4838 164.935C47.3255 164.935 46.2145 165.396 45.3954 166.218C44.5763 167.039 44.1161 168.154 44.1161 169.316Z" fill="#DBDBDB"/>
<path d="M91.6965 117.728C92.5154 118.55 92.439 125.888 91.8439 126.491C91.2488 127.093 83.1085 127.624 82.4697 123.068C81.8309 118.512 90.4189 116.463 91.6965 117.728Z" fill="#1F9686"/>
<path d="M62.026 122.11H68.6486C85.8628 110.713 109.492 99.4485 109.492 99.4485L105.572 98.4956C91.2679 105.44 63.6912 121.321 62.9869 121.836C62.6781 121.964 62.3557 122.056 62.026 122.11Z" fill="#455A64"/>
<g opacity="0.5">
<path d="M232.16 154.721C230.775 152.433 229.083 150.347 227.132 148.522C225.183 146.684 223.011 145.1 220.668 143.807C215.938 141.222 210.624 139.901 205.239 139.974L203.229 140.072L202.23 140.116C201.897 140.154 201.564 140.209 201.231 140.253L199.244 140.538C198.589 140.674 197.939 140.85 197.289 141.003C194.681 141.65 192.195 142.719 189.93 144.168C187.679 145.629 185.67 147.432 183.973 149.513C182.32 151.611 180.908 153.889 179.764 156.304C180.998 153.947 182.477 151.728 184.175 149.683C185.889 147.676 187.904 145.948 190.148 144.563C194.641 141.748 199.976 140.603 205.239 140.554C207.879 140.513 210.514 140.798 213.084 141.403C215.655 142.011 218.138 142.948 220.471 144.19C222.814 145.427 224.992 146.956 226.952 148.741C228.944 150.495 230.695 152.506 232.16 154.721Z" fill="white"/>
<path d="M74.9648 154.721C73.5801 152.433 71.8881 150.347 69.9365 148.522C67.9878 146.684 65.816 145.1 63.4723 143.807C58.7428 141.222 53.4292 139.901 48.0433 139.974L46.0342 140.072L45.0351 140.116C44.702 140.154 44.369 140.209 44.036 140.253L42.0487 140.538C41.3935 140.674 40.7438 140.85 40.0941 141.003C37.4857 141.65 34.9999 142.719 32.7345 144.168C30.4841 145.629 28.4745 147.432 26.778 149.513C25.1245 151.611 23.7125 153.889 22.5686 156.304C23.8027 153.947 25.2814 151.728 26.98 149.683C28.694 147.676 30.7091 145.948 32.9529 144.563C37.4462 141.748 42.7802 140.603 48.0433 140.554C50.6833 140.513 53.3183 140.798 55.8888 141.403C58.4599 142.011 60.9425 142.948 63.2758 144.19C65.6157 145.42 67.7913 146.942 69.7509 148.719C71.7467 150.479 73.5 152.497 74.9648 154.721Z" fill="white"/>
<path d="M228.91 117.372C225.416 114.634 221.867 111.94 218.297 109.295C214.726 106.65 211.117 104.049 207.377 101.579C206.908 101.277 206.433 100.982 205.947 100.697C205.707 100.555 205.461 100.418 205.204 100.292C204.942 100.162 204.668 100.057 204.385 99.9796C203.294 99.6674 202.234 99.3936 201.153 99.1198C198.969 98.5721 196.835 98.0738 194.651 97.6521C192.459 97.2276 190.233 96.9985 188.001 96.9676C185.779 96.9183 183.557 96.9238 181.34 97.0278C183.557 97.0278 185.779 97.0881 187.99 97.2304C190.193 97.3149 192.385 97.5898 194.542 98.0519C196.726 98.5393 198.866 99.0431 201.011 99.5962C202.103 99.8701 203.162 100.144 204.216 100.472C204.471 100.542 204.718 100.637 204.953 100.757C205.188 100.878 205.428 101.009 205.663 101.152C206.138 101.431 206.602 101.732 207.066 102.028C210.784 104.443 214.382 107.061 217.985 109.623L228.91 117.372Z" fill="white"/>
</g>
<path opacity="0.1" d="M54.8558 146.841C72.0428 150.784 72.2939 170.312 72.2939 173.894C72.2939 173.894 180.297 171.424 180.744 171.331C181.105 171.254 180.995 154.157 193.738 147.646C188.017 150.482 180.679 157.361 177.905 167.404C177.605 168.5 161.876 170.142 134.992 171.013C108.109 171.884 84.7638 171.331 80.2978 170.707C75.8318 170.082 70.656 146.753 54.8558 146.841Z" fill="#212121"/>
<path opacity="0.1" d="M0.329712 158.708C0.564476 159.398 5.61464 165.586 5.64194 165.734C5.66924 165.882 5.81667 167.607 5.90949 167.793C6.0023 167.98 10.9869 172.344 11.6967 172.525C12.4065 172.706 15.3164 172.76 15.7314 172.881C16.1463 173.001 21.191 176.331 21.6114 176.512C22.0318 176.693 24.4559 176.512 25.1711 176.512C25.384 176.512 24.7289 172.207 24.8435 168.297C25.0346 161.474 29.2112 152.887 37.3516 148.692C32.9238 149.639 25.5369 155.702 22.5559 161.956C19.575 168.21 20.3393 168.67 19.6459 169.42C18.9526 170.17 16.6322 168.653 15.5676 168.385C14.503 168.117 11.0252 168.029 9.68755 167.761C8.34994 167.492 8.137 165.077 7.21978 164.54C6.30256 164.004 1.65095 160.285 0.329712 158.708Z" fill="#212121"/>
</g>
<defs>
<clipPath id="clip0_464_28015">
<rect width="250" height="198.868" fill="white" transform="translate(0 0.5)"/>
</clipPath>
</defs>
</svg>
