<svg width="24" height="24" viewBox="0 0 24 24" fill="none" xmlns="http://www.w3.org/2000/svg">
<path d="M12 11.4999C11.337 11.4999 10.7011 11.2365 10.2322 10.7677C9.76339 10.2989 9.5 9.66298 9.5 8.99994C9.5 8.3369 9.76339 7.70101 10.2322 7.23217C10.7011 6.76333 11.337 6.49994 12 6.49994C12.663 6.49994 13.2989 6.76333 13.7678 7.23217C14.2366 7.70101 14.5 8.3369 14.5 8.99994C14.5 9.32824 14.4353 9.65333 14.3097 9.95665C14.1841 10.26 13.9999 10.5356 13.7678 10.7677C13.5356 10.9999 13.26 11.184 12.9567 11.3096C12.6534 11.4353 12.3283 11.4999 12 11.4999ZM12 1.99994C10.1435 1.99994 8.36301 2.73744 7.05025 4.05019C5.7375 5.36295 5 7.14342 5 8.99994C5 14.2499 12 21.9999 12 21.9999C12 21.9999 19 14.2499 19 8.99994C19 7.14342 18.2625 5.36295 16.9497 4.05019C15.637 2.73744 13.8565 1.99994 12 1.99994Z" fill="white"/>
</svg>
