<svg width="14" height="20" viewBox="0 0 14 20" fill="none" xmlns="http://www.w3.org/2000/svg">
<path d="M7 9.49994C6.33696 9.49994 5.70107 9.23655 5.23223 8.76771C4.76339 8.29887 4.5 7.66298 4.5 6.99994C4.5 6.3369 4.76339 5.70101 5.23223 5.23217C5.70107 4.76333 6.33696 4.49994 7 4.49994C7.66304 4.49994 8.29893 4.76333 8.76777 5.23217C9.23661 5.70101 9.5 6.3369 9.5 6.99994C9.5 7.32824 9.43534 7.65333 9.3097 7.95665C9.18406 8.25996 8.99991 8.53556 8.76777 8.76771C8.53562 8.99985 8.26002 9.184 7.95671 9.30964C7.65339 9.43528 7.3283 9.49994 7 9.49994ZM7 -6.10352e-05C5.14348 -6.10352e-05 3.36301 0.737437 2.05025 2.05019C0.737498 3.36295 0 5.14342 0 6.99994C0 12.2499 7 19.9999 7 19.9999C7 19.9999 14 12.2499 14 6.99994C14 5.14342 13.2625 3.36295 11.9497 2.05019C10.637 0.737437 8.85652 -6.10352e-05 7 -6.10352e-05Z" fill="white"/>
</svg>
