<svg width="30" height="30" viewBox="0 0 30 30" fill="none" xmlns="http://www.w3.org/2000/svg">
<path d="M15 4C13.5555 4 12.1251 4.28452 10.7905 4.83733C9.4559 5.39013 8.24327 6.20038 7.22183 7.22183C5.15893 9.28473 4 12.0826 4 15C4 17.9174 5.15893 20.7153 7.22183 22.7782C8.24327 23.7996 9.4559 24.6099 10.7905 25.1627C12.1251 25.7155 13.5555 26 15 26C17.9174 26 20.7153 24.8411 22.7782 22.7782C24.8411 20.7153 26 17.9174 26 15C26 13.5555 25.7155 12.1251 25.1627 10.7905C24.6099 9.4559 23.7996 8.24327 22.7782 7.22183C21.7567 6.20038 20.5441 5.39013 19.2095 4.83733C17.8749 4.28452 16.4445 4 15 4ZM9.577 21.908C10.05 20.918 12.932 19.95 15 19.95C17.068 19.95 19.95 20.918 20.423 21.908C18.927 23.096 17.046 23.8 15 23.8C12.954 23.8 11.073 23.096 9.577 21.908ZM21.996 20.313C20.423 18.399 16.606 17.75 15 17.75C13.394 17.75 9.577 18.399 8.004 20.313C6.882 18.85 6.2 17.002 6.2 15C6.2 10.149 10.149 6.2 15 6.2C19.851 6.2 23.8 10.149 23.8 15C23.8 17.002 23.118 18.85 21.996 20.313ZM15 8.4C12.866 8.4 11.15 10.116 11.15 12.25C11.15 14.384 12.866 16.1 15 16.1C17.134 16.1 18.85 14.384 18.85 12.25C18.85 10.116 17.134 8.4 15 8.4ZM15 13.9C14.5624 13.9 14.1427 13.7262 13.8333 13.4167C13.5238 13.1073 13.35 12.6876 13.35 12.25C13.35 11.8124 13.5238 11.3927 13.8333 11.0833C14.1427 10.7738 14.5624 10.6 15 10.6C15.4376 10.6 15.8573 10.7738 16.1667 11.0833C16.4762 11.3927 16.65 11.8124 16.65 12.25C16.65 12.6876 16.4762 13.1073 16.1667 13.4167C15.8573 13.7262 15.4376 13.9 15 13.9Z" fill="#808080"/>
</svg>
