<svg width="30" height="30" viewBox="0 0 30 30" fill="none" xmlns="http://www.w3.org/2000/svg">
<path d="M15 10.6C16.1994 10.6 17.3497 11.0636 18.1978 11.8887C19.0459 12.7139 19.5224 13.833 19.5224 15C19.5224 16.167 19.0459 17.2861 18.1978 18.1113C17.3497 18.9364 16.1994 19.4 15 19.4C13.8006 19.4 12.6503 18.9364 11.8022 18.1113C10.9541 17.2861 10.4776 16.167 10.4776 15C10.4776 13.833 10.9541 12.7139 11.8022 11.8887C12.6503 11.0636 13.8006 10.6 15 10.6ZM15 12.8C14.4003 12.8 13.8251 13.0318 13.4011 13.4444C12.977 13.8569 12.7388 14.4165 12.7388 15C12.7388 15.5835 12.977 16.1431 13.4011 16.5556C13.8251 16.9682 14.4003 17.2 15 17.2C15.5997 17.2 16.1749 16.9682 16.5989 16.5556C17.023 16.1431 17.2612 15.5835 17.2612 15C17.2612 14.4165 17.023 13.8569 16.5989 13.4444C16.1749 13.0318 15.5997 12.8 15 12.8ZM12.7388 26C12.4561 26 12.2187 25.802 12.1735 25.538L11.7552 22.623C11.0429 22.348 10.4324 21.974 9.84446 21.534L7.02926 22.645C6.78052 22.733 6.47526 22.645 6.33959 22.403L4.07839 18.597C3.93141 18.355 3.99924 18.058 4.21406 17.893L6.59963 16.067L6.52049 15L6.59963 13.9L4.21406 12.107C3.99924 11.942 3.93141 11.645 4.07839 11.403L6.33959 7.597C6.47526 7.355 6.78052 7.256 7.02926 7.355L9.84446 8.455C10.4324 8.026 11.0429 7.652 11.7552 7.377L12.1735 4.462C12.2187 4.198 12.4561 4 12.7388 4H17.2612C17.5439 4 17.7813 4.198 17.8265 4.462L18.2448 7.377C18.9571 7.652 19.5676 8.026 20.1555 8.455L22.9707 7.355C23.2195 7.256 23.5247 7.355 23.6604 7.597L25.9216 11.403C26.0686 11.645 26.0008 11.942 25.7859 12.107L23.4004 13.9L23.4795 15L23.4004 16.1L25.7859 17.893C26.0008 18.058 26.0686 18.355 25.9216 18.597L23.6604 22.403C23.5247 22.645 23.2195 22.744 22.9707 22.645L20.1555 21.545C19.5676 21.974 18.9571 22.348 18.2448 22.623L17.8265 25.538C17.7813 25.802 17.5439 26 17.2612 26H12.7388ZM14.152 6.2L13.7337 9.071C12.377 9.346 11.1786 10.05 10.308 11.029L7.58325 9.885L6.7353 11.315L9.12087 13.02C8.66863 14.307 8.66863 15.704 9.12087 16.98L6.72399 18.696L7.57195 20.126L10.3193 18.982C11.1899 19.95 12.377 20.654 13.7224 20.918L14.1407 23.8H15.8593L16.2776 20.929C17.623 20.654 18.8101 19.95 19.6807 18.982L22.4281 20.126L23.276 18.696L20.8791 16.991C21.3314 15.704 21.3314 14.307 20.8791 13.02L23.2647 11.315L22.4167 9.885L19.692 11.029C18.8214 10.05 17.623 9.346 16.2663 9.082L15.848 6.2H14.152Z" fill="#808080"/>
</svg>
