<svg width="30" height="30" viewBox="0 0 30 30" fill="none" xmlns="http://www.w3.org/2000/svg">
<path d="M17.1054 10.5556H15.4728V16.1111L20.1313 18.9333L20.915 17.5889L17.1054 15.2778V10.5556ZM16.5612 5C13.9632 5 11.4716 6.05357 9.63446 7.92893C7.79737 9.8043 6.76531 12.3478 6.76531 15H3.5L7.8102 19.4778L12.2075 15H8.94218C8.94218 12.9372 9.74489 10.9589 11.1737 9.50028C12.6026 8.04166 14.5405 7.22222 16.5612 7.22222C18.5819 7.22222 20.5199 8.04166 21.9487 9.50028C23.3776 10.9589 24.1803 12.9372 24.1803 15C24.1803 17.0628 23.3776 19.0411 21.9487 20.4997C20.5199 21.9583 18.5819 22.7778 16.5612 22.7778C14.4605 22.7778 12.5558 21.9 11.1844 20.4889L9.63877 22.0667C11.4129 23.8889 13.8401 25 16.5612 25C19.1593 25 21.6509 23.9464 23.488 22.0711C25.3251 20.1957 26.3571 17.6522 26.3571 15C26.3571 12.3478 25.3251 9.8043 23.488 7.92893C21.6509 6.05357 19.1593 5 16.5612 5Z" fill="#808080"/>
</svg>
