<svg width="30" height="30" viewBox="0 0 30 30" fill="none" xmlns="http://www.w3.org/2000/svg">
<path d="M20.7895 18.4889C21.627 18.4889 22.4302 18.8319 23.0224 19.4424C23.6147 20.0529 23.9474 20.881 23.9474 21.7444C23.9474 22.6079 23.6147 23.4359 23.0224 24.0465C22.4302 24.657 21.627 25 20.7895 25C19.4105 25 18.2421 24.0993 17.8105 22.8296H16.5789V20.6593H17.8105C18.2421 19.3896 19.4105 18.4889 20.7895 18.4889ZM20.7895 20.6593C20.5103 20.6593 20.2426 20.7736 20.0452 20.9771C19.8477 21.1806 19.7368 21.4566 19.7368 21.7444C19.7368 22.0322 19.8477 22.3083 20.0452 22.5118C20.2426 22.7153 20.5103 22.8296 20.7895 22.8296C21.0686 22.8296 21.3364 22.7153 21.5338 22.5118C21.7312 22.3083 21.8421 22.0322 21.8421 21.7444C21.8421 21.4566 21.7312 21.1806 21.5338 20.9771C21.3364 20.7736 21.0686 20.6593 20.7895 20.6593ZM20.7895 10.8926C21.1887 10.8926 21.5716 10.7291 21.8539 10.438C22.1361 10.147 22.2947 9.75232 22.2947 9.34075C22.2947 8.48345 21.6211 7.78893 20.7895 7.78893C19.9579 7.78893 19.2842 8.48345 19.2842 9.34075C19.2842 9.75232 19.4428 10.147 19.7251 10.438C20.0074 10.7291 20.3903 10.8926 20.7895 10.8926ZM20.7895 5C21.9062 5 22.9771 5.45733 23.7668 6.27138C24.5564 7.08542 25 8.18951 25 9.34075C25 12.5855 20.7895 17.4037 20.7895 17.4037C20.7895 17.4037 16.5789 12.5855 16.5789 9.34075C16.5789 8.18951 17.0226 7.08542 17.8122 6.27138C18.6018 5.45733 19.6728 5 20.7895 5ZM11.1368 20.6593H12.3684V22.8296H11.1368C10.7053 24.0993 9.53684 25 8.15789 25C7.32037 25 6.51715 24.657 5.92493 24.0465C5.33271 23.4359 5 22.6079 5 21.7444C5 20.3228 5.87368 19.1183 7.10526 18.6734V17.4037H9.21053V18.6734C10.1053 18.9989 10.8211 19.7368 11.1368 20.6593ZM8.15789 20.6593C7.87872 20.6593 7.61098 20.7736 7.41357 20.9771C7.21617 21.1806 7.10526 21.4566 7.10526 21.7444C7.10526 22.0322 7.21617 22.3083 7.41357 22.5118C7.61098 22.7153 7.87872 22.8296 8.15789 22.8296C8.43707 22.8296 8.70481 22.7153 8.90222 22.5118C9.09962 22.3083 9.21053 22.0322 9.21053 21.7444C9.21053 21.4566 9.09962 21.1806 8.90222 20.9771C8.70481 20.7736 8.43707 20.6593 8.15789 20.6593ZM8.15789 5.46663C8.99542 5.46663 9.79864 5.80963 10.3909 6.42016C10.9831 7.0307 11.3158 7.85876 11.3158 8.72219C11.3158 10.1438 10.4421 11.3483 9.21053 11.7933V13.0629H7.10526V11.7933C5.87368 11.3483 5 10.1438 5 8.72219C5 7.85876 5.33271 7.0307 5.92493 6.42016C6.51715 5.80963 7.32037 5.46663 8.15789 5.46663ZM8.15789 7.637C7.87872 7.637 7.61098 7.75134 7.41357 7.95485C7.21617 8.15836 7.10526 8.43438 7.10526 8.72219C7.10526 9.01 7.21617 9.28602 7.41357 9.48954C7.61098 9.69305 7.87872 9.80738 8.15789 9.80738C8.43707 9.80738 8.70481 9.69305 8.90222 9.48954C9.09962 9.28602 9.21053 9.01 9.21053 8.72219C9.21053 8.43438 9.09962 8.15836 8.90222 7.95485C8.70481 7.75134 8.43707 7.637 8.15789 7.637ZM13.4211 22.8296V20.6593H15.5263V22.8296H13.4211ZM9.21053 16.3185H7.10526V14.1481H9.21053V16.3185Z" fill="#808080"/>
</svg>
