<svg width="30" height="30" viewBox="0 0 30 30" fill="none" xmlns="http://www.w3.org/2000/svg">
<path d="M6.71053 5C5.48368 5 4.5 6 4.5 7.22222V22.7778C4.5 23.3671 4.73289 23.9324 5.14745 24.3491C5.562 24.7659 6.12426 25 6.71053 25H22.1842C22.7705 25 23.3327 24.7659 23.7473 24.3491C24.1618 23.9324 24.3947 23.3671 24.3947 22.7778V20.2444C25.0468 19.8556 25.5 19.1556 25.5 18.3333V11.6667C25.5 10.8444 25.0468 10.1444 24.3947 9.75556V7.22222C24.3947 6.63285 24.1618 6.06762 23.7473 5.65087C23.3327 5.23413 22.7705 5 22.1842 5H6.71053ZM6.71053 7.22222H22.1842V9.44444H15.5526C14.9664 9.44444 14.4041 9.67857 13.9896 10.0953C13.575 10.5121 13.3421 11.0773 13.3421 11.6667V18.3333C13.3421 18.9227 13.575 19.4879 13.9896 19.9047C14.4041 20.3214 14.9664 20.5556 15.5526 20.5556H22.1842V22.7778H6.71053V7.22222ZM15.5526 11.6667H23.2895V18.3333H15.5526V11.6667ZM18.8684 13.3333C18.4287 13.3333 18.007 13.5089 17.6961 13.8215C17.3852 14.134 17.2105 14.558 17.2105 15C17.2105 15.442 17.3852 15.866 17.6961 16.1785C18.007 16.4911 18.4287 16.6667 18.8684 16.6667C19.3081 16.6667 19.7298 16.4911 20.0407 16.1785C20.3516 15.866 20.5263 15.442 20.5263 15C20.5263 14.558 20.3516 14.134 20.0407 13.8215C19.7298 13.5089 19.3081 13.3333 18.8684 13.3333Z" fill="#808080"/>
</svg>
