<svg width="30" height="30" viewBox="0 0 30 30" fill="none" xmlns="http://www.w3.org/2000/svg">
<rect width="30" height="30" rx="15" fill="#211F96" fill-opacity="0.3"/>
<path d="M8 12.8295L9.5 8.45739H20.5L22 12.8295M20.5 17.6875C20.1022 17.6875 19.7206 17.534 19.4393 17.2606C19.158 16.9873 19 16.6166 19 16.2301C19 15.8436 19.158 15.4729 19.4393 15.1996C19.7206 14.9263 20.1022 14.7727 20.5 14.7727C20.8978 14.7727 21.2794 14.9263 21.5607 15.1996C21.842 15.4729 22 15.8436 22 16.2301C22 16.6166 21.842 16.9873 21.5607 17.2606C21.2794 17.534 20.8978 17.6875 20.5 17.6875ZM9.5 17.6875C9.10218 17.6875 8.72064 17.534 8.43934 17.2606C8.15804 16.9873 8 16.6166 8 16.2301C8 15.8436 8.15804 15.4729 8.43934 15.1996C8.72064 14.9263 9.10218 14.7727 9.5 14.7727C9.89782 14.7727 10.2794 14.9263 10.5607 15.1996C10.842 15.4729 11 15.8436 11 16.2301C11 16.6166 10.842 16.9873 10.5607 17.2606C10.2794 17.534 9.89782 17.6875 9.5 17.6875ZM21.92 7.97159C21.72 7.40807 21.16 7 20.5 7H9.5C8.84 7 8.28 7.40807 8.08 7.97159L6 13.8011V21.5739C6 21.8315 6.10536 22.0787 6.29289 22.2609C6.48043 22.4431 6.73478 22.5455 7 22.5455H8C8.26522 22.5455 8.51957 22.4431 8.70711 22.2609C8.89464 22.0787 9 21.8315 9 21.5739V20.6023H21V21.5739C21 21.8315 21.1054 22.0787 21.2929 22.2609C21.4804 22.4431 21.7348 22.5455 22 22.5455H23C23.2652 22.5455 23.5196 22.4431 23.7071 22.2609C23.8946 22.0787 24 21.8315 24 21.5739V13.8011L21.92 7.97159Z" fill="#2825B2"/>
</svg>
