<svg width="15" height="17" viewBox="0 0 15 17" fill="none" xmlns="http://www.w3.org/2000/svg">
<path d="M14.9911 3.73214C14.9911 5.2256 13.75 6.44048 12.2243 6.44048C10.6986 6.44048 9.45747 5.2256 9.45747 3.73214C9.45747 2.23869 10.6986 1.02381 12.2243 1.02381C13.75 1.02381 14.9911 2.23869 14.9911 3.73214ZM13.4101 7.8256C13.0148 7.92619 12.6196 7.9881 12.2243 7.9881C9.82901 7.9881 7.87642 6.07679 7.87642 3.73214C7.87642 2.59464 8.33492 1.56548 9.06221 0.799405C8.78552 0.466667 8.35864 0.25 7.87642 0.25C7.00685 0.25 6.29538 0.946429 6.29538 1.79762V2.02202C3.94752 2.70298 2.34276 4.81548 2.34276 7.21429V11.8571L0.761719 13.4048V14.1786H14.9911V13.4048L13.4101 11.8571V7.8256ZM7.87642 16.5C8.7539 16.5 9.45747 15.8113 9.45747 14.9524H6.29538C6.29538 15.8113 7.00685 16.5 7.87642 16.5Z" fill="white"/>
</svg>
